G04*
G04 #@! TF.GenerationSoftware,Altium Limited,Altium Designer,23.7.1 (13)*
G04*
G04 Layer_Physical_Order=1*
G04 Layer_Color=255*
%FSLAX43Y43*%
%MOMM*%
G71*
G04*
G04 #@! TF.SameCoordinates,7FBB53E4-5163-4D6D-B0BA-52333DB4A2EE*
G04*
G04*
G04 #@! TF.FilePolarity,Positive*
G04*
G01*
G75*
%ADD11C,0.508*%
%ADD12C,0.254*%
%ADD20R,3.800X2.030*%
%ADD21R,1.500X1.400*%
%ADD22R,2.030X3.800*%
%ADD23R,1.850X2.150*%
%ADD24O,1.350X0.500*%
%ADD25R,1.400X1.500*%
%ADD26R,1.350X0.400*%
%ADD27R,1.900X1.800*%
%ADD28O,1.950X0.400*%
%ADD29R,0.610X1.270*%
%ADD30R,1.270X0.610*%
%ADD31R,1.150X1.350*%
%ADD32R,1.500X1.600*%
%ADD33R,1.600X1.500*%
G04:AMPARAMS|DCode=34|XSize=0.6mm|YSize=1mm|CornerRadius=0.051mm|HoleSize=0mm|Usage=FLASHONLY|Rotation=90.000|XOffset=0mm|YOffset=0mm|HoleType=Round|Shape=RoundedRectangle|*
%AMROUNDEDRECTD34*
21,1,0.600,0.898,0,0,90.0*
21,1,0.498,1.000,0,0,90.0*
1,1,0.102,0.449,0.249*
1,1,0.102,0.449,-0.249*
1,1,0.102,-0.449,-0.249*
1,1,0.102,-0.449,0.249*
%
%ADD34ROUNDEDRECTD34*%
%ADD35R,1.450X0.600*%
%ADD36R,1.350X0.950*%
%ADD37R,2.790X1.270*%
%ADD38R,0.800X1.250*%
%ADD39R,1.250X0.800*%
%ADD40R,1.150X1.450*%
%ADD41R,1.350X1.000*%
%ADD42R,0.950X1.350*%
G04:AMPARAMS|DCode=43|XSize=1mm|YSize=2.05mm|CornerRadius=0.05mm|HoleSize=0mm|Usage=FLASHONLY|Rotation=180.000|XOffset=0mm|YOffset=0mm|HoleType=Round|Shape=RoundedRectangle|*
%AMROUNDEDRECTD43*
21,1,1.000,1.950,0,0,180.0*
21,1,0.900,2.050,0,0,180.0*
1,1,0.100,-0.450,0.975*
1,1,0.100,0.450,0.975*
1,1,0.100,0.450,-0.975*
1,1,0.100,-0.450,-0.975*
%
%ADD43ROUNDEDRECTD43*%
G04:AMPARAMS|DCode=44|XSize=3.25mm|YSize=2.05mm|CornerRadius=0.051mm|HoleSize=0mm|Usage=FLASHONLY|Rotation=180.000|XOffset=0mm|YOffset=0mm|HoleType=Round|Shape=RoundedRectangle|*
%AMROUNDEDRECTD44*
21,1,3.250,1.948,0,0,180.0*
21,1,3.148,2.050,0,0,180.0*
1,1,0.103,-1.574,0.974*
1,1,0.103,1.574,0.974*
1,1,0.103,1.574,-0.974*
1,1,0.103,-1.574,-0.974*
%
%ADD44ROUNDEDRECTD44*%
%ADD45R,1.600X3.200*%
%ADD46R,1.350X1.550*%
%ADD47R,1.270X2.790*%
%ADD48R,1.200X0.600*%
%ADD49R,1.300X1.100*%
%ADD50R,1.100X1.300*%
%ADD51R,2.100X1.400*%
%ADD52R,1.150X1.000*%
%ADD53R,1.450X1.150*%
%ADD54R,1.400X1.200*%
G04:AMPARAMS|DCode=55|XSize=1.408mm|YSize=0.822mm|CornerRadius=0.411mm|HoleSize=0mm|Usage=FLASHONLY|Rotation=270.000|XOffset=0mm|YOffset=0mm|HoleType=Round|Shape=RoundedRectangle|*
%AMROUNDEDRECTD55*
21,1,1.408,0.000,0,0,270.0*
21,1,0.586,0.822,0,0,270.0*
1,1,0.822,0.000,-0.293*
1,1,0.822,0.000,0.293*
1,1,0.822,0.000,0.293*
1,1,0.822,0.000,-0.293*
%
%ADD55ROUNDEDRECTD55*%
%ADD56R,0.822X1.408*%
%ADD57R,1.200X1.400*%
%ADD58R,1.194X3.708*%
G04:AMPARAMS|DCode=59|XSize=1.1mm|YSize=0.6mm|CornerRadius=0.051mm|HoleSize=0mm|Usage=FLASHONLY|Rotation=180.000|XOffset=0mm|YOffset=0mm|HoleType=Round|Shape=RoundedRectangle|*
%AMROUNDEDRECTD59*
21,1,1.100,0.498,0,0,180.0*
21,1,0.998,0.600,0,0,180.0*
1,1,0.102,-0.499,0.249*
1,1,0.102,0.499,0.249*
1,1,0.102,0.499,-0.249*
1,1,0.102,-0.499,-0.249*
%
%ADD59ROUNDEDRECTD59*%
%ADD60R,1.800X1.000*%
%ADD61R,1.400X1.550*%
%ADD62R,1.550X1.400*%
%ADD63R,1.900X1.575*%
%ADD102C,1.575*%
%ADD109C,3.250*%
%ADD110R,1.390X1.390*%
%ADD111C,1.390*%
%ADD120C,0.305*%
%ADD121C,0.600*%
%ADD122C,1.016*%
%ADD123C,0.229*%
%ADD124C,0.381*%
%ADD125C,0.300*%
%ADD126C,0.762*%
%ADD127C,0.457*%
%ADD128C,0.584*%
G04:AMPARAMS|DCode=129|XSize=1.6mm|YSize=1.6mm|CornerRadius=0.4mm|HoleSize=0mm|Usage=FLASHONLY|Rotation=90.000|XOffset=0mm|YOffset=0mm|HoleType=Round|Shape=RoundedRectangle|*
%AMROUNDEDRECTD129*
21,1,1.600,0.800,0,0,90.0*
21,1,0.800,1.600,0,0,90.0*
1,1,0.800,0.400,0.400*
1,1,0.800,0.400,-0.400*
1,1,0.800,-0.400,-0.400*
1,1,0.800,-0.400,0.400*
%
%ADD129ROUNDEDRECTD129*%
%ADD130C,1.600*%
%ADD131C,1.550*%
%ADD132R,1.550X1.550*%
%ADD133C,2.500*%
%ADD134O,1.250X1.050*%
%ADD135O,1.900X1.200*%
%ADD136R,1.600X1.600*%
%ADD137C,2.000*%
%ADD138R,1.550X1.550*%
G04:AMPARAMS|DCode=139|XSize=1.6mm|YSize=1.6mm|CornerRadius=0.4mm|HoleSize=0mm|Usage=FLASHONLY|Rotation=0.000|XOffset=0mm|YOffset=0mm|HoleType=Round|Shape=RoundedRectangle|*
%AMROUNDEDRECTD139*
21,1,1.600,0.800,0,0,0.0*
21,1,0.800,1.600,0,0,0.0*
1,1,0.800,0.400,-0.400*
1,1,0.800,-0.400,-0.400*
1,1,0.800,-0.400,0.400*
1,1,0.800,0.400,0.400*
%
%ADD139ROUNDEDRECTD139*%
%ADD140C,3.000*%
%ADD141C,0.635*%
%ADD142C,0.610*%
%ADD143C,0.889*%
%ADD144C,0.900*%
%ADD145C,0.600*%
%ADD146C,1.270*%
G36*
X95616Y99678D02*
X96221Y99557D01*
X96805Y99359D01*
X97359Y99086D01*
X97872Y98743D01*
X98336Y98336D01*
X98743Y97872D01*
X99086Y97359D01*
X99359Y96805D01*
X99557Y96221D01*
X99678Y95616D01*
X99717Y95011D01*
X99715Y95000D01*
X99715Y46050D01*
X97546D01*
X97441Y46104D01*
X97385Y46160D01*
X97382Y46167D01*
X97375Y46170D01*
X97352Y46193D01*
X97352Y46193D01*
X97329Y46203D01*
X97296Y46203D01*
X97265Y46215D01*
X90644D01*
X90613Y46203D01*
X90581Y46203D01*
X90557Y46193D01*
X90534Y46170D01*
X90527Y46167D01*
X90524Y46160D01*
X90501Y46137D01*
X90494Y46134D01*
X90491Y46127D01*
X90468Y46104D01*
X90459Y46081D01*
X90459Y46048D01*
X90446Y46017D01*
Y41241D01*
X88087D01*
X87971Y41192D01*
X87922Y41076D01*
Y36675D01*
X85882D01*
Y41381D01*
X85946Y41536D01*
Y41776D01*
X85882Y41931D01*
Y42200D01*
X85834Y42317D01*
X85717Y42365D01*
X82553D01*
Y42788D01*
X81578D01*
X80603D01*
Y42365D01*
X70223D01*
X70107Y42317D01*
X70058Y42200D01*
Y41241D01*
X64554D01*
Y41963D01*
X64145D01*
Y42432D01*
X64232Y42519D01*
X64335Y42698D01*
X64389Y42899D01*
Y43106D01*
X64335Y43306D01*
X64232Y43486D01*
X64085Y43632D01*
X63906Y43736D01*
X63705Y43790D01*
X63498D01*
X63298Y43736D01*
X63118Y43632D01*
X62972Y43486D01*
X62868Y43306D01*
X62814Y43106D01*
Y42899D01*
X62868Y42698D01*
X62972Y42519D01*
X63058Y42432D01*
Y41963D01*
X62649D01*
Y41241D01*
X57917D01*
Y41662D01*
X56463D01*
Y40551D01*
X56257Y40550D01*
X56167Y40640D01*
Y41662D01*
X55828D01*
Y41943D01*
X56000D01*
X56221Y42034D01*
X56391Y42204D01*
X56482Y42425D01*
Y42665D01*
X56391Y42886D01*
X56221Y43056D01*
X56000Y43147D01*
X55760D01*
X55539Y43056D01*
X55369Y42886D01*
X55278Y42665D01*
Y42543D01*
X55165Y42430D01*
X55081Y42304D01*
X55052Y42156D01*
Y41662D01*
X54713D01*
Y40541D01*
X53156Y40533D01*
X53046Y40643D01*
X52825Y40734D01*
X52585D01*
X52364Y40643D01*
X52249Y40528D01*
X51721Y40525D01*
X51631Y40614D01*
Y41713D01*
X50176D01*
Y40516D01*
X49371Y40511D01*
X49281Y40601D01*
Y41713D01*
X47826D01*
Y41605D01*
X45236D01*
X45212Y41646D01*
X45035Y41823D01*
X44818Y41949D01*
X44575Y42013D01*
X44325D01*
X44082Y41949D01*
X43865Y41823D01*
X43688Y41646D01*
X43562Y41429D01*
X43514Y41249D01*
X43498Y41241D01*
X37734D01*
X37617Y41192D01*
X37602Y41178D01*
X37554Y41061D01*
Y25387D01*
X37582Y25319D01*
X37578Y25309D01*
X37555Y25285D01*
X37541Y25253D01*
Y25220D01*
X37529Y25189D01*
Y18238D01*
X37511Y18221D01*
X37471Y18205D01*
X37433Y18196D01*
X37370Y18191D01*
X37354Y18200D01*
X37330Y18202D01*
X37318Y18208D01*
X37318Y18208D01*
X37317Y18207D01*
X37315Y18208D01*
X37312Y18208D01*
X37297Y18217D01*
X37297Y18217D01*
X37288Y18214D01*
X37279Y18217D01*
X37279Y18217D01*
X37279Y18217D01*
X27092Y18203D01*
X26398Y18202D01*
X26398Y18202D01*
X25730Y18201D01*
X24876Y18201D01*
X24876Y18201D01*
X24843Y18201D01*
X24812Y18188D01*
X24812Y18188D01*
X24811Y18188D01*
X24811Y18188D01*
X24799Y18183D01*
X24751Y18174D01*
X24652Y18107D01*
X24625Y18067D01*
X24621Y18063D01*
X24617Y18061D01*
X24615Y18056D01*
X24591Y18033D01*
X24581Y18007D01*
Y18007D01*
X24568Y17977D01*
X24568Y17944D01*
X24556Y17914D01*
X24556Y17896D01*
X24556Y17896D01*
X24556Y17896D01*
Y12497D01*
Y330D01*
X24525Y285D01*
X5000D01*
X4989Y283D01*
X4384Y322D01*
X3779Y443D01*
X3194Y641D01*
X2641Y914D01*
X2128Y1257D01*
X1664Y1664D01*
X1257Y2128D01*
X914Y2641D01*
X641Y3194D01*
X443Y3779D01*
X322Y4384D01*
X290Y4874D01*
X285Y5000D01*
X285Y5000D01*
X285Y5125D01*
Y48545D01*
X298Y48569D01*
X336Y48609D01*
X412Y48643D01*
X413Y48643D01*
X2694Y48659D01*
X3621Y48665D01*
X3624Y48667D01*
X3654Y48657D01*
X3744Y48595D01*
X3772Y48561D01*
X3777Y48549D01*
Y48339D01*
X3845Y47996D01*
X3979Y47672D01*
X4174Y47381D01*
X4422Y47133D01*
X4713Y46939D01*
X5036Y46805D01*
X5380Y46737D01*
X5730D01*
X6073Y46805D01*
X6397Y46939D01*
X6688Y47133D01*
X6935Y47381D01*
X7130Y47672D01*
X7264Y47996D01*
X7332Y48339D01*
Y48572D01*
X7333Y48689D01*
X7452Y48692D01*
X18542Y48768D01*
X21985D01*
X22024Y48785D01*
X22067Y48790D01*
X22139Y48832D01*
X22165Y48866D01*
X22199Y48892D01*
X22241Y48964D01*
X22246Y49007D01*
X22263Y49046D01*
Y50492D01*
X41021D01*
X41021Y50492D01*
X41139Y50515D01*
X41239Y50582D01*
X41330Y50673D01*
X43307D01*
X43404Y50708D01*
X43568Y50829D01*
X43673Y51004D01*
X43703Y51206D01*
X43688Y51308D01*
X43688Y51308D01*
Y51793D01*
X44983D01*
Y51943D01*
X45949D01*
Y51793D01*
X46442D01*
X46455Y51666D01*
X46159Y51369D01*
X46093Y51397D01*
X45855D01*
X45636Y51306D01*
X45468Y51138D01*
X45377Y50919D01*
Y50681D01*
X45468Y50462D01*
X45636Y50294D01*
X45855Y50203D01*
X46093D01*
X46312Y50294D01*
X46480Y50462D01*
X46571Y50681D01*
Y50919D01*
X46543Y50985D01*
X46928Y51370D01*
X46987Y51458D01*
X47008Y51562D01*
Y51793D01*
X47523D01*
Y51943D01*
X48489D01*
Y51793D01*
X50063D01*
Y51943D01*
X51029D01*
Y51793D01*
X52603D01*
Y51943D01*
X53569D01*
Y51793D01*
X55143D01*
Y51793D01*
X55270Y51828D01*
X55285Y51813D01*
X55506Y51722D01*
X55746D01*
X55967Y51813D01*
X56109D01*
Y51793D01*
X57683D01*
Y51943D01*
X58649D01*
Y51793D01*
X60223D01*
Y51943D01*
X61189D01*
Y51793D01*
X62763D01*
Y51943D01*
X63729D01*
Y51793D01*
X65303D01*
Y51943D01*
X66269D01*
Y51793D01*
X67843D01*
Y51943D01*
X68809D01*
Y51793D01*
X70383D01*
Y51943D01*
X71120D01*
Y55398D01*
X71247Y55476D01*
X71300Y55449D01*
X71403Y55270D01*
X71550Y55123D01*
X71729Y55019D01*
X71930Y54966D01*
X72137D01*
X72337Y55019D01*
X72517Y55123D01*
X72663Y55270D01*
X72767Y55449D01*
X72821Y55649D01*
Y55857D01*
X72767Y56057D01*
X72663Y56236D01*
X72517Y56383D01*
X72337Y56487D01*
X72137Y56540D01*
X72119D01*
X71881Y56779D01*
X71930Y56896D01*
X75668D01*
Y56731D01*
X77372D01*
Y56896D01*
X77568D01*
Y56731D01*
X79272D01*
Y56896D01*
X82163D01*
Y56871D01*
X85258D01*
Y58445D01*
X82892D01*
Y59411D01*
X85258D01*
Y60985D01*
X82892D01*
Y61951D01*
X85258D01*
Y63525D01*
X82892D01*
Y64491D01*
X85258D01*
Y66065D01*
X82892D01*
Y67031D01*
X85258D01*
Y68605D01*
X82892D01*
Y69571D01*
X85258D01*
Y71145D01*
X82892D01*
Y72111D01*
X85258D01*
Y73685D01*
X82892D01*
Y74651D01*
X85258D01*
Y76225D01*
X82892D01*
Y77191D01*
X85258D01*
Y78765D01*
X82892D01*
Y79731D01*
X85258D01*
Y81305D01*
X83024D01*
X82931Y81387D01*
X82899Y81419D01*
X82795Y81419D01*
X81407D01*
Y84074D01*
X67259D01*
X67234Y84099D01*
Y84506D01*
X67234D01*
X67238Y84517D01*
X67238Y84517D01*
X67238Y84631D01*
Y85036D01*
X67595D01*
X67696Y84861D01*
X67843Y84714D01*
X68022Y84610D01*
X68222Y84557D01*
X68430D01*
X68630Y84610D01*
X68809Y84714D01*
X68956Y84861D01*
X69060Y85040D01*
X69113Y85240D01*
Y85448D01*
X69060Y85648D01*
X68956Y85827D01*
X68809Y85974D01*
X68630Y86078D01*
X68430Y86131D01*
X68222D01*
X68022Y86078D01*
X67843Y85974D01*
X67696Y85827D01*
X67595Y85652D01*
X67238D01*
Y86171D01*
X64334D01*
Y85342D01*
X63663D01*
Y85722D01*
X61559D01*
Y85362D01*
X59944D01*
X59944Y85362D01*
X59840Y85341D01*
X59752Y85282D01*
X59752Y85282D01*
X58996Y84527D01*
X57667D01*
X57554Y84560D01*
Y84965D01*
X56619D01*
Y85365D01*
X57554D01*
Y85770D01*
X57406D01*
Y86735D01*
X57988D01*
X58044Y86639D01*
X58191Y86492D01*
X58370Y86388D01*
X58570Y86335D01*
X58778D01*
X58978Y86388D01*
X59157Y86492D01*
X59304Y86639D01*
X59408Y86818D01*
X59461Y87018D01*
Y87226D01*
X59408Y87426D01*
X59304Y87605D01*
X59157Y87752D01*
X58978Y87856D01*
X58778Y87909D01*
X58570D01*
X58370Y87856D01*
X58191Y87752D01*
X58044Y87605D01*
X57940Y87426D01*
X57920Y87352D01*
X57406D01*
Y88138D01*
X61087D01*
Y96845D01*
X61204Y96893D01*
X62666Y95432D01*
X62815Y95332D01*
X62992Y95297D01*
X63680D01*
Y94856D01*
X65384D01*
Y96660D01*
X63680D01*
Y96219D01*
X63183D01*
X61810Y97592D01*
X61859Y97710D01*
X63680D01*
Y97269D01*
X65384D01*
Y99073D01*
X63680D01*
Y98632D01*
X61834D01*
X61471Y98996D01*
X61321Y99096D01*
X61145Y99131D01*
X61087D01*
Y99715D01*
X95000D01*
X95011Y99717D01*
X95616Y99678D01*
D02*
G37*
G36*
X5000Y99715D02*
X22098D01*
Y95585D01*
X15320D01*
Y95835D01*
X17089D01*
Y98170D01*
X12984D01*
Y95835D01*
X14398D01*
Y95585D01*
X10618D01*
X10441Y95550D01*
X10292Y95450D01*
X10240Y95398D01*
X10229Y95381D01*
X10179Y95331D01*
X10152Y95266D01*
X10140Y95249D01*
X10136Y95228D01*
X10109Y95163D01*
Y95093D01*
X10105Y95072D01*
X10109Y95052D01*
Y94981D01*
X10136Y94916D01*
X10140Y94896D01*
X10152Y94878D01*
X10179Y94813D01*
X10229Y94763D01*
X10240Y94746D01*
X10258Y94734D01*
X10307Y94685D01*
X10373Y94658D01*
X10390Y94646D01*
X10410Y94642D01*
X10475Y94615D01*
X10546D01*
X10566Y94611D01*
X10587Y94615D01*
X10657D01*
X10722Y94642D01*
X10743Y94646D01*
X10760Y94658D01*
X10772Y94662D01*
X22098D01*
Y93882D01*
X11552D01*
X11508Y93874D01*
X11467D01*
X11429Y93858D01*
X11376Y93847D01*
X11330Y93817D01*
X11301Y93805D01*
X11278Y93782D01*
X11226Y93747D01*
X10168Y92689D01*
X10068Y92539D01*
X10033Y92363D01*
Y91587D01*
X8612D01*
Y87483D01*
X10946D01*
Y90205D01*
X10955Y90250D01*
Y92172D01*
X11743Y92960D01*
X22098D01*
Y89919D01*
X21971Y89835D01*
X21909Y89860D01*
X21729D01*
X21562Y89792D01*
X21464Y89693D01*
X21329Y89693D01*
X21253Y89770D01*
X21253Y89807D01*
Y90505D01*
X19758D01*
Y89770D01*
X20558D01*
X20560Y89766D01*
X20580Y89643D01*
X20516Y89600D01*
X20382Y89466D01*
X20323Y89378D01*
X20302Y89274D01*
Y88952D01*
X18011D01*
Y87378D01*
X21105D01*
Y87893D01*
X22098D01*
Y85897D01*
X21105D01*
Y86412D01*
X18011D01*
Y84838D01*
X21105D01*
Y85353D01*
X22098D01*
Y83357D01*
X21105D01*
Y83872D01*
X18011D01*
Y82298D01*
X21105D01*
Y82813D01*
X22098D01*
Y80817D01*
X21105D01*
Y81332D01*
X18011D01*
Y79758D01*
X21105D01*
Y80273D01*
X22098D01*
Y78277D01*
X21105D01*
Y78792D01*
X18011D01*
Y77218D01*
X21105D01*
Y77733D01*
X22098D01*
Y75710D01*
X21105D01*
Y76252D01*
X18011D01*
Y74678D01*
X21105D01*
Y75166D01*
X22098D01*
Y73197D01*
X21105D01*
Y73712D01*
X18011D01*
Y72138D01*
X21105D01*
Y72653D01*
X22098D01*
Y70630D01*
X21105D01*
Y71172D01*
X18011D01*
Y69598D01*
X21105D01*
Y70086D01*
X22098D01*
Y68117D01*
X21105D01*
Y68632D01*
X18011D01*
Y67058D01*
X21105D01*
Y67573D01*
X22098D01*
Y65550D01*
X21105D01*
Y66092D01*
X18011D01*
Y64518D01*
X21105D01*
Y65006D01*
X22098D01*
Y63037D01*
X21105D01*
Y63552D01*
X18011D01*
Y61978D01*
X21105D01*
Y62493D01*
X22098D01*
Y60470D01*
X21105D01*
Y61012D01*
X18011D01*
Y59438D01*
X21105D01*
Y59926D01*
X22098D01*
Y57957D01*
X21105D01*
Y58472D01*
X18011D01*
Y56898D01*
X21105D01*
Y57413D01*
X22098D01*
Y51870D01*
X2363D01*
X2288Y51946D01*
X2122Y52014D01*
X1942D01*
X1776Y51946D01*
X1648Y51818D01*
X1580Y51652D01*
Y51472D01*
X1648Y51306D01*
X1650Y51304D01*
X1606Y51169D01*
X1550Y51160D01*
X1526Y51184D01*
X1360Y51252D01*
X1180D01*
X1014Y51184D01*
X886Y51056D01*
X818Y50890D01*
Y50710D01*
X886Y50544D01*
X1014Y50416D01*
X1180Y50348D01*
X1360D01*
X1526Y50416D01*
X1601Y50492D01*
X22098D01*
Y49079D01*
X22094Y49070D01*
Y49047D01*
X22083Y49028D01*
X22082Y49018D01*
X22073Y49003D01*
X22065Y48997D01*
X22054Y48977D01*
X22034Y48966D01*
X22028Y48958D01*
X22013Y48949D01*
X22003Y48948D01*
X21984Y48937D01*
X21961D01*
X21952Y48933D01*
X18542D01*
X18541Y48933D01*
X18541Y48933D01*
X7451Y48856D01*
X7450Y48856D01*
X7449Y48856D01*
X7330Y48854D01*
X7296Y48872D01*
X7264Y49032D01*
X7130Y49356D01*
X6935Y49647D01*
X6688Y49895D01*
X6397Y50089D01*
X6073Y50223D01*
X5730Y50291D01*
X5380D01*
X5036Y50223D01*
X4713Y50089D01*
X4422Y49895D01*
X4174Y49647D01*
X3979Y49356D01*
X3845Y49032D01*
X3819Y48898D01*
X3802Y48874D01*
X3797Y48868D01*
X3675Y48823D01*
X3642Y48821D01*
X3620Y48830D01*
X2693Y48824D01*
X412Y48808D01*
X340Y48839D01*
X296Y48884D01*
X285Y48906D01*
Y95000D01*
X283Y95011D01*
X322Y95616D01*
X443Y96221D01*
X641Y96805D01*
X914Y97359D01*
X1257Y97872D01*
X1664Y98336D01*
X2128Y98743D01*
X2641Y99086D01*
X3194Y99359D01*
X3779Y99557D01*
X4384Y99678D01*
X4989Y99717D01*
X5000Y99715D01*
D02*
G37*
G36*
X85717Y36510D02*
X70223D01*
Y36587D01*
Y42200D01*
X80603D01*
Y41688D01*
X81578D01*
Y41488D01*
D01*
Y41688D01*
X82553D01*
Y42200D01*
X85717D01*
Y36510D01*
D02*
G37*
G36*
X97289Y46041D02*
X97311Y45987D01*
X97334Y45964D01*
X97347Y45934D01*
X97377Y45921D01*
X97400Y45898D01*
X97433D01*
X97463Y45885D01*
X99715D01*
Y41241D01*
X98343D01*
Y41735D01*
X97028D01*
X95713D01*
Y40445D01*
X93221D01*
Y41010D01*
X92246D01*
X91271D01*
Y40445D01*
X90827D01*
X90771Y40468D01*
X90634Y40605D01*
X90611Y40661D01*
Y41076D01*
Y46017D01*
X90621Y46041D01*
X90644Y46050D01*
X97265D01*
X97289Y46041D01*
D02*
G37*
G36*
X52953Y40503D02*
X53040Y40416D01*
X53040Y40416D01*
X53040Y40415D01*
X53098Y40392D01*
X53156Y40368D01*
X53157Y40368D01*
X53157Y40368D01*
X54623Y40376D01*
X54713Y40286D01*
Y39907D01*
X56167D01*
Y40285D01*
X56250Y40376D01*
X56370Y40379D01*
X56463Y40287D01*
Y39907D01*
X56742D01*
Y39333D01*
X56715D01*
X56558Y39302D01*
X56425Y39213D01*
X56336Y39080D01*
X56305Y38923D01*
X56336Y38766D01*
X56425Y38632D01*
Y38563D01*
X56336Y38430D01*
X56305Y38273D01*
X56336Y38116D01*
X56386Y38040D01*
X56414Y37948D01*
X56386Y37855D01*
X56336Y37780D01*
X56305Y37623D01*
X56336Y37466D01*
X56425Y37332D01*
Y37263D01*
X56336Y37130D01*
X56305Y36973D01*
X56336Y36816D01*
X56425Y36682D01*
X56558Y36594D01*
X56687Y36568D01*
Y36255D01*
X56659Y36244D01*
X56492Y36076D01*
X56401Y35857D01*
Y35619D01*
X56492Y35400D01*
X56659Y35232D01*
X56879Y35141D01*
X57116D01*
X57336Y35232D01*
X57504Y35400D01*
X57595Y35619D01*
Y35857D01*
X57504Y36076D01*
X57336Y36244D01*
X57308Y36255D01*
Y36562D01*
X57565D01*
X57722Y36594D01*
X57855Y36682D01*
X57944Y36816D01*
X57975Y36973D01*
X57944Y37130D01*
X57904Y37189D01*
X57972Y37316D01*
X58392D01*
X58446Y37262D01*
Y35946D01*
X58298D01*
Y35096D01*
X60498D01*
Y35946D01*
X60350D01*
Y37698D01*
X58882D01*
X58737Y37843D01*
X58637Y37909D01*
X58624Y37912D01*
X58597Y38047D01*
X58612Y38057D01*
X58845Y38290D01*
X60114D01*
Y40095D01*
X58409D01*
Y38726D01*
X58266Y38583D01*
X57975D01*
X57907Y38710D01*
X57944Y38766D01*
X57975Y38923D01*
X57944Y39080D01*
X57855Y39213D01*
X57722Y39302D01*
X57565Y39333D01*
X57519D01*
Y39907D01*
X57917D01*
Y40396D01*
X60562D01*
X60630Y40328D01*
Y40095D01*
X60409D01*
Y38290D01*
X60579D01*
X60691Y38229D01*
Y33490D01*
X60689D01*
X60469Y33399D01*
X60425Y33355D01*
X60301Y33342D01*
X60257Y33360D01*
X60217Y33387D01*
X60200Y33384D01*
X60185Y33390D01*
X59378D01*
X59347Y33377D01*
X59314Y33377D01*
X59291Y33354D01*
X59261Y33342D01*
X59248Y33311D01*
X59225Y33288D01*
X59200Y33225D01*
X53634D01*
X53625Y33248D01*
X53615Y33295D01*
X53602Y33304D01*
X53595Y33319D01*
X53550Y33338D01*
X53510Y33365D01*
X53392Y33387D01*
X53376Y33384D01*
X53361Y33390D01*
X52811D01*
X52796Y33384D01*
X52780Y33387D01*
X52662Y33365D01*
X52622Y33338D01*
X52577Y33319D01*
X52570Y33304D01*
X52557Y33295D01*
X52547Y33248D01*
X52538Y33225D01*
X47404D01*
X47287Y33244D01*
Y34413D01*
X49476D01*
X49489Y34380D01*
X49659Y34210D01*
X49880Y34119D01*
X50120D01*
X50341Y34210D01*
X50511Y34380D01*
X50602Y34601D01*
Y34841D01*
X50511Y35062D01*
X50341Y35232D01*
X50120Y35324D01*
X49880D01*
X49659Y35232D01*
X49489Y35062D01*
X49476Y35029D01*
X47287D01*
Y40517D01*
X47826D01*
Y40409D01*
X49241D01*
X49255Y40394D01*
X49255Y40394D01*
X49255Y40394D01*
X49313Y40370D01*
X49372Y40346D01*
X49372Y40347D01*
X49372Y40346D01*
X50129Y40351D01*
X50238Y40270D01*
X50256Y40246D01*
Y39943D01*
X49693D01*
Y40090D01*
X48843D01*
Y38991D01*
Y37891D01*
X49573D01*
X49623Y37764D01*
X49489Y37629D01*
X49398Y37408D01*
Y37168D01*
X49489Y36947D01*
X49659Y36777D01*
X49880Y36686D01*
X50120D01*
X50341Y36777D01*
X50511Y36947D01*
X50602Y37168D01*
Y37408D01*
X50511Y37629D01*
X50341Y37799D01*
X50308Y37812D01*
Y38038D01*
X51019D01*
X51091Y37990D01*
X51209Y37966D01*
X51209Y37966D01*
X51698D01*
X51758Y37854D01*
X51747Y37837D01*
X51744Y37823D01*
X52690D01*
Y37423D01*
X51744D01*
X51747Y37408D01*
X51868Y37226D01*
X51925Y37188D01*
X51886Y37130D01*
X51855Y36973D01*
X51873Y36881D01*
Y36090D01*
X51598Y35815D01*
X51531Y35715D01*
X51508Y35597D01*
X51508Y35597D01*
Y34953D01*
X50939D01*
Y33498D01*
X52693D01*
Y34953D01*
X52124D01*
Y35469D01*
X52399Y35744D01*
X52399Y35744D01*
X52466Y35844D01*
X52489Y35962D01*
X52489Y35962D01*
Y36562D01*
X53115D01*
X53231Y36585D01*
X53358Y36510D01*
Y35957D01*
X53358Y35957D01*
X53382Y35839D01*
X53448Y35739D01*
X53500Y35687D01*
Y34953D01*
X53479D01*
Y34680D01*
X53473Y34650D01*
X53479Y34620D01*
Y33498D01*
X55233D01*
Y34953D01*
X54116D01*
Y35815D01*
X54116Y35815D01*
X54093Y35933D01*
X54026Y36033D01*
X53975Y36084D01*
Y36573D01*
X54715D01*
Y37948D01*
Y39323D01*
X53690D01*
Y39264D01*
X53563Y39191D01*
X53481Y39207D01*
X53481Y39207D01*
X53409D01*
X53405Y39213D01*
X53272Y39302D01*
X53115Y39333D01*
X52265D01*
X52108Y39302D01*
X51975Y39213D01*
X51886Y39080D01*
X51855Y38923D01*
X51886Y38766D01*
X51923Y38710D01*
X51855Y38583D01*
X51446D01*
Y39943D01*
X51344D01*
Y40409D01*
X51604D01*
X51605Y40408D01*
X51605Y40408D01*
X51605Y40407D01*
X51664Y40384D01*
X51722Y40360D01*
X51722Y40360D01*
X51722Y40360D01*
X52250Y40363D01*
X52308Y40387D01*
X52365Y40411D01*
X52457Y40503D01*
X52598Y40561D01*
X52812D01*
X52953Y40503D01*
D02*
G37*
G36*
X99715Y25204D02*
X99588Y25179D01*
X99559Y25248D01*
X99439Y25406D01*
X99281Y25526D01*
X99098Y25602D01*
X98902Y25628D01*
X98202D01*
X98006Y25602D01*
X97823Y25526D01*
X97665Y25406D01*
X97545Y25248D01*
X97469Y25065D01*
X97446Y24890D01*
X97437Y24869D01*
Y24181D01*
X97310Y24156D01*
X97285Y24217D01*
X97115Y24387D01*
X96894Y24478D01*
X96654D01*
X96433Y24387D01*
X96263Y24217D01*
X96172Y23996D01*
Y23756D01*
X96263Y23535D01*
X96433Y23365D01*
X96466Y23352D01*
Y22606D01*
X96466Y22606D01*
X96489Y22488D01*
X96499Y22473D01*
X96499Y22473D01*
X96499Y22473D01*
Y22346D01*
X96164D01*
X96121Y22473D01*
X96135Y22484D01*
X96244Y22626D01*
X96312Y22791D01*
X96335Y22968D01*
X96312Y23144D01*
X96244Y23309D01*
X96135Y23451D01*
X95994Y23559D01*
X95829Y23627D01*
X95652Y23651D01*
X95452D01*
X95275Y23627D01*
X95110Y23559D01*
X94969Y23451D01*
X94860Y23309D01*
X94792Y23144D01*
X94769Y22968D01*
X94792Y22791D01*
X94860Y22626D01*
X94969Y22484D01*
X94987Y22471D01*
X94944Y22344D01*
X94634D01*
X94432Y22545D01*
Y22593D01*
X94364Y22759D01*
X94236Y22886D01*
X94070Y22955D01*
X93890D01*
X93724Y22886D01*
X93596Y22759D01*
X93528Y22593D01*
Y22413D01*
X93596Y22247D01*
X93724Y22119D01*
X93890Y22051D01*
X93938D01*
X94242Y21747D01*
X94242Y21747D01*
X94355Y21671D01*
X94489Y21644D01*
X94489Y21644D01*
X95050D01*
Y21044D01*
X91332D01*
X91214Y21161D01*
Y22525D01*
X89560D01*
Y20671D01*
X90716D01*
X90914Y20472D01*
X90928Y20399D01*
X90908Y20315D01*
X90872Y20291D01*
X90872Y20291D01*
X90716Y20135D01*
X89556D01*
Y18281D01*
X89624D01*
Y17037D01*
X89632Y17018D01*
X89629Y16996D01*
X89656Y16961D01*
X89658Y16956D01*
X89599Y16832D01*
X89596Y16829D01*
X88539D01*
Y16546D01*
X87946D01*
X87859Y16632D01*
X87680Y16736D01*
X87480Y16789D01*
X87272D01*
X87072Y16736D01*
X86893Y16632D01*
X86746Y16485D01*
X86642Y16306D01*
X86631Y16265D01*
X86589Y16244D01*
X81445D01*
Y22098D01*
X81397Y22215D01*
X81280Y22263D01*
X60452D01*
X60335Y22215D01*
X60287Y22098D01*
Y21098D01*
X60292Y21086D01*
X60289Y21072D01*
X60316Y21029D01*
X60335Y20981D01*
X60348Y20976D01*
X60355Y20965D01*
X60375Y20950D01*
X60380Y20949D01*
X60382Y20945D01*
X60441Y20934D01*
X60498Y20920D01*
X60502Y20923D01*
X60507Y20922D01*
X60575Y20937D01*
X60677Y20828D01*
X60643Y20699D01*
Y20449D01*
X60677Y20320D01*
X60575Y20211D01*
X60507Y20226D01*
X60502Y20225D01*
X60498Y20228D01*
X60441Y20214D01*
X60382Y20203D01*
X60380Y20199D01*
X60375Y20198D01*
X60355Y20183D01*
X60348Y20172D01*
X60335Y20167D01*
X60316Y20119D01*
X60289Y20076D01*
X60292Y20062D01*
X60287Y20050D01*
Y16519D01*
X60335Y16402D01*
X60452Y16354D01*
X73454D01*
Y10160D01*
X73502Y10043D01*
X73619Y9995D01*
X89916D01*
X89998Y10029D01*
X90081Y9995D01*
X97028D01*
X97145Y10043D01*
X97193Y10160D01*
Y16865D01*
X97186Y16881D01*
X97190Y16897D01*
X97179Y16913D01*
X97161Y16942D01*
X97145Y16982D01*
X97196Y17096D01*
X97197Y17097D01*
X97285Y17185D01*
X97310Y17246D01*
X97437Y17220D01*
Y16519D01*
X97446Y16497D01*
X97469Y16323D01*
X97545Y16140D01*
X97665Y15982D01*
X97823Y15862D01*
X98006Y15786D01*
X98202Y15760D01*
X98902D01*
X99098Y15786D01*
X99281Y15862D01*
X99439Y15982D01*
X99559Y16140D01*
X99588Y16209D01*
X99715Y16184D01*
Y5000D01*
X99717Y4989D01*
X99678Y4384D01*
X99557Y3779D01*
X99359Y3194D01*
X99086Y2641D01*
X98743Y2128D01*
X98336Y1664D01*
X97872Y1257D01*
X97359Y914D01*
X96805Y641D01*
X96221Y443D01*
X95616Y322D01*
X95183Y294D01*
X57847D01*
X57823Y330D01*
Y1905D01*
Y19807D01*
X57805Y19851D01*
X57795Y19898D01*
X57781Y19908D01*
X57775Y19923D01*
X57730Y19942D01*
X57690Y19969D01*
X57563Y19994D01*
X57477Y20075D01*
X57466Y20110D01*
X57478Y20174D01*
Y20974D01*
X57466Y21038D01*
X57477Y21073D01*
X57563Y21154D01*
X57690Y21179D01*
X57730Y21206D01*
X57775Y21225D01*
X57781Y21240D01*
X57795Y21250D01*
X57805Y21297D01*
X57823Y21341D01*
Y25222D01*
X57775Y25339D01*
X57658Y25387D01*
X43014D01*
X42923Y25350D01*
X42912Y25361D01*
X42879Y25375D01*
X42846D01*
X42816Y25387D01*
X37733D01*
X37719Y25420D01*
Y41028D01*
X37733Y41062D01*
X37766Y41076D01*
X43498D01*
Y40936D01*
X43562Y40693D01*
X43688Y40476D01*
X43865Y40299D01*
X44082Y40174D01*
X44325Y40109D01*
X44575D01*
X44818Y40174D01*
X45035Y40299D01*
X45212Y40476D01*
X45236Y40517D01*
X47122D01*
Y35029D01*
X43327D01*
Y36393D01*
X39223D01*
Y34058D01*
X43327D01*
Y34413D01*
X47122D01*
Y33225D01*
X47122D01*
X47111Y33197D01*
X47079Y33152D01*
X47030Y33117D01*
X46585D01*
Y29012D01*
X48919D01*
Y31931D01*
X50939D01*
Y31748D01*
X51272D01*
Y29121D01*
X50889D01*
Y27267D01*
X52743D01*
Y29121D01*
X52360D01*
Y31748D01*
X52693D01*
Y33170D01*
X52699Y33184D01*
Y33198D01*
X52712Y33200D01*
X52726Y33209D01*
X52811Y33225D01*
X53357D01*
X53473Y33188D01*
Y33184D01*
X53479Y33170D01*
Y31748D01*
X53812D01*
Y28951D01*
X53787Y28936D01*
X53614Y28763D01*
X53492Y28552D01*
X53429Y28316D01*
Y28072D01*
X53492Y27836D01*
X53614Y27625D01*
X53787Y27452D01*
X53998Y27330D01*
X54234Y27267D01*
X54478D01*
X54714Y27330D01*
X54925Y27452D01*
X55098Y27625D01*
X55220Y27836D01*
X55283Y28072D01*
Y28316D01*
X55220Y28552D01*
X55098Y28763D01*
X54925Y28936D01*
X54900Y28951D01*
Y31748D01*
X55233D01*
Y31931D01*
X56999D01*
Y29012D01*
X59333D01*
Y33117D01*
X59333D01*
X59378Y33225D01*
X59410D01*
X59411Y33225D01*
X60147D01*
X60236Y33129D01*
X60233Y33065D01*
X60211Y33012D01*
Y32774D01*
X60302Y32555D01*
X60469Y32387D01*
X60689Y32296D01*
X60926D01*
X61146Y32387D01*
X61314Y32555D01*
X61325Y32582D01*
X61759D01*
Y32438D01*
X63564D01*
Y34142D01*
X61759D01*
Y33204D01*
X61325D01*
X61314Y33231D01*
X61146Y33399D01*
X60926Y33490D01*
X60856D01*
Y38229D01*
X60856Y38229D01*
X60968Y38290D01*
X62114D01*
Y38648D01*
X62649D01*
Y38259D01*
X64554D01*
Y40063D01*
X64554D01*
Y40159D01*
X64554D01*
Y41076D01*
X70058D01*
Y36510D01*
X70107Y36394D01*
X70223Y36345D01*
X85717D01*
X85834Y36394D01*
X85882Y36510D01*
X88087D01*
Y41043D01*
X88097Y41066D01*
X88120Y41076D01*
X90446D01*
Y40661D01*
X90459Y40631D01*
Y40598D01*
X90482Y40542D01*
X90505Y40519D01*
X90518Y40489D01*
X90654Y40352D01*
X90685Y40339D01*
X90708Y40316D01*
X90764Y40293D01*
X90797D01*
X90827Y40280D01*
X91271D01*
Y39910D01*
X92246D01*
X93221D01*
Y40280D01*
X95713D01*
X95734Y40289D01*
X95861Y40204D01*
Y39883D01*
X98195D01*
Y41076D01*
X99715D01*
Y25204D01*
D02*
G37*
G36*
X62649Y40159D02*
X62649D01*
Y40063D01*
X62649D01*
Y39736D01*
X62114D01*
Y40095D01*
X60795D01*
Y40396D01*
X60630Y40561D01*
X57917D01*
Y41076D01*
X62649D01*
Y40159D01*
D02*
G37*
G36*
X57658Y21341D02*
X57531Y21316D01*
X57526Y21327D01*
X57414Y21473D01*
X57268Y21585D01*
X57098Y21656D01*
X56915Y21680D01*
X56715D01*
Y20574D01*
Y19468D01*
X56915D01*
X57098Y19492D01*
X57268Y19563D01*
X57414Y19675D01*
X57526Y19821D01*
X57531Y19832D01*
X57658Y19807D01*
Y1905D01*
Y330D01*
X42000D01*
Y2093D01*
Y7928D01*
X42052Y7963D01*
X47010D01*
X47127Y8011D01*
X47175Y8128D01*
Y13602D01*
X47127Y13718D01*
X47111Y13734D01*
X46994Y13783D01*
X44932D01*
Y15367D01*
X44884Y15484D01*
X44567Y15801D01*
X44450Y15849D01*
X44141D01*
X44133Y15846D01*
X44125Y15849D01*
X44076Y15822D01*
X44025Y15801D01*
X43915Y15794D01*
X43856Y15860D01*
X43901Y15928D01*
X43916Y16007D01*
Y16505D01*
X43901Y16584D01*
X43873Y16626D01*
X43904Y16718D01*
X43929Y16753D01*
X45263D01*
Y15950D01*
X45974D01*
X46685D01*
Y16753D01*
X49390D01*
Y16728D01*
X51194D01*
Y18432D01*
X50745D01*
Y19046D01*
X51194D01*
Y20750D01*
X49390D01*
Y20351D01*
X48096D01*
Y20750D01*
X46392D01*
Y19246D01*
X48096D01*
Y19445D01*
X49390D01*
Y19046D01*
X49839D01*
Y18432D01*
X49390D01*
Y17659D01*
X43725D01*
X43709Y17662D01*
X43014D01*
Y18558D01*
X43626D01*
Y19558D01*
Y20558D01*
X43014D01*
Y21098D01*
X43626D01*
Y22098D01*
Y23098D01*
X43014D01*
Y25222D01*
X57658D01*
Y21341D01*
D02*
G37*
G36*
X81280Y16079D02*
X86589D01*
Y15898D01*
X86642Y15698D01*
X86746Y15519D01*
X86893Y15372D01*
X87072Y15268D01*
X87272Y15215D01*
X87480D01*
X87680Y15268D01*
X87859Y15372D01*
X87946Y15458D01*
X88539D01*
Y15175D01*
X89793D01*
Y15175D01*
X89916Y15164D01*
Y10160D01*
X73619D01*
Y16519D01*
X60452D01*
Y20050D01*
X60472Y20065D01*
X60639Y20029D01*
X60715Y19899D01*
X60920Y19694D01*
X61170Y19549D01*
X61395Y19489D01*
Y20574D01*
Y21659D01*
X61170Y21599D01*
X60920Y21454D01*
X60715Y21249D01*
X60639Y21119D01*
X60472Y21083D01*
X60452Y21098D01*
Y22098D01*
X81280D01*
Y16079D01*
D02*
G37*
G36*
X94902Y19594D02*
X95877D01*
Y19194D01*
X94902D01*
Y18894D01*
X94902D01*
X94925Y18847D01*
X94860Y18762D01*
X94792Y18597D01*
X94769Y18420D01*
X94792Y18244D01*
X94860Y18079D01*
X94969Y17937D01*
X95110Y17829D01*
X95275Y17761D01*
X95452Y17737D01*
X95652D01*
X95829Y17761D01*
X95994Y17829D01*
X96135Y17937D01*
X96244Y18079D01*
X96312Y18244D01*
X96335Y18420D01*
X96312Y18597D01*
X96244Y18762D01*
X96230Y18780D01*
X96286Y18894D01*
X96449D01*
X96466Y18874D01*
X96466Y18874D01*
Y18050D01*
X96433Y18037D01*
X96263Y17867D01*
X96172Y17646D01*
Y17406D01*
X96263Y17185D01*
X96433Y17015D01*
X96654Y16924D01*
X96894D01*
X96922Y16935D01*
X97028Y16865D01*
Y10160D01*
X90081D01*
Y15027D01*
X90466D01*
Y16002D01*
Y16977D01*
X89891D01*
X89789Y17037D01*
Y18281D01*
X91210D01*
Y19641D01*
X91264Y19694D01*
X94902D01*
Y19594D01*
D02*
G37*
G36*
X37279Y18053D02*
X37279Y18053D01*
X37296Y18044D01*
X37299Y18044D01*
X37299Y18044D01*
X37303Y18043D01*
X37303Y18043D01*
X37303Y18043D01*
X37314Y18038D01*
X37317Y18035D01*
X37339Y18026D01*
X37402Y17941D01*
X37415Y17911D01*
X37417Y17896D01*
Y16399D01*
X37371Y16352D01*
X37290Y16314D01*
X37269Y16323D01*
X37142Y16323D01*
X37142Y16323D01*
X37142Y16323D01*
X36275D01*
X36235Y16306D01*
X36192Y16300D01*
X36120Y16259D01*
X36094Y16225D01*
X36060Y16199D01*
X36019Y16127D01*
X36013Y16084D01*
X35996Y16044D01*
Y13429D01*
X35948D01*
X35727Y13338D01*
X35557Y13168D01*
X35466Y12947D01*
Y12707D01*
X35557Y12486D01*
X35727Y12316D01*
X35948Y12225D01*
X35996D01*
Y10045D01*
X34036D01*
X33919Y9996D01*
X33871Y9880D01*
Y9236D01*
X33919Y9119D01*
X34036Y9071D01*
X34080D01*
Y8201D01*
X34036D01*
X33919Y8153D01*
X33871Y8036D01*
Y330D01*
X24721D01*
Y12497D01*
Y17896D01*
X24721Y17914D01*
X24733Y17944D01*
Y17944D01*
X24744Y17970D01*
X24843Y18036D01*
X24876Y18036D01*
X24876Y18036D01*
X25730Y18036D01*
X26398Y18037D01*
X26398Y18037D01*
X27092Y18038D01*
X37279Y18053D01*
X37279Y18053D01*
D02*
G37*
G36*
X42849Y25209D02*
Y23098D01*
X42226D01*
Y22098D01*
Y21098D01*
X42849D01*
Y20558D01*
X42226D01*
Y19558D01*
Y18558D01*
X42849D01*
Y17662D01*
X42711D01*
X42632Y17647D01*
X42564Y17602D01*
X42519Y17534D01*
X42504Y17455D01*
Y16957D01*
X42519Y16878D01*
X42556Y16823D01*
X42458Y16758D01*
X42380Y16642D01*
X42353Y16505D01*
Y16456D01*
X43210D01*
Y16056D01*
X42353D01*
Y16007D01*
X42363Y15956D01*
X42339Y15918D01*
X42255Y15849D01*
X42052D01*
X42000Y15965D01*
Y16125D01*
X41987Y16155D01*
X41987Y16188D01*
X41978Y16211D01*
X41955Y16234D01*
X41952Y16242D01*
X41945Y16244D01*
X41922Y16267D01*
X41919Y16274D01*
X41912Y16277D01*
X41889Y16300D01*
X41865Y16310D01*
X41833Y16310D01*
X41802Y16323D01*
X41542D01*
X41453Y16413D01*
X41467Y17764D01*
X39221D01*
Y18010D01*
X37694D01*
Y25189D01*
X37707Y25222D01*
X42816D01*
X42849Y25209D01*
D02*
G37*
G36*
X44767Y15367D02*
Y13618D01*
X46994D01*
X47010Y13602D01*
Y8128D01*
X42052D01*
Y15684D01*
X42279D01*
X42359Y15586D01*
X42353Y15555D01*
Y15506D01*
X43210D01*
X44067D01*
Y15555D01*
X44061Y15586D01*
X44141Y15684D01*
X44450D01*
X44767Y15367D01*
D02*
G37*
G36*
X41825Y16148D02*
X41835Y16125D01*
Y15884D01*
Y7928D01*
Y2093D01*
Y330D01*
X39154D01*
Y9880D01*
X36194D01*
X36171Y9889D01*
X36161Y9913D01*
Y12225D01*
X36188D01*
X36409Y12316D01*
X36579Y12486D01*
X36592Y12519D01*
X36994D01*
Y12052D01*
X38698D01*
Y13557D01*
X36994D01*
Y13135D01*
X36592D01*
X36579Y13168D01*
X36409Y13338D01*
X36188Y13429D01*
X36161D01*
Y16044D01*
X36203Y16116D01*
X36275Y16158D01*
X37142D01*
X37269Y16158D01*
X37269Y16040D01*
Y15358D01*
X39369D01*
Y16158D01*
X39496Y16158D01*
X41802D01*
X41825Y16148D01*
D02*
G37*
G36*
X36045Y9763D02*
X36161Y9715D01*
X38989D01*
Y4931D01*
X38959Y4817D01*
X38862Y4817D01*
X38084D01*
Y3742D01*
Y2667D01*
X38862D01*
X38959Y2667D01*
X38989Y2552D01*
Y330D01*
X34036D01*
Y8036D01*
X34757D01*
Y8636D01*
Y9236D01*
X34036D01*
Y9880D01*
X35996D01*
X36045Y9763D01*
D02*
G37*
%LPC*%
G36*
X67532Y99221D02*
X66732D01*
Y98371D01*
X67532D01*
Y99221D01*
D02*
G37*
G36*
X66332D02*
X65532D01*
Y98371D01*
X66332D01*
Y99221D01*
D02*
G37*
G36*
X67532Y97971D02*
X66732D01*
Y97121D01*
X67532D01*
Y97971D01*
D02*
G37*
G36*
X66332D02*
X65532D01*
Y97121D01*
X66332D01*
Y97971D01*
D02*
G37*
G36*
X67532Y96808D02*
X66732D01*
Y95958D01*
X67532D01*
Y96808D01*
D02*
G37*
G36*
X66332D02*
X65532D01*
Y95958D01*
X66332D01*
Y96808D01*
D02*
G37*
G36*
X67532Y95558D02*
X66732D01*
Y94708D01*
X67532D01*
Y95558D01*
D02*
G37*
G36*
X66332D02*
X65532D01*
Y94708D01*
X66332D01*
Y95558D01*
D02*
G37*
G36*
X95163Y96652D02*
X94837D01*
X94518Y96589D01*
X94217Y96464D01*
X93947Y96284D01*
X93716Y96053D01*
X93536Y95783D01*
X93411Y95482D01*
X93348Y95163D01*
Y94837D01*
X93411Y94518D01*
X93536Y94217D01*
X93716Y93947D01*
X93947Y93716D01*
X94217Y93536D01*
X94518Y93411D01*
X94837Y93348D01*
X95163D01*
X95482Y93411D01*
X95783Y93536D01*
X96053Y93716D01*
X96284Y93947D01*
X96464Y94217D01*
X96589Y94518D01*
X96652Y94837D01*
Y95163D01*
X96589Y95482D01*
X96464Y95783D01*
X96284Y96053D01*
X96053Y96284D01*
X95783Y96464D01*
X95482Y96589D01*
X95163Y96652D01*
D02*
G37*
G36*
X90968Y91465D02*
X87873D01*
Y89891D01*
X90968D01*
Y91465D01*
D02*
G37*
G36*
X82797Y93312D02*
X82557D01*
X82336Y93221D01*
X82166Y93051D01*
X82075Y92830D01*
Y92590D01*
X82166Y92369D01*
X82336Y92199D01*
X82369Y92186D01*
Y91465D01*
X82163D01*
Y89891D01*
X85258D01*
Y91465D01*
X82985D01*
Y92186D01*
X83018Y92199D01*
X83188Y92369D01*
X83279Y92590D01*
Y92830D01*
X83188Y93051D01*
X83018Y93221D01*
X82797Y93312D01*
D02*
G37*
G36*
X86717Y90560D02*
X86413D01*
X86120Y90482D01*
X85858Y90330D01*
X85643Y90116D01*
X85491Y89853D01*
X85413Y89560D01*
Y89256D01*
X85491Y88963D01*
X85643Y88700D01*
X85858Y88486D01*
X86120Y88334D01*
X86413Y88256D01*
X86717D01*
X87010Y88334D01*
X87273Y88486D01*
X87487Y88700D01*
X87639Y88963D01*
X87718Y89256D01*
Y89560D01*
X87639Y89853D01*
X87487Y90116D01*
X87273Y90330D01*
X87010Y90482D01*
X86717Y90560D01*
D02*
G37*
G36*
X85258Y88925D02*
X82163D01*
Y88410D01*
X81280D01*
X81176Y88389D01*
X81088Y88330D01*
X81088Y88330D01*
X80151Y87394D01*
X73564D01*
Y88049D01*
X71860D01*
Y86195D01*
X73564D01*
Y86850D01*
X80264D01*
X80368Y86871D01*
X80456Y86930D01*
X81393Y87866D01*
X82163D01*
Y87351D01*
X85258D01*
Y88925D01*
D02*
G37*
G36*
X62588Y91166D02*
X62380D01*
X62180Y91113D01*
X62001Y91009D01*
X61854Y90862D01*
X61750Y90683D01*
X61697Y90483D01*
Y90275D01*
X61750Y90075D01*
X61854Y89896D01*
X62001Y89749D01*
X62176Y89648D01*
Y89319D01*
X61657D01*
Y88093D01*
X61657Y88064D01*
X61586Y87966D01*
X61509D01*
Y87391D01*
X62484D01*
X63459D01*
Y87966D01*
X63382D01*
X63311Y88064D01*
X63311Y88093D01*
Y89319D01*
X62792D01*
Y89648D01*
X62967Y89749D01*
X63114Y89896D01*
X63218Y90075D01*
X63271Y90275D01*
Y90483D01*
X63218Y90683D01*
X63114Y90862D01*
X62967Y91009D01*
X62788Y91113D01*
X62588Y91166D01*
D02*
G37*
G36*
X90968Y88925D02*
X87873D01*
Y87351D01*
X90968D01*
Y88925D01*
D02*
G37*
G36*
X65382Y91039D02*
X65174D01*
X64974Y90986D01*
X64795Y90882D01*
X64648Y90735D01*
X64544Y90556D01*
X64491Y90356D01*
Y90148D01*
X64544Y89948D01*
X64648Y89769D01*
X64795Y89622D01*
X64970Y89521D01*
Y89261D01*
X64451D01*
Y88036D01*
X64451Y88007D01*
X64380Y87909D01*
X64303D01*
Y87334D01*
X65278D01*
X66253D01*
Y87909D01*
X66176D01*
X66105Y88007D01*
X66105Y88036D01*
Y89261D01*
X65586D01*
Y89521D01*
X65761Y89622D01*
X65908Y89769D01*
X66012Y89948D01*
X66065Y90148D01*
Y90356D01*
X66012Y90556D01*
X65908Y90735D01*
X65761Y90882D01*
X65582Y90986D01*
X65382Y91039D01*
D02*
G37*
G36*
X63459Y86991D02*
X62684D01*
Y86416D01*
X63459D01*
Y86991D01*
D02*
G37*
G36*
X62284D02*
X61509D01*
Y86416D01*
X62284D01*
Y86991D01*
D02*
G37*
G36*
X66253Y86934D02*
X65478D01*
Y86359D01*
X66253D01*
Y86934D01*
D02*
G37*
G36*
X65078D02*
X64303D01*
Y86359D01*
X65078D01*
Y86934D01*
D02*
G37*
G36*
X69065Y88163D02*
X68857D01*
X68657Y88110D01*
X68478Y88006D01*
X68331Y87859D01*
X68227Y87680D01*
X68174Y87480D01*
Y87272D01*
X68227Y87072D01*
X68331Y86893D01*
X68478Y86746D01*
X68657Y86642D01*
X68857Y86589D01*
X69065D01*
X69265Y86642D01*
X69444Y86746D01*
X69591Y86893D01*
X69692Y87068D01*
X69960D01*
Y86195D01*
X71664D01*
Y88049D01*
X69960D01*
Y87684D01*
X69692D01*
X69591Y87859D01*
X69444Y88006D01*
X69265Y88110D01*
X69065Y88163D01*
D02*
G37*
G36*
X90968Y86385D02*
X87873D01*
Y84811D01*
X90968D01*
Y86385D01*
D02*
G37*
G36*
X85258D02*
X82163D01*
Y84811D01*
X85258D01*
Y86385D01*
D02*
G37*
G36*
X98968Y84504D02*
X98193D01*
Y83904D01*
X98968D01*
Y84504D01*
D02*
G37*
G36*
X97793D02*
X97018D01*
Y83904D01*
X97793D01*
Y84504D01*
D02*
G37*
G36*
X85405Y83993D02*
X83910D01*
Y83258D01*
X85405D01*
Y83993D01*
D02*
G37*
G36*
X83510D02*
X82015D01*
Y83258D01*
X83510D01*
Y83993D01*
D02*
G37*
G36*
X98968Y83504D02*
X98193D01*
Y82904D01*
X98968D01*
Y83504D01*
D02*
G37*
G36*
X97793D02*
X97018D01*
Y82904D01*
X97793D01*
Y83504D01*
D02*
G37*
G36*
X90968Y83845D02*
X87873D01*
Y82271D01*
X90968D01*
Y83845D01*
D02*
G37*
G36*
X85405Y82858D02*
X83910D01*
Y82123D01*
X85405D01*
Y82858D01*
D02*
G37*
G36*
X83510D02*
X82015D01*
Y82123D01*
X83510D01*
Y82858D01*
D02*
G37*
G36*
X90968Y81305D02*
X87873D01*
Y79731D01*
X90968D01*
Y81305D01*
D02*
G37*
G36*
X96558Y79159D02*
X94704D01*
Y77305D01*
X96558D01*
Y79159D01*
D02*
G37*
G36*
X90968Y78765D02*
X87873D01*
Y77191D01*
X90968D01*
Y78765D01*
D02*
G37*
G36*
X94792Y85491D02*
X92457D01*
Y81387D01*
X94792D01*
Y81505D01*
X97166D01*
Y81252D01*
X97736D01*
Y78233D01*
X96033Y76531D01*
X95989Y76556D01*
X95753Y76619D01*
X95509D01*
X95273Y76556D01*
X95062Y76434D01*
X94889Y76261D01*
X94767Y76050D01*
X94754Y76000D01*
X93370D01*
X93252Y75977D01*
X93152Y75910D01*
X93152Y75910D01*
X92989Y75746D01*
X90968D01*
Y76225D01*
X87873D01*
Y74651D01*
X90968D01*
Y75130D01*
X93116D01*
X93116Y75130D01*
X93234Y75153D01*
X93334Y75220D01*
X93498Y75384D01*
X94754D01*
X94767Y75334D01*
X94889Y75123D01*
X95062Y74950D01*
X95273Y74828D01*
X95509Y74765D01*
X95753D01*
X95989Y74828D01*
X96200Y74950D01*
X96373Y75123D01*
X96495Y75334D01*
X96558Y75570D01*
Y75814D01*
X96495Y76050D01*
X96469Y76094D01*
X98262Y77887D01*
X98262Y77887D01*
X98329Y77987D01*
X98352Y78105D01*
X98352Y78105D01*
Y81252D01*
X98821D01*
Y82556D01*
X97166D01*
Y82122D01*
X94792D01*
Y85491D01*
D02*
G37*
G36*
X96558Y72555D02*
X94704D01*
Y70701D01*
X96558D01*
Y72555D01*
D02*
G37*
G36*
X90968Y71145D02*
X87873D01*
Y69571D01*
X90968D01*
Y71145D01*
D02*
G37*
G36*
Y68605D02*
X87873D01*
Y67031D01*
X90968D01*
Y68605D01*
D02*
G37*
G36*
Y73685D02*
X87873D01*
Y72111D01*
X90968D01*
Y72590D01*
X92709D01*
X92859Y72440D01*
Y69494D01*
X92859Y69494D01*
X92882Y69376D01*
X92949Y69276D01*
X93356Y68870D01*
X93356Y68870D01*
X93456Y68803D01*
X93574Y68780D01*
X94754D01*
X94767Y68730D01*
X94889Y68519D01*
X95062Y68346D01*
X95273Y68224D01*
X95509Y68161D01*
X95753D01*
X95989Y68224D01*
X96200Y68346D01*
X96373Y68519D01*
X96495Y68730D01*
X96508Y68780D01*
X97383D01*
X97736Y68427D01*
Y67708D01*
X97217D01*
Y67364D01*
X96698D01*
X96580Y67341D01*
X96480Y67274D01*
X96480Y67274D01*
X96190Y66985D01*
X94693D01*
X94663Y66979D01*
X91775D01*
Y64644D01*
X95880D01*
Y66368D01*
X96318D01*
X96318Y66368D01*
X96436Y66392D01*
X96536Y66458D01*
X96826Y66748D01*
X97217D01*
Y66404D01*
X98871D01*
Y67708D01*
X98352D01*
Y68555D01*
X98352Y68555D01*
X98329Y68673D01*
X98262Y68773D01*
X98262Y68773D01*
X97729Y69306D01*
X97629Y69373D01*
X97511Y69396D01*
X97511Y69396D01*
X96508D01*
X96495Y69446D01*
X96373Y69657D01*
X96200Y69830D01*
X95989Y69952D01*
X95753Y70015D01*
X95509D01*
X95273Y69952D01*
X95062Y69830D01*
X94889Y69657D01*
X94767Y69446D01*
X94754Y69396D01*
X93701D01*
X93476Y69622D01*
Y72568D01*
X93476Y72568D01*
X93452Y72686D01*
X93385Y72786D01*
X93385Y72786D01*
X93055Y73116D01*
X92955Y73183D01*
X92837Y73206D01*
X92837Y73206D01*
X90968D01*
Y73685D01*
D02*
G37*
G36*
X99019Y66056D02*
X98244D01*
Y65456D01*
X99019D01*
Y66056D01*
D02*
G37*
G36*
X97844D02*
X97069D01*
Y65456D01*
X97844D01*
Y66056D01*
D02*
G37*
G36*
X90968Y66065D02*
X87873D01*
Y64491D01*
X90968D01*
Y66065D01*
D02*
G37*
G36*
X99019Y65056D02*
X98244D01*
Y64456D01*
X99019D01*
Y65056D01*
D02*
G37*
G36*
X97844D02*
X97069D01*
Y64456D01*
X97844D01*
Y65056D01*
D02*
G37*
G36*
X90968Y63525D02*
X87873D01*
Y61951D01*
X90968D01*
Y62430D01*
X92118D01*
X92511Y62037D01*
X92511Y62037D01*
X92611Y61971D01*
X92729Y61947D01*
X92729Y61947D01*
X93865D01*
X93878Y61897D01*
X94000Y61686D01*
X94173Y61513D01*
X94384Y61391D01*
X94620Y61328D01*
X94864D01*
X95100Y61391D01*
X95311Y61513D01*
X95484Y61686D01*
X95606Y61897D01*
X95669Y62133D01*
Y62377D01*
X95606Y62613D01*
X95484Y62825D01*
X95311Y62998D01*
X95100Y63120D01*
X94864Y63183D01*
X94620D01*
X94384Y63120D01*
X94173Y62998D01*
X94000Y62825D01*
X93878Y62613D01*
X93865Y62564D01*
X92856D01*
X92464Y62956D01*
X92364Y63023D01*
X92246Y63046D01*
X92246Y63046D01*
X90968D01*
Y63525D01*
D02*
G37*
G36*
Y60985D02*
X87873D01*
Y59411D01*
X90968D01*
Y60985D01*
D02*
G37*
G36*
X95669Y60643D02*
X93815D01*
Y59224D01*
X93495Y58905D01*
X93428Y58805D01*
X93405Y58687D01*
X93405Y58687D01*
Y58029D01*
X93161D01*
Y56474D01*
X94266D01*
Y58029D01*
X94022D01*
Y58559D01*
X94251Y58788D01*
X95669D01*
Y60643D01*
D02*
G37*
G36*
X86717Y57540D02*
X86413D01*
X86120Y57462D01*
X85858Y57310D01*
X85643Y57096D01*
X85491Y56833D01*
X85413Y56540D01*
Y56236D01*
X85491Y55943D01*
X85643Y55680D01*
X85858Y55466D01*
X86120Y55314D01*
X86413Y55236D01*
X86717D01*
X87010Y55314D01*
X87273Y55466D01*
X87487Y55680D01*
X87639Y55943D01*
X87718Y56236D01*
Y56540D01*
X87639Y56833D01*
X87487Y57096D01*
X87273Y57310D01*
X87010Y57462D01*
X86717Y57540D01*
D02*
G37*
G36*
X85258Y55905D02*
X82163D01*
Y54331D01*
X82673D01*
Y53671D01*
X82598Y53596D01*
X82529Y53430D01*
Y53250D01*
X82598Y53084D01*
X82726Y52956D01*
X82892Y52888D01*
X83072D01*
X83238Y52956D01*
X83365Y53084D01*
X83434Y53250D01*
Y53430D01*
X83365Y53596D01*
X83290Y53671D01*
Y54331D01*
X85258D01*
Y55905D01*
D02*
G37*
G36*
X90968Y58445D02*
X87873D01*
Y56871D01*
X90963D01*
Y55905D01*
X87873D01*
Y54331D01*
X90968D01*
Y55300D01*
X91095Y55353D01*
X93275Y53173D01*
X93375Y53106D01*
X93493Y53082D01*
X93493Y53082D01*
X93865D01*
X93878Y53033D01*
X94000Y52821D01*
X94173Y52649D01*
X94384Y52527D01*
X94620Y52463D01*
X94864D01*
X95100Y52527D01*
X95311Y52649D01*
X95484Y52821D01*
X95606Y53033D01*
X95669Y53269D01*
Y53513D01*
X95606Y53749D01*
X95484Y53960D01*
X95311Y54133D01*
X95100Y54255D01*
X94864Y54318D01*
X94620D01*
X94384Y54255D01*
X94173Y54133D01*
X94000Y53960D01*
X93878Y53749D01*
X93865Y53699D01*
X93620D01*
X92220Y55099D01*
X92219Y55128D01*
X92257Y55242D01*
X92258Y55242D01*
X92302Y55251D01*
X92340Y55276D01*
X92382Y55293D01*
X92414Y55325D01*
X92452Y55351D01*
X92477Y55388D01*
X92509Y55421D01*
X92527Y55463D01*
X92552Y55500D01*
X92561Y55545D01*
X92578Y55587D01*
Y55632D01*
X92587Y55677D01*
X92578Y55721D01*
Y55767D01*
X92574Y55776D01*
Y56474D01*
X92666D01*
Y58029D01*
X91561D01*
Y57808D01*
X91434Y57756D01*
X91313Y57876D01*
X91213Y57943D01*
X91095Y57966D01*
X91095Y57966D01*
X90968D01*
Y58445D01*
D02*
G37*
G36*
X95669Y51778D02*
X93815D01*
Y51121D01*
X90998D01*
Y51365D01*
X89443D01*
Y50260D01*
X90998D01*
Y50504D01*
X93815D01*
Y49923D01*
X95669D01*
Y50782D01*
X95687Y50809D01*
X95711Y50927D01*
X95687Y51045D01*
X95669Y51072D01*
Y51778D01*
D02*
G37*
G36*
X57864Y50990D02*
Y50990D01*
X57836Y50990D01*
X56060D01*
Y50582D01*
X55506D01*
X55365Y50640D01*
X55125D01*
X54904Y50549D01*
X54734Y50379D01*
X54643Y50158D01*
Y49918D01*
X54734Y49697D01*
X54904Y49527D01*
X55125Y49436D01*
X55365D01*
X55506Y49494D01*
X56060D01*
Y49106D01*
X32817D01*
X32764Y49233D01*
X32596Y49401D01*
X32377Y49492D01*
X32139D01*
X31920Y49401D01*
X31752Y49233D01*
X31661Y49014D01*
Y48776D01*
X31752Y48557D01*
X31920Y48389D01*
X32139Y48298D01*
X32377D01*
X32596Y48389D01*
X32764Y48557D01*
X32766Y48562D01*
X46234D01*
X46282Y48445D01*
X46163Y48326D01*
X46094Y48354D01*
X45854D01*
X45633Y48263D01*
X45463Y48093D01*
X45372Y47872D01*
Y47632D01*
X45463Y47411D01*
X45633Y47241D01*
X45854Y47150D01*
X46094D01*
X46315Y47241D01*
X46485Y47411D01*
X46576Y47632D01*
Y47872D01*
X46548Y47941D01*
X46740Y48134D01*
X72785D01*
X73293Y47626D01*
X73293Y47626D01*
X73381Y47567D01*
X73485Y47547D01*
X73485Y47547D01*
X83707D01*
X83782Y47417D01*
X83929Y47271D01*
X84108Y47167D01*
X84308Y47113D01*
X84516D01*
X84716Y47167D01*
X84896Y47271D01*
X85042Y47417D01*
X85146Y47597D01*
X85199Y47797D01*
Y48004D01*
X85146Y48205D01*
X85042Y48384D01*
X84896Y48531D01*
X84716Y48635D01*
X84516Y48688D01*
X84308D01*
X84108Y48635D01*
X83929Y48531D01*
X83782Y48384D01*
X83678Y48205D01*
X83648Y48091D01*
X74530D01*
X74477Y48218D01*
X74544Y48285D01*
X74648Y48464D01*
X74701Y48664D01*
Y48872D01*
X74648Y49072D01*
X74544Y49251D01*
X74397Y49398D01*
X74218Y49502D01*
X74018Y49555D01*
X73810D01*
X73610Y49502D01*
X73431Y49398D01*
X73284Y49251D01*
X73200Y49106D01*
X59764D01*
Y49494D01*
X60136D01*
X60223Y49408D01*
X60402Y49304D01*
X60602Y49251D01*
X60810D01*
X61010Y49304D01*
X61189Y49408D01*
X61336Y49555D01*
X61440Y49734D01*
X61493Y49934D01*
Y50142D01*
X61440Y50342D01*
X61336Y50521D01*
X61189Y50668D01*
X61010Y50772D01*
X60810Y50825D01*
X60602D01*
X60402Y50772D01*
X60223Y50668D01*
X60136Y50582D01*
X59764D01*
Y50990D01*
X57988D01*
X57960Y50990D01*
Y50990D01*
X57864D01*
D02*
G37*
G36*
X90998Y49765D02*
X89443D01*
Y48660D01*
X89988D01*
Y48057D01*
X89997Y48012D01*
Y47967D01*
X90014Y47925D01*
X90023Y47880D01*
X90048Y47843D01*
X90066Y47801D01*
X90098Y47768D01*
X90123Y47731D01*
X90161Y47705D01*
X90193Y47673D01*
X90235Y47656D01*
X90273Y47631D01*
X90317Y47622D01*
X90359Y47604D01*
X90405D01*
X90449Y47596D01*
X90494Y47604D01*
X90539D01*
X90581Y47622D01*
X90626Y47631D01*
X90664Y47656D01*
X90706Y47673D01*
X90738Y47705D01*
X90776Y47731D01*
X90801Y47768D01*
X90833Y47801D01*
X90850Y47843D01*
X90876Y47880D01*
X90884Y47925D01*
X90902Y47967D01*
Y48012D01*
X90911Y48057D01*
Y48660D01*
X90998D01*
Y49765D01*
D02*
G37*
G36*
X88486Y46745D02*
X87112D01*
Y45613D01*
X88844D01*
Y46387D01*
X88817Y46524D01*
X88739Y46640D01*
X88623Y46718D01*
X88486Y46745D01*
D02*
G37*
G36*
X86712D02*
X85338D01*
X85201Y46718D01*
X85085Y46640D01*
X85007Y46524D01*
X84980Y46387D01*
Y45613D01*
X86712D01*
Y46745D01*
D02*
G37*
G36*
X77090Y46638D02*
X76190D01*
Y44938D01*
X77090D01*
Y46638D01*
D02*
G37*
G36*
X75790D02*
X74890D01*
Y44938D01*
X75790D01*
Y46638D01*
D02*
G37*
G36*
X70196Y46037D02*
X68196D01*
Y44922D01*
X70196D01*
Y46037D01*
D02*
G37*
G36*
X67796D02*
X65796D01*
Y44922D01*
X67796D01*
Y46037D01*
D02*
G37*
G36*
X9963Y47803D02*
X9783D01*
X9616Y47734D01*
X9489Y47607D01*
X9420Y47441D01*
Y47261D01*
X9484Y47106D01*
Y46474D01*
X9352Y46398D01*
X9195Y46240D01*
X9083Y46047D01*
X9025Y45832D01*
Y45608D01*
X9083Y45393D01*
X9195Y45200D01*
X9352Y45042D01*
X9546Y44930D01*
X9761Y44873D01*
X9984D01*
X10200Y44930D01*
X10393Y45042D01*
X10551Y45200D01*
X10662Y45393D01*
X10720Y45608D01*
Y45832D01*
X10662Y46047D01*
X10551Y46240D01*
X10393Y46398D01*
X10261Y46474D01*
Y47106D01*
X10325Y47261D01*
Y47441D01*
X10256Y47607D01*
X10129Y47734D01*
X9963Y47803D01*
D02*
G37*
G36*
X59347Y46012D02*
X57493D01*
Y44158D01*
X59347D01*
Y44668D01*
X60136D01*
X60223Y44582D01*
X60402Y44478D01*
X60602Y44425D01*
X60810D01*
X61010Y44478D01*
X61189Y44582D01*
X61336Y44729D01*
X61440Y44908D01*
X61493Y45108D01*
Y45316D01*
X61440Y45516D01*
X61336Y45695D01*
X61189Y45842D01*
X61010Y45946D01*
X60810Y45999D01*
X60602D01*
X60402Y45946D01*
X60223Y45842D01*
X60136Y45756D01*
X59347D01*
Y46012D01*
D02*
G37*
G36*
X25613Y44880D02*
X24838D01*
Y44280D01*
X25613D01*
Y44880D01*
D02*
G37*
G36*
X24438D02*
X23663D01*
Y44280D01*
X24438D01*
Y44880D01*
D02*
G37*
G36*
X54676Y46804D02*
X52635D01*
X52486Y46774D01*
X52360Y46690D01*
X51033Y45363D01*
X47478D01*
Y43029D01*
X51582D01*
Y44814D01*
X52505Y45737D01*
X52598Y45654D01*
X52476Y45443D01*
X52413Y45207D01*
Y44963D01*
X52476Y44727D01*
X52598Y44516D01*
X52771Y44343D01*
X52982Y44221D01*
X53218Y44158D01*
X53462D01*
X53698Y44221D01*
X53909Y44343D01*
X54082Y44516D01*
X54204Y44727D01*
X54267Y44963D01*
Y45207D01*
X54204Y45443D01*
X54082Y45654D01*
X53909Y45827D01*
X53783Y45900D01*
X53817Y46027D01*
X54515D01*
X55047Y45496D01*
X55016Y45443D01*
X54953Y45207D01*
Y44963D01*
X55016Y44727D01*
X55138Y44516D01*
X55311Y44343D01*
X55522Y44221D01*
X55758Y44158D01*
X56002D01*
X56238Y44221D01*
X56449Y44343D01*
X56622Y44516D01*
X56744Y44727D01*
X56807Y44963D01*
Y45207D01*
X56744Y45443D01*
X56622Y45654D01*
X56449Y45827D01*
X56238Y45949D01*
X56002Y46012D01*
X55758D01*
X55656Y45985D01*
X54951Y46690D01*
X54825Y46774D01*
X54676Y46804D01*
D02*
G37*
G36*
X88844Y45213D02*
X87112D01*
Y44081D01*
X88486D01*
X88623Y44109D01*
X88739Y44186D01*
X88817Y44302D01*
X88844Y44439D01*
Y45213D01*
D02*
G37*
G36*
X86712D02*
X84980D01*
Y44439D01*
X85007Y44302D01*
X85085Y44186D01*
X85201Y44109D01*
X85338Y44081D01*
X86712D01*
Y45213D01*
D02*
G37*
G36*
X8185Y46722D02*
X8005D01*
X7838Y46653D01*
X7711Y46526D01*
X7642Y46360D01*
Y46180D01*
X7706Y46025D01*
Y45458D01*
X7574Y45382D01*
X7417Y45224D01*
X7305Y45031D01*
X7247Y44816D01*
Y44592D01*
X7305Y44377D01*
X7417Y44184D01*
X7574Y44026D01*
X7768Y43914D01*
X7983Y43857D01*
X8206D01*
X8422Y43914D01*
X8615Y44026D01*
X8773Y44184D01*
X8884Y44377D01*
X8942Y44592D01*
Y44816D01*
X8884Y45031D01*
X8773Y45224D01*
X8615Y45382D01*
X8483Y45458D01*
Y46025D01*
X8547Y46180D01*
Y46360D01*
X8478Y46526D01*
X8351Y46653D01*
X8185Y46722D01*
D02*
G37*
G36*
X44850Y44707D02*
X44650D01*
Y43801D01*
X45556D01*
Y44001D01*
X45532Y44184D01*
X45461Y44354D01*
X45349Y44500D01*
X45203Y44612D01*
X45033Y44683D01*
X44850Y44707D01*
D02*
G37*
G36*
X44250D02*
X44050D01*
X43867Y44683D01*
X43697Y44612D01*
X43551Y44500D01*
X43439Y44354D01*
X43368Y44184D01*
X43344Y44001D01*
Y43801D01*
X44250D01*
Y44707D01*
D02*
G37*
G36*
X70196Y44522D02*
X68196D01*
Y43407D01*
X70196D01*
Y44522D01*
D02*
G37*
G36*
X67796D02*
X65796D01*
Y43407D01*
X67796D01*
Y44522D01*
D02*
G37*
G36*
X25613Y43880D02*
X24838D01*
Y43280D01*
X25613D01*
Y43880D01*
D02*
G37*
G36*
X24438D02*
X23663D01*
Y43280D01*
X24438D01*
Y43880D01*
D02*
G37*
G36*
X82553Y43763D02*
X81778D01*
Y43188D01*
X82553D01*
Y43763D01*
D02*
G37*
G36*
X81378D02*
X80603D01*
Y43188D01*
X81378D01*
Y43763D01*
D02*
G37*
G36*
X9984Y44535D02*
X9761D01*
X9546Y44478D01*
X9352Y44366D01*
X9195Y44208D01*
X9083Y44015D01*
X9025Y43800D01*
Y43576D01*
X9083Y43361D01*
X9195Y43168D01*
X9352Y43010D01*
X9546Y42898D01*
X9761Y42841D01*
X9984D01*
X10200Y42898D01*
X10393Y43010D01*
X10551Y43168D01*
X10662Y43361D01*
X10720Y43576D01*
Y43800D01*
X10662Y44015D01*
X10551Y44208D01*
X10393Y44366D01*
X10200Y44478D01*
X9984Y44535D01*
D02*
G37*
G36*
X77090Y44538D02*
X76190D01*
Y42838D01*
X77090D01*
Y44538D01*
D02*
G37*
G36*
X75790D02*
X74890D01*
Y42838D01*
X75790D01*
Y44538D01*
D02*
G37*
G36*
X45556Y43401D02*
X44650D01*
Y42495D01*
X44850D01*
X45033Y42519D01*
X45203Y42590D01*
X45349Y42702D01*
X45461Y42848D01*
X45532Y43018D01*
X45556Y43201D01*
Y43401D01*
D02*
G37*
G36*
X44250D02*
X43344D01*
Y43201D01*
X43368Y43018D01*
X43439Y42848D01*
X43551Y42702D01*
X43697Y42590D01*
X43867Y42519D01*
X44050Y42495D01*
X44250D01*
Y43401D01*
D02*
G37*
G36*
X20718Y43157D02*
X19263D01*
Y42552D01*
X17482D01*
X17378Y42531D01*
X17289Y42472D01*
X16745Y41928D01*
X10677D01*
X10662Y41983D01*
X10551Y42176D01*
X10393Y42334D01*
X10200Y42446D01*
X9984Y42503D01*
X9761D01*
X9546Y42446D01*
X9352Y42334D01*
X9195Y42176D01*
X9083Y41983D01*
X9025Y41768D01*
Y41544D01*
X9083Y41329D01*
X9195Y41136D01*
X9291Y41039D01*
X9239Y40912D01*
X8899D01*
X8884Y40967D01*
X8773Y41160D01*
X8615Y41318D01*
X8422Y41430D01*
X8206Y41487D01*
X7983D01*
X7768Y41430D01*
X7574Y41318D01*
X7417Y41160D01*
X7305Y40967D01*
X7247Y40752D01*
Y40528D01*
X7305Y40313D01*
X7417Y40120D01*
X7574Y39962D01*
X7768Y39850D01*
X7983Y39793D01*
X8206D01*
X8422Y39850D01*
X8615Y39962D01*
X8773Y40120D01*
X8884Y40313D01*
X8899Y40368D01*
X9239D01*
X9291Y40241D01*
X9195Y40144D01*
X9083Y39951D01*
X9025Y39736D01*
Y39603D01*
X8295D01*
Y38808D01*
X9090D01*
Y39050D01*
X9217Y39082D01*
X9352Y38946D01*
X9546Y38834D01*
X9761Y38777D01*
X9984D01*
X10200Y38834D01*
X10393Y38946D01*
X10551Y39104D01*
X10627Y39236D01*
X11076D01*
X11230Y39172D01*
X11410D01*
X11577Y39240D01*
X11704Y39368D01*
X11773Y39534D01*
Y39714D01*
X11704Y39880D01*
X11577Y40008D01*
X11410Y40076D01*
X11230D01*
X11076Y40012D01*
X10627D01*
X10551Y40144D01*
X10454Y40241D01*
X10507Y40368D01*
X16745D01*
X17173Y39940D01*
X17262Y39881D01*
X17366Y39860D01*
X17366Y39860D01*
X19263D01*
Y39255D01*
X20718D01*
Y41009D01*
X19263D01*
Y40404D01*
X17478D01*
X17050Y40832D01*
X16962Y40891D01*
X16858Y40912D01*
X10507D01*
X10454Y41039D01*
X10551Y41136D01*
X10662Y41329D01*
X10677Y41384D01*
X16858D01*
X16962Y41405D01*
X17050Y41464D01*
X17594Y42008D01*
X19263D01*
Y41403D01*
X20718D01*
Y43157D01*
D02*
G37*
G36*
X22468D02*
X21013D01*
Y41403D01*
X22468D01*
Y42008D01*
X23811D01*
Y41628D01*
X25465D01*
Y42019D01*
X27699D01*
X27811Y41907D01*
X27977Y41839D01*
X28157D01*
X28323Y41907D01*
X28451Y42035D01*
X28519Y42201D01*
Y42381D01*
X28451Y42547D01*
X28323Y42675D01*
X28157Y42743D01*
X27977D01*
X27811Y42675D01*
X27699Y42563D01*
X25465D01*
Y42932D01*
X23811D01*
Y42552D01*
X22468D01*
Y43157D01*
D02*
G37*
G36*
X8206Y43519D02*
X7983D01*
X7768Y43462D01*
X7574Y43350D01*
X7417Y43192D01*
X7305Y42999D01*
X7247Y42784D01*
Y42560D01*
X7305Y42345D01*
X7417Y42152D01*
X7574Y41994D01*
X7768Y41882D01*
X7983Y41825D01*
X8206D01*
X8422Y41882D01*
X8615Y41994D01*
X8773Y42152D01*
X8884Y42345D01*
X8942Y42560D01*
Y42784D01*
X8884Y42999D01*
X8773Y43192D01*
X8615Y43350D01*
X8422Y43462D01*
X8206Y43519D01*
D02*
G37*
G36*
X22468Y41009D02*
X21013D01*
Y39255D01*
X22468D01*
Y39860D01*
X23938D01*
Y39491D01*
X25592D01*
Y39860D01*
X27699D01*
X27811Y39748D01*
X27977Y39680D01*
X28157D01*
X28323Y39748D01*
X28451Y39876D01*
X28519Y40042D01*
Y40222D01*
X28451Y40388D01*
X28323Y40516D01*
X28157Y40584D01*
X27977D01*
X27811Y40516D01*
X27699Y40404D01*
X25592D01*
Y40795D01*
X23938D01*
Y40404D01*
X22468D01*
Y41009D01*
D02*
G37*
G36*
X87362Y40395D02*
X87112D01*
Y39263D01*
X87719D01*
Y40038D01*
X87692Y40175D01*
X87614Y40291D01*
X87499Y40368D01*
X87362Y40395D01*
D02*
G37*
G36*
X86712D02*
X86462D01*
X86325Y40368D01*
X86210Y40291D01*
X86132Y40175D01*
X86105Y40038D01*
Y39263D01*
X86712D01*
Y40395D01*
D02*
G37*
G36*
X7895Y39603D02*
X7100D01*
Y38808D01*
X7895D01*
Y39603D01*
D02*
G37*
G36*
X25740Y39143D02*
X24965D01*
Y38543D01*
X25740D01*
Y39143D01*
D02*
G37*
G36*
X24565D02*
X23790D01*
Y38543D01*
X24565D01*
Y39143D01*
D02*
G37*
G36*
X87719Y38863D02*
X87112D01*
Y37731D01*
X87362D01*
X87499Y37759D01*
X87614Y37836D01*
X87692Y37952D01*
X87719Y38088D01*
Y38863D01*
D02*
G37*
G36*
X86712D02*
X86105D01*
Y38088D01*
X86132Y37952D01*
X86210Y37836D01*
X86325Y37759D01*
X86462Y37731D01*
X86712D01*
Y38863D01*
D02*
G37*
G36*
X9090Y38408D02*
X8295D01*
Y37613D01*
X9090D01*
Y38408D01*
D02*
G37*
G36*
X7895D02*
X7100D01*
Y37613D01*
X7895D01*
Y38408D01*
D02*
G37*
G36*
X25740Y38143D02*
X24965D01*
Y37543D01*
X25740D01*
Y38143D01*
D02*
G37*
G36*
X24565D02*
X23790D01*
Y37543D01*
X24565D01*
Y38143D01*
D02*
G37*
G36*
X28174Y35020D02*
X26569D01*
Y34629D01*
X25609D01*
Y34874D01*
X24054D01*
Y33769D01*
X25609D01*
Y34013D01*
X26569D01*
Y33615D01*
X28174D01*
Y35020D01*
D02*
G37*
G36*
X5730Y37591D02*
X5380D01*
X5036Y37523D01*
X4713Y37389D01*
X4422Y37195D01*
X4174Y36947D01*
X3979Y36656D01*
X3845Y36332D01*
X3777Y35989D01*
Y35639D01*
X3845Y35296D01*
X3979Y34972D01*
X4174Y34681D01*
X4422Y34433D01*
X4713Y34239D01*
X5036Y34105D01*
X5380Y34037D01*
X5730D01*
X6073Y34105D01*
X6397Y34239D01*
X6688Y34433D01*
X6935Y34681D01*
X7130Y34972D01*
X7264Y35296D01*
X7332Y35639D01*
Y35989D01*
X7264Y36332D01*
X7130Y36656D01*
X6935Y36947D01*
X6688Y37195D01*
X6397Y37389D01*
X6073Y37523D01*
X5730Y37591D01*
D02*
G37*
G36*
X28174Y32920D02*
X26569D01*
Y32525D01*
X26398D01*
X26398Y32525D01*
X26280Y32502D01*
X26180Y32435D01*
X26180Y32435D01*
X25894Y32149D01*
X25827Y32049D01*
X25804Y31931D01*
X25804Y31931D01*
Y31166D01*
X22779D01*
Y30307D01*
X21741D01*
X21623Y30284D01*
X21523Y30217D01*
X21523Y30217D01*
X20062Y28756D01*
X19699D01*
X19684Y28816D01*
X19558Y29033D01*
X19381Y29210D01*
X19164Y29336D01*
X18921Y29400D01*
X18671D01*
X18428Y29336D01*
X18211Y29210D01*
X18034Y29033D01*
X17909Y28816D01*
X17844Y28573D01*
Y28323D01*
X17909Y28080D01*
X18034Y27863D01*
X18211Y27686D01*
X18428Y27560D01*
X18671Y27496D01*
X18921D01*
X19164Y27560D01*
X19381Y27686D01*
X19558Y27863D01*
X19684Y28080D01*
X19699Y28140D01*
X20190D01*
X20190Y28140D01*
X20308Y28163D01*
X20408Y28230D01*
X21868Y29691D01*
X22779D01*
Y28831D01*
X26884D01*
Y31166D01*
X26420D01*
Y31696D01*
X26442Y31711D01*
X26569Y31643D01*
Y31515D01*
X28174D01*
Y31909D01*
X28447D01*
X28643Y31713D01*
X28643Y31713D01*
X28743Y31646D01*
X28861Y31623D01*
X28861Y31623D01*
X29275D01*
Y31479D01*
X30780D01*
Y32384D01*
X29275D01*
Y32239D01*
X28989D01*
X28793Y32435D01*
X28693Y32502D01*
X28575Y32525D01*
X28575Y32525D01*
X28174D01*
Y32920D01*
D02*
G37*
G36*
X25609Y33274D02*
X24054D01*
Y33182D01*
X23247D01*
X23173Y33168D01*
X23151D01*
X23131Y33159D01*
X23070Y33147D01*
X23019Y33113D01*
X22985Y33099D01*
X22959Y33073D01*
X22921Y33047D01*
X22915Y33041D01*
X22890Y33004D01*
X22857Y32971D01*
X22840Y32929D01*
X22815Y32892D01*
X22806Y32847D01*
X22789Y32805D01*
Y32760D01*
X22780Y32715D01*
X22789Y32671D01*
Y32625D01*
X22806Y32583D01*
X22815Y32539D01*
X22840Y32501D01*
X22857Y32459D01*
X22890Y32427D01*
X22915Y32389D01*
X22953Y32364D01*
X22985Y32332D01*
X23027Y32314D01*
X23064Y32289D01*
X23109Y32280D01*
X23151Y32263D01*
X23196D01*
X23241Y32254D01*
X23271Y32260D01*
X24054D01*
Y32169D01*
X25609D01*
Y33274D01*
D02*
G37*
G36*
X32727Y31581D02*
X32027D01*
Y31181D01*
X32727D01*
Y31581D01*
D02*
G37*
G36*
X31627D02*
X30927D01*
Y31181D01*
X31627D01*
Y31581D01*
D02*
G37*
G36*
X35204Y31628D02*
X34429D01*
Y31053D01*
X35204D01*
Y31628D01*
D02*
G37*
G36*
X34029D02*
X33254D01*
Y31053D01*
X34029D01*
Y31628D01*
D02*
G37*
G36*
X32727Y30781D02*
X32027D01*
Y30381D01*
X32727D01*
Y30781D01*
D02*
G37*
G36*
X31627D02*
X30927D01*
Y30381D01*
X31627D01*
Y30781D01*
D02*
G37*
G36*
X28237Y30786D02*
X28030D01*
X27829Y30733D01*
X27650Y30629D01*
X27503Y30482D01*
X27400Y30303D01*
X27346Y30103D01*
Y29895D01*
X27400Y29695D01*
X27503Y29515D01*
X27650Y29369D01*
X27829Y29265D01*
X28030Y29212D01*
X28237D01*
X28437Y29265D01*
X28617Y29369D01*
X28763Y29515D01*
X28795Y29570D01*
X30027D01*
X30072Y29579D01*
X30780D01*
Y30484D01*
X30072D01*
X30027Y30492D01*
X28753D01*
X28617Y30629D01*
X28437Y30733D01*
X28237Y30786D01*
D02*
G37*
G36*
X14816Y29548D02*
X13916D01*
Y28648D01*
X14816D01*
Y29548D01*
D02*
G37*
G36*
X13516D02*
X12616D01*
Y28648D01*
X13516D01*
Y29548D01*
D02*
G37*
G36*
X16381Y29400D02*
X16131D01*
X15888Y29336D01*
X15671Y29210D01*
X15494Y29033D01*
X15368Y28816D01*
X15304Y28573D01*
Y28323D01*
X15368Y28080D01*
X15399Y28027D01*
X14933Y27561D01*
X14816Y27610D01*
Y28248D01*
X13916D01*
Y27348D01*
X14554D01*
X14603Y27231D01*
X14514Y27142D01*
X14447Y27042D01*
X14424Y26924D01*
X14424Y26924D01*
Y23507D01*
X14217D01*
X14138Y23491D01*
X14070Y23446D01*
X14025Y23379D01*
X14010Y23300D01*
Y22802D01*
X14025Y22722D01*
X14070Y22655D01*
X14079Y22649D01*
X14082Y22629D01*
X14024Y22515D01*
X13715D01*
X13688Y22617D01*
X13584Y22797D01*
X13437Y22943D01*
X13258Y23047D01*
X13058Y23101D01*
X12850D01*
X12650Y23047D01*
X12471Y22943D01*
X12324Y22797D01*
X12220Y22617D01*
X12167Y22417D01*
Y22210D01*
X12220Y22009D01*
X12324Y21830D01*
X12471Y21683D01*
X12650Y21579D01*
X12762Y21550D01*
X12745Y21423D01*
X11788D01*
Y21853D01*
X10134D01*
Y21473D01*
X8128D01*
X8024Y21452D01*
X7936Y21393D01*
X7936Y21393D01*
X7391Y20849D01*
X4215D01*
X4189Y20944D01*
X4064Y21161D01*
X3887Y21339D01*
X3670Y21464D01*
X3427Y21529D01*
X3177D01*
X2934Y21464D01*
X2717Y21339D01*
X2540Y21161D01*
X2414Y20944D01*
X2350Y20702D01*
Y20451D01*
X2414Y20209D01*
X2540Y19992D01*
X2717Y19815D01*
X2934Y19689D01*
X3177Y19624D01*
X3427D01*
X3670Y19689D01*
X3887Y19815D01*
X4064Y19992D01*
X4189Y20209D01*
X4215Y20305D01*
X7504D01*
X7608Y20325D01*
X7696Y20384D01*
X8241Y20929D01*
X10134D01*
Y20548D01*
X11788D01*
Y20879D01*
X14014D01*
X14025Y20822D01*
X14070Y20755D01*
X14138Y20710D01*
X14217Y20694D01*
X15115D01*
X15194Y20710D01*
X15262Y20755D01*
X15307Y20822D01*
X15322Y20902D01*
Y21400D01*
X15307Y21479D01*
X15262Y21546D01*
X15253Y21552D01*
Y21699D01*
X15262Y21705D01*
X15307Y21772D01*
X15322Y21852D01*
Y22350D01*
X15307Y22429D01*
X15262Y22496D01*
X15253Y22502D01*
Y22649D01*
X15262Y22655D01*
X15307Y22722D01*
X15322Y22802D01*
Y23300D01*
X15307Y23379D01*
X15262Y23446D01*
X15194Y23491D01*
X15115Y23507D01*
X15040D01*
Y26796D01*
X15835Y27591D01*
X15888Y27560D01*
X16131Y27496D01*
X16381D01*
X16624Y27560D01*
X16841Y27686D01*
X17018Y27863D01*
X17143Y28080D01*
X17208Y28323D01*
Y28573D01*
X17143Y28816D01*
X17018Y29033D01*
X16841Y29210D01*
X16624Y29336D01*
X16381Y29400D01*
D02*
G37*
G36*
X35204Y30653D02*
X34229D01*
X33254D01*
Y30078D01*
X33331D01*
X33402Y29981D01*
X33402Y29951D01*
Y28726D01*
X33768D01*
Y27915D01*
X33777Y27870D01*
Y27825D01*
X33794Y27783D01*
X33803Y27738D01*
X33828Y27700D01*
X33846Y27658D01*
X33878Y27626D01*
X33903Y27588D01*
X33941Y27563D01*
X33973Y27531D01*
X34015Y27514D01*
X34053Y27488D01*
X34097Y27480D01*
X34139Y27462D01*
X34185D01*
X34229Y27453D01*
X34274Y27462D01*
X34319D01*
X34361Y27480D01*
X34406Y27488D01*
X34444Y27514D01*
X34486Y27531D01*
X34518Y27563D01*
X34555Y27588D01*
X34581Y27626D01*
X34613Y27658D01*
X34630Y27700D01*
X34655Y27738D01*
X34664Y27783D01*
X34682Y27825D01*
Y27870D01*
X34691Y27915D01*
Y28726D01*
X35057D01*
Y29951D01*
X35057Y29981D01*
X35128Y30078D01*
X35204D01*
Y30653D01*
D02*
G37*
G36*
X13516Y28248D02*
X12616D01*
Y27348D01*
X13516D01*
Y28248D01*
D02*
G37*
G36*
X2122Y28392D02*
X1942D01*
X1776Y28324D01*
X1648Y28196D01*
X1580Y28030D01*
Y27850D01*
X1648Y27684D01*
X1724Y27609D01*
Y26927D01*
X1724Y26927D01*
X1747Y26809D01*
X1814Y26709D01*
X2445Y26077D01*
X2414Y26024D01*
X2350Y25782D01*
Y25531D01*
X2414Y25289D01*
X2540Y25072D01*
X2717Y24895D01*
X2934Y24769D01*
X3177Y24704D01*
X3427D01*
X3670Y24769D01*
X3887Y24895D01*
X4064Y25072D01*
X4189Y25289D01*
X4254Y25531D01*
Y25782D01*
X4189Y26024D01*
X4064Y26241D01*
X3887Y26419D01*
X3670Y26544D01*
X3427Y26609D01*
X3177D01*
X2934Y26544D01*
X2881Y26513D01*
X2340Y27054D01*
Y27609D01*
X2416Y27684D01*
X2484Y27850D01*
Y28030D01*
X2416Y28196D01*
X2288Y28324D01*
X2122Y28392D01*
D02*
G37*
G36*
X3427Y24069D02*
X3177D01*
X2934Y24004D01*
X2717Y23879D01*
X2540Y23701D01*
X2414Y23484D01*
X2398Y23424D01*
X1625D01*
X1551Y23498D01*
X1385Y23566D01*
X1205D01*
X1039Y23498D01*
X911Y23370D01*
X842Y23204D01*
Y23024D01*
X911Y22858D01*
X1039Y22730D01*
X1205Y22662D01*
X1385D01*
X1551Y22730D01*
X1628Y22807D01*
X2399D01*
X2414Y22749D01*
X2540Y22532D01*
X2717Y22354D01*
X2934Y22229D01*
X3177Y22164D01*
X3427D01*
X3670Y22229D01*
X3887Y22354D01*
X4064Y22532D01*
X4189Y22749D01*
X4254Y22991D01*
Y23242D01*
X4189Y23484D01*
X4064Y23701D01*
X3887Y23879D01*
X3670Y24004D01*
X3427Y24069D01*
D02*
G37*
G36*
X18895Y24920D02*
X18687D01*
X18487Y24866D01*
X18308Y24763D01*
X18161Y24616D01*
X18057Y24437D01*
X18012Y24268D01*
X17813D01*
X17709Y24248D01*
X17621Y24189D01*
X17224Y23792D01*
X17165Y23703D01*
X17144Y23599D01*
Y23507D01*
X16967D01*
X16888Y23491D01*
X16820Y23446D01*
X16775Y23379D01*
X16760Y23300D01*
Y22802D01*
X16775Y22722D01*
X16812Y22668D01*
X16714Y22603D01*
X16636Y22487D01*
X16609Y22350D01*
Y22301D01*
X17416D01*
X18223D01*
Y22350D01*
X18196Y22487D01*
X18118Y22603D01*
X18020Y22668D01*
X18057Y22722D01*
X18072Y22802D01*
Y23300D01*
X18057Y23379D01*
X18012Y23446D01*
X17944Y23491D01*
X17884Y23503D01*
X17821Y23614D01*
X17819Y23618D01*
X17926Y23724D01*
X18118D01*
X18161Y23649D01*
X18308Y23503D01*
X18487Y23399D01*
X18687Y23345D01*
X18895D01*
X19095Y23399D01*
X19275Y23503D01*
X19421Y23649D01*
X19525Y23829D01*
X19578Y24029D01*
Y24236D01*
X19525Y24437D01*
X19421Y24616D01*
X19275Y24763D01*
X19095Y24866D01*
X18895Y24920D01*
D02*
G37*
G36*
X11936Y23801D02*
X11161D01*
Y23201D01*
X11936D01*
Y23801D01*
D02*
G37*
G36*
X10761D02*
X9986D01*
Y23201D01*
X10761D01*
Y23801D01*
D02*
G37*
G36*
X26884Y25300D02*
X22779D01*
Y22965D01*
X24559D01*
Y22785D01*
X24231Y22457D01*
X21730D01*
X21720Y22481D01*
X21592Y22609D01*
X21426Y22677D01*
X21246D01*
X21080Y22609D01*
X20952Y22481D01*
X20884Y22315D01*
Y22135D01*
X20952Y21969D01*
X21064Y21857D01*
Y21633D01*
X20517D01*
Y21423D01*
X18068D01*
X18057Y21479D01*
X18020Y21533D01*
X18118Y21599D01*
X18196Y21715D01*
X18223Y21852D01*
Y21901D01*
X17416D01*
X16609D01*
Y21852D01*
X16636Y21715D01*
X16714Y21599D01*
X16812Y21533D01*
X16775Y21479D01*
X16760Y21400D01*
Y20902D01*
X16775Y20822D01*
X16820Y20755D01*
X16888Y20710D01*
X16967Y20694D01*
X17865D01*
X17944Y20710D01*
X18012Y20755D01*
X18057Y20822D01*
X18068Y20879D01*
X20517D01*
Y20028D01*
X21921D01*
Y21633D01*
X21608D01*
Y21857D01*
X21664Y21913D01*
X24343D01*
X24447Y21934D01*
X24536Y21992D01*
X25024Y22480D01*
X25083Y22569D01*
X25103Y22673D01*
Y22965D01*
X26884D01*
Y25300D01*
D02*
G37*
G36*
X11936Y22801D02*
X11161D01*
Y22201D01*
X11936D01*
Y22801D01*
D02*
G37*
G36*
X10761D02*
X9986D01*
Y22201D01*
X10761D01*
Y22801D01*
D02*
G37*
G36*
X22545Y19470D02*
X22045D01*
Y18745D01*
X22545D01*
Y19470D01*
D02*
G37*
G36*
X21645D02*
X21145D01*
Y18745D01*
X21645D01*
Y19470D01*
D02*
G37*
G36*
X10893Y18889D02*
X8489D01*
Y18447D01*
X7470D01*
Y18827D01*
X5816D01*
Y17522D01*
X7470D01*
Y17903D01*
X8489D01*
Y17184D01*
X10893D01*
Y18889D01*
D02*
G37*
G36*
X24021Y21633D02*
X22617D01*
Y20028D01*
X23173D01*
Y19322D01*
X22893D01*
Y17767D01*
X23997D01*
Y19322D01*
X23717D01*
Y20028D01*
X24021D01*
Y21633D01*
D02*
G37*
G36*
X22545Y18345D02*
X22045D01*
Y17620D01*
X22545D01*
Y18345D01*
D02*
G37*
G36*
X21645D02*
X21145D01*
Y17620D01*
X21645D01*
Y18345D01*
D02*
G37*
G36*
X18895Y20602D02*
X18687D01*
X18487Y20548D01*
X18308Y20445D01*
X18161Y20298D01*
X18057Y20119D01*
X18004Y19918D01*
Y19711D01*
X18057Y19511D01*
X18161Y19331D01*
X18308Y19185D01*
X18487Y19081D01*
X18519Y19072D01*
Y18889D01*
X17589D01*
Y17184D01*
X19993D01*
Y18889D01*
X19063D01*
Y19072D01*
X19095Y19081D01*
X19275Y19185D01*
X19421Y19331D01*
X19525Y19511D01*
X19578Y19711D01*
Y19918D01*
X19525Y20119D01*
X19421Y20298D01*
X19275Y20445D01*
X19095Y20548D01*
X18895Y20602D01*
D02*
G37*
G36*
X3427Y18989D02*
X3177D01*
X2934Y18924D01*
X2717Y18799D01*
X2540Y18621D01*
X2414Y18404D01*
X2350Y18162D01*
Y17911D01*
X2414Y17669D01*
X2540Y17452D01*
X2717Y17274D01*
X2934Y17149D01*
X3177Y17084D01*
X3427D01*
X3670Y17149D01*
X3887Y17274D01*
X4064Y17452D01*
X4189Y17669D01*
X4254Y17911D01*
Y18162D01*
X4189Y18404D01*
X4064Y18621D01*
X3887Y18799D01*
X3670Y18924D01*
X3427Y18989D01*
D02*
G37*
G36*
X7618Y17175D02*
X6843D01*
Y16575D01*
X7618D01*
Y17175D01*
D02*
G37*
G36*
X6443D02*
X5668D01*
Y16575D01*
X6443D01*
Y17175D01*
D02*
G37*
G36*
X3702Y16603D02*
X3502D01*
Y15697D01*
X4408D01*
Y15897D01*
X4384Y16079D01*
X4313Y16250D01*
X4201Y16396D01*
X4055Y16508D01*
X3885Y16579D01*
X3702Y16603D01*
D02*
G37*
G36*
X3102D02*
X2902D01*
X2719Y16579D01*
X2549Y16508D01*
X2403Y16396D01*
X2291Y16250D01*
X2220Y16079D01*
X2196Y15897D01*
Y15697D01*
X3102D01*
Y16603D01*
D02*
G37*
G36*
X7618Y16175D02*
X6843D01*
Y15575D01*
X7618D01*
Y16175D01*
D02*
G37*
G36*
X6443D02*
X5668D01*
Y15575D01*
X6443D01*
Y16175D01*
D02*
G37*
G36*
X4408Y15297D02*
X3502D01*
Y14391D01*
X3702D01*
X3885Y14415D01*
X4055Y14485D01*
X4201Y14597D01*
X4313Y14744D01*
X4384Y14914D01*
X4408Y15097D01*
Y15297D01*
D02*
G37*
G36*
X3102D02*
X2196D01*
Y15097D01*
X2220Y14914D01*
X2291Y14744D01*
X2403Y14597D01*
X2549Y14485D01*
X2719Y14415D01*
X2902Y14391D01*
X3102D01*
Y15297D01*
D02*
G37*
G36*
X18895Y16193D02*
X18687D01*
X18487Y16139D01*
X18308Y16035D01*
X18161Y15889D01*
X18057Y15709D01*
X18004Y15509D01*
Y15302D01*
X18057Y15101D01*
X18161Y14922D01*
X18308Y14775D01*
X18483Y14674D01*
Y14389D01*
X17589D01*
Y12684D01*
X19993D01*
Y14389D01*
X19099D01*
Y14674D01*
X19275Y14775D01*
X19421Y14922D01*
X19525Y15101D01*
X19578Y15302D01*
Y15509D01*
X19525Y15709D01*
X19421Y15889D01*
X19275Y16035D01*
X19095Y16139D01*
X18895Y16193D01*
D02*
G37*
G36*
X9795D02*
X9587D01*
X9387Y16139D01*
X9208Y16035D01*
X9061Y15889D01*
X8957Y15709D01*
X8904Y15509D01*
Y15302D01*
X8957Y15101D01*
X9061Y14922D01*
X9208Y14775D01*
X9383Y14674D01*
Y14389D01*
X8489D01*
Y12684D01*
X10893D01*
Y14389D01*
X9999D01*
Y14674D01*
X10175Y14775D01*
X10321Y14922D01*
X10425Y15101D01*
X10478Y15302D01*
Y15509D01*
X10425Y15709D01*
X10321Y15889D01*
X10175Y16035D01*
X9995Y16139D01*
X9795Y16193D01*
D02*
G37*
G36*
X12566Y7333D02*
X12326D01*
X12105Y7242D01*
X11935Y7072D01*
X11844Y6851D01*
Y6611D01*
X11935Y6390D01*
X12105Y6220D01*
X12138Y6207D01*
Y5843D01*
X11669D01*
Y4738D01*
X13223D01*
Y5843D01*
X12754D01*
Y6207D01*
X12787Y6220D01*
X12957Y6390D01*
X13048Y6611D01*
Y6851D01*
X12957Y7072D01*
X12787Y7242D01*
X12566Y7333D01*
D02*
G37*
G36*
X17564Y4610D02*
X15710D01*
Y4148D01*
X13223D01*
Y4243D01*
X11669D01*
Y3138D01*
X13223D01*
Y3225D01*
X15710D01*
Y2756D01*
X17564D01*
Y4610D01*
D02*
G37*
G36*
X19377Y4742D02*
Y3883D01*
X20236D01*
X20179Y4098D01*
X20037Y4343D01*
X19837Y4543D01*
X19592Y4685D01*
X19377Y4742D01*
D02*
G37*
G36*
X18977D02*
X18762Y4685D01*
X18517Y4543D01*
X18317Y4343D01*
X18175Y4098D01*
X18118Y3883D01*
X18977D01*
Y4742D01*
D02*
G37*
G36*
X5163Y6652D02*
X4837D01*
X4518Y6589D01*
X4217Y6464D01*
X3947Y6284D01*
X3717Y6053D01*
X3536Y5783D01*
X3411Y5482D01*
X3348Y5163D01*
Y4837D01*
X3411Y4518D01*
X3536Y4217D01*
X3717Y3947D01*
X3947Y3717D01*
X4217Y3536D01*
X4518Y3411D01*
X4837Y3348D01*
X5163D01*
X5482Y3411D01*
X5783Y3536D01*
X6053Y3717D01*
X6284Y3947D01*
X6464Y4217D01*
X6589Y4518D01*
X6652Y4837D01*
Y5163D01*
X6589Y5482D01*
X6464Y5783D01*
X6284Y6053D01*
X6053Y6284D01*
X5783Y6464D01*
X5482Y6589D01*
X5163Y6652D01*
D02*
G37*
G36*
X20236Y3483D02*
X19377D01*
Y2624D01*
X19592Y2681D01*
X19837Y2823D01*
X20037Y3023D01*
X20179Y3268D01*
X20236Y3483D01*
D02*
G37*
G36*
X18977D02*
X18118D01*
X18175Y3268D01*
X18317Y3023D01*
X18517Y2823D01*
X18762Y2681D01*
X18977Y2624D01*
Y3483D01*
D02*
G37*
G36*
X5163Y96652D02*
X4837D01*
X4518Y96589D01*
X4217Y96464D01*
X3947Y96284D01*
X3717Y96053D01*
X3536Y95783D01*
X3411Y95482D01*
X3348Y95163D01*
Y94837D01*
X3411Y94518D01*
X3536Y94217D01*
X3717Y93947D01*
X3947Y93716D01*
X4217Y93536D01*
X4518Y93411D01*
X4837Y93348D01*
X5163D01*
X5482Y93411D01*
X5783Y93536D01*
X6053Y93716D01*
X6284Y93947D01*
X6464Y94217D01*
X6589Y94518D01*
X6652Y94837D01*
Y95163D01*
X6589Y95482D01*
X6464Y95783D01*
X6284Y96053D01*
X6053Y96284D01*
X5783Y96464D01*
X5482Y96589D01*
X5163Y96652D01*
D02*
G37*
G36*
X21253Y91640D02*
X19758D01*
Y90905D01*
X21253D01*
Y91640D01*
D02*
G37*
G36*
X19358D02*
X17863D01*
Y90905D01*
X19358D01*
Y91640D01*
D02*
G37*
G36*
X15395Y91492D02*
X12301D01*
Y89918D01*
X15395D01*
Y91492D01*
D02*
G37*
G36*
X16855Y90587D02*
X16551D01*
X16258Y90509D01*
X15995Y90357D01*
X15781Y90143D01*
X15629Y89880D01*
X15551Y89587D01*
Y89283D01*
X15629Y88990D01*
X15781Y88727D01*
X15995Y88513D01*
X16258Y88361D01*
X16551Y88283D01*
X16855D01*
X17148Y88361D01*
X17411Y88513D01*
X17625Y88727D01*
X17777Y88990D01*
X17855Y89283D01*
Y89587D01*
X17837Y89654D01*
X17938Y89770D01*
X19358D01*
Y90505D01*
X17863D01*
Y89985D01*
X17736Y89951D01*
X17625Y90143D01*
X17411Y90357D01*
X17148Y90509D01*
X16855Y90587D01*
D02*
G37*
G36*
X15395Y88952D02*
X12301D01*
Y87378D01*
X15395D01*
Y88952D01*
D02*
G37*
G36*
Y86412D02*
X12301D01*
Y84838D01*
X15395D01*
Y86412D01*
D02*
G37*
G36*
Y83872D02*
X12301D01*
Y83546D01*
X11457D01*
X11280Y83511D01*
X11180Y83444D01*
X11174Y83442D01*
X11169Y83436D01*
X11131Y83411D01*
X11104Y83384D01*
X11079Y83346D01*
X11046Y83314D01*
X11029Y83272D01*
X11004Y83235D01*
X10995Y83190D01*
X10978Y83148D01*
Y83103D01*
X10969Y83058D01*
X10978Y83013D01*
Y82968D01*
X10995Y82926D01*
X11004Y82881D01*
X11029Y82844D01*
X11046Y82802D01*
X11079Y82770D01*
X11104Y82732D01*
X11142Y82707D01*
X11174Y82674D01*
X11216Y82657D01*
X11253Y82632D01*
X11298Y82623D01*
X11340Y82606D01*
X11385D01*
X11430Y82597D01*
X11475Y82606D01*
X11520D01*
X11562Y82623D01*
X11566Y82624D01*
X12301D01*
Y82298D01*
X15395D01*
Y83872D01*
D02*
G37*
G36*
X4924Y81844D02*
Y80972D01*
X5797D01*
X5738Y81192D01*
X5595Y81440D01*
X5392Y81642D01*
X5144Y81785D01*
X4924Y81844D01*
D02*
G37*
G36*
X4524D02*
X4305Y81785D01*
X4057Y81642D01*
X3854Y81440D01*
X3711Y81192D01*
X3652Y80972D01*
X4524D01*
Y81844D01*
D02*
G37*
G36*
X15395Y81332D02*
X12301D01*
Y81106D01*
X10541D01*
X10496Y81097D01*
X10451D01*
X10409Y81080D01*
X10364Y81071D01*
X10327Y81046D01*
X10285Y81029D01*
X10253Y80996D01*
X10215Y80971D01*
X10190Y80933D01*
X10157Y80901D01*
X10140Y80859D01*
X10115Y80822D01*
X10106Y80777D01*
X10089Y80735D01*
Y80690D01*
X10080Y80645D01*
X10089Y80600D01*
Y80555D01*
X10106Y80513D01*
X10115Y80468D01*
X10140Y80431D01*
X10157Y80389D01*
X10190Y80357D01*
X10215Y80319D01*
X10253Y80294D01*
X10285Y80261D01*
X10327Y80244D01*
X10364Y80219D01*
X10409Y80210D01*
X10451Y80193D01*
X10496D01*
X10541Y80184D01*
X12301D01*
Y79758D01*
X15395D01*
Y81332D01*
D02*
G37*
G36*
X5797Y80572D02*
X4924D01*
Y79700D01*
X5144Y79759D01*
X5392Y79902D01*
X5595Y80104D01*
X5738Y80352D01*
X5797Y80572D01*
D02*
G37*
G36*
X4524D02*
X3652D01*
X3711Y80352D01*
X3854Y80104D01*
X4057Y79902D01*
X4305Y79759D01*
X4524Y79700D01*
Y80572D01*
D02*
G37*
G36*
X4848Y79172D02*
X4601D01*
X4362Y79108D01*
X4147Y78984D01*
X3972Y78809D01*
X3849Y78595D01*
X3785Y78356D01*
Y78108D01*
X3849Y77869D01*
X3972Y77655D01*
X4147Y77480D01*
X4362Y77356D01*
X4601Y77292D01*
X4848D01*
X5087Y77356D01*
X5301Y77480D01*
X5476Y77655D01*
X5570Y77818D01*
X8884D01*
Y77455D01*
X9989D01*
Y79009D01*
X8884D01*
Y78646D01*
X5570D01*
X5476Y78809D01*
X5301Y78984D01*
X5087Y79108D01*
X4848Y79172D01*
D02*
G37*
G36*
X11589Y79009D02*
X10484D01*
Y77455D01*
X11589D01*
Y77495D01*
X11716Y77563D01*
X11806Y77503D01*
X12014Y77461D01*
X12301D01*
Y77218D01*
X15395D01*
Y78792D01*
X12301D01*
Y78667D01*
X12174Y78615D01*
X12172Y78617D01*
X11995Y78734D01*
X11787Y78776D01*
X11589D01*
Y79009D01*
D02*
G37*
G36*
X4848Y76632D02*
X4601D01*
X4362Y76568D01*
X4147Y76444D01*
X3972Y76269D01*
X3849Y76055D01*
X3785Y75816D01*
Y75568D01*
X3849Y75329D01*
X3972Y75115D01*
X4147Y74940D01*
X4362Y74816D01*
X4601Y74752D01*
X4848D01*
X5087Y74816D01*
X5301Y74940D01*
X5476Y75115D01*
X5570Y75278D01*
X8884D01*
Y74915D01*
X9989D01*
Y76469D01*
X8884D01*
Y76106D01*
X5570D01*
X5476Y76269D01*
X5301Y76444D01*
X5087Y76568D01*
X4848Y76632D01*
D02*
G37*
G36*
X11589Y76469D02*
X10484D01*
Y74915D01*
X11589D01*
Y74973D01*
X11716Y75041D01*
X11833Y74963D01*
X12041Y74921D01*
X12301D01*
Y74678D01*
X15395D01*
Y76252D01*
X12301D01*
Y76154D01*
X12257Y76121D01*
X12174Y76093D01*
X12022Y76194D01*
X11814Y76236D01*
X11589D01*
Y76469D01*
D02*
G37*
G36*
X15395Y73712D02*
X12301D01*
Y73442D01*
X11589D01*
Y73675D01*
X10484D01*
Y72121D01*
X11589D01*
Y72354D01*
X12301D01*
Y72138D01*
X15395D01*
Y73712D01*
D02*
G37*
G36*
X4848Y74092D02*
X4601D01*
X4362Y74028D01*
X4147Y73904D01*
X3972Y73729D01*
X3849Y73515D01*
X3785Y73276D01*
Y73028D01*
X3849Y72789D01*
X3972Y72575D01*
X4147Y72400D01*
X4362Y72276D01*
X4601Y72212D01*
X4848D01*
X5087Y72276D01*
X5301Y72400D01*
X5476Y72575D01*
X5570Y72738D01*
X7106D01*
X7238Y72605D01*
X7373Y72515D01*
X7531Y72484D01*
X8884D01*
Y72121D01*
X9989D01*
Y73675D01*
X8884D01*
Y73312D01*
X7703D01*
X7570Y73445D01*
X7436Y73535D01*
X7277Y73566D01*
X5570D01*
X5476Y73729D01*
X5301Y73904D01*
X5087Y74028D01*
X4848Y74092D01*
D02*
G37*
G36*
X15395Y71172D02*
X12301D01*
Y70929D01*
X12068D01*
X11860Y70887D01*
X11712Y70789D01*
X11585Y70818D01*
Y70818D01*
X10480D01*
Y69263D01*
X11585D01*
Y69497D01*
X11724D01*
X11932Y69538D01*
X12108Y69656D01*
X12174Y69721D01*
X12301Y69669D01*
Y69598D01*
X15395D01*
Y71172D01*
D02*
G37*
G36*
X9985Y70818D02*
X8880D01*
Y70455D01*
X7531D01*
X7373Y70423D01*
X7238Y70334D01*
X6882Y69977D01*
X5422D01*
X5324Y70148D01*
X5149Y70323D01*
X4935Y70446D01*
X4696Y70510D01*
X4448D01*
X4209Y70446D01*
X3995Y70323D01*
X3820Y70148D01*
X3696Y69933D01*
X3632Y69694D01*
Y69447D01*
X3696Y69208D01*
X3820Y68994D01*
X3995Y68819D01*
X4209Y68695D01*
X4448Y68631D01*
X4696D01*
X4935Y68695D01*
X5149Y68819D01*
X5324Y68994D01*
X5414Y69149D01*
X7054D01*
X7212Y69180D01*
X7347Y69270D01*
X7703Y69626D01*
X8880D01*
Y69263D01*
X9985D01*
Y70818D01*
D02*
G37*
G36*
X15395Y68632D02*
X12301D01*
Y68389D01*
X12159D01*
X11950Y68347D01*
X11774Y68230D01*
X11712Y68168D01*
X11585Y68220D01*
Y68278D01*
X10480D01*
Y66723D01*
X11585D01*
Y66957D01*
X11814D01*
X12022Y66998D01*
X12174Y67099D01*
X12301Y67058D01*
Y67058D01*
X15395D01*
Y68632D01*
D02*
G37*
G36*
X9985Y68278D02*
X8880D01*
Y67915D01*
X7531D01*
X7373Y67883D01*
X7238Y67794D01*
X6882Y67437D01*
X5422D01*
X5324Y67608D01*
X5149Y67783D01*
X4935Y67906D01*
X4696Y67970D01*
X4448D01*
X4209Y67906D01*
X3995Y67783D01*
X3820Y67608D01*
X3696Y67393D01*
X3632Y67154D01*
Y66907D01*
X3696Y66668D01*
X3820Y66454D01*
X3995Y66279D01*
X4209Y66155D01*
X4448Y66091D01*
X4696D01*
X4935Y66155D01*
X5149Y66279D01*
X5324Y66454D01*
X5414Y66609D01*
X7054D01*
X7212Y66640D01*
X7347Y66730D01*
X7703Y67086D01*
X8880D01*
Y66723D01*
X9985D01*
Y68278D01*
D02*
G37*
G36*
X15395Y66092D02*
X12301D01*
Y65849D01*
X12068D01*
X11860Y65807D01*
X11684Y65690D01*
X11664Y65670D01*
X11547Y65719D01*
Y65738D01*
X10442D01*
Y64183D01*
X11547D01*
Y64417D01*
X11724D01*
X11932Y64458D01*
X12108Y64576D01*
X12174Y64641D01*
X12301Y64589D01*
Y64518D01*
X15395D01*
Y66092D01*
D02*
G37*
G36*
X9947Y65738D02*
X8842D01*
Y65375D01*
X7531D01*
X7373Y65343D01*
X7238Y65254D01*
X6882Y64897D01*
X5422D01*
X5324Y65068D01*
X5149Y65243D01*
X4935Y65366D01*
X4696Y65430D01*
X4448D01*
X4209Y65366D01*
X3995Y65243D01*
X3820Y65068D01*
X3696Y64853D01*
X3632Y64614D01*
Y64367D01*
X3696Y64128D01*
X3820Y63914D01*
X3995Y63739D01*
X4209Y63615D01*
X4448Y63551D01*
X4696D01*
X4935Y63615D01*
X5149Y63739D01*
X5324Y63914D01*
X5414Y64069D01*
X7054D01*
X7212Y64100D01*
X7347Y64190D01*
X7703Y64546D01*
X8842D01*
Y64183D01*
X9947D01*
Y65738D01*
D02*
G37*
G36*
X15395Y63552D02*
X12301D01*
Y63153D01*
X8372D01*
X8218Y63217D01*
X8038D01*
X7872Y63149D01*
X7744Y63021D01*
X7676Y62855D01*
Y62675D01*
X7744Y62509D01*
X7872Y62381D01*
X8038Y62313D01*
X8218D01*
X8372Y62377D01*
X12301D01*
Y61978D01*
X15395D01*
Y63552D01*
D02*
G37*
G36*
X4772Y63023D02*
Y62151D01*
X5644D01*
X5585Y62370D01*
X5442Y62618D01*
X5240Y62821D01*
X4992Y62964D01*
X4772Y63023D01*
D02*
G37*
G36*
X4372Y63023D02*
X4152Y62964D01*
X3904Y62821D01*
X3702Y62618D01*
X3559Y62370D01*
X3500Y62151D01*
X4372D01*
Y63023D01*
D02*
G37*
G36*
Y61751D02*
X3500D01*
X3559Y61531D01*
X3702Y61283D01*
X3904Y61080D01*
X4152Y60937D01*
X4372Y60878D01*
Y61751D01*
D02*
G37*
G36*
X5644D02*
X4772D01*
Y60878D01*
X4992Y60937D01*
X5240Y61080D01*
X5442Y61283D01*
X5585Y61531D01*
X5644Y61751D01*
D02*
G37*
G36*
X15395Y61012D02*
X12301D01*
Y60613D01*
X10150D01*
X9996Y60677D01*
X9816D01*
X9650Y60609D01*
X9522Y60481D01*
X9454Y60315D01*
Y60135D01*
X9522Y59969D01*
X9650Y59841D01*
X9816Y59773D01*
X9996D01*
X10150Y59837D01*
X12301D01*
Y59438D01*
X15395D01*
Y61012D01*
D02*
G37*
G36*
Y58472D02*
X12301D01*
Y58060D01*
X11591D01*
X11469Y58110D01*
X11289D01*
X11123Y58042D01*
X10996Y57914D01*
X10927Y57748D01*
Y57568D01*
X10996Y57402D01*
X11123Y57274D01*
X11289Y57206D01*
X11469D01*
X11635Y57274D01*
X11644Y57283D01*
X12301D01*
Y56898D01*
X15395D01*
Y58472D01*
D02*
G37*
G36*
X21253Y56080D02*
X19758D01*
Y55345D01*
X21253D01*
Y56080D01*
D02*
G37*
G36*
X16855Y57567D02*
X16551D01*
X16258Y57489D01*
X15995Y57337D01*
X15781Y57123D01*
X15629Y56860D01*
X15551Y56567D01*
Y56263D01*
X15629Y55970D01*
X15781Y55707D01*
X15995Y55493D01*
X16258Y55341D01*
X16551Y55263D01*
X16855D01*
X17148Y55341D01*
X17411Y55493D01*
X17625Y55707D01*
X17736Y55899D01*
X17863Y55865D01*
Y55345D01*
X19358D01*
Y56080D01*
X17938D01*
X17837Y56196D01*
X17855Y56263D01*
Y56567D01*
X17777Y56860D01*
X17625Y57123D01*
X17411Y57337D01*
X17148Y57489D01*
X16855Y57567D01*
D02*
G37*
G36*
X9820Y55925D02*
X7820D01*
Y54810D01*
X9820D01*
Y55925D01*
D02*
G37*
G36*
X7420D02*
X5420D01*
Y54810D01*
X7420D01*
Y55925D01*
D02*
G37*
G36*
X15395Y55932D02*
X12301D01*
Y54358D01*
X15395D01*
Y55932D01*
D02*
G37*
G36*
X21253Y54945D02*
X19758D01*
Y54210D01*
X21253D01*
Y54945D01*
D02*
G37*
G36*
X19358D02*
X17863D01*
Y54210D01*
X19358D01*
Y54945D01*
D02*
G37*
G36*
X9820Y54410D02*
X7820D01*
Y53295D01*
X9820D01*
Y54410D01*
D02*
G37*
G36*
X7420D02*
X5420D01*
Y53295D01*
X7420D01*
Y54410D01*
D02*
G37*
G36*
X82553Y41288D02*
X81778D01*
Y40713D01*
X82553D01*
Y41288D01*
D02*
G37*
G36*
X81378D02*
X80603D01*
Y40713D01*
X81378D01*
Y41288D01*
D02*
G37*
G36*
X77090Y41638D02*
X76190D01*
Y39938D01*
X77090D01*
Y41638D01*
D02*
G37*
G36*
X75790D02*
X74890D01*
Y39938D01*
X75790D01*
Y41638D01*
D02*
G37*
G36*
X85062Y40395D02*
X84812D01*
Y39263D01*
X85419D01*
Y40038D01*
X85392Y40175D01*
X85314Y40291D01*
X85199Y40368D01*
X85062Y40395D01*
D02*
G37*
G36*
X84412D02*
X84162D01*
X84025Y40368D01*
X83910Y40291D01*
X83832Y40175D01*
X83805Y40038D01*
Y39263D01*
X84412D01*
Y40395D01*
D02*
G37*
G36*
X77090Y39538D02*
X76190D01*
Y37838D01*
X77090D01*
Y39538D01*
D02*
G37*
G36*
X75790D02*
X74890D01*
Y37838D01*
X75790D01*
Y39538D01*
D02*
G37*
G36*
X85419Y38863D02*
X84812D01*
Y37731D01*
X85062D01*
X85199Y37759D01*
X85314Y37836D01*
X85392Y37952D01*
X85419Y38088D01*
Y38863D01*
D02*
G37*
G36*
X84412D02*
X83805D01*
Y38088D01*
X83832Y37952D01*
X83910Y37836D01*
X84025Y37759D01*
X84162Y37731D01*
X84412D01*
Y38863D01*
D02*
G37*
G36*
X98343Y44135D02*
X97228D01*
Y42135D01*
X98343D01*
Y44135D01*
D02*
G37*
G36*
X96828D02*
X95713D01*
Y42135D01*
X96828D01*
Y44135D01*
D02*
G37*
G36*
X93221Y41985D02*
X92446D01*
Y41410D01*
X93221D01*
Y41985D01*
D02*
G37*
G36*
X92046D02*
X91271D01*
Y41410D01*
X92046D01*
Y41985D01*
D02*
G37*
G36*
X48443Y40090D02*
X47593D01*
Y39191D01*
X48443D01*
Y40090D01*
D02*
G37*
G36*
X56140Y39323D02*
X55115D01*
Y38148D01*
X56140D01*
Y39323D01*
D02*
G37*
G36*
X48443Y38791D02*
X47593D01*
Y37891D01*
X48443D01*
Y38791D01*
D02*
G37*
G36*
X56140Y37748D02*
X55115D01*
Y36573D01*
X56140D01*
Y37748D01*
D02*
G37*
G36*
X60498Y34696D02*
X59598D01*
Y33846D01*
X60498D01*
Y34696D01*
D02*
G37*
G36*
X59198D02*
X58298D01*
Y33846D01*
X59198D01*
Y34696D01*
D02*
G37*
G36*
X89662Y40395D02*
X89412D01*
Y39263D01*
X90019D01*
Y40038D01*
X89992Y40175D01*
X89914Y40291D01*
X89799Y40368D01*
X89662Y40395D01*
D02*
G37*
G36*
X89012D02*
X88762D01*
X88625Y40368D01*
X88510Y40291D01*
X88432Y40175D01*
X88405Y40038D01*
Y39263D01*
X89012D01*
Y40395D01*
D02*
G37*
G36*
X93221Y39510D02*
X92446D01*
Y38935D01*
X93221D01*
Y39510D01*
D02*
G37*
G36*
X92046D02*
X91271D01*
Y38935D01*
X92046D01*
Y39510D01*
D02*
G37*
G36*
X44650Y39606D02*
Y38721D01*
X45535D01*
X45475Y38946D01*
X45330Y39196D01*
X45125Y39401D01*
X44875Y39546D01*
X44650Y39606D01*
D02*
G37*
G36*
X44250Y39606D02*
X44025Y39546D01*
X43775Y39401D01*
X43570Y39196D01*
X43425Y38946D01*
X43365Y38721D01*
X44250D01*
Y39606D01*
D02*
G37*
G36*
X90019Y38863D02*
X89412D01*
Y37731D01*
X89662D01*
X89799Y37759D01*
X89914Y37836D01*
X89992Y37952D01*
X90019Y38088D01*
Y38863D01*
D02*
G37*
G36*
X89012D02*
X88405D01*
Y38088D01*
X88432Y37952D01*
X88510Y37836D01*
X88625Y37759D01*
X88762Y37731D01*
X89012D01*
Y38863D01*
D02*
G37*
G36*
X44250Y38321D02*
X43365D01*
X43425Y38096D01*
X43570Y37846D01*
X43775Y37641D01*
X44025Y37496D01*
X44250Y37436D01*
Y38321D01*
D02*
G37*
G36*
X45535D02*
X44650D01*
Y37436D01*
X44875Y37496D01*
X45125Y37641D01*
X45330Y37846D01*
X45475Y38096D01*
X45535Y38321D01*
D02*
G37*
G36*
X63564Y36142D02*
X61759D01*
Y34438D01*
X63564D01*
Y34956D01*
X65624D01*
X65673Y34908D01*
X65845Y34836D01*
X66032D01*
X66205Y34908D01*
X66337Y35040D01*
X66409Y35213D01*
Y35399D01*
X66337Y35572D01*
X66205Y35704D01*
X66032Y35776D01*
X65845D01*
X65673Y35704D01*
X65624Y35656D01*
X63564D01*
Y36142D01*
D02*
G37*
G36*
X83072Y34412D02*
X82892D01*
X82726Y34343D01*
X82634Y34252D01*
X67051D01*
X66992Y34311D01*
X66826Y34380D01*
X66646D01*
X66479Y34311D01*
X66352Y34184D01*
X66283Y34017D01*
Y33837D01*
X66352Y33671D01*
X66479Y33544D01*
X66646Y33475D01*
X66826D01*
X66992Y33544D01*
X67083Y33635D01*
X82667D01*
X82726Y33576D01*
X82892Y33507D01*
X83072D01*
X83238Y33576D01*
X83365Y33704D01*
X83434Y33870D01*
Y34050D01*
X83365Y34216D01*
X83238Y34343D01*
X83072Y34412D01*
D02*
G37*
G36*
X43475Y33319D02*
X41475D01*
Y32204D01*
X43475D01*
Y33319D01*
D02*
G37*
G36*
X41075D02*
X39075D01*
Y32204D01*
X41075D01*
Y33319D01*
D02*
G37*
G36*
X84532Y31844D02*
X84292D01*
X84071Y31753D01*
X83901Y31583D01*
X83810Y31362D01*
Y31306D01*
X83573Y31069D01*
X83337D01*
X83247Y31129D01*
X83110Y31157D01*
X81560D01*
X81423Y31129D01*
X81306Y31052D01*
X81228Y30935D01*
X81201Y30798D01*
X81228Y30660D01*
X81306Y30543D01*
Y30417D01*
X81228Y30300D01*
X81201Y30163D01*
X81228Y30025D01*
X81306Y29908D01*
Y29782D01*
X81228Y29665D01*
X81201Y29528D01*
X81228Y29390D01*
X81306Y29273D01*
Y29147D01*
X81228Y29030D01*
X81201Y28892D01*
X81228Y28755D01*
X81306Y28638D01*
Y28512D01*
X81228Y28395D01*
X81201Y28257D01*
X81228Y28120D01*
X81283Y28038D01*
X81200Y27983D01*
X81092Y27823D01*
X82335D01*
X83578D01*
X83568Y27837D01*
X83628Y27949D01*
X83848D01*
X83848Y27949D01*
X83966Y27973D01*
X84059Y28035D01*
X84208Y27973D01*
X84448D01*
X84669Y28064D01*
X84839Y28234D01*
X84930Y28455D01*
Y28695D01*
X84839Y28916D01*
X84669Y29086D01*
X84448Y29177D01*
X84208D01*
X83987Y29086D01*
X83817Y28916D01*
X83726Y28695D01*
Y28571D01*
X83720Y28566D01*
X83467D01*
X83400Y28693D01*
X83442Y28755D01*
X83469Y28892D01*
X83442Y29030D01*
X83364Y29147D01*
Y29273D01*
X83442Y29390D01*
X83469Y29528D01*
X83442Y29665D01*
X83364Y29782D01*
Y29908D01*
X83442Y30025D01*
X83469Y30163D01*
X83442Y30300D01*
X83376Y30399D01*
X83397Y30471D01*
X83430Y30526D01*
X83686D01*
X83790Y30546D01*
X83878Y30605D01*
X84037Y30765D01*
X84071Y30731D01*
X84292Y30640D01*
X84532D01*
X84753Y30731D01*
X84923Y30901D01*
X85014Y31122D01*
Y31362D01*
X84923Y31583D01*
X84753Y31753D01*
X84532Y31844D01*
D02*
G37*
G36*
X43475Y31804D02*
X41475D01*
Y30689D01*
X43475D01*
Y31804D01*
D02*
G37*
G36*
X41075D02*
X39075D01*
Y30689D01*
X41075D01*
Y31804D01*
D02*
G37*
G36*
X78460Y31157D02*
X76910D01*
X76772Y31129D01*
X76656Y31052D01*
X76578Y30935D01*
X76551Y30798D01*
X76578Y30660D01*
X76656Y30543D01*
Y30417D01*
X76578Y30300D01*
X76551Y30163D01*
X76578Y30025D01*
X76644Y29926D01*
X76623Y29854D01*
X76590Y29799D01*
X75279D01*
Y30291D01*
X74025D01*
Y28637D01*
X75279D01*
Y29256D01*
X76558D01*
X76571Y29129D01*
X76482Y29111D01*
X76394Y29052D01*
X76394Y29052D01*
X76008Y28666D01*
X75939Y28695D01*
X75699D01*
X75478Y28603D01*
X75308Y28434D01*
X75217Y28212D01*
Y27973D01*
X75308Y27751D01*
X75478Y27582D01*
X75699Y27490D01*
X75939D01*
X75996Y27514D01*
X76068Y27406D01*
X75870Y27208D01*
X75837Y27222D01*
X75598D01*
X75376Y27130D01*
X75207Y26960D01*
X75115Y26739D01*
Y26499D01*
X75207Y26278D01*
X75376Y26109D01*
X75598Y26017D01*
X75837D01*
X76059Y26109D01*
X76228Y26278D01*
X76320Y26499D01*
Y26739D01*
X76306Y26772D01*
X76438Y26904D01*
X76576Y26862D01*
X76578Y26850D01*
X76656Y26733D01*
Y26607D01*
X76578Y26490D01*
X76551Y26353D01*
X76578Y26215D01*
X76656Y26098D01*
Y25972D01*
X76578Y25855D01*
X76551Y25718D01*
X76578Y25580D01*
X76656Y25463D01*
Y25337D01*
X76578Y25220D01*
X76551Y25083D01*
X76578Y24945D01*
X76656Y24828D01*
X76772Y24751D01*
X76910Y24723D01*
X78460D01*
X78598Y24751D01*
X78714Y24828D01*
X78792Y24945D01*
X78819Y25083D01*
X78792Y25220D01*
X78714Y25337D01*
Y25463D01*
X78792Y25580D01*
X78819Y25718D01*
X78792Y25855D01*
X78714Y25972D01*
Y26098D01*
X78792Y26215D01*
X78819Y26353D01*
X78792Y26490D01*
X78714Y26607D01*
Y26733D01*
X78792Y26850D01*
X78819Y26987D01*
X78792Y27125D01*
X78714Y27242D01*
Y27368D01*
X78792Y27485D01*
X78819Y27622D01*
X78792Y27760D01*
X78714Y27877D01*
Y28003D01*
X78792Y28120D01*
X78819Y28257D01*
X78792Y28395D01*
X78714Y28512D01*
Y28638D01*
X78792Y28755D01*
X78819Y28892D01*
X78792Y29030D01*
X78726Y29129D01*
X78747Y29201D01*
X78780Y29256D01*
X79580D01*
X79738Y29097D01*
Y27121D01*
Y26486D01*
X79759Y26382D01*
X79818Y26294D01*
X79952Y26160D01*
X80040Y26101D01*
X80144Y26081D01*
X80144Y26081D01*
X81240D01*
X81273Y26026D01*
X81294Y25954D01*
X81228Y25855D01*
X81201Y25718D01*
X81228Y25580D01*
X81306Y25463D01*
Y25337D01*
X81228Y25220D01*
X81201Y25083D01*
X81228Y24945D01*
X81306Y24828D01*
X81423Y24751D01*
X81560Y24723D01*
X83110D01*
X83159Y24733D01*
X84908D01*
X84942Y24699D01*
X85109Y24630D01*
X85289D01*
X85455Y24699D01*
X85582Y24826D01*
X85651Y24993D01*
Y25172D01*
X85582Y25339D01*
X85455Y25466D01*
X85289Y25535D01*
X85109D01*
X84942Y25466D01*
X84908Y25432D01*
X84430D01*
X84381Y25559D01*
X84473Y25652D01*
X84542Y25818D01*
Y25998D01*
X84473Y26164D01*
X84346Y26292D01*
X84180Y26360D01*
X84000D01*
X83833Y26292D01*
X83706Y26164D01*
X83666Y26067D01*
X83496D01*
X83428Y26194D01*
X83442Y26215D01*
X83469Y26353D01*
X83442Y26490D01*
X83364Y26607D01*
Y26733D01*
X83442Y26850D01*
X83469Y26987D01*
X83442Y27125D01*
X83387Y27207D01*
X83470Y27262D01*
X83578Y27423D01*
X82335D01*
X81092D01*
X81116Y27386D01*
X81049Y27259D01*
X80282D01*
Y29210D01*
X80282Y29210D01*
X80261Y29314D01*
X80202Y29402D01*
X79885Y29720D01*
X79797Y29779D01*
X79692Y29799D01*
X78780D01*
X78747Y29854D01*
X78726Y29926D01*
X78792Y30025D01*
X78819Y30163D01*
X78792Y30300D01*
X78714Y30417D01*
Y30543D01*
X78792Y30660D01*
X78819Y30798D01*
X78792Y30935D01*
X78714Y31052D01*
X78598Y31129D01*
X78460Y31157D01*
D02*
G37*
G36*
X73779Y30291D02*
X72525D01*
Y29772D01*
X72093D01*
X71992Y29947D01*
X71845Y30094D01*
X71666Y30198D01*
X71466Y30251D01*
X71258D01*
X71058Y30198D01*
X70879Y30094D01*
X70732Y29947D01*
X70628Y29768D01*
X70575Y29568D01*
Y29360D01*
X70628Y29160D01*
X70732Y28981D01*
X70879Y28834D01*
X71058Y28730D01*
X71258Y28677D01*
X71466D01*
X71666Y28730D01*
X71845Y28834D01*
X71992Y28981D01*
X72093Y29156D01*
X72525D01*
Y28637D01*
X73779D01*
Y30291D01*
D02*
G37*
G36*
X64602Y30625D02*
Y29740D01*
X65487D01*
X65427Y29965D01*
X65282Y30216D01*
X65077Y30420D01*
X64826Y30565D01*
X64602Y30625D01*
D02*
G37*
G36*
X64202Y30625D02*
X63977Y30565D01*
X63726Y30420D01*
X63521Y30216D01*
X63377Y29965D01*
X63316Y29740D01*
X64202D01*
Y30625D01*
D02*
G37*
G36*
X95608Y30779D02*
X93608D01*
Y29664D01*
X95608D01*
Y30779D01*
D02*
G37*
G36*
X93209D02*
X91209D01*
Y29664D01*
X93209D01*
Y30779D01*
D02*
G37*
G36*
X86861Y31844D02*
X86621D01*
X86400Y31753D01*
X86230Y31583D01*
X86139Y31362D01*
Y31122D01*
X86230Y30901D01*
X86400Y30731D01*
X86433Y30718D01*
Y30460D01*
X85848D01*
Y29235D01*
X85848Y29206D01*
X85777Y29108D01*
X85700D01*
Y28533D01*
X86675D01*
X87650D01*
Y29108D01*
X87573D01*
X87502Y29206D01*
X87502Y29235D01*
Y30460D01*
X87049D01*
Y30718D01*
X87082Y30731D01*
X87252Y30901D01*
X87343Y31122D01*
Y31362D01*
X87252Y31583D01*
X87082Y31753D01*
X86861Y31844D01*
D02*
G37*
G36*
X64202Y29340D02*
X63316D01*
X63377Y29116D01*
X63521Y28865D01*
X63726Y28660D01*
X63977Y28515D01*
X64202Y28455D01*
Y29340D01*
D02*
G37*
G36*
X65487D02*
X64602D01*
Y28455D01*
X64826Y28515D01*
X65077Y28660D01*
X65282Y28865D01*
X65427Y29116D01*
X65487Y29340D01*
D02*
G37*
G36*
X95608Y29264D02*
X93608D01*
Y28149D01*
X95608D01*
Y29264D01*
D02*
G37*
G36*
X93209D02*
X91209D01*
Y28149D01*
X93209D01*
Y29264D01*
D02*
G37*
G36*
X87650Y28133D02*
X86675D01*
X85700D01*
Y27558D01*
Y27048D01*
X86675D01*
X87650D01*
Y27558D01*
Y28133D01*
D02*
G37*
G36*
X64527Y27953D02*
X64276D01*
X64034Y27888D01*
X63817Y27762D01*
X63639Y27585D01*
X63514Y27368D01*
X63449Y27126D01*
Y26875D01*
X63514Y26633D01*
X63639Y26415D01*
X63817Y26238D01*
X64034Y26113D01*
X64276Y26048D01*
X64527D01*
X64769Y26113D01*
X64986Y26238D01*
X65164Y26415D01*
X65289Y26633D01*
X65354Y26875D01*
Y27126D01*
X65289Y27368D01*
X65164Y27585D01*
X64986Y27762D01*
X64769Y27888D01*
X64527Y27953D01*
D02*
G37*
G36*
X64802Y25423D02*
X64002D01*
X63786Y25381D01*
X63603Y25258D01*
X63481Y25076D01*
X63438Y24860D01*
Y24060D01*
X63481Y23845D01*
X63603Y23662D01*
X63786Y23540D01*
X64002Y23497D01*
X64802D01*
X65017Y23540D01*
X65200Y23662D01*
X65322Y23845D01*
X65365Y24060D01*
Y24860D01*
X65322Y25076D01*
X65200Y25258D01*
X65017Y25381D01*
X64802Y25423D01*
D02*
G37*
G36*
X87650Y26648D02*
X86675D01*
X85700D01*
Y26073D01*
X85777D01*
X85848Y25976D01*
X85848Y25947D01*
Y24721D01*
X86433D01*
Y24527D01*
X86400Y24514D01*
X86230Y24344D01*
X86139Y24123D01*
Y23883D01*
X86230Y23662D01*
X86400Y23492D01*
X86621Y23401D01*
X86861D01*
X87082Y23492D01*
X87252Y23662D01*
X87343Y23883D01*
Y24123D01*
X87252Y24344D01*
X87082Y24514D01*
X87049Y24527D01*
Y24721D01*
X87502D01*
Y25947D01*
X87502Y25976D01*
X87573Y26073D01*
X87650D01*
Y26648D01*
D02*
G37*
G36*
X89264Y22525D02*
X87610D01*
Y21949D01*
X85489D01*
X85455Y21983D01*
X85289Y22051D01*
X85109D01*
X84942Y21983D01*
X84815Y21855D01*
X84746Y21689D01*
Y21509D01*
X84815Y21343D01*
X84942Y21216D01*
X85109Y21147D01*
X85289D01*
X85455Y21216D01*
X85489Y21249D01*
X87610D01*
Y20671D01*
X89264D01*
Y22525D01*
D02*
G37*
G36*
X59255Y21659D02*
Y20774D01*
X60140D01*
X60080Y20999D01*
X59935Y21249D01*
X59730Y21454D01*
X59480Y21599D01*
X59255Y21659D01*
D02*
G37*
G36*
X58855D02*
X58630Y21599D01*
X58380Y21454D01*
X58175Y21249D01*
X58030Y20999D01*
X57970Y20774D01*
X58855D01*
Y21659D01*
D02*
G37*
G36*
X89260Y20135D02*
X87606D01*
Y19493D01*
X84364D01*
X84330Y19527D01*
X84164Y19596D01*
X83984D01*
X83818Y19527D01*
X83690Y19400D01*
X83622Y19234D01*
Y19054D01*
X83690Y18887D01*
X83818Y18760D01*
X83984Y18691D01*
X84164D01*
X84330Y18760D01*
X84364Y18794D01*
X87606D01*
Y18281D01*
X89260D01*
Y20135D01*
D02*
G37*
G36*
X60140Y20374D02*
X59255D01*
Y19489D01*
X59480Y19549D01*
X59730Y19694D01*
X59935Y19899D01*
X60080Y20149D01*
X60140Y20374D01*
D02*
G37*
G36*
X58855D02*
X57970D01*
X58030Y20149D01*
X58175Y19899D01*
X58380Y19694D01*
X58630Y19549D01*
X58855Y19489D01*
Y20374D01*
D02*
G37*
G36*
X64820Y14356D02*
X63215D01*
Y13966D01*
X62255D01*
Y14210D01*
X60700D01*
Y13105D01*
X62255D01*
Y13349D01*
X63215D01*
Y12951D01*
X64820D01*
Y14356D01*
D02*
G37*
G36*
X66790Y13559D02*
X66610D01*
X66444Y13490D01*
X66317Y13363D01*
X66248Y13196D01*
Y13016D01*
X66317Y12850D01*
X66392Y12775D01*
Y11720D01*
X65921D01*
Y11576D01*
X64820D01*
Y12256D01*
X63215D01*
Y11862D01*
X62907D01*
X62907Y11862D01*
X62789Y11839D01*
X62689Y11772D01*
X62689Y11772D01*
X62513Y11596D01*
X62446Y11496D01*
X62423Y11378D01*
X62423Y11378D01*
Y10215D01*
X59425D01*
Y7880D01*
X63530D01*
Y10215D01*
X63039D01*
Y11245D01*
X63215D01*
Y10851D01*
X64820D01*
Y10959D01*
X65921D01*
Y10815D01*
X67426D01*
Y11720D01*
X67009D01*
Y12775D01*
X67084Y12850D01*
X67153Y13016D01*
Y13196D01*
X67084Y13363D01*
X66957Y13490D01*
X66790Y13559D01*
D02*
G37*
G36*
X62255Y12610D02*
X60700D01*
Y12519D01*
X59753D01*
X59708Y12510D01*
X59663D01*
X59621Y12493D01*
X59576Y12484D01*
X59538Y12459D01*
X59496Y12441D01*
X59464Y12409D01*
X59426Y12384D01*
X59401Y12346D01*
X59369Y12314D01*
X59352Y12272D01*
X59326Y12234D01*
X59318Y12190D01*
X59300Y12148D01*
Y12102D01*
X59291Y12058D01*
X59300Y12013D01*
Y11968D01*
X59318Y11926D01*
X59326Y11881D01*
X59352Y11843D01*
X59369Y11801D01*
X59401Y11769D01*
X59426Y11732D01*
X59464Y11706D01*
X59496Y11674D01*
X59538Y11657D01*
X59576Y11632D01*
X59621Y11623D01*
X59663Y11605D01*
X59708D01*
X59753Y11596D01*
X60700D01*
Y11505D01*
X62255D01*
Y12610D01*
D02*
G37*
G36*
X69374Y10918D02*
X68674D01*
Y10518D01*
X69374D01*
Y10918D01*
D02*
G37*
G36*
X68274D02*
X67574D01*
Y10518D01*
X68274D01*
Y10918D01*
D02*
G37*
G36*
X71851Y10893D02*
X71076D01*
Y10318D01*
X71851D01*
Y10893D01*
D02*
G37*
G36*
X70676D02*
X69901D01*
Y10318D01*
X70676D01*
Y10893D01*
D02*
G37*
G36*
X69374Y10118D02*
X68674D01*
Y9718D01*
X69374D01*
Y10118D01*
D02*
G37*
G36*
X68274D02*
X67574D01*
Y9718D01*
X68274D01*
Y10118D01*
D02*
G37*
G36*
X64883Y10155D02*
X64676D01*
X64476Y10101D01*
X64296Y9998D01*
X64150Y9851D01*
X64046Y9672D01*
X63992Y9471D01*
Y9264D01*
X64046Y9064D01*
X64150Y8884D01*
X64296Y8738D01*
X64476Y8634D01*
X64676Y8580D01*
X64883D01*
X65084Y8634D01*
X65263Y8738D01*
X65410Y8884D01*
X65423Y8906D01*
X66674D01*
X66718Y8915D01*
X67426D01*
Y9820D01*
X66718D01*
X66674Y9829D01*
X65423D01*
X65410Y9851D01*
X65263Y9998D01*
X65084Y10101D01*
X64883Y10155D01*
D02*
G37*
G36*
X71851Y9918D02*
X70876D01*
X69901D01*
Y9343D01*
X69977D01*
X70048Y9245D01*
X70048Y9216D01*
Y7990D01*
X70415D01*
Y7382D01*
X70450Y7205D01*
X70499Y7131D01*
X70508Y7110D01*
X70524Y7093D01*
X70550Y7055D01*
X70565Y7040D01*
X70603Y7015D01*
X70635Y6982D01*
X70677Y6965D01*
X70715Y6940D01*
X70759Y6931D01*
X70801Y6914D01*
X70847D01*
X70891Y6905D01*
X70936Y6914D01*
X70981D01*
X71023Y6931D01*
X71068Y6940D01*
X71106Y6965D01*
X71148Y6982D01*
X71180Y7015D01*
X71218Y7040D01*
X71243Y7078D01*
X71275Y7110D01*
X71292Y7152D01*
X71318Y7189D01*
X71326Y7234D01*
X71344Y7276D01*
Y7321D01*
X71353Y7366D01*
X71344Y7411D01*
Y7456D01*
X71337Y7472D01*
Y7990D01*
X71703D01*
Y9216D01*
X71703Y9245D01*
X71774Y9343D01*
X71851D01*
Y9918D01*
D02*
G37*
G36*
X95163Y6510D02*
X94837D01*
X94518Y6446D01*
X94217Y6322D01*
X93947Y6141D01*
X93716Y5911D01*
X93536Y5640D01*
X93411Y5339D01*
X93348Y5020D01*
Y4695D01*
X93411Y4376D01*
X93536Y4075D01*
X93716Y3804D01*
X93947Y3574D01*
X94217Y3393D01*
X94518Y3269D01*
X94837Y3205D01*
X95163D01*
X95482Y3269D01*
X95783Y3393D01*
X96053Y3574D01*
X96284Y3804D01*
X96464Y4075D01*
X96589Y4376D01*
X96652Y4695D01*
Y5020D01*
X96589Y5339D01*
X96464Y5640D01*
X96284Y5911D01*
X96053Y6141D01*
X95783Y6322D01*
X95482Y6446D01*
X95163Y6510D01*
D02*
G37*
G36*
X44726Y23098D02*
X44026D01*
Y22298D01*
X44726D01*
Y23098D01*
D02*
G37*
G36*
X51342Y22898D02*
X50492D01*
Y22098D01*
X51342D01*
Y22898D01*
D02*
G37*
G36*
X50092D02*
X49242D01*
Y22098D01*
X50092D01*
Y22898D01*
D02*
G37*
G36*
X48244Y22698D02*
X47444D01*
Y21998D01*
X48244D01*
Y22698D01*
D02*
G37*
G36*
X47044D02*
X46244D01*
Y21998D01*
X47044D01*
Y22698D01*
D02*
G37*
G36*
X44726Y21898D02*
X44026D01*
Y21098D01*
X44726D01*
Y21898D01*
D02*
G37*
G36*
X51342Y21698D02*
X50492D01*
Y20898D01*
X51342D01*
Y21698D01*
D02*
G37*
G36*
X50092D02*
X49242D01*
Y20898D01*
X50092D01*
Y21698D01*
D02*
G37*
G36*
X48244Y21598D02*
X47444D01*
Y20898D01*
X48244D01*
Y21598D01*
D02*
G37*
G36*
X47044D02*
X46244D01*
Y20898D01*
X47044D01*
Y21598D01*
D02*
G37*
G36*
X56315Y21680D02*
X56115D01*
X55932Y21656D01*
X55762Y21585D01*
X55616Y21473D01*
X55504Y21327D01*
X55433Y21157D01*
X55409Y20974D01*
Y20774D01*
X56315D01*
Y21680D01*
D02*
G37*
G36*
X44726Y20558D02*
X44026D01*
Y19758D01*
X44726D01*
Y20558D01*
D02*
G37*
G36*
X56315Y20374D02*
X55409D01*
Y20174D01*
X55433Y19991D01*
X55504Y19821D01*
X55616Y19675D01*
X55762Y19563D01*
X55932Y19492D01*
X56115Y19468D01*
X56315D01*
Y20374D01*
D02*
G37*
G36*
X44726Y19358D02*
X44026D01*
Y18558D01*
X44726D01*
Y19358D01*
D02*
G37*
G36*
X51194Y16432D02*
X49390D01*
Y14728D01*
X51194D01*
Y15258D01*
X51809D01*
X51910Y15083D01*
X52057Y14936D01*
X52236Y14832D01*
X52436Y14779D01*
X52644D01*
X52844Y14832D01*
X53023Y14936D01*
X53170Y15083D01*
X53274Y15262D01*
X53327Y15462D01*
Y15670D01*
X53274Y15870D01*
X53170Y16050D01*
X53023Y16196D01*
X52844Y16300D01*
X52644Y16353D01*
X52436D01*
X52236Y16300D01*
X52057Y16196D01*
X51910Y16050D01*
X51809Y15874D01*
X51194D01*
Y16432D01*
D02*
G37*
G36*
X46685Y15550D02*
X46174D01*
Y14746D01*
X46685D01*
Y15550D01*
D02*
G37*
G36*
X45774D02*
X45263D01*
Y14746D01*
X45774D01*
Y15550D01*
D02*
G37*
G36*
X61795Y21659D02*
Y20774D01*
X62680D01*
X62620Y20999D01*
X62475Y21249D01*
X62270Y21454D01*
X62020Y21599D01*
X61795Y21659D01*
D02*
G37*
G36*
X62680Y20374D02*
X61795D01*
Y19489D01*
X62020Y19549D01*
X62270Y19694D01*
X62475Y19899D01*
X62620Y20149D01*
X62680Y20374D01*
D02*
G37*
G36*
X89616Y14516D02*
X88941D01*
Y13916D01*
X89616D01*
Y14516D01*
D02*
G37*
G36*
X88541D02*
X87866D01*
Y13916D01*
X88541D01*
Y14516D01*
D02*
G37*
G36*
X89616Y13516D02*
X88941D01*
Y12916D01*
X89616D01*
Y13516D01*
D02*
G37*
G36*
X88541D02*
X87866D01*
Y12916D01*
X88541D01*
Y13516D01*
D02*
G37*
G36*
X90866Y16977D02*
Y16202D01*
X91441D01*
Y16977D01*
X90866D01*
D02*
G37*
G36*
X91441Y15802D02*
X90866D01*
Y15027D01*
X91441D01*
Y15802D01*
D02*
G37*
G36*
X91966Y14516D02*
X91291D01*
Y13916D01*
X91966D01*
Y14516D01*
D02*
G37*
G36*
X90891D02*
X90216D01*
Y13916D01*
X90891D01*
Y14516D01*
D02*
G37*
G36*
X91966Y13516D02*
X91291D01*
Y12916D01*
X91966D01*
Y13516D01*
D02*
G37*
G36*
X90891D02*
X90216D01*
Y12916D01*
X90891D01*
Y13516D01*
D02*
G37*
G36*
X31908Y17189D02*
X30793D01*
Y15189D01*
X31908D01*
Y17189D01*
D02*
G37*
G36*
X30393D02*
X29278D01*
Y15189D01*
X30393D01*
Y17189D01*
D02*
G37*
G36*
X31908Y14789D02*
X30793D01*
Y12789D01*
X31908D01*
Y14789D01*
D02*
G37*
G36*
X30393D02*
X29278D01*
Y12789D01*
X30393D01*
Y14789D01*
D02*
G37*
G36*
X29706Y10373D02*
X29499D01*
X29298Y10320D01*
X29119Y10216D01*
X28972Y10069D01*
X28869Y9890D01*
X28815Y9690D01*
Y9482D01*
X28869Y9282D01*
X28972Y9103D01*
X29119Y8956D01*
X29298Y8852D01*
X29499Y8799D01*
X29706D01*
X29906Y8852D01*
X30086Y8956D01*
X30232Y9103D01*
X30334Y9278D01*
X31730D01*
Y9134D01*
X33484D01*
Y10038D01*
X31730D01*
Y9894D01*
X30334D01*
X30232Y10069D01*
X30086Y10216D01*
X29906Y10320D01*
X29706Y10373D01*
D02*
G37*
G36*
X33632Y8286D02*
X32807D01*
Y7886D01*
X33632D01*
Y8286D01*
D02*
G37*
G36*
X32407D02*
X31582D01*
Y7886D01*
X32407D01*
Y8286D01*
D02*
G37*
G36*
X33632Y7486D02*
X32807D01*
Y7086D01*
X33632D01*
Y7486D01*
D02*
G37*
G36*
X32407D02*
X31582D01*
Y7086D01*
X32407D01*
Y7486D01*
D02*
G37*
G36*
X32712Y4819D02*
Y3959D01*
X33571D01*
X33514Y4174D01*
X33372Y4419D01*
X33172Y4619D01*
X32927Y4761D01*
X32712Y4819D01*
D02*
G37*
G36*
X32312D02*
X32097Y4761D01*
X31852Y4619D01*
X31652Y4419D01*
X31510Y4174D01*
X31453Y3959D01*
X32312D01*
Y4819D01*
D02*
G37*
G36*
X30899Y4687D02*
X29045D01*
Y2832D01*
X30899D01*
Y4687D01*
D02*
G37*
G36*
X33571Y3559D02*
X32712D01*
Y2700D01*
X32927Y2757D01*
X33172Y2899D01*
X33372Y3099D01*
X33514Y3344D01*
X33571Y3559D01*
D02*
G37*
G36*
X32312D02*
X31453D01*
X31510Y3344D01*
X31652Y3099D01*
X31852Y2899D01*
X32097Y2757D01*
X32312Y2700D01*
Y3559D01*
D02*
G37*
G36*
X41826Y23098D02*
X41126D01*
Y22298D01*
X41826D01*
Y23098D01*
D02*
G37*
G36*
Y21898D02*
X41126D01*
Y21098D01*
X41826D01*
Y21898D01*
D02*
G37*
G36*
Y20558D02*
X41126D01*
Y19758D01*
X41826D01*
Y20558D01*
D02*
G37*
G36*
Y19358D02*
X41126D01*
Y18558D01*
X41826D01*
Y19358D01*
D02*
G37*
G36*
X44067Y15106D02*
X43410D01*
Y14699D01*
X43709D01*
X43846Y14726D01*
X43962Y14804D01*
X44040Y14920D01*
X44067Y15057D01*
Y15106D01*
D02*
G37*
G36*
X43010D02*
X42353D01*
Y15057D01*
X42380Y14920D01*
X42458Y14804D01*
X42574Y14726D01*
X42711Y14699D01*
X43010D01*
Y15106D01*
D02*
G37*
G36*
X46174Y13170D02*
Y12390D01*
X46691D01*
Y12483D01*
X46667Y12669D01*
X46595Y12842D01*
X46481Y12990D01*
X46333Y13104D01*
X46174Y13170D01*
D02*
G37*
G36*
X45774Y13170D02*
X45615Y13104D01*
X45467Y12990D01*
X45353Y12842D01*
X45281Y12669D01*
X45257Y12483D01*
Y12390D01*
X45774D01*
Y13170D01*
D02*
G37*
G36*
X44204Y13584D02*
X43507D01*
Y11630D01*
X44204D01*
Y13584D01*
D02*
G37*
G36*
X43107D02*
X42410D01*
Y11630D01*
X43107D01*
Y13584D01*
D02*
G37*
G36*
X45774Y11990D02*
X45257D01*
Y11897D01*
X45281Y11711D01*
X45353Y11538D01*
X45467Y11390D01*
X45615Y11276D01*
X45774Y11210D01*
Y11990D01*
D02*
G37*
G36*
X46691D02*
X46174D01*
Y11210D01*
X46333Y11276D01*
X46481Y11390D01*
X46595Y11538D01*
X46667Y11711D01*
X46691Y11897D01*
Y11990D01*
D02*
G37*
G36*
X44204Y11230D02*
X43507D01*
Y9276D01*
X44204D01*
Y11230D01*
D02*
G37*
G36*
X43107D02*
X42410D01*
Y9276D01*
X43107D01*
Y11230D01*
D02*
G37*
G36*
X41109Y15913D02*
X40810D01*
Y15506D01*
X41467D01*
Y15555D01*
X41440Y15692D01*
X41362Y15808D01*
X41246Y15886D01*
X41109Y15913D01*
D02*
G37*
G36*
X40410D02*
X40111D01*
X39974Y15886D01*
X39858Y15808D01*
X39780Y15692D01*
X39753Y15555D01*
Y15506D01*
X40410D01*
Y15913D01*
D02*
G37*
G36*
X41467Y15106D02*
X40810D01*
Y14699D01*
X41109D01*
X41246Y14726D01*
X41362Y14804D01*
X41440Y14920D01*
X41467Y15057D01*
Y15106D01*
D02*
G37*
G36*
X40410D02*
X39753D01*
Y15057D01*
X39780Y14920D01*
X39858Y14804D01*
X39974Y14726D01*
X40111Y14699D01*
X40410D01*
Y15106D01*
D02*
G37*
G36*
X39369Y14958D02*
X38519D01*
Y14158D01*
X39369D01*
Y14958D01*
D02*
G37*
G36*
X38119D02*
X37269D01*
Y14158D01*
X38119D01*
Y14958D01*
D02*
G37*
G36*
X41410Y13584D02*
X40713D01*
Y11630D01*
X41410D01*
Y13584D01*
D02*
G37*
G36*
X40313D02*
X39616D01*
Y11630D01*
X40313D01*
Y13584D01*
D02*
G37*
G36*
X38846Y11904D02*
X38046D01*
Y11204D01*
X38846D01*
Y11904D01*
D02*
G37*
G36*
X37646D02*
X36846D01*
Y11204D01*
X37646D01*
Y11904D01*
D02*
G37*
G36*
X38846Y10804D02*
X38046D01*
Y10104D01*
X38846D01*
Y10804D01*
D02*
G37*
G36*
X37646D02*
X36846D01*
Y10104D01*
X37646D01*
Y10804D01*
D02*
G37*
G36*
X41410Y11230D02*
X40713D01*
Y9276D01*
X41410D01*
Y11230D01*
D02*
G37*
G36*
X40313D02*
X39616D01*
Y9276D01*
X40313D01*
Y11230D01*
D02*
G37*
G36*
X40624Y4801D02*
Y3942D01*
X41483D01*
X41426Y4157D01*
X41284Y4402D01*
X41084Y4602D01*
X40839Y4743D01*
X40624Y4801D01*
D02*
G37*
G36*
X40224D02*
X40009Y4743D01*
X39764Y4602D01*
X39564Y4402D01*
X39422Y4157D01*
X39365Y3942D01*
X40224D01*
Y4801D01*
D02*
G37*
G36*
X41483Y3542D02*
X40624D01*
Y2682D01*
X40839Y2740D01*
X41084Y2881D01*
X41284Y3082D01*
X41426Y3327D01*
X41483Y3542D01*
D02*
G37*
G36*
X40224D02*
X39365D01*
X39422Y3327D01*
X39564Y3082D01*
X39764Y2881D01*
X40009Y2740D01*
X40224Y2682D01*
Y3542D01*
D02*
G37*
G36*
X35982Y9236D02*
X35157D01*
Y8836D01*
X35982D01*
Y9236D01*
D02*
G37*
G36*
Y8436D02*
X35157D01*
Y8036D01*
X35982D01*
Y8436D01*
D02*
G37*
G36*
X37684Y4817D02*
X36809D01*
Y3942D01*
X37684D01*
Y4817D01*
D02*
G37*
G36*
Y3542D02*
X36809D01*
Y2667D01*
X37684D01*
Y3542D01*
D02*
G37*
%LPD*%
D11*
X56310Y73738D02*
X56896Y73152D01*
X43381Y87865D02*
X44801D01*
X45085Y86868D02*
Y87581D01*
X44801Y87865D02*
X45085Y87581D01*
X54991Y86850D02*
Y87572D01*
X55284Y87865D02*
X56384D01*
X54991Y87572D02*
X55284Y87865D01*
X56310Y73738D02*
Y74676D01*
X4648Y78232D02*
X9436D01*
X4648Y75692D02*
X9436D01*
X7531Y72898D02*
X9436D01*
X4648Y73152D02*
X7277D01*
X7531Y72898D01*
Y70041D02*
X9433D01*
X4581Y69563D02*
X7054D01*
X7531Y70041D01*
Y67501D02*
X9433D01*
X4581Y67023D02*
X7054D01*
X7531Y67501D01*
Y64961D02*
X9395D01*
X7054Y64483D02*
X7531Y64961D01*
X4581Y64483D02*
X7054D01*
D12*
X88429Y21590D02*
X88437Y21598D01*
D20*
X15037Y97003D02*
D03*
X49530Y44196D02*
D03*
X7620Y54610D02*
D03*
X93409Y29464D02*
D03*
X67996Y44722D02*
D03*
X41275Y32004D02*
D03*
X24831Y24133D02*
D03*
X93828Y65811D02*
D03*
X41275Y35225D02*
D03*
X61478Y9048D02*
D03*
X24831Y29999D02*
D03*
D21*
X62662Y33290D02*
D03*
X62662Y35290D02*
D03*
X50292Y15580D02*
D03*
Y17580D02*
D03*
Y19898D02*
D03*
Y21898D02*
D03*
X38319Y17158D02*
D03*
Y15158D02*
D03*
D22*
X9779Y89535D02*
D03*
X30593Y14989D02*
D03*
X97028Y41935D02*
D03*
X93624Y83439D02*
D03*
X58166Y31064D02*
D03*
X47752D02*
D03*
D23*
X54915Y37948D02*
D03*
D24*
X57140Y36973D02*
D03*
Y37623D02*
D03*
Y38273D02*
D03*
Y38923D02*
D03*
X52690Y36973D02*
D03*
Y37623D02*
D03*
Y38273D02*
D03*
Y38923D02*
D03*
D25*
X66532Y98171D02*
D03*
X64532Y98171D02*
D03*
X66532Y95758D02*
D03*
X64532Y95758D02*
D03*
X61261Y39192D02*
D03*
X59261Y39192D02*
D03*
D26*
X95877Y21344D02*
D03*
Y20694D02*
D03*
Y21994D02*
D03*
Y20044D02*
D03*
Y19394D02*
D03*
D27*
X98552Y19544D02*
D03*
Y21844D02*
D03*
D28*
X77685Y30798D02*
D03*
Y30163D02*
D03*
Y29528D02*
D03*
Y28892D02*
D03*
Y28257D02*
D03*
Y27622D02*
D03*
Y26987D02*
D03*
Y26353D02*
D03*
Y25718D02*
D03*
Y25083D02*
D03*
X82335Y30798D02*
D03*
Y30163D02*
D03*
Y29528D02*
D03*
Y28892D02*
D03*
Y28257D02*
D03*
Y27622D02*
D03*
Y26987D02*
D03*
Y26353D02*
D03*
Y25718D02*
D03*
Y25083D02*
D03*
D29*
X43690Y74676D02*
D03*
X44590D02*
D03*
X45490D02*
D03*
X46390D02*
D03*
X47300D02*
D03*
X48200D02*
D03*
X49100D02*
D03*
X50000D02*
D03*
X50900D02*
D03*
X51800D02*
D03*
X52710D02*
D03*
X53610D02*
D03*
X54510D02*
D03*
X55410D02*
D03*
X56310D02*
D03*
D30*
X43381Y87865D02*
D03*
Y86965D02*
D03*
Y86065D02*
D03*
Y85165D02*
D03*
Y84255D02*
D03*
Y83355D02*
D03*
Y82455D02*
D03*
Y81555D02*
D03*
Y80655D02*
D03*
Y79755D02*
D03*
Y78845D02*
D03*
Y77945D02*
D03*
Y77045D02*
D03*
Y76145D02*
D03*
X56619D02*
D03*
Y77045D02*
D03*
Y77945D02*
D03*
Y78845D02*
D03*
Y79755D02*
D03*
Y80655D02*
D03*
Y81555D02*
D03*
Y82455D02*
D03*
Y83355D02*
D03*
Y84255D02*
D03*
Y85165D02*
D03*
Y86065D02*
D03*
Y86965D02*
D03*
Y87865D02*
D03*
D31*
X66511Y85344D02*
D03*
X65061D02*
D03*
Y82296D02*
D03*
X66511D02*
D03*
D32*
X58862Y50038D02*
D03*
X56962D02*
D03*
X50543Y38991D02*
D03*
X48643D02*
D03*
D33*
X59398Y34896D02*
D03*
Y36796D02*
D03*
X63602Y39161D02*
D03*
Y41061D02*
D03*
D34*
X17416Y23051D02*
D03*
Y22101D02*
D03*
Y21151D02*
D03*
X14666D02*
D03*
Y22101D02*
D03*
Y23051D02*
D03*
D35*
X32607Y7686D02*
D03*
X34957Y8636D02*
D03*
X32607Y9586D02*
D03*
D36*
X65278Y88634D02*
D03*
Y87134D02*
D03*
X92246Y39710D02*
D03*
Y41210D02*
D03*
X81578Y42988D02*
D03*
Y41488D02*
D03*
X34229Y29353D02*
D03*
Y30853D02*
D03*
X70876Y8618D02*
D03*
Y10118D02*
D03*
X86675Y28333D02*
D03*
Y29833D02*
D03*
Y26848D02*
D03*
Y25348D02*
D03*
X62484Y87191D02*
D03*
Y88691D02*
D03*
D37*
X19558Y55145D02*
D03*
X13848D02*
D03*
X19558Y57685D02*
D03*
X13848D02*
D03*
X19558Y60225D02*
D03*
X13848D02*
D03*
X19558Y62765D02*
D03*
X13848D02*
D03*
X19558Y65305D02*
D03*
X13848D02*
D03*
X19558Y67845D02*
D03*
X13848D02*
D03*
X19558Y70385D02*
D03*
X13848D02*
D03*
X19558Y72925D02*
D03*
Y75465D02*
D03*
Y78005D02*
D03*
Y80545D02*
D03*
X13848D02*
D03*
X19558Y83085D02*
D03*
X13848D02*
D03*
X19558Y85625D02*
D03*
X13848D02*
D03*
X19558Y88165D02*
D03*
X13848D02*
D03*
X19558Y90705D02*
D03*
X13848Y75465D02*
D03*
Y72925D02*
D03*
Y78005D02*
D03*
Y90705D02*
D03*
X89420Y55118D02*
D03*
X83710D02*
D03*
X89420Y57658D02*
D03*
X83710D02*
D03*
X89420Y60198D02*
D03*
X83710D02*
D03*
X89420Y62738D02*
D03*
X83710D02*
D03*
X89420Y65278D02*
D03*
X83710D02*
D03*
X89420Y67818D02*
D03*
X83710D02*
D03*
X89420Y70358D02*
D03*
X83710D02*
D03*
X89420Y72898D02*
D03*
Y75438D02*
D03*
Y77978D02*
D03*
Y80518D02*
D03*
X83710D02*
D03*
X89420Y83058D02*
D03*
X83710D02*
D03*
X89420Y85598D02*
D03*
X83710D02*
D03*
X89420Y88138D02*
D03*
X83710D02*
D03*
X89420Y90678D02*
D03*
X83710Y75438D02*
D03*
Y72898D02*
D03*
Y77978D02*
D03*
Y90678D02*
D03*
D38*
X92113Y57252D02*
D03*
X93713D02*
D03*
X9395Y64961D02*
D03*
X10995D02*
D03*
X9433Y67501D02*
D03*
X11033D02*
D03*
X9433Y70041D02*
D03*
X11033D02*
D03*
X9436Y78232D02*
D03*
X11036D02*
D03*
X9436Y75692D02*
D03*
X11036D02*
D03*
X9436Y72898D02*
D03*
X11036D02*
D03*
X21845Y18545D02*
D03*
X23445D02*
D03*
D39*
X90221Y49213D02*
D03*
Y50813D02*
D03*
X61478Y13658D02*
D03*
Y12058D02*
D03*
X12446Y3690D02*
D03*
Y5290D02*
D03*
X24831Y34321D02*
D03*
Y32721D02*
D03*
D40*
X57190Y40785D02*
D03*
X55440D02*
D03*
X21741Y42280D02*
D03*
X19991D02*
D03*
X21741Y40132D02*
D03*
X19991D02*
D03*
D41*
X24765Y40143D02*
D03*
Y38343D02*
D03*
X24638Y42280D02*
D03*
Y44080D02*
D03*
X6643Y16375D02*
D03*
Y18175D02*
D03*
X98044Y65256D02*
D03*
Y67056D02*
D03*
X97993Y83704D02*
D03*
Y81904D02*
D03*
X10961Y23001D02*
D03*
Y21201D02*
D03*
D42*
X90666Y16002D02*
D03*
X89166D02*
D03*
X74652Y29464D02*
D03*
X73152D02*
D03*
D43*
X84612Y39063D02*
D03*
X86912D02*
D03*
X89212D02*
D03*
D44*
X86912Y45413D02*
D03*
D45*
X75990Y39738D02*
D03*
Y44738D02*
D03*
D46*
X88433Y19208D02*
D03*
X90383D02*
D03*
X88437Y21598D02*
D03*
X90387D02*
D03*
D47*
X69596Y59050D02*
D03*
Y53340D02*
D03*
X67056Y59050D02*
D03*
Y53340D02*
D03*
X64516Y59050D02*
D03*
Y53340D02*
D03*
X61976Y59050D02*
D03*
Y53340D02*
D03*
X59436Y59050D02*
D03*
Y53340D02*
D03*
X56896Y59050D02*
D03*
Y53340D02*
D03*
X54356Y59050D02*
D03*
Y53340D02*
D03*
X51816Y59050D02*
D03*
X49276D02*
D03*
X46736D02*
D03*
X44196D02*
D03*
Y53340D02*
D03*
X41656Y59050D02*
D03*
Y53340D02*
D03*
X39116Y59050D02*
D03*
Y53340D02*
D03*
X36576Y59050D02*
D03*
Y53340D02*
D03*
X34036Y59050D02*
D03*
X49276Y53340D02*
D03*
X51816D02*
D03*
X46736D02*
D03*
X34036D02*
D03*
D48*
X68474Y10318D02*
D03*
X66674Y9368D02*
D03*
Y11268D02*
D03*
X31827Y30981D02*
D03*
X30027Y30031D02*
D03*
Y31931D02*
D03*
D49*
X64018Y11554D02*
D03*
Y13654D02*
D03*
X27371Y32217D02*
D03*
Y34317D02*
D03*
D50*
X23319Y20831D02*
D03*
X21219D02*
D03*
D51*
X18791Y18037D02*
D03*
X9691D02*
D03*
X18791Y13537D02*
D03*
X9691D02*
D03*
D52*
X50904Y41061D02*
D03*
X48554D02*
D03*
X88741Y13716D02*
D03*
X91091D02*
D03*
D53*
X54356Y34225D02*
D03*
Y32475D02*
D03*
X51816Y34225D02*
D03*
Y32475D02*
D03*
D54*
X47244Y21798D02*
D03*
Y19998D02*
D03*
X37846Y12804D02*
D03*
Y11004D02*
D03*
D55*
X45974Y12190D02*
D03*
D56*
Y15750D02*
D03*
D57*
X42026Y22098D02*
D03*
X43826D02*
D03*
X42026Y19558D02*
D03*
X43826D02*
D03*
D58*
X43307Y11430D02*
D03*
X40513D02*
D03*
D59*
X40610Y15306D02*
D03*
Y17206D02*
D03*
X43210D02*
D03*
Y16256D02*
D03*
Y15306D02*
D03*
D60*
X62611Y85070D02*
D03*
Y82570D02*
D03*
D61*
X70812Y87122D02*
D03*
X72712D02*
D03*
X26924Y57658D02*
D03*
X25024D02*
D03*
Y60198D02*
D03*
X26924D02*
D03*
Y62738D02*
D03*
X25024D02*
D03*
Y65278D02*
D03*
X26924D02*
D03*
X25024Y67818D02*
D03*
X26924D02*
D03*
X25024Y70358D02*
D03*
X26924D02*
D03*
X26924Y72898D02*
D03*
X25024D02*
D03*
X26924Y75438D02*
D03*
X25024D02*
D03*
X26924Y77978D02*
D03*
X25024D02*
D03*
X26924Y80518D02*
D03*
X25024D02*
D03*
X26924Y83058D02*
D03*
X25024D02*
D03*
X26924Y85598D02*
D03*
X25024D02*
D03*
X78420Y57658D02*
D03*
X76520D02*
D03*
X78420Y60198D02*
D03*
X76520D02*
D03*
X78420Y62738D02*
D03*
X76520D02*
D03*
X78420Y65278D02*
D03*
X76520D02*
D03*
X78420Y67818D02*
D03*
X76520D02*
D03*
X78420Y70358D02*
D03*
X76520D02*
D03*
X78420Y72898D02*
D03*
X76520D02*
D03*
X78420Y75438D02*
D03*
X76520D02*
D03*
D62*
X34036Y66736D02*
D03*
Y64836D02*
D03*
X36576Y66736D02*
D03*
Y64836D02*
D03*
X39116Y66736D02*
D03*
Y64836D02*
D03*
X41656Y66736D02*
D03*
Y64836D02*
D03*
X44196Y66736D02*
D03*
Y64836D02*
D03*
X46736Y66736D02*
D03*
Y64836D02*
D03*
X64516Y64836D02*
D03*
Y66736D02*
D03*
X61976Y64836D02*
D03*
Y66736D02*
D03*
X59436Y64836D02*
D03*
Y66736D02*
D03*
X56896Y64836D02*
D03*
Y66736D02*
D03*
X54340Y64836D02*
D03*
Y66736D02*
D03*
X49276Y64836D02*
D03*
Y66736D02*
D03*
X51816Y64836D02*
D03*
Y66736D02*
D03*
D63*
X98552Y24081D02*
D03*
X98552Y17307D02*
D03*
D102*
X4572Y61951D02*
D03*
Y64491D02*
D03*
Y67031D02*
D03*
Y69571D02*
D03*
X4724Y73152D02*
D03*
Y75692D02*
D03*
Y78232D02*
D03*
Y80772D02*
D03*
D109*
X5555Y48514D02*
D03*
Y35814D02*
D03*
D110*
X8095Y38608D02*
D03*
D111*
X9873Y39624D02*
D03*
X8095Y40640D02*
D03*
X9873Y41656D02*
D03*
X8095Y42672D02*
D03*
X9873Y43688D02*
D03*
X8095Y44704D02*
D03*
X9873Y45720D02*
D03*
D120*
X62459Y32893D02*
X62586Y33020D01*
X60808Y32893D02*
X62459D01*
X56972Y36830D02*
X56998Y36805D01*
Y35738D02*
Y36805D01*
X57069Y36902D02*
X57140Y36973D01*
D121*
X10494Y90250D02*
Y92363D01*
X11552Y93421D02*
X28473D01*
X10494Y92363D02*
X11552Y93421D01*
X14859Y95124D02*
X31800D01*
X10618D02*
X14859D01*
Y96825D02*
X15037Y97003D01*
X14859Y95124D02*
Y96825D01*
X10566Y95072D02*
X10618Y95124D01*
X31851D02*
X33553Y93421D01*
X28448Y98171D02*
X28946Y98669D01*
X61145D01*
X9779Y89535D02*
X10494Y90250D01*
X12446Y3690D02*
X12450Y3687D01*
X16633D01*
X16637Y3683D01*
X33528Y97282D02*
X34163Y97917D01*
X61145Y98669D02*
X61643Y98171D01*
X34163Y97917D02*
X60833D01*
X62992Y95758D01*
X61643Y98171D02*
X64532D01*
X62992Y95758D02*
X64532D01*
X13748Y80645D02*
X13848Y80545D01*
X10541Y80645D02*
X13748D01*
X11430Y83058D02*
X11457Y83085D01*
X13848D01*
X12408Y5328D02*
X12446Y5290D01*
X34229Y27915D02*
Y29353D01*
X23247Y32721D02*
X24831D01*
X23241Y32715D02*
X23247Y32721D01*
X28166Y30031D02*
X30027D01*
X28133Y29999D02*
X28166Y30031D01*
X92113Y55689D02*
Y57252D01*
Y55689D02*
X92126Y55677D01*
X90221Y49213D02*
X90349D01*
X90449Y49113D01*
Y48057D02*
Y49113D01*
X70876Y7382D02*
Y8618D01*
Y7382D02*
X70891Y7366D01*
X64780Y9368D02*
X66674D01*
X59753Y12058D02*
X61478D01*
D122*
X69596Y59050D02*
X69723Y58923D01*
Y57201D02*
Y58923D01*
Y57201D02*
X70383Y56540D01*
X71177D01*
X71965Y55753D02*
X72033D01*
X71177Y56540D02*
X71965Y55753D01*
D123*
X73848Y48834D02*
X73914Y48768D01*
X32319Y48834D02*
X73848D01*
X72712Y87122D02*
X80264D01*
X81280Y88138D01*
X32258Y48895D02*
X32319Y48834D01*
X72898Y48406D02*
X73485Y47819D01*
X45974Y47752D02*
X46628Y48406D01*
X72898D01*
X24745Y42280D02*
X24756Y42291D01*
X28067D01*
X21741Y42280D02*
X24745D01*
X24743Y40132D02*
X28067D01*
X24732Y40143D02*
X24743Y40132D01*
X24721D02*
X24732Y40143D01*
X20708Y89408D02*
X21819D01*
X20574Y89274D02*
X20708Y89408D01*
X77005Y28860D02*
X77038Y28892D01*
X76586Y28860D02*
X77005D01*
X75819Y28092D02*
X76586Y28860D01*
X75819Y28092D02*
X75972D01*
X21336Y20948D02*
Y22225D01*
X21376Y22185D01*
X24343D01*
X24831Y22673D01*
X20053Y88165D02*
X24130D01*
X19558D02*
X20053D01*
X20574Y88686D01*
Y89274D01*
X62611Y82570D02*
X64787D01*
X65061Y82296D01*
X62611Y85070D02*
X64787D01*
X65061Y85344D01*
X59109Y83355D02*
X59894Y82570D01*
X62611D01*
X56619Y83355D02*
X59109D01*
X62591Y85090D02*
X62611Y85070D01*
X59944Y85090D02*
X62591D01*
X56619Y84255D02*
X59109D01*
X59944Y85090D01*
X74715Y29528D02*
X77685D01*
X74652Y29464D02*
X74715Y29528D01*
X24831Y22673D02*
Y24133D01*
X21219Y20831D02*
X21336Y20948D01*
X17482Y42280D02*
X19991D01*
X16858Y41656D02*
X17482Y42280D01*
X9873Y41656D02*
X16858D01*
Y40640D02*
X17366Y40132D01*
X19991D01*
X8095Y40640D02*
X16858D01*
X40386Y55678D02*
X61790D01*
X84330Y47819D02*
X84412Y47901D01*
X73485Y47819D02*
X84330D01*
X64516Y53340D02*
Y56254D01*
X37846Y55678D02*
X38556Y56388D01*
X64382D01*
X64516Y56254D01*
X61976Y53340D02*
Y55492D01*
X61790Y55678D02*
X61976Y55492D01*
X21741Y40132D02*
X24721D01*
X46736Y51562D02*
Y53340D01*
X45974Y50800D02*
X46736Y51562D01*
X46215Y52819D02*
X46736Y53340D01*
X45974Y50800D02*
Y51082D01*
X82335Y30798D02*
X83686D01*
X84130Y31242D01*
X84412D01*
X33528Y52832D02*
X34036Y53340D01*
X32258Y52832D02*
X33528D01*
X80010Y27121D02*
Y29210D01*
Y26486D02*
Y27121D01*
X80144Y26353D02*
X82335D01*
X80010Y26486D02*
X80144Y26353D01*
X77685Y29528D02*
X79692D01*
X80010Y29210D01*
X80144Y26987D02*
X82335D01*
X80010Y27121D02*
X80144Y26987D01*
X6643Y18175D02*
X9553D01*
X23445Y18545D02*
Y20705D01*
X23319Y20831D02*
X23445Y20705D01*
X17416Y21151D02*
X20899D01*
X21219Y20831D01*
X17416Y23051D02*
Y23599D01*
X18655Y23996D02*
X18791Y24133D01*
X17813Y23996D02*
X18655D01*
X17416Y23599D02*
X17813Y23996D01*
X18791Y18037D02*
Y19815D01*
X10961Y21201D02*
X11011Y21151D01*
X14666D01*
X8128Y21201D02*
X10961D01*
X3302Y20577D02*
X7504D01*
X8128Y21201D01*
X9553Y18175D02*
X9691Y18037D01*
X81280Y88138D02*
X83710D01*
X65061Y82296D02*
Y82396D01*
Y85244D02*
Y85344D01*
X19558Y85625D02*
X24997D01*
X25024Y85598D01*
X19558Y83085D02*
X24997D01*
X25024Y83058D01*
X19558Y80545D02*
X24997D01*
X25024Y80518D01*
X19558Y78005D02*
X24997D01*
X25024Y77978D01*
X19585Y75438D02*
X25024D01*
X19558Y75465D02*
X19585Y75438D01*
X19558Y72925D02*
X24997D01*
X25024Y72898D01*
X19585Y70358D02*
X25024D01*
X19558Y70385D02*
X19585Y70358D01*
X19558Y67845D02*
X24997D01*
X25024Y67818D01*
X19585Y65278D02*
X25024D01*
X19558Y65305D02*
X19585Y65278D01*
X19558Y62765D02*
X24997D01*
X25024Y62738D01*
X19585Y60198D02*
X25024D01*
X19558Y60225D02*
X19585Y60198D01*
X19558Y57685D02*
X24997D01*
X25024Y57658D01*
X34036Y59050D02*
Y64836D01*
X36576Y59050D02*
Y64836D01*
X39116Y59050D02*
Y64836D01*
X41656Y59050D02*
Y64836D01*
X44196Y59050D02*
Y64836D01*
X46736Y59050D02*
Y64836D01*
X49276Y59050D02*
Y64836D01*
X51816Y59050D02*
Y64836D01*
X54340Y59066D02*
Y64836D01*
Y59066D02*
X54356Y59050D01*
X56896D02*
Y64836D01*
X59436Y59050D02*
Y64836D01*
X61976Y59050D02*
Y64836D01*
X64516Y59050D02*
Y64836D01*
X78420Y75438D02*
X83710D01*
X78420Y72898D02*
X83710D01*
X78420Y70358D02*
X83710D01*
X78420Y67818D02*
X83710D01*
X78420Y65278D02*
X83710D01*
X78420Y62738D02*
X83710D01*
X78420Y60198D02*
X83710D01*
X78420Y57658D02*
X83710D01*
X64516Y75438D02*
X76520D01*
X56619Y82455D02*
X56717Y82357D01*
X57597D01*
X64516Y75438D01*
X66294Y72898D02*
X76520D01*
X56619Y81555D02*
X57637D01*
X66294Y72898D01*
X57775Y80655D02*
X68072Y70358D01*
X56619Y80655D02*
X57775D01*
X68072Y70358D02*
X76520D01*
X69850Y67818D02*
X76520D01*
X56619Y79755D02*
X57913D01*
X69850Y67818D01*
X71762Y65278D02*
X76520D01*
X56619Y78845D02*
X58195D01*
X71762Y65278D01*
X73660Y62738D02*
X76520D01*
X56619Y77945D02*
X58453D01*
X73660Y62738D01*
Y60332D02*
Y62074D01*
X73794Y60198D02*
X76520D01*
X73660Y60332D02*
X73794Y60198D01*
X58689Y77045D02*
X73660Y62074D01*
X56619Y77045D02*
X58689D01*
X58928Y76145D02*
X71319Y63754D01*
X56619Y76145D02*
X58928D01*
X71319Y63754D02*
X71374D01*
X71628Y57792D02*
Y63500D01*
X71374Y63754D02*
X71628Y63500D01*
X71762Y57658D02*
X76520D01*
X71628Y57792D02*
X71762Y57658D01*
X64441Y66736D02*
X64516D01*
X54701Y74001D02*
X57612Y71090D01*
X54701Y74001D02*
Y74485D01*
X57612Y71090D02*
X60087D01*
X54510Y74676D02*
X54701Y74485D01*
X60087Y71090D02*
X64441Y66736D01*
X57976Y70661D02*
X61901Y66736D01*
X61976D01*
X57140Y70661D02*
X57976D01*
X53801Y74001D02*
X57140Y70661D01*
X53801Y74001D02*
Y74485D01*
X53610Y74676D02*
X53801Y74485D01*
X52710Y73387D02*
Y74676D01*
Y73387D02*
X59361Y66736D01*
X59436D01*
X51800Y71757D02*
Y74676D01*
Y71757D02*
X56821Y66736D01*
X56896D01*
X50900Y70101D02*
Y74676D01*
Y70101D02*
X54265Y66736D01*
X54340D01*
X50000Y68477D02*
Y74676D01*
Y68477D02*
X51741Y66736D01*
X51816D01*
X49100Y66912D02*
Y74676D01*
Y66912D02*
X49276Y66736D01*
X48200Y68125D02*
Y74676D01*
X46811Y66736D02*
X48200Y68125D01*
X46736Y66736D02*
X46811D01*
X47300Y69765D02*
Y74676D01*
X44271Y66736D02*
X47300Y69765D01*
X44196Y66736D02*
X44271D01*
X46390Y71395D02*
Y74676D01*
X41731Y66736D02*
X46390Y71395D01*
X41656Y66736D02*
X41731D01*
X45490Y73035D02*
Y74676D01*
X39191Y66736D02*
X45490Y73035D01*
X39116Y66736D02*
X39191D01*
X44399Y74485D02*
X44590Y74676D01*
X44399Y74001D02*
Y74485D01*
X37720Y67322D02*
X44399Y74001D01*
X37162Y67322D02*
X37720D01*
X36576Y66736D02*
X37162Y67322D01*
X34036Y66736D02*
Y68580D01*
X43690Y74346D02*
Y74676D01*
X43499Y74155D02*
X43690Y74346D01*
X39611Y74155D02*
X43499D01*
X34036Y68580D02*
X39611Y74155D01*
X25330Y86965D02*
X43381D01*
X24130Y88165D02*
X25330Y86965D01*
X26924Y85598D02*
X39878D01*
X40345Y86065D01*
X43381D01*
X26924Y83058D02*
X38533D01*
X40640Y85165D01*
X43381D01*
X40640Y84255D02*
X43381D01*
X36903Y80518D02*
X40640Y84255D01*
X35263Y77978D02*
X40640Y83355D01*
Y82455D02*
X43381D01*
X33623Y75438D02*
X40640Y82455D01*
Y83355D02*
X43381D01*
X26924Y80518D02*
X36903D01*
X26924Y77978D02*
X35263D01*
X26924Y75438D02*
X33623D01*
X26924Y72898D02*
X31983D01*
X40640Y81555D01*
X43381D01*
X26924Y70358D02*
X30343D01*
X40640Y80655D01*
X43381D01*
X26924Y67818D02*
X28703D01*
X40640Y79755D01*
X43381D01*
X29210Y65412D02*
Y67415D01*
X26924Y65278D02*
X29076D01*
X29210Y65412D01*
Y67415D02*
X40640Y78845D01*
X29718Y67023D02*
X40640Y77945D01*
X29718Y62872D02*
Y67023D01*
X40640Y78845D02*
X43381D01*
X26924Y62738D02*
X29584D01*
X29718Y62872D01*
X40640Y77945D02*
X43381D01*
X30480Y60332D02*
Y66885D01*
X26924Y60198D02*
X30346D01*
X30480Y60332D01*
Y66885D02*
X40640Y77045D01*
X31750Y67255D02*
X40640Y76145D01*
X31750Y57792D02*
Y67255D01*
X31616Y57658D02*
X31750Y57792D01*
X40640Y77045D02*
X43381D01*
X40640Y76145D02*
X43381D01*
X26924Y57658D02*
X31616D01*
X26924Y85598D02*
X27391Y86065D01*
X49734Y17206D02*
X50200Y17672D01*
X47244Y19998D02*
X47344Y19898D01*
X38319Y17158D02*
X38367Y17206D01*
D124*
X62678Y35306D02*
X65939D01*
X62662Y35290D02*
X62678Y35306D01*
X94489Y21994D02*
X95877D01*
X93980Y22503D02*
X94489Y21994D01*
X85199Y21599D02*
X88420D01*
X88429Y21590D01*
X82335Y25083D02*
X85199D01*
X82335Y25718D02*
X83840D01*
X84030Y25908D01*
X84090D01*
X88369Y19144D02*
X88433Y19208D01*
X84074Y19144D02*
X88369D01*
X90383Y21498D02*
Y21598D01*
Y21498D02*
X91187Y20694D01*
X95877D01*
X91119Y20044D02*
X95877D01*
X90383Y19308D02*
X91119Y20044D01*
X90383Y19208D02*
Y19308D01*
D125*
X66736Y33927D02*
X66752Y33944D01*
X82966D01*
X82982Y33960D01*
X52690Y38923D02*
X52714Y38899D01*
X53481D01*
X53666Y35957D02*
Y36743D01*
X53481Y38899D02*
X53667Y38713D01*
X53666Y36743D02*
X53667Y36744D01*
Y38713D01*
X54206Y34225D02*
X54356D01*
X53666Y35957D02*
X53808Y35815D01*
X53781Y34650D02*
X53808D01*
X53781D02*
X54206Y34225D01*
X53808Y34650D02*
Y35815D01*
X98044Y78105D02*
Y81839D01*
X94489Y81813D02*
X97942D01*
X12446Y5290D02*
Y6731D01*
X66511Y85344D02*
X68326D01*
X70558Y87376D02*
X70812Y87122D01*
X68961Y87376D02*
X70558D01*
X56411Y52324D02*
X56896Y52809D01*
Y53340D02*
X56962Y53274D01*
X56896Y52809D02*
Y53340D01*
X41656Y51435D02*
Y53340D01*
X1270Y50800D02*
X41021D01*
X41656Y51435D01*
X39116Y51816D02*
Y53340D01*
X2032Y51562D02*
X38862D01*
X39116Y51816D01*
X56384Y87865D02*
X56502Y87748D01*
X50000Y37288D02*
Y38447D01*
X69591Y59055D02*
X69596Y59050D01*
X37823Y12827D02*
X37846Y12804D01*
X36068Y12827D02*
X37823D01*
X77666Y27603D02*
X77685Y27622D01*
X76702Y27603D02*
X77666D01*
X75717Y26619D02*
X76702Y27603D01*
X83848Y28257D02*
X84166Y28575D01*
X82335Y28257D02*
X83848D01*
X84166Y28575D02*
X84328D01*
X44959Y86868D02*
X45085D01*
X86741Y29899D02*
Y31242D01*
Y24003D02*
Y25282D01*
X98044Y22352D02*
X98552Y21844D01*
X97028Y22352D02*
X98044D01*
X96774Y22606D02*
X97028Y22352D01*
X96774Y22606D02*
Y23876D01*
X98552Y19050D02*
Y19544D01*
X96774Y17526D02*
Y18874D01*
X96950Y19050D01*
X98552D01*
X83162Y90678D02*
X83710D01*
X82677Y91163D02*
X83162Y90678D01*
X82677Y91163D02*
Y92710D01*
X19558Y90705D02*
X19962D01*
X20447Y91190D01*
X19558Y55145D02*
X19581D01*
X20066Y54660D01*
X50000Y38447D02*
X50543Y38991D01*
X41779Y34721D02*
X50000D01*
X41275Y35225D02*
X41779Y34721D01*
X63570Y39599D02*
X63602Y39567D01*
X86675Y29833D02*
X86741Y29899D01*
X86675Y25348D02*
X86741Y25282D01*
X56619Y86965D02*
X56697Y87044D01*
X58596D01*
X58674Y87122D01*
X62484Y88691D02*
Y90379D01*
X65278Y88634D02*
Y90252D01*
X56502Y87748D02*
X56619Y87865D01*
X54991Y86850D02*
X55081D01*
X21741Y29999D02*
X24831D01*
X18796Y28448D02*
X20190D01*
X21741Y29999D01*
X14666Y23051D02*
X14732Y23117D01*
Y26924D02*
X16256Y28448D01*
X14732Y23117D02*
Y26924D01*
X2032Y26927D02*
X3302Y25657D01*
X2032Y26927D02*
Y27940D01*
X3301Y23115D02*
X3302Y23117D01*
X1296Y23115D02*
X3301D01*
X1295Y23114D02*
X1296Y23115D01*
X24831Y29999D02*
X25247D01*
X26112Y30864D01*
Y31931D01*
X26398Y32217D01*
X27371D01*
X24831Y34321D02*
X27367D01*
X27371Y34317D01*
Y32217D02*
X28575D01*
X28861Y31931D02*
X30027D01*
X28575Y32217D02*
X28861Y31931D01*
X89420Y62738D02*
X92246D01*
X92729Y62255D02*
X94742D01*
X92246Y62738D02*
X92729Y62255D01*
X91271Y55612D02*
Y57482D01*
X89420Y57658D02*
X91095D01*
X91271Y57482D01*
Y55612D02*
X93493Y53391D01*
X94742D01*
X93713Y57252D02*
Y58687D01*
X94742Y59715D01*
X90221Y50813D02*
X94704D01*
X95364Y50889D02*
X95402Y50927D01*
X96698Y67056D02*
X98044D01*
X96318Y66676D02*
X96698Y67056D01*
X93828Y65811D02*
X94693Y66676D01*
X96318D01*
X98044Y67056D02*
Y68555D01*
X95631Y69088D02*
X97511D01*
X98044Y68555D01*
X89420Y72898D02*
X92837D01*
X93167Y69494D02*
Y72568D01*
X92837Y72898D02*
X93167Y72568D01*
X93574Y69088D02*
X95631D01*
X93167Y69494D02*
X93574Y69088D01*
X57130Y40725D02*
X57190Y40785D01*
X93624Y82678D02*
Y83439D01*
Y82678D02*
X94489Y81813D01*
X95631Y75692D02*
X98044Y78105D01*
X89420Y75438D02*
X93116D01*
X93370Y75692D02*
X95631D01*
X93116Y75438D02*
X93370Y75692D01*
X61478Y13658D02*
X64014D01*
X64018Y13654D01*
X62731Y9913D02*
Y11378D01*
X62907Y11554D02*
X64018D01*
X62731Y11378D02*
X62907Y11554D01*
X61478Y9048D02*
X61866D01*
X62731Y9913D01*
X64304Y11268D02*
X66674D01*
X64018Y11554D02*
X64304Y11268D01*
X83467Y55118D02*
X83710D01*
X82982Y54633D02*
X83467Y55118D01*
X82982Y53340D02*
Y54633D01*
X66674Y11268D02*
X66700Y11294D01*
Y13106D01*
X71362Y29464D02*
X73152D01*
X9691Y13537D02*
Y15405D01*
X18791Y13537D02*
Y15405D01*
X14560Y22207D02*
X14666Y22101D01*
X13060Y22207D02*
X14560D01*
X12954Y22313D02*
X13060Y22207D01*
X66511Y82296D02*
X68326D01*
X29602Y9586D02*
X32607D01*
X43180Y16018D02*
X43194Y16004D01*
X50306Y15566D02*
X52540D01*
X48643Y38612D02*
X48833Y38801D01*
X49022Y38612D01*
X50543Y38991D02*
X50800Y39247D01*
X58420Y49596D02*
X58862Y50038D01*
X47752Y31610D02*
X48617Y32475D01*
X47752Y31064D02*
Y31610D01*
X57301Y32475D02*
X58166Y31610D01*
Y31064D02*
Y31610D01*
X57130Y38275D02*
X58394D01*
X59261Y39142D01*
Y39192D01*
X57130Y37625D02*
X58519D01*
X59348Y36796D01*
X59398D01*
X51209Y38275D02*
X52698D01*
X50543Y38940D02*
X51209Y38275D01*
X50543Y38940D02*
Y38991D01*
X52632Y37559D02*
X52698Y37625D01*
X52247Y36975D02*
X52698D01*
X52181Y36909D02*
X52247Y36975D01*
X52181Y35962D02*
Y36909D01*
X51816Y35597D02*
X52181Y35962D01*
X51816Y34225D02*
Y35597D01*
D126*
X55245Y50038D02*
X55245Y50038D01*
X56962D01*
X55696Y52357D02*
X56642D01*
X56896Y52611D02*
Y53340D01*
X56642Y52357D02*
X56896Y52611D01*
X55663Y52324D02*
X55696Y52357D01*
X55626Y52324D02*
X55663D01*
X63602Y41061D02*
Y43002D01*
X12159Y67845D02*
X13848D01*
X11814Y67501D02*
X12159Y67845D01*
X11033Y67501D02*
X11814D01*
X12068Y70385D02*
X13848D01*
X11724Y70041D02*
X12068Y70385D01*
X11033Y70041D02*
X11724D01*
X11787Y78232D02*
X12014Y78005D01*
X13924D01*
X11036Y78232D02*
X11787D01*
X12041Y75465D02*
X13924D01*
X11036Y75692D02*
X11814D01*
X12041Y75465D01*
X11036Y72898D02*
X13897D01*
X12068Y65305D02*
X13924D01*
X11724Y64961D02*
X12068Y65305D01*
X10995Y64961D02*
X11724D01*
X87376Y16002D02*
X89166D01*
X58862Y50038D02*
X60706D01*
X58420Y45212D02*
X60706D01*
X50800Y39247D02*
Y40957D01*
X48617Y32475D02*
X51816D01*
X54356D02*
X57301D01*
X44450Y41061D02*
X48554D01*
X61261Y39192D02*
X63570D01*
X54356Y28016D02*
Y32475D01*
X51816Y28016D02*
Y32475D01*
D127*
X49530Y44196D02*
X50415D01*
X52635Y46416D01*
X54676D01*
X55880Y45212D01*
X55829Y42545D02*
X55880D01*
X55440Y42156D02*
X55829Y42545D01*
X55440Y40785D02*
Y42156D01*
X9873Y45720D02*
Y47351D01*
X13835Y57672D02*
X13848Y57685D01*
X11393Y57672D02*
X13835D01*
X11379Y57658D02*
X11393Y57672D01*
X9906Y60225D02*
X13848D01*
X8128Y62765D02*
X13848D01*
X8095Y44704D02*
Y46270D01*
X9873Y39624D02*
X11320D01*
X57130Y38925D02*
Y40725D01*
D128*
X50292Y17580D02*
Y19898D01*
X47344D02*
X50292D01*
X43210Y17206D02*
X49734D01*
X38367D02*
X40610D01*
D129*
X64402Y24460D02*
D03*
X3302Y15497D02*
D03*
X44450Y43601D02*
D03*
D130*
X64402Y27000D02*
D03*
Y29540D02*
D03*
X18796Y28448D02*
D03*
X16256D02*
D03*
X3302Y20577D02*
D03*
Y18037D02*
D03*
Y23117D02*
D03*
Y25657D02*
D03*
X44450Y38521D02*
D03*
Y41061D02*
D03*
X61595Y20574D02*
D03*
X59055D02*
D03*
D131*
X32512Y3759D02*
D03*
X54356Y28194D02*
D03*
X53340Y45085D02*
D03*
X55880D02*
D03*
X19177Y3683D02*
D03*
X94742Y62255D02*
D03*
Y53391D02*
D03*
X95631Y69088D02*
D03*
Y75692D02*
D03*
X40424Y3742D02*
D03*
D132*
X29972Y3759D02*
D03*
X51816Y28194D02*
D03*
X58420Y45085D02*
D03*
X16637Y3683D02*
D03*
X37884Y3742D02*
D03*
D133*
X28473Y93421D02*
D03*
X33553D02*
D03*
D134*
X95552Y18420D02*
D03*
Y22968D02*
D03*
D135*
X98552Y24869D02*
D03*
Y16519D02*
D03*
D136*
X13716Y28448D02*
D03*
D137*
X16703Y56415D02*
D03*
Y89435D02*
D03*
X68326Y56195D02*
D03*
X35306D02*
D03*
X86565Y56388D02*
D03*
Y89408D02*
D03*
D138*
X94742Y59715D02*
D03*
Y50851D02*
D03*
X95631Y71628D02*
D03*
Y78232D02*
D03*
D139*
X56515Y20574D02*
D03*
D140*
X95000Y4858D02*
D03*
X5000Y5000D02*
D03*
X95000Y95000D02*
D03*
X5000D02*
D03*
D141*
X65939Y35306D02*
D03*
D142*
X54356Y38608D02*
D03*
Y37287D02*
D03*
X55474D02*
D03*
Y38608D02*
D03*
X10566Y95072D02*
D03*
D143*
X60808Y32893D02*
D03*
X56998Y35738D02*
D03*
X32258Y48895D02*
D03*
X45974Y50800D02*
D03*
X32258Y52832D02*
D03*
D144*
X57658Y34290D02*
D03*
X20320Y97282D02*
D03*
X55499Y35814D02*
D03*
X12446Y6731D02*
D03*
X9398Y93091D02*
D03*
X56896Y73152D02*
D03*
X5385Y52578D02*
D03*
X5461Y56744D02*
D03*
X55245Y50038D02*
D03*
X55626Y52324D02*
D03*
X55880Y42545D02*
D03*
X98654Y45060D02*
D03*
X50000Y37288D02*
D03*
X36068Y12827D02*
D03*
X75819Y28092D02*
D03*
X75717Y26619D02*
D03*
X84328Y28575D02*
D03*
X86741Y31242D02*
D03*
Y24003D02*
D03*
X96774Y17526D02*
D03*
Y23876D02*
D03*
X81788Y38354D02*
D03*
X9398Y97282D02*
D03*
X2286Y53340D02*
D03*
Y57912D02*
D03*
X20320Y92456D02*
D03*
X18796D02*
D03*
X20320Y53340D02*
D03*
X18542D02*
D03*
X82677Y92710D02*
D03*
X95174Y45110D02*
D03*
X92246Y44958D02*
D03*
X94194Y41210D02*
D03*
X92246Y42672D02*
D03*
X85199Y37084D02*
D03*
X85344Y41656D02*
D03*
X81578Y39911D02*
D03*
X77978Y41061D02*
D03*
Y38675D02*
D03*
X73914D02*
D03*
Y41061D02*
D03*
X52705Y40132D02*
D03*
X51079Y36322D02*
D03*
X48554Y36875D02*
D03*
X50000Y34721D02*
D03*
X45974Y47752D02*
D03*
X84412Y31242D02*
D03*
D145*
X11557Y93421D02*
D03*
X28448Y98171D02*
D03*
X66736Y33927D02*
D03*
X82982Y33960D02*
D03*
X33528Y97282D02*
D03*
X10541Y80645D02*
D03*
X11430Y83058D02*
D03*
X28067Y42291D02*
D03*
Y40132D02*
D03*
X21819Y89408D02*
D03*
X21336Y22225D02*
D03*
X2032Y51562D02*
D03*
Y27940D02*
D03*
X1270Y50800D02*
D03*
X1295Y23114D02*
D03*
X9873Y47351D02*
D03*
X34229Y27915D02*
D03*
X23241Y32715D02*
D03*
X11379Y57658D02*
D03*
X8128Y62765D02*
D03*
X9906Y60225D02*
D03*
X8095Y46270D02*
D03*
X11320Y39624D02*
D03*
X92126Y55677D02*
D03*
X90449Y48057D02*
D03*
X40386Y55678D02*
D03*
X70891Y7366D02*
D03*
X59753Y12058D02*
D03*
X82982Y53340D02*
D03*
X66700Y13106D02*
D03*
X37846Y55678D02*
D03*
X93980Y22503D02*
D03*
X85199Y21599D02*
D03*
X84090Y25908D02*
D03*
X85199Y25083D02*
D03*
X84074Y19144D02*
D03*
D146*
X68656Y39751D02*
D03*
X73914Y48768D02*
D03*
X72033Y55753D02*
D03*
X68961Y87376D02*
D03*
X68326Y85344D02*
D03*
X45085Y86868D02*
D03*
X63602Y43002D02*
D03*
X58674Y87122D02*
D03*
X62484Y90379D02*
D03*
X65278Y90252D02*
D03*
X54991Y86850D02*
D03*
X84412Y47901D02*
D03*
X71362Y29464D02*
D03*
X18791Y15405D02*
D03*
X9691D02*
D03*
X12954Y22313D02*
D03*
X87376Y16002D02*
D03*
X68326Y82296D02*
D03*
X29602Y9586D02*
D03*
X38746Y20828D02*
D03*
Y24155D02*
D03*
X40945D02*
D03*
X52540Y15566D02*
D03*
X60706Y50038D02*
D03*
Y45212D02*
D03*
X64780Y9368D02*
D03*
X18791Y24133D02*
D03*
Y19815D02*
D03*
X28133Y29999D02*
D03*
M02*
