G04*
G04 #@! TF.GenerationSoftware,Altium Limited,Altium Designer,23.7.1 (13)*
G04*
G04 Layer_Color=8388736*
%FSLAX43Y43*%
%MOMM*%
G71*
G04*
G04 #@! TF.SameCoordinates,7FBB53E4-5163-4D6D-B0BA-52333DB4A2EE*
G04*
G04*
G04 #@! TF.FilePolarity,Negative*
G04*
G01*
G75*
%ADD29R,0.610X1.270*%
%ADD30R,1.270X0.610*%
%ADD36R,1.350X0.950*%
%ADD42R,0.950X1.350*%
%ADD45R,1.600X3.200*%
G04:AMPARAMS|DCode=55|XSize=1.408mm|YSize=0.822mm|CornerRadius=0.411mm|HoleSize=0mm|Usage=FLASHONLY|Rotation=270.000|XOffset=0mm|YOffset=0mm|HoleType=Round|Shape=RoundedRectangle|*
%AMROUNDEDRECTD55*
21,1,1.408,0.000,0,0,270.0*
21,1,0.586,0.822,0,0,270.0*
1,1,0.822,0.000,-0.293*
1,1,0.822,0.000,0.293*
1,1,0.822,0.000,0.293*
1,1,0.822,0.000,-0.293*
%
%ADD55ROUNDEDRECTD55*%
%ADD56R,0.822X1.408*%
%ADD58R,1.194X3.708*%
G04:AMPARAMS|DCode=59|XSize=1.1mm|YSize=0.6mm|CornerRadius=0.051mm|HoleSize=0mm|Usage=FLASHONLY|Rotation=180.000|XOffset=0mm|YOffset=0mm|HoleType=Round|Shape=RoundedRectangle|*
%AMROUNDEDRECTD59*
21,1,1.100,0.498,0,0,180.0*
21,1,0.998,0.600,0,0,180.0*
1,1,0.102,-0.499,0.249*
1,1,0.102,0.499,0.249*
1,1,0.102,0.499,-0.249*
1,1,0.102,-0.499,-0.249*
%
%ADD59ROUNDEDRECTD59*%
%ADD60R,1.800X1.000*%
%ADD64R,4.003X2.233*%
%ADD65R,1.703X1.603*%
%ADD66R,2.233X4.003*%
%ADD67R,2.053X2.353*%
%ADD68O,1.553X0.703*%
%ADD69R,1.603X1.703*%
%ADD70R,1.379X0.429*%
%ADD71R,2.103X2.003*%
%ADD72O,1.965X0.415*%
%ADD73R,1.226X1.426*%
%ADD74R,1.576X1.676*%
%ADD75R,1.676X1.576*%
G04:AMPARAMS|DCode=76|XSize=0.691mm|YSize=1.091mm|CornerRadius=0.097mm|HoleSize=0mm|Usage=FLASHONLY|Rotation=90.000|XOffset=0mm|YOffset=0mm|HoleType=Round|Shape=RoundedRectangle|*
%AMROUNDEDRECTD76*
21,1,0.691,0.898,0,0,90.0*
21,1,0.498,1.091,0,0,90.0*
1,1,0.193,0.449,0.249*
1,1,0.193,0.449,-0.249*
1,1,0.193,-0.449,-0.249*
1,1,0.193,-0.449,0.249*
%
%ADD76ROUNDEDRECTD76*%
%ADD77R,1.653X0.803*%
%ADD78R,2.993X1.473*%
%ADD79R,1.003X1.453*%
%ADD80R,1.453X1.003*%
%ADD81R,1.353X1.653*%
%ADD82R,1.553X1.203*%
G04:AMPARAMS|DCode=83|XSize=1.203mm|YSize=2.253mm|CornerRadius=0.152mm|HoleSize=0mm|Usage=FLASHONLY|Rotation=180.000|XOffset=0mm|YOffset=0mm|HoleType=Round|Shape=RoundedRectangle|*
%AMROUNDEDRECTD83*
21,1,1.203,1.950,0,0,180.0*
21,1,0.900,2.253,0,0,180.0*
1,1,0.303,-0.450,0.975*
1,1,0.303,0.450,0.975*
1,1,0.303,0.450,-0.975*
1,1,0.303,-0.450,-0.975*
%
%ADD83ROUNDEDRECTD83*%
G04:AMPARAMS|DCode=84|XSize=3.453mm|YSize=2.253mm|CornerRadius=0.153mm|HoleSize=0mm|Usage=FLASHONLY|Rotation=180.000|XOffset=0mm|YOffset=0mm|HoleType=Round|Shape=RoundedRectangle|*
%AMROUNDEDRECTD84*
21,1,3.453,1.948,0,0,180.0*
21,1,3.148,2.253,0,0,180.0*
1,1,0.306,-1.574,0.974*
1,1,0.306,1.574,0.974*
1,1,0.306,1.574,-0.974*
1,1,0.306,-1.574,-0.974*
%
%ADD84ROUNDEDRECTD84*%
%ADD85R,1.553X1.753*%
%ADD86R,1.473X2.993*%
%ADD87R,1.403X0.803*%
%ADD88R,1.503X1.303*%
%ADD89R,1.303X1.503*%
%ADD90R,2.303X1.603*%
%ADD91R,1.353X1.203*%
%ADD92R,1.653X1.353*%
%ADD93R,1.603X1.403*%
%ADD94R,1.403X1.603*%
%ADD95R,1.603X1.753*%
%ADD96R,1.753X1.603*%
%ADD97R,2.103X1.778*%
G04:AMPARAMS|DCode=98|XSize=1.803mm|YSize=1.803mm|CornerRadius=0.502mm|HoleSize=0mm|Usage=FLASHONLY|Rotation=90.000|XOffset=0mm|YOffset=0mm|HoleType=Round|Shape=RoundedRectangle|*
%AMROUNDEDRECTD98*
21,1,1.803,0.800,0,0,90.0*
21,1,0.800,1.803,0,0,90.0*
1,1,1.003,0.400,0.400*
1,1,1.003,0.400,-0.400*
1,1,1.003,-0.400,-0.400*
1,1,1.003,-0.400,0.400*
%
%ADD98ROUNDEDRECTD98*%
%ADD99C,1.803*%
%ADD100C,1.753*%
%ADD101R,1.753X1.753*%
%ADD102C,1.575*%
%ADD103C,2.703*%
%ADD104O,1.279X1.079*%
%ADD105O,2.103X1.403*%
%ADD106R,1.803X1.803*%
%ADD107C,2.203*%
%ADD108R,1.753X1.753*%
%ADD109C,3.250*%
%ADD110R,1.390X1.390*%
%ADD111C,1.390*%
G04:AMPARAMS|DCode=112|XSize=1.803mm|YSize=1.803mm|CornerRadius=0.502mm|HoleSize=0mm|Usage=FLASHONLY|Rotation=0.000|XOffset=0mm|YOffset=0mm|HoleType=Round|Shape=RoundedRectangle|*
%AMROUNDEDRECTD112*
21,1,1.803,0.800,0,0,0.0*
21,1,0.800,1.803,0,0,0.0*
1,1,1.003,0.400,-0.400*
1,1,1.003,-0.400,-0.400*
1,1,1.003,-0.400,0.400*
1,1,1.003,0.400,0.400*
%
%ADD112ROUNDEDRECTD112*%
%ADD113C,3.203*%
%ADD114C,0.838*%
%ADD115C,0.813*%
%ADD116C,1.092*%
%ADD117C,1.103*%
%ADD118C,0.803*%
%ADD119C,1.473*%
D29*
X43690Y74676D02*
D03*
X44590D02*
D03*
X45490D02*
D03*
X46390D02*
D03*
X47300D02*
D03*
X48200D02*
D03*
X49100D02*
D03*
X50000D02*
D03*
X50900D02*
D03*
X51800D02*
D03*
X52710D02*
D03*
X53610D02*
D03*
X54510D02*
D03*
X55410D02*
D03*
X56310D02*
D03*
D30*
X43381Y87865D02*
D03*
Y86965D02*
D03*
Y86065D02*
D03*
Y85165D02*
D03*
Y84255D02*
D03*
Y83355D02*
D03*
Y82455D02*
D03*
Y81555D02*
D03*
Y80655D02*
D03*
Y79755D02*
D03*
Y78845D02*
D03*
Y77945D02*
D03*
Y77045D02*
D03*
Y76145D02*
D03*
X56619D02*
D03*
Y77045D02*
D03*
Y77945D02*
D03*
Y78845D02*
D03*
Y79755D02*
D03*
Y80655D02*
D03*
Y81555D02*
D03*
Y82455D02*
D03*
Y83355D02*
D03*
Y84255D02*
D03*
Y85165D02*
D03*
Y86065D02*
D03*
Y86965D02*
D03*
Y87865D02*
D03*
D36*
X65278Y88634D02*
D03*
Y87134D02*
D03*
X92246Y39710D02*
D03*
Y41210D02*
D03*
X81578Y42988D02*
D03*
Y41488D02*
D03*
X34229Y29353D02*
D03*
Y30853D02*
D03*
X70876Y8618D02*
D03*
Y10118D02*
D03*
X86675Y28333D02*
D03*
Y29833D02*
D03*
Y26848D02*
D03*
Y25348D02*
D03*
X62484Y87191D02*
D03*
Y88691D02*
D03*
D42*
X90666Y16002D02*
D03*
X89166D02*
D03*
X74652Y29464D02*
D03*
X73152D02*
D03*
D45*
X75990Y39738D02*
D03*
Y44738D02*
D03*
D55*
X45974Y12190D02*
D03*
D56*
Y15750D02*
D03*
D58*
X43307Y11430D02*
D03*
X40513D02*
D03*
D59*
X40610Y15306D02*
D03*
Y17206D02*
D03*
X43210D02*
D03*
Y16256D02*
D03*
Y15306D02*
D03*
D60*
X62611Y85070D02*
D03*
Y82570D02*
D03*
D64*
X15037Y97003D02*
D03*
X49530Y44196D02*
D03*
X7620Y54610D02*
D03*
X93409Y29464D02*
D03*
X67996Y44722D02*
D03*
X41275Y32004D02*
D03*
X24831Y24133D02*
D03*
X93828Y65811D02*
D03*
X41275Y35225D02*
D03*
X61478Y9048D02*
D03*
X24831Y29999D02*
D03*
D65*
X62662Y33290D02*
D03*
X62662Y35290D02*
D03*
X50292Y15580D02*
D03*
Y17580D02*
D03*
Y19898D02*
D03*
Y21898D02*
D03*
X38319Y17158D02*
D03*
Y15158D02*
D03*
D66*
X9779Y89535D02*
D03*
X30593Y14989D02*
D03*
X97028Y41935D02*
D03*
X93624Y83439D02*
D03*
X58166Y31064D02*
D03*
X47752D02*
D03*
D67*
X54915Y37948D02*
D03*
D68*
X57140Y36973D02*
D03*
Y37623D02*
D03*
Y38273D02*
D03*
Y38923D02*
D03*
X52690Y36973D02*
D03*
Y37623D02*
D03*
Y38273D02*
D03*
Y38923D02*
D03*
D69*
X66532Y98171D02*
D03*
X64532Y98171D02*
D03*
X66532Y95758D02*
D03*
X64532Y95758D02*
D03*
X61261Y39192D02*
D03*
X59261Y39192D02*
D03*
D70*
X95877Y21344D02*
D03*
Y20694D02*
D03*
Y21994D02*
D03*
Y20044D02*
D03*
Y19394D02*
D03*
D71*
X98552Y19544D02*
D03*
Y21844D02*
D03*
D72*
X77685Y30798D02*
D03*
Y30163D02*
D03*
Y29528D02*
D03*
Y28892D02*
D03*
Y28257D02*
D03*
Y27622D02*
D03*
Y26987D02*
D03*
Y26353D02*
D03*
Y25718D02*
D03*
Y25083D02*
D03*
X82335Y30798D02*
D03*
Y30163D02*
D03*
Y29528D02*
D03*
Y28892D02*
D03*
Y28257D02*
D03*
Y27622D02*
D03*
Y26987D02*
D03*
Y26353D02*
D03*
Y25718D02*
D03*
Y25083D02*
D03*
D73*
X66511Y85344D02*
D03*
X65061D02*
D03*
Y82296D02*
D03*
X66511D02*
D03*
D74*
X58862Y50038D02*
D03*
X56962D02*
D03*
X50543Y38991D02*
D03*
X48643D02*
D03*
D75*
X59398Y34896D02*
D03*
Y36796D02*
D03*
X63602Y39161D02*
D03*
Y41061D02*
D03*
D76*
X17416Y23051D02*
D03*
Y22101D02*
D03*
Y21151D02*
D03*
X14666D02*
D03*
Y22101D02*
D03*
Y23051D02*
D03*
D77*
X32607Y7686D02*
D03*
X34957Y8636D02*
D03*
X32607Y9586D02*
D03*
D78*
X19558Y55145D02*
D03*
X13848D02*
D03*
X19558Y57685D02*
D03*
X13848D02*
D03*
X19558Y60225D02*
D03*
X13848D02*
D03*
X19558Y62765D02*
D03*
X13848D02*
D03*
X19558Y65305D02*
D03*
X13848D02*
D03*
X19558Y67845D02*
D03*
X13848D02*
D03*
X19558Y70385D02*
D03*
X13848D02*
D03*
X19558Y72925D02*
D03*
Y75465D02*
D03*
Y78005D02*
D03*
Y80545D02*
D03*
X13848D02*
D03*
X19558Y83085D02*
D03*
X13848D02*
D03*
X19558Y85625D02*
D03*
X13848D02*
D03*
X19558Y88165D02*
D03*
X13848D02*
D03*
X19558Y90705D02*
D03*
X13848Y75465D02*
D03*
Y72925D02*
D03*
Y78005D02*
D03*
Y90705D02*
D03*
X89420Y55118D02*
D03*
X83710D02*
D03*
X89420Y57658D02*
D03*
X83710D02*
D03*
X89420Y60198D02*
D03*
X83710D02*
D03*
X89420Y62738D02*
D03*
X83710D02*
D03*
X89420Y65278D02*
D03*
X83710D02*
D03*
X89420Y67818D02*
D03*
X83710D02*
D03*
X89420Y70358D02*
D03*
X83710D02*
D03*
X89420Y72898D02*
D03*
Y75438D02*
D03*
Y77978D02*
D03*
Y80518D02*
D03*
X83710D02*
D03*
X89420Y83058D02*
D03*
X83710D02*
D03*
X89420Y85598D02*
D03*
X83710D02*
D03*
X89420Y88138D02*
D03*
X83710D02*
D03*
X89420Y90678D02*
D03*
X83710Y75438D02*
D03*
Y72898D02*
D03*
Y77978D02*
D03*
Y90678D02*
D03*
D79*
X92113Y57252D02*
D03*
X93713D02*
D03*
X9395Y64961D02*
D03*
X10995D02*
D03*
X9433Y67501D02*
D03*
X11033D02*
D03*
X9433Y70041D02*
D03*
X11033D02*
D03*
X9436Y78232D02*
D03*
X11036D02*
D03*
X9436Y75692D02*
D03*
X11036D02*
D03*
X9436Y72898D02*
D03*
X11036D02*
D03*
X21845Y18545D02*
D03*
X23445D02*
D03*
D80*
X90221Y49213D02*
D03*
Y50813D02*
D03*
X61478Y13658D02*
D03*
Y12058D02*
D03*
X12446Y3690D02*
D03*
Y5290D02*
D03*
X24831Y34321D02*
D03*
Y32721D02*
D03*
D81*
X57190Y40785D02*
D03*
X55440D02*
D03*
X21741Y42280D02*
D03*
X19991D02*
D03*
X21741Y40132D02*
D03*
X19991D02*
D03*
D82*
X24765Y40143D02*
D03*
Y38343D02*
D03*
X24638Y42280D02*
D03*
Y44080D02*
D03*
X6643Y16375D02*
D03*
Y18175D02*
D03*
X98044Y65256D02*
D03*
Y67056D02*
D03*
X97993Y83704D02*
D03*
Y81904D02*
D03*
X10961Y23001D02*
D03*
Y21201D02*
D03*
D83*
X84612Y39063D02*
D03*
X86912D02*
D03*
X89212D02*
D03*
D84*
X86912Y45413D02*
D03*
D85*
X88433Y19208D02*
D03*
X90383D02*
D03*
X88437Y21598D02*
D03*
X90387D02*
D03*
D86*
X69596Y59050D02*
D03*
Y53340D02*
D03*
X67056Y59050D02*
D03*
Y53340D02*
D03*
X64516Y59050D02*
D03*
Y53340D02*
D03*
X61976Y59050D02*
D03*
Y53340D02*
D03*
X59436Y59050D02*
D03*
Y53340D02*
D03*
X56896Y59050D02*
D03*
Y53340D02*
D03*
X54356Y59050D02*
D03*
Y53340D02*
D03*
X51816Y59050D02*
D03*
X49276D02*
D03*
X46736D02*
D03*
X44196D02*
D03*
Y53340D02*
D03*
X41656Y59050D02*
D03*
Y53340D02*
D03*
X39116Y59050D02*
D03*
Y53340D02*
D03*
X36576Y59050D02*
D03*
Y53340D02*
D03*
X34036Y59050D02*
D03*
X49276Y53340D02*
D03*
X51816D02*
D03*
X46736D02*
D03*
X34036D02*
D03*
D87*
X68474Y10318D02*
D03*
X66674Y9368D02*
D03*
Y11268D02*
D03*
X31827Y30981D02*
D03*
X30027Y30031D02*
D03*
Y31931D02*
D03*
D88*
X64018Y11554D02*
D03*
Y13654D02*
D03*
X27371Y32217D02*
D03*
Y34317D02*
D03*
D89*
X23319Y20831D02*
D03*
X21219D02*
D03*
D90*
X18791Y18037D02*
D03*
X9691D02*
D03*
X18791Y13537D02*
D03*
X9691D02*
D03*
D91*
X50904Y41061D02*
D03*
X48554D02*
D03*
X88741Y13716D02*
D03*
X91091D02*
D03*
D92*
X54356Y34225D02*
D03*
Y32475D02*
D03*
X51816Y34225D02*
D03*
Y32475D02*
D03*
D93*
X47244Y21798D02*
D03*
Y19998D02*
D03*
X37846Y12804D02*
D03*
Y11004D02*
D03*
D94*
X42026Y22098D02*
D03*
X43826D02*
D03*
X42026Y19558D02*
D03*
X43826D02*
D03*
D95*
X70812Y87122D02*
D03*
X72712D02*
D03*
X26924Y57658D02*
D03*
X25024D02*
D03*
Y60198D02*
D03*
X26924D02*
D03*
Y62738D02*
D03*
X25024D02*
D03*
Y65278D02*
D03*
X26924D02*
D03*
X25024Y67818D02*
D03*
X26924D02*
D03*
X25024Y70358D02*
D03*
X26924D02*
D03*
X26924Y72898D02*
D03*
X25024D02*
D03*
X26924Y75438D02*
D03*
X25024D02*
D03*
X26924Y77978D02*
D03*
X25024D02*
D03*
X26924Y80518D02*
D03*
X25024D02*
D03*
X26924Y83058D02*
D03*
X25024D02*
D03*
X26924Y85598D02*
D03*
X25024D02*
D03*
X78420Y57658D02*
D03*
X76520D02*
D03*
X78420Y60198D02*
D03*
X76520D02*
D03*
X78420Y62738D02*
D03*
X76520D02*
D03*
X78420Y65278D02*
D03*
X76520D02*
D03*
X78420Y67818D02*
D03*
X76520D02*
D03*
X78420Y70358D02*
D03*
X76520D02*
D03*
X78420Y72898D02*
D03*
X76520D02*
D03*
X78420Y75438D02*
D03*
X76520D02*
D03*
D96*
X34036Y66736D02*
D03*
Y64836D02*
D03*
X36576Y66736D02*
D03*
Y64836D02*
D03*
X39116Y66736D02*
D03*
Y64836D02*
D03*
X41656Y66736D02*
D03*
Y64836D02*
D03*
X44196Y66736D02*
D03*
Y64836D02*
D03*
X46736Y66736D02*
D03*
Y64836D02*
D03*
X64516Y64836D02*
D03*
Y66736D02*
D03*
X61976Y64836D02*
D03*
Y66736D02*
D03*
X59436Y64836D02*
D03*
Y66736D02*
D03*
X56896Y64836D02*
D03*
Y66736D02*
D03*
X54340Y64836D02*
D03*
Y66736D02*
D03*
X49276Y64836D02*
D03*
Y66736D02*
D03*
X51816Y64836D02*
D03*
Y66736D02*
D03*
D97*
X98552Y24081D02*
D03*
X98552Y17307D02*
D03*
D98*
X64402Y24460D02*
D03*
X3302Y15497D02*
D03*
X44450Y43601D02*
D03*
D99*
X64402Y27000D02*
D03*
Y29540D02*
D03*
X18796Y28448D02*
D03*
X16256D02*
D03*
X3302Y20577D02*
D03*
Y18037D02*
D03*
Y23117D02*
D03*
Y25657D02*
D03*
X44450Y38521D02*
D03*
Y41061D02*
D03*
X61595Y20574D02*
D03*
X59055D02*
D03*
D100*
X32512Y3759D02*
D03*
X54356Y28194D02*
D03*
X53340Y45085D02*
D03*
X55880D02*
D03*
X19177Y3683D02*
D03*
X94742Y62255D02*
D03*
Y53391D02*
D03*
X95631Y69088D02*
D03*
Y75692D02*
D03*
X40424Y3742D02*
D03*
D101*
X29972Y3759D02*
D03*
X51816Y28194D02*
D03*
X58420Y45085D02*
D03*
X16637Y3683D02*
D03*
X37884Y3742D02*
D03*
D102*
X4572Y61951D02*
D03*
Y64491D02*
D03*
Y67031D02*
D03*
Y69571D02*
D03*
X4724Y73152D02*
D03*
Y75692D02*
D03*
Y78232D02*
D03*
Y80772D02*
D03*
D103*
X28473Y93421D02*
D03*
X33553D02*
D03*
D104*
X95552Y18420D02*
D03*
Y22968D02*
D03*
D105*
X98552Y24869D02*
D03*
Y16519D02*
D03*
D106*
X13716Y28448D02*
D03*
D107*
X16703Y56415D02*
D03*
Y89435D02*
D03*
X68326Y56195D02*
D03*
X35306D02*
D03*
X86565Y56388D02*
D03*
Y89408D02*
D03*
D108*
X94742Y59715D02*
D03*
Y50851D02*
D03*
X95631Y71628D02*
D03*
Y78232D02*
D03*
D109*
X5555Y48514D02*
D03*
Y35814D02*
D03*
D110*
X8095Y38608D02*
D03*
D111*
X9873Y39624D02*
D03*
X8095Y40640D02*
D03*
X9873Y41656D02*
D03*
X8095Y42672D02*
D03*
X9873Y43688D02*
D03*
X8095Y44704D02*
D03*
X9873Y45720D02*
D03*
D112*
X56515Y20574D02*
D03*
D113*
X95000Y4858D02*
D03*
X5000Y5000D02*
D03*
X95000Y95000D02*
D03*
X5000D02*
D03*
D114*
X65939Y35306D02*
D03*
D115*
X54356Y38608D02*
D03*
Y37287D02*
D03*
X55474D02*
D03*
Y38608D02*
D03*
X10566Y95072D02*
D03*
D116*
X60808Y32893D02*
D03*
X56998Y35738D02*
D03*
X32258Y48895D02*
D03*
X45974Y50800D02*
D03*
X32258Y52832D02*
D03*
D117*
X57658Y34290D02*
D03*
X20320Y97282D02*
D03*
X55499Y35814D02*
D03*
X12446Y6731D02*
D03*
X9398Y93091D02*
D03*
X56896Y73152D02*
D03*
X5385Y52578D02*
D03*
X5461Y56744D02*
D03*
X55245Y50038D02*
D03*
X55626Y52324D02*
D03*
X55880Y42545D02*
D03*
X98654Y45060D02*
D03*
X50000Y37288D02*
D03*
X36068Y12827D02*
D03*
X75819Y28092D02*
D03*
X75717Y26619D02*
D03*
X84328Y28575D02*
D03*
X86741Y31242D02*
D03*
Y24003D02*
D03*
X96774Y17526D02*
D03*
Y23876D02*
D03*
X81788Y38354D02*
D03*
X9398Y97282D02*
D03*
X2286Y53340D02*
D03*
Y57912D02*
D03*
X20320Y92456D02*
D03*
X18796D02*
D03*
X20320Y53340D02*
D03*
X18542D02*
D03*
X82677Y92710D02*
D03*
X95174Y45110D02*
D03*
X92246Y44958D02*
D03*
X94194Y41210D02*
D03*
X92246Y42672D02*
D03*
X85199Y37084D02*
D03*
X85344Y41656D02*
D03*
X81578Y39911D02*
D03*
X77978Y41061D02*
D03*
Y38675D02*
D03*
X73914D02*
D03*
Y41061D02*
D03*
X52705Y40132D02*
D03*
X51079Y36322D02*
D03*
X48554Y36875D02*
D03*
X50000Y34721D02*
D03*
X45974Y47752D02*
D03*
X84412Y31242D02*
D03*
D118*
X11557Y93421D02*
D03*
X28448Y98171D02*
D03*
X66736Y33927D02*
D03*
X82982Y33960D02*
D03*
X33528Y97282D02*
D03*
X10541Y80645D02*
D03*
X11430Y83058D02*
D03*
X28067Y42291D02*
D03*
Y40132D02*
D03*
X21819Y89408D02*
D03*
X21336Y22225D02*
D03*
X2032Y51562D02*
D03*
Y27940D02*
D03*
X1270Y50800D02*
D03*
X1295Y23114D02*
D03*
X9873Y47351D02*
D03*
X34229Y27915D02*
D03*
X23241Y32715D02*
D03*
X11379Y57658D02*
D03*
X8128Y62765D02*
D03*
X9906Y60225D02*
D03*
X8095Y46270D02*
D03*
X11320Y39624D02*
D03*
X92126Y55677D02*
D03*
X90449Y48057D02*
D03*
X40386Y55678D02*
D03*
X70891Y7366D02*
D03*
X59753Y12058D02*
D03*
X82982Y53340D02*
D03*
X66700Y13106D02*
D03*
X37846Y55678D02*
D03*
X93980Y22503D02*
D03*
X85199Y21599D02*
D03*
X84090Y25908D02*
D03*
X85199Y25083D02*
D03*
X84074Y19144D02*
D03*
D119*
X68656Y39751D02*
D03*
X73914Y48768D02*
D03*
X72033Y55753D02*
D03*
X68961Y87376D02*
D03*
X68326Y85344D02*
D03*
X45085Y86868D02*
D03*
X63602Y43002D02*
D03*
X58674Y87122D02*
D03*
X62484Y90379D02*
D03*
X65278Y90252D02*
D03*
X54991Y86850D02*
D03*
X84412Y47901D02*
D03*
X71362Y29464D02*
D03*
X18791Y15405D02*
D03*
X9691D02*
D03*
X12954Y22313D02*
D03*
X87376Y16002D02*
D03*
X68326Y82296D02*
D03*
X29602Y9586D02*
D03*
X38746Y20828D02*
D03*
Y24155D02*
D03*
X40945D02*
D03*
X52540Y15566D02*
D03*
X60706Y50038D02*
D03*
Y45212D02*
D03*
X64780Y9368D02*
D03*
X18791Y24133D02*
D03*
Y19815D02*
D03*
X28133Y29999D02*
D03*
M02*
