G04*
G04 #@! TF.GenerationSoftware,Altium Limited,Altium Designer,23.7.1 (13)*
G04*
G04 Layer_Color=16711935*
%FSLAX43Y43*%
%MOMM*%
G71*
G04*
G04 #@! TF.SameCoordinates,7FBB53E4-5163-4D6D-B0BA-52333DB4A2EE*
G04*
G04*
G04 #@! TF.FilePolarity,Negative*
G04*
G01*
G75*
G04:AMPARAMS|DCode=98|XSize=1.803mm|YSize=1.803mm|CornerRadius=0.502mm|HoleSize=0mm|Usage=FLASHONLY|Rotation=90.000|XOffset=0mm|YOffset=0mm|HoleType=Round|Shape=RoundedRectangle|*
%AMROUNDEDRECTD98*
21,1,1.803,0.800,0,0,90.0*
21,1,0.800,1.803,0,0,90.0*
1,1,1.003,0.400,0.400*
1,1,1.003,0.400,-0.400*
1,1,1.003,-0.400,-0.400*
1,1,1.003,-0.400,0.400*
%
%ADD98ROUNDEDRECTD98*%
%ADD99C,1.803*%
%ADD100C,1.753*%
%ADD101R,1.753X1.753*%
%ADD102C,1.575*%
%ADD103C,2.703*%
%ADD104O,1.279X1.079*%
%ADD105O,2.103X1.403*%
%ADD106R,1.803X1.803*%
%ADD107C,2.203*%
%ADD108R,1.753X1.753*%
%ADD109C,3.250*%
%ADD110R,1.390X1.390*%
%ADD111C,1.390*%
G04:AMPARAMS|DCode=112|XSize=1.803mm|YSize=1.803mm|CornerRadius=0.502mm|HoleSize=0mm|Usage=FLASHONLY|Rotation=0.000|XOffset=0mm|YOffset=0mm|HoleType=Round|Shape=RoundedRectangle|*
%AMROUNDEDRECTD112*
21,1,1.803,0.800,0,0,0.0*
21,1,0.800,1.803,0,0,0.0*
1,1,1.003,0.400,-0.400*
1,1,1.003,-0.400,-0.400*
1,1,1.003,-0.400,0.400*
1,1,1.003,0.400,0.400*
%
%ADD112ROUNDEDRECTD112*%
%ADD114C,0.838*%
%ADD115C,0.813*%
%ADD116C,1.092*%
%ADD117C,1.103*%
%ADD118C,0.803*%
%ADD119C,1.473*%
%ADD148C,4.521*%
D98*
X64402Y24460D02*
D03*
X3302Y15497D02*
D03*
X44450Y43601D02*
D03*
D99*
X64402Y27000D02*
D03*
Y29540D02*
D03*
X18796Y28448D02*
D03*
X16256D02*
D03*
X3302Y20577D02*
D03*
Y18037D02*
D03*
Y23117D02*
D03*
Y25657D02*
D03*
X44450Y38521D02*
D03*
Y41061D02*
D03*
X61595Y20574D02*
D03*
X59055D02*
D03*
D100*
X32512Y3759D02*
D03*
X54356Y28194D02*
D03*
X53340Y45085D02*
D03*
X55880D02*
D03*
X19177Y3683D02*
D03*
X94742Y62255D02*
D03*
Y53391D02*
D03*
X95631Y69088D02*
D03*
Y75692D02*
D03*
X40424Y3742D02*
D03*
D101*
X29972Y3759D02*
D03*
X51816Y28194D02*
D03*
X58420Y45085D02*
D03*
X16637Y3683D02*
D03*
X37884Y3742D02*
D03*
D102*
X4572Y61951D02*
D03*
Y64491D02*
D03*
Y67031D02*
D03*
Y69571D02*
D03*
X4724Y73152D02*
D03*
Y75692D02*
D03*
Y78232D02*
D03*
Y80772D02*
D03*
D103*
X28473Y93421D02*
D03*
X33553D02*
D03*
D104*
X95552Y18420D02*
D03*
Y22968D02*
D03*
D105*
X98552Y24869D02*
D03*
Y16519D02*
D03*
D106*
X13716Y28448D02*
D03*
D107*
X16703Y56415D02*
D03*
Y89435D02*
D03*
X68326Y56195D02*
D03*
X35306D02*
D03*
X86565Y56388D02*
D03*
Y89408D02*
D03*
D108*
X94742Y59715D02*
D03*
Y50851D02*
D03*
X95631Y71628D02*
D03*
Y78232D02*
D03*
D109*
X5555Y48514D02*
D03*
Y35814D02*
D03*
D110*
X8095Y38608D02*
D03*
D111*
X9873Y39624D02*
D03*
X8095Y40640D02*
D03*
X9873Y41656D02*
D03*
X8095Y42672D02*
D03*
X9873Y43688D02*
D03*
X8095Y44704D02*
D03*
X9873Y45720D02*
D03*
D112*
X56515Y20574D02*
D03*
D114*
X65939Y35306D02*
D03*
D115*
X54356Y38608D02*
D03*
Y37287D02*
D03*
X55474D02*
D03*
Y38608D02*
D03*
X10566Y95072D02*
D03*
D116*
X60808Y32893D02*
D03*
X56998Y35738D02*
D03*
X32258Y48895D02*
D03*
X45974Y50800D02*
D03*
X32258Y52832D02*
D03*
D117*
X57658Y34290D02*
D03*
X20320Y97282D02*
D03*
X55499Y35814D02*
D03*
X12446Y6731D02*
D03*
X9398Y93091D02*
D03*
X56896Y73152D02*
D03*
X5385Y52578D02*
D03*
X5461Y56744D02*
D03*
X55245Y50038D02*
D03*
X55626Y52324D02*
D03*
X55880Y42545D02*
D03*
X98654Y45060D02*
D03*
X50000Y37288D02*
D03*
X36068Y12827D02*
D03*
X75819Y28092D02*
D03*
X75717Y26619D02*
D03*
X84328Y28575D02*
D03*
X86741Y31242D02*
D03*
Y24003D02*
D03*
X96774Y17526D02*
D03*
Y23876D02*
D03*
X81788Y38354D02*
D03*
X9398Y97282D02*
D03*
X2286Y53340D02*
D03*
Y57912D02*
D03*
X20320Y92456D02*
D03*
X18796D02*
D03*
X20320Y53340D02*
D03*
X18542D02*
D03*
X82677Y92710D02*
D03*
X95174Y45110D02*
D03*
X92246Y44958D02*
D03*
X94194Y41210D02*
D03*
X92246Y42672D02*
D03*
X85199Y37084D02*
D03*
X85344Y41656D02*
D03*
X81578Y39911D02*
D03*
X77978Y41061D02*
D03*
Y38675D02*
D03*
X73914D02*
D03*
Y41061D02*
D03*
X52705Y40132D02*
D03*
X51079Y36322D02*
D03*
X48554Y36875D02*
D03*
X50000Y34721D02*
D03*
X45974Y47752D02*
D03*
X84412Y31242D02*
D03*
D118*
X11557Y93421D02*
D03*
X28448Y98171D02*
D03*
X66736Y33927D02*
D03*
X82982Y33960D02*
D03*
X33528Y97282D02*
D03*
X10541Y80645D02*
D03*
X11430Y83058D02*
D03*
X28067Y42291D02*
D03*
Y40132D02*
D03*
X21819Y89408D02*
D03*
X21336Y22225D02*
D03*
X2032Y51562D02*
D03*
Y27940D02*
D03*
X1270Y50800D02*
D03*
X1295Y23114D02*
D03*
X9873Y47351D02*
D03*
X34229Y27915D02*
D03*
X23241Y32715D02*
D03*
X11379Y57658D02*
D03*
X8128Y62765D02*
D03*
X9906Y60225D02*
D03*
X8095Y46270D02*
D03*
X11320Y39624D02*
D03*
X92126Y55677D02*
D03*
X90449Y48057D02*
D03*
X40386Y55678D02*
D03*
X70891Y7366D02*
D03*
X59753Y12058D02*
D03*
X82982Y53340D02*
D03*
X66700Y13106D02*
D03*
X37846Y55678D02*
D03*
X93980Y22503D02*
D03*
X85199Y21599D02*
D03*
X84090Y25908D02*
D03*
X85199Y25083D02*
D03*
X84074Y19144D02*
D03*
D119*
X68656Y39751D02*
D03*
X73914Y48768D02*
D03*
X72033Y55753D02*
D03*
X68961Y87376D02*
D03*
X68326Y85344D02*
D03*
X45085Y86868D02*
D03*
X63602Y43002D02*
D03*
X58674Y87122D02*
D03*
X62484Y90379D02*
D03*
X65278Y90252D02*
D03*
X54991Y86850D02*
D03*
X84412Y47901D02*
D03*
X71362Y29464D02*
D03*
X18791Y15405D02*
D03*
X9691D02*
D03*
X12954Y22313D02*
D03*
X87376Y16002D02*
D03*
X68326Y82296D02*
D03*
X29602Y9586D02*
D03*
X38746Y20828D02*
D03*
Y24155D02*
D03*
X40945D02*
D03*
X52540Y15566D02*
D03*
X60706Y50038D02*
D03*
Y45212D02*
D03*
X64780Y9368D02*
D03*
X18791Y24133D02*
D03*
Y19815D02*
D03*
X28133Y29999D02*
D03*
D148*
X95000Y4858D02*
D03*
X5000Y5000D02*
D03*
X95000Y95000D02*
D03*
X5000D02*
D03*
M02*
