G04*
G04 #@! TF.GenerationSoftware,Altium Limited,Altium Designer,23.7.1 (13)*
G04*
G04 Layer_Physical_Order=2*
G04 Layer_Color=16711680*
%FSLAX43Y43*%
%MOMM*%
G71*
G04*
G04 #@! TF.SameCoordinates,7FBB53E4-5163-4D6D-B0BA-52333DB4A2EE*
G04*
G04*
G04 #@! TF.FilePolarity,Positive*
G04*
G01*
G75*
%ADD102C,1.575*%
%ADD109C,3.250*%
%ADD110R,1.390X1.390*%
%ADD111C,1.390*%
%ADD120C,0.305*%
%ADD121C,0.600*%
%ADD122C,1.016*%
%ADD123C,0.229*%
%ADD124C,0.381*%
%ADD125C,0.300*%
%ADD126C,0.762*%
%ADD127C,0.457*%
G04:AMPARAMS|DCode=129|XSize=1.6mm|YSize=1.6mm|CornerRadius=0.4mm|HoleSize=0mm|Usage=FLASHONLY|Rotation=90.000|XOffset=0mm|YOffset=0mm|HoleType=Round|Shape=RoundedRectangle|*
%AMROUNDEDRECTD129*
21,1,1.600,0.800,0,0,90.0*
21,1,0.800,1.600,0,0,90.0*
1,1,0.800,0.400,0.400*
1,1,0.800,0.400,-0.400*
1,1,0.800,-0.400,-0.400*
1,1,0.800,-0.400,0.400*
%
%ADD129ROUNDEDRECTD129*%
%ADD130C,1.600*%
%ADD131C,1.550*%
%ADD132R,1.550X1.550*%
%ADD133C,2.500*%
%ADD134O,1.250X1.050*%
%ADD135O,1.900X1.200*%
%ADD136R,1.600X1.600*%
%ADD137C,2.000*%
%ADD138R,1.550X1.550*%
G04:AMPARAMS|DCode=139|XSize=1.6mm|YSize=1.6mm|CornerRadius=0.4mm|HoleSize=0mm|Usage=FLASHONLY|Rotation=0.000|XOffset=0mm|YOffset=0mm|HoleType=Round|Shape=RoundedRectangle|*
%AMROUNDEDRECTD139*
21,1,1.600,0.800,0,0,0.0*
21,1,0.800,1.600,0,0,0.0*
1,1,0.800,0.400,-0.400*
1,1,0.800,-0.400,-0.400*
1,1,0.800,-0.400,0.400*
1,1,0.800,0.400,0.400*
%
%ADD139ROUNDEDRECTD139*%
%ADD141C,0.635*%
%ADD142C,0.610*%
%ADD143C,0.889*%
%ADD144C,0.900*%
%ADD145C,0.600*%
%ADD146C,1.270*%
%ADD147C,4.318*%
G36*
X5000Y99715D02*
X95000D01*
X95011Y99717D01*
X95616Y99678D01*
X96221Y99557D01*
X96805Y99359D01*
X97359Y99086D01*
X97872Y98743D01*
X98336Y98336D01*
X98743Y97872D01*
X99086Y97359D01*
X99359Y96805D01*
X99557Y96221D01*
X99678Y95616D01*
X99717Y95011D01*
X99715Y95000D01*
X99715Y25496D01*
X99588Y25453D01*
X99544Y25511D01*
X99356Y25655D01*
X99137Y25746D01*
X98902Y25777D01*
X98752D01*
Y24869D01*
Y23961D01*
X98902D01*
X99137Y23992D01*
X99356Y24083D01*
X99544Y24227D01*
X99588Y24285D01*
X99715Y24242D01*
Y17146D01*
X99588Y17103D01*
X99544Y17161D01*
X99356Y17305D01*
X99137Y17396D01*
X98902Y17427D01*
X98752D01*
Y16519D01*
Y15611D01*
X98902D01*
X99137Y15642D01*
X99356Y15733D01*
X99544Y15877D01*
X99588Y15935D01*
X99715Y15892D01*
Y5000D01*
X99717Y4989D01*
X99678Y4384D01*
X99557Y3779D01*
X99359Y3194D01*
X99086Y2641D01*
X98743Y2128D01*
X98336Y1664D01*
X97872Y1257D01*
X97359Y914D01*
X96805Y641D01*
X96221Y443D01*
X95616Y322D01*
X95011Y283D01*
X95000Y285D01*
X5000D01*
X4989Y283D01*
X4384Y322D01*
X3779Y443D01*
X3194Y641D01*
X2641Y914D01*
X2128Y1257D01*
X1664Y1664D01*
X1257Y2128D01*
X914Y2641D01*
X641Y3194D01*
X443Y3779D01*
X322Y4384D01*
X290Y4874D01*
X285Y5000D01*
X285Y5000D01*
X285Y5125D01*
Y95000D01*
X283Y95011D01*
X322Y95616D01*
X443Y96221D01*
X641Y96805D01*
X914Y97359D01*
X1257Y97872D01*
X1664Y98336D01*
X2128Y98743D01*
X2641Y99086D01*
X3194Y99359D01*
X3779Y99557D01*
X4384Y99678D01*
X4989Y99717D01*
X5000Y99715D01*
D02*
G37*
%LPC*%
G36*
X95228Y97311D02*
X94772D01*
X94326Y97223D01*
X93905Y97048D01*
X93527Y96795D01*
X93205Y96473D01*
X92952Y96095D01*
X92777Y95674D01*
X92689Y95228D01*
Y94772D01*
X92777Y94326D01*
X92952Y93905D01*
X93205Y93527D01*
X93527Y93205D01*
X93905Y92952D01*
X94326Y92777D01*
X94772Y92689D01*
X95228D01*
X95674Y92777D01*
X96095Y92952D01*
X96473Y93205D01*
X96795Y93527D01*
X97048Y93905D01*
X97223Y94326D01*
X97311Y94772D01*
Y95228D01*
X97223Y95674D01*
X97048Y96095D01*
X96795Y96473D01*
X96473Y96795D01*
X96095Y97048D01*
X95674Y97223D01*
X95228Y97311D01*
D02*
G37*
G36*
X5228D02*
X4772D01*
X4326Y97223D01*
X3905Y97048D01*
X3527Y96795D01*
X3205Y96473D01*
X2952Y96095D01*
X2777Y95674D01*
X2689Y95228D01*
Y94772D01*
X2777Y94326D01*
X2952Y93905D01*
X3205Y93527D01*
X3527Y93205D01*
X3905Y92952D01*
X4326Y92777D01*
X4772Y92689D01*
X5228D01*
X5674Y92777D01*
X6095Y92952D01*
X6473Y93205D01*
X6795Y93527D01*
X7048Y93905D01*
X7223Y94326D01*
X7311Y94772D01*
Y95228D01*
X7223Y95674D01*
X7048Y96095D01*
X6795Y96473D01*
X6473Y96795D01*
X6095Y97048D01*
X5674Y97223D01*
X5228Y97311D01*
D02*
G37*
G36*
X33528Y97743D02*
X33483Y97734D01*
X33438D01*
X33396Y97717D01*
X33351Y97708D01*
X33314Y97683D01*
X33272Y97666D01*
X33240Y97633D01*
X33202Y97608D01*
X33177Y97570D01*
X33144Y97538D01*
X33127Y97496D01*
X33102Y97459D01*
X33093Y97414D01*
X33076Y97372D01*
Y97327D01*
X33067Y97282D01*
Y94743D01*
X33012Y94728D01*
X32692Y94543D01*
X32431Y94282D01*
X32247Y93963D01*
X32151Y93606D01*
Y93237D01*
X32247Y92880D01*
X32431Y92560D01*
X32692Y92299D01*
X33012Y92114D01*
X33369Y92019D01*
X33738D01*
X34095Y92114D01*
X34414Y92299D01*
X34676Y92560D01*
X34860Y92880D01*
X34956Y93237D01*
Y93606D01*
X34860Y93963D01*
X34676Y94282D01*
X34414Y94543D01*
X34095Y94728D01*
X33989Y94756D01*
Y97282D01*
X33980Y97327D01*
Y97372D01*
X33963Y97414D01*
X33954Y97459D01*
X33929Y97496D01*
X33912Y97538D01*
X33879Y97570D01*
X33854Y97608D01*
X33816Y97633D01*
X33784Y97666D01*
X33742Y97683D01*
X33705Y97708D01*
X33660Y97717D01*
X33618Y97734D01*
X33573D01*
X33528Y97743D01*
D02*
G37*
G36*
X28448Y98632D02*
X28403Y98623D01*
X28358D01*
X28316Y98606D01*
X28271Y98597D01*
X28234Y98572D01*
X28192Y98555D01*
X28160Y98522D01*
X28122Y98497D01*
X28097Y98459D01*
X28064Y98427D01*
X28047Y98385D01*
X28022Y98348D01*
X28013Y98303D01*
X27996Y98261D01*
Y98216D01*
X27987Y98171D01*
Y94743D01*
X27932Y94728D01*
X27612Y94543D01*
X27351Y94282D01*
X27167Y93963D01*
X27071Y93606D01*
Y93237D01*
X27167Y92880D01*
X27351Y92560D01*
X27612Y92299D01*
X27932Y92114D01*
X28289Y92019D01*
X28658D01*
X29015Y92114D01*
X29334Y92299D01*
X29596Y92560D01*
X29780Y92880D01*
X29876Y93237D01*
Y93606D01*
X29780Y93963D01*
X29596Y94282D01*
X29334Y94543D01*
X29015Y94728D01*
X28909Y94756D01*
Y98171D01*
X28900Y98216D01*
Y98261D01*
X28883Y98303D01*
X28874Y98348D01*
X28849Y98385D01*
X28832Y98427D01*
X28799Y98459D01*
X28774Y98497D01*
X28736Y98522D01*
X28704Y98555D01*
X28662Y98572D01*
X28625Y98597D01*
X28580Y98606D01*
X28538Y98623D01*
X28493D01*
X28448Y98632D01*
D02*
G37*
G36*
X60985Y96799D02*
X38989D01*
Y88494D01*
X61011D01*
X60985Y96799D01*
D02*
G37*
G36*
X16855Y90587D02*
X16551D01*
X16258Y90509D01*
X15995Y90357D01*
X15781Y90143D01*
X15629Y89880D01*
X15551Y89587D01*
Y89283D01*
X15629Y88990D01*
X15781Y88727D01*
X15995Y88513D01*
X16258Y88361D01*
X16551Y88283D01*
X16855D01*
X17148Y88361D01*
X17411Y88513D01*
X17625Y88727D01*
X17777Y88990D01*
X17855Y89283D01*
Y89587D01*
X17777Y89880D01*
X17625Y90143D01*
X17411Y90357D01*
X17148Y90509D01*
X16855Y90587D01*
D02*
G37*
G36*
X86717Y90560D02*
X86413D01*
X86120Y90482D01*
X85858Y90330D01*
X85643Y90116D01*
X85491Y89853D01*
X85413Y89560D01*
Y89256D01*
X85491Y88963D01*
X85643Y88700D01*
X85858Y88486D01*
X86120Y88334D01*
X86413Y88256D01*
X86717D01*
X87010Y88334D01*
X87273Y88486D01*
X87487Y88700D01*
X87639Y88963D01*
X87718Y89256D01*
Y89560D01*
X87639Y89853D01*
X87487Y90116D01*
X87273Y90330D01*
X87010Y90482D01*
X86717Y90560D01*
D02*
G37*
G36*
X69065Y88163D02*
X68857D01*
X68657Y88110D01*
X68478Y88006D01*
X68331Y87859D01*
X68230Y87684D01*
X66802D01*
X66684Y87661D01*
X66584Y87594D01*
X66584Y87594D01*
X66420Y87430D01*
X59405D01*
X59304Y87605D01*
X59157Y87752D01*
X58978Y87856D01*
X58778Y87909D01*
X58570D01*
X58370Y87856D01*
X58191Y87752D01*
X58044Y87605D01*
X57940Y87426D01*
X57887Y87226D01*
Y87018D01*
X57940Y86818D01*
X58044Y86639D01*
X58191Y86492D01*
X58370Y86388D01*
X58570Y86335D01*
X58778D01*
X58978Y86388D01*
X59157Y86492D01*
X59304Y86639D01*
X59405Y86814D01*
X66548D01*
X66548Y86814D01*
X66666Y86837D01*
X66766Y86904D01*
X66930Y87068D01*
X68230D01*
X68331Y86893D01*
X68478Y86746D01*
X68657Y86642D01*
X68857Y86589D01*
X69065D01*
X69265Y86642D01*
X69444Y86746D01*
X69591Y86893D01*
X69695Y87072D01*
X69748Y87272D01*
Y87480D01*
X69695Y87680D01*
X69591Y87859D01*
X69444Y88006D01*
X69265Y88110D01*
X69065Y88163D01*
D02*
G37*
G36*
X10541Y95584D02*
X10364Y95549D01*
X10215Y95449D01*
X10115Y95300D01*
X10080Y95123D01*
Y80645D01*
X10089Y80600D01*
Y80555D01*
X10106Y80513D01*
X10115Y80468D01*
X10140Y80431D01*
X10157Y80389D01*
X10190Y80357D01*
X10215Y80319D01*
X10253Y80294D01*
X10285Y80261D01*
X10327Y80244D01*
X10364Y80219D01*
X10409Y80210D01*
X10451Y80193D01*
X10496D01*
X10541Y80184D01*
X10586Y80193D01*
X10631D01*
X10673Y80210D01*
X10718Y80219D01*
X10755Y80244D01*
X10797Y80261D01*
X10829Y80294D01*
X10867Y80319D01*
X10892Y80357D01*
X10925Y80389D01*
X10942Y80431D01*
X10967Y80468D01*
X10976Y80513D01*
X10993Y80555D01*
Y80600D01*
X11002Y80645D01*
Y82659D01*
X11038Y82685D01*
X11129Y82715D01*
X11142Y82707D01*
X11174Y82674D01*
X11216Y82657D01*
X11253Y82632D01*
X11298Y82623D01*
X11340Y82606D01*
X11385D01*
X11430Y82597D01*
X11475Y82606D01*
X11520D01*
X11562Y82623D01*
X11607Y82632D01*
X11644Y82657D01*
X11686Y82674D01*
X11718Y82707D01*
X11756Y82732D01*
X11883Y82859D01*
X11983Y83008D01*
X12018Y83185D01*
Y93421D01*
X12009Y93466D01*
Y93511D01*
X11992Y93553D01*
X11983Y93598D01*
X11958Y93635D01*
X11941Y93677D01*
X11908Y93710D01*
X11883Y93747D01*
X11845Y93773D01*
X11813Y93805D01*
X11771Y93822D01*
X11734Y93847D01*
X11689Y93856D01*
X11647Y93874D01*
X11602D01*
X11557Y93882D01*
X11512Y93874D01*
X11467D01*
X11425Y93856D01*
X11380Y93847D01*
X11343Y93822D01*
X11301Y93805D01*
X11269Y93773D01*
X11231Y93747D01*
X11206Y93710D01*
X11173Y93677D01*
X11156Y93635D01*
X11131Y93598D01*
X11129Y93590D01*
X11002Y93602D01*
Y94930D01*
X11024Y94981D01*
Y95163D01*
X10967Y95299D01*
X10967Y95300D01*
X10967Y95300D01*
X10954Y95331D01*
X10930Y95355D01*
X10867Y95449D01*
X10718Y95549D01*
X10541Y95584D01*
D02*
G37*
G36*
X4924Y81844D02*
Y80972D01*
X5797D01*
X5738Y81192D01*
X5595Y81440D01*
X5392Y81642D01*
X5144Y81785D01*
X4924Y81844D01*
D02*
G37*
G36*
X4524D02*
X4305Y81785D01*
X4057Y81642D01*
X3854Y81440D01*
X3711Y81192D01*
X3652Y80972D01*
X4524D01*
Y81844D01*
D02*
G37*
G36*
X5797Y80572D02*
X4924D01*
Y79700D01*
X5144Y79759D01*
X5392Y79902D01*
X5595Y80104D01*
X5738Y80352D01*
X5797Y80572D01*
D02*
G37*
G36*
X4524D02*
X3652D01*
X3711Y80352D01*
X3854Y80104D01*
X4057Y79902D01*
X4305Y79759D01*
X4524Y79700D01*
Y80572D01*
D02*
G37*
G36*
X96706Y79307D02*
X95831D01*
Y78432D01*
X96706D01*
Y79307D01*
D02*
G37*
G36*
X95431D02*
X94556D01*
Y78432D01*
X95431D01*
Y79307D01*
D02*
G37*
G36*
X4848Y79172D02*
X4601D01*
X4362Y79108D01*
X4147Y78984D01*
X3972Y78809D01*
X3849Y78595D01*
X3785Y78356D01*
Y78108D01*
X3849Y77869D01*
X3972Y77655D01*
X4147Y77480D01*
X4362Y77356D01*
X4601Y77292D01*
X4848D01*
X5087Y77356D01*
X5301Y77480D01*
X5476Y77655D01*
X5600Y77869D01*
X5664Y78108D01*
Y78356D01*
X5600Y78595D01*
X5476Y78809D01*
X5301Y78984D01*
X5087Y79108D01*
X4848Y79172D01*
D02*
G37*
G36*
X96706Y78032D02*
X95831D01*
Y77157D01*
X96706D01*
Y78032D01*
D02*
G37*
G36*
X95431D02*
X94556D01*
Y77157D01*
X95431D01*
Y78032D01*
D02*
G37*
G36*
X95753Y76619D02*
X95509D01*
X95273Y76556D01*
X95062Y76434D01*
X94889Y76261D01*
X94767Y76050D01*
X94704Y75814D01*
Y75570D01*
X94767Y75334D01*
X94889Y75123D01*
X95062Y74950D01*
X95273Y74828D01*
X95509Y74765D01*
X95753D01*
X95989Y74828D01*
X96200Y74950D01*
X96373Y75123D01*
X96495Y75334D01*
X96558Y75570D01*
Y75814D01*
X96495Y76050D01*
X96373Y76261D01*
X96200Y76434D01*
X95989Y76556D01*
X95753Y76619D01*
D02*
G37*
G36*
X4848Y76632D02*
X4601D01*
X4362Y76568D01*
X4147Y76444D01*
X3972Y76269D01*
X3849Y76055D01*
X3785Y75816D01*
Y75568D01*
X3849Y75329D01*
X3972Y75115D01*
X4147Y74940D01*
X4362Y74816D01*
X4601Y74752D01*
X4848D01*
X5087Y74816D01*
X5301Y74940D01*
X5476Y75115D01*
X5600Y75329D01*
X5664Y75568D01*
Y75816D01*
X5600Y76055D01*
X5476Y76269D01*
X5301Y76444D01*
X5087Y76568D01*
X4848Y76632D01*
D02*
G37*
G36*
Y74092D02*
X4601D01*
X4362Y74028D01*
X4147Y73904D01*
X3972Y73729D01*
X3849Y73515D01*
X3785Y73276D01*
Y73028D01*
X3849Y72789D01*
X3972Y72575D01*
X4147Y72400D01*
X4362Y72276D01*
X4601Y72212D01*
X4848D01*
X5087Y72276D01*
X5301Y72400D01*
X5476Y72575D01*
X5600Y72789D01*
X5664Y73028D01*
Y73276D01*
X5600Y73515D01*
X5476Y73729D01*
X5301Y73904D01*
X5087Y74028D01*
X4848Y74092D01*
D02*
G37*
G36*
X96706Y72703D02*
X95831D01*
Y71828D01*
X96706D01*
Y72703D01*
D02*
G37*
G36*
X95431D02*
X94556D01*
Y71828D01*
X95431D01*
Y72703D01*
D02*
G37*
G36*
X96706Y71428D02*
X95831D01*
Y70553D01*
X96706D01*
Y71428D01*
D02*
G37*
G36*
X95431D02*
X94556D01*
Y70553D01*
X95431D01*
Y71428D01*
D02*
G37*
G36*
X4696Y70510D02*
X4448D01*
X4209Y70446D01*
X3995Y70323D01*
X3820Y70148D01*
X3696Y69933D01*
X3632Y69694D01*
Y69447D01*
X3696Y69208D01*
X3820Y68994D01*
X3995Y68819D01*
X4209Y68695D01*
X4448Y68631D01*
X4696D01*
X4935Y68695D01*
X5149Y68819D01*
X5324Y68994D01*
X5448Y69208D01*
X5512Y69447D01*
Y69694D01*
X5448Y69933D01*
X5324Y70148D01*
X5149Y70323D01*
X4935Y70446D01*
X4696Y70510D01*
D02*
G37*
G36*
X95753Y70015D02*
X95509D01*
X95273Y69952D01*
X95062Y69830D01*
X94889Y69657D01*
X94767Y69446D01*
X94704Y69210D01*
Y68966D01*
X94767Y68730D01*
X94889Y68519D01*
X95062Y68346D01*
X95273Y68224D01*
X95509Y68161D01*
X95753D01*
X95989Y68224D01*
X96200Y68346D01*
X96373Y68519D01*
X96495Y68730D01*
X96558Y68966D01*
Y69210D01*
X96495Y69446D01*
X96373Y69657D01*
X96200Y69830D01*
X95989Y69952D01*
X95753Y70015D01*
D02*
G37*
G36*
X4696Y67970D02*
X4448D01*
X4209Y67906D01*
X3995Y67783D01*
X3820Y67608D01*
X3696Y67393D01*
X3632Y67154D01*
Y66907D01*
X3696Y66668D01*
X3820Y66454D01*
X3995Y66279D01*
X4209Y66155D01*
X4448Y66091D01*
X4696D01*
X4935Y66155D01*
X5149Y66279D01*
X5324Y66454D01*
X5448Y66668D01*
X5512Y66907D01*
Y67154D01*
X5448Y67393D01*
X5324Y67608D01*
X5149Y67783D01*
X4935Y67906D01*
X4696Y67970D01*
D02*
G37*
G36*
Y65430D02*
X4448D01*
X4209Y65366D01*
X3995Y65243D01*
X3820Y65068D01*
X3696Y64853D01*
X3632Y64614D01*
Y64367D01*
X3696Y64128D01*
X3820Y63914D01*
X3995Y63739D01*
X4209Y63615D01*
X4448Y63551D01*
X4696D01*
X4935Y63615D01*
X5149Y63739D01*
X5324Y63914D01*
X5448Y64128D01*
X5512Y64367D01*
Y64614D01*
X5448Y64853D01*
X5324Y65068D01*
X5149Y65243D01*
X4935Y65366D01*
X4696Y65430D01*
D02*
G37*
G36*
X4772Y63023D02*
Y62151D01*
X5644D01*
X5585Y62370D01*
X5442Y62618D01*
X5240Y62821D01*
X4992Y62964D01*
X4772Y63023D01*
D02*
G37*
G36*
X4372Y63023D02*
X4152Y62964D01*
X3904Y62821D01*
X3702Y62618D01*
X3559Y62370D01*
X3500Y62151D01*
X4372D01*
Y63023D01*
D02*
G37*
G36*
X94864Y63183D02*
X94620D01*
X94384Y63120D01*
X94173Y62998D01*
X94000Y62825D01*
X93878Y62613D01*
X93815Y62377D01*
Y62133D01*
X93878Y61897D01*
X94000Y61686D01*
X94173Y61513D01*
X94384Y61391D01*
X94620Y61328D01*
X94864D01*
X95100Y61391D01*
X95311Y61513D01*
X95484Y61686D01*
X95606Y61897D01*
X95669Y62133D01*
Y62377D01*
X95606Y62613D01*
X95484Y62825D01*
X95311Y62998D01*
X95100Y63120D01*
X94864Y63183D01*
D02*
G37*
G36*
X4372Y61751D02*
X3500D01*
X3559Y61531D01*
X3702Y61283D01*
X3904Y61080D01*
X4152Y60937D01*
X4372Y60878D01*
Y61751D01*
D02*
G37*
G36*
X5644D02*
X4772D01*
Y60878D01*
X4992Y60937D01*
X5240Y61080D01*
X5442Y61283D01*
X5585Y61531D01*
X5644Y61751D01*
D02*
G37*
G36*
X95669Y60643D02*
X93815D01*
Y58788D01*
X95669D01*
Y60643D01*
D02*
G37*
G36*
X16855Y57567D02*
X16551D01*
X16258Y57489D01*
X15995Y57337D01*
X15781Y57123D01*
X15629Y56860D01*
X15551Y56567D01*
Y56263D01*
X15629Y55970D01*
X15781Y55707D01*
X15995Y55493D01*
X16258Y55341D01*
X16551Y55263D01*
X16855D01*
X17148Y55341D01*
X17411Y55493D01*
X17625Y55707D01*
X17777Y55970D01*
X17855Y56263D01*
Y56567D01*
X17777Y56860D01*
X17625Y57123D01*
X17411Y57337D01*
X17148Y57489D01*
X16855Y57567D01*
D02*
G37*
G36*
X86717Y57540D02*
X86413D01*
X86120Y57462D01*
X85858Y57310D01*
X85643Y57096D01*
X85491Y56833D01*
X85413Y56540D01*
Y56236D01*
X85491Y55943D01*
X85643Y55680D01*
X85858Y55466D01*
X86120Y55314D01*
X86413Y55236D01*
X86717D01*
X87010Y55314D01*
X87273Y55466D01*
X87487Y55680D01*
X87639Y55943D01*
X87718Y56236D01*
Y56540D01*
X87639Y56833D01*
X87487Y57096D01*
X87273Y57310D01*
X87010Y57462D01*
X86717Y57540D01*
D02*
G37*
G36*
X68478Y57347D02*
X68174D01*
X67881Y57269D01*
X67618Y57117D01*
X67404Y56903D01*
X67252Y56640D01*
X67174Y56347D01*
Y56043D01*
X67252Y55750D01*
X67404Y55487D01*
X67618Y55273D01*
X67881Y55121D01*
X68174Y55043D01*
X68478D01*
X68771Y55121D01*
X69034Y55273D01*
X69248Y55487D01*
X69400Y55750D01*
X69478Y56043D01*
Y56347D01*
X69400Y56640D01*
X69248Y56903D01*
X69034Y57117D01*
X68771Y57269D01*
X68478Y57347D01*
D02*
G37*
G36*
X35458D02*
X35154D01*
X34861Y57269D01*
X34598Y57117D01*
X34384Y56903D01*
X34232Y56640D01*
X34154Y56347D01*
Y56043D01*
X34232Y55750D01*
X34384Y55487D01*
X34598Y55273D01*
X34861Y55121D01*
X35154Y55043D01*
X35458D01*
X35751Y55121D01*
X36014Y55273D01*
X36228Y55487D01*
X36380Y55750D01*
X36458Y56043D01*
Y56347D01*
X36380Y56640D01*
X36228Y56903D01*
X36014Y57117D01*
X35751Y57269D01*
X35458Y57347D01*
D02*
G37*
G36*
X94864Y54318D02*
X94620D01*
X94384Y54255D01*
X94173Y54133D01*
X94000Y53960D01*
X93878Y53749D01*
X93815Y53513D01*
Y53269D01*
X93878Y53033D01*
X94000Y52821D01*
X94173Y52649D01*
X94384Y52527D01*
X94620Y52463D01*
X94864D01*
X95100Y52527D01*
X95311Y52649D01*
X95484Y52821D01*
X95606Y53033D01*
X95669Y53269D01*
Y53513D01*
X95606Y53749D01*
X95484Y53960D01*
X95311Y54133D01*
X95100Y54255D01*
X94864Y54318D01*
D02*
G37*
G36*
X2122Y52014D02*
X1942D01*
X1776Y51946D01*
X1648Y51818D01*
X1580Y51652D01*
Y51472D01*
X1648Y51306D01*
X1672Y51282D01*
X1663Y51226D01*
X1528Y51182D01*
X1526Y51184D01*
X1360Y51252D01*
X1180D01*
X1014Y51184D01*
X886Y51056D01*
X818Y50890D01*
Y50710D01*
X886Y50544D01*
X974Y50456D01*
Y23433D01*
X911Y23370D01*
X842Y23204D01*
Y23024D01*
X911Y22858D01*
X1039Y22730D01*
X1205Y22662D01*
X1385D01*
X1551Y22730D01*
X1678Y22858D01*
X1747Y23024D01*
Y23204D01*
X1678Y23370D01*
X1591Y23458D01*
Y27562D01*
X1718Y27614D01*
X1776Y27556D01*
X1942Y27488D01*
X2122D01*
X2288Y27556D01*
X2416Y27684D01*
X2484Y27850D01*
Y28030D01*
X2416Y28196D01*
X2340Y28271D01*
Y51231D01*
X2416Y51306D01*
X2484Y51472D01*
Y51652D01*
X2416Y51818D01*
X2288Y51946D01*
X2122Y52014D01*
D02*
G37*
G36*
X95669Y51778D02*
X93815D01*
Y49923D01*
X95669D01*
Y51778D01*
D02*
G37*
G36*
X55746Y52926D02*
X55506D01*
X55285Y52835D01*
X55115Y52665D01*
X55030Y52460D01*
X54860Y52290D01*
X54743Y52114D01*
X54701Y51906D01*
Y50299D01*
X54643Y50158D01*
Y49918D01*
X54734Y49697D01*
X54904Y49527D01*
X55125Y49436D01*
X55365D01*
X55586Y49527D01*
X55756Y49697D01*
X55847Y49918D01*
Y50158D01*
X55789Y50299D01*
Y51680D01*
X55890Y51781D01*
X55967Y51813D01*
X56137Y51983D01*
X56228Y52204D01*
Y52444D01*
X56137Y52665D01*
X55967Y52835D01*
X55746Y52926D01*
D02*
G37*
G36*
X32377Y53429D02*
X32139D01*
X31920Y53338D01*
X31752Y53170D01*
X31661Y52951D01*
Y52713D01*
X31752Y52494D01*
X31920Y52326D01*
X31986Y52299D01*
Y49428D01*
X31920Y49401D01*
X31752Y49233D01*
X31661Y49014D01*
Y48776D01*
X31752Y48557D01*
X31920Y48389D01*
X32139Y48298D01*
X32377D01*
X32596Y48389D01*
X32764Y48557D01*
X32855Y48776D01*
Y49014D01*
X32764Y49233D01*
X32596Y49401D01*
X32530Y49428D01*
Y52299D01*
X32596Y52326D01*
X32764Y52494D01*
X32855Y52713D01*
Y52951D01*
X32764Y53170D01*
X32596Y53338D01*
X32377Y53429D01*
D02*
G37*
G36*
X46093Y51397D02*
X45855D01*
X45636Y51306D01*
X45468Y51138D01*
X45377Y50919D01*
Y50681D01*
X45468Y50462D01*
X45636Y50294D01*
X45702Y50267D01*
Y48291D01*
X45633Y48263D01*
X45463Y48093D01*
X45372Y47872D01*
Y47632D01*
X45463Y47411D01*
X45633Y47241D01*
X45854Y47150D01*
X46094D01*
X46315Y47241D01*
X46485Y47411D01*
X46576Y47632D01*
Y47872D01*
X46485Y48093D01*
X46315Y48263D01*
X46246Y48291D01*
Y50267D01*
X46312Y50294D01*
X46480Y50462D01*
X46571Y50681D01*
Y50919D01*
X46480Y51138D01*
X46312Y51306D01*
X46093Y51397D01*
D02*
G37*
G36*
X9996Y60677D02*
X9816D01*
X9650Y60609D01*
X9522Y60481D01*
X9454Y60315D01*
Y60135D01*
X9501Y60021D01*
Y47619D01*
X9489Y47607D01*
X9420Y47441D01*
Y47261D01*
X9489Y47094D01*
X9616Y46967D01*
X9783Y46898D01*
X9963D01*
X10129Y46967D01*
X10256Y47094D01*
X10325Y47261D01*
Y47441D01*
X10278Y47555D01*
Y59957D01*
X10290Y59969D01*
X10358Y60135D01*
Y60315D01*
X10290Y60481D01*
X10162Y60609D01*
X9996Y60677D01*
D02*
G37*
G36*
X5730Y50291D02*
X5380D01*
X5036Y50223D01*
X4713Y50089D01*
X4422Y49895D01*
X4174Y49647D01*
X3979Y49356D01*
X3845Y49032D01*
X3777Y48689D01*
Y48339D01*
X3845Y47996D01*
X3979Y47672D01*
X4174Y47381D01*
X4422Y47133D01*
X4713Y46939D01*
X5036Y46805D01*
X5380Y46737D01*
X5730D01*
X6073Y46805D01*
X6397Y46939D01*
X6688Y47133D01*
X6935Y47381D01*
X7130Y47672D01*
X7264Y47996D01*
X7332Y48339D01*
Y48689D01*
X7264Y49032D01*
X7130Y49356D01*
X6935Y49647D01*
X6688Y49895D01*
X6397Y50089D01*
X6073Y50223D01*
X5730Y50291D01*
D02*
G37*
G36*
X8218Y63217D02*
X8038D01*
X7872Y63149D01*
X7744Y63021D01*
X7676Y62855D01*
Y62675D01*
X7723Y62561D01*
Y46538D01*
X7711Y46526D01*
X7642Y46360D01*
Y46180D01*
X7711Y46013D01*
X7838Y45886D01*
X8005Y45817D01*
X8185D01*
X8351Y45886D01*
X8478Y46013D01*
X8547Y46180D01*
Y46360D01*
X8500Y46474D01*
Y62497D01*
X8512Y62509D01*
X8580Y62675D01*
Y62855D01*
X8512Y63021D01*
X8384Y63149D01*
X8218Y63217D01*
D02*
G37*
G36*
X53540Y46144D02*
Y45285D01*
X54399D01*
X54342Y45500D01*
X54200Y45745D01*
X54000Y45945D01*
X53755Y46087D01*
X53540Y46144D01*
D02*
G37*
G36*
X53140Y46144D02*
X52925Y46087D01*
X52680Y45945D01*
X52480Y45745D01*
X52338Y45500D01*
X52281Y45285D01*
X53140D01*
Y46144D01*
D02*
G37*
G36*
X9984Y46567D02*
X9761D01*
X9546Y46510D01*
X9352Y46398D01*
X9195Y46240D01*
X9083Y46047D01*
X9025Y45832D01*
Y45608D01*
X9083Y45393D01*
X9195Y45200D01*
X9352Y45042D01*
X9546Y44930D01*
X9761Y44873D01*
X9984D01*
X10200Y44930D01*
X10393Y45042D01*
X10551Y45200D01*
X10662Y45393D01*
X10720Y45608D01*
Y45832D01*
X10662Y46047D01*
X10551Y46240D01*
X10393Y46398D01*
X10200Y46510D01*
X9984Y46567D01*
D02*
G37*
G36*
X60810Y50825D02*
X60602D01*
X60402Y50772D01*
X60223Y50668D01*
X60076Y50521D01*
X59972Y50342D01*
X59919Y50142D01*
Y49934D01*
X59972Y49734D01*
X60076Y49555D01*
X60162Y49468D01*
Y45782D01*
X60076Y45695D01*
X59972Y45516D01*
X59919Y45316D01*
Y45108D01*
X59972Y44908D01*
X60076Y44729D01*
X60223Y44582D01*
X60402Y44478D01*
X60602Y44425D01*
X60810D01*
X61010Y44478D01*
X61189Y44582D01*
X61336Y44729D01*
X61440Y44908D01*
X61493Y45108D01*
Y45316D01*
X61440Y45516D01*
X61336Y45695D01*
X61250Y45782D01*
Y49468D01*
X61336Y49555D01*
X61440Y49734D01*
X61493Y49934D01*
Y50142D01*
X61440Y50342D01*
X61336Y50521D01*
X61189Y50668D01*
X61010Y50772D01*
X60810Y50825D01*
D02*
G37*
G36*
X59347Y46012D02*
X57493D01*
Y44158D01*
X59347D01*
Y46012D01*
D02*
G37*
G36*
X53140Y44885D02*
X52281D01*
X52338Y44670D01*
X52480Y44425D01*
X52680Y44225D01*
X52925Y44083D01*
X53140Y44026D01*
Y44885D01*
D02*
G37*
G36*
X54399D02*
X53540D01*
Y44026D01*
X53755Y44083D01*
X54000Y44225D01*
X54200Y44425D01*
X54342Y44670D01*
X54399Y44885D01*
D02*
G37*
G36*
X11469Y58110D02*
X11289D01*
X11123Y58042D01*
X10996Y57914D01*
X10927Y57748D01*
Y57568D01*
X10961Y57485D01*
Y43960D01*
X10834Y43943D01*
X10800Y44072D01*
X10669Y44299D01*
X10484Y44484D01*
X10257Y44615D01*
X10073Y44665D01*
Y43688D01*
Y42711D01*
X10257Y42761D01*
X10484Y42892D01*
X10669Y43077D01*
X10800Y43304D01*
X10834Y43433D01*
X10961Y43416D01*
Y39905D01*
X10937Y39880D01*
X10868Y39714D01*
Y39534D01*
X10937Y39368D01*
X11064Y39240D01*
X11230Y39172D01*
X11410D01*
X11577Y39240D01*
X11704Y39368D01*
X11773Y39534D01*
Y39714D01*
X11738Y39797D01*
Y57377D01*
X11763Y57402D01*
X11832Y57568D01*
Y57748D01*
X11763Y57914D01*
X11635Y58042D01*
X11469Y58110D01*
D02*
G37*
G36*
X9673Y44665D02*
X9489Y44615D01*
X9262Y44484D01*
X9076Y44299D01*
X8945Y44072D01*
X8896Y43888D01*
X9673D01*
Y44665D01*
D02*
G37*
G36*
X8206Y45551D02*
X7983D01*
X7768Y45494D01*
X7574Y45382D01*
X7417Y45224D01*
X7305Y45031D01*
X7247Y44816D01*
Y44592D01*
X7305Y44377D01*
X7417Y44184D01*
X7574Y44026D01*
X7768Y43914D01*
X7983Y43857D01*
X8206D01*
X8422Y43914D01*
X8615Y44026D01*
X8773Y44184D01*
X8884Y44377D01*
X8942Y44592D01*
Y44816D01*
X8884Y45031D01*
X8773Y45224D01*
X8615Y45382D01*
X8422Y45494D01*
X8206Y45551D01*
D02*
G37*
G36*
X7895Y43649D02*
X7711Y43599D01*
X7484Y43468D01*
X7298Y43283D01*
X7167Y43056D01*
X7118Y42872D01*
X7895D01*
Y43649D01*
D02*
G37*
G36*
X8295D02*
Y42872D01*
X9071D01*
X9060Y42914D01*
X9174Y42980D01*
X9262Y42892D01*
X9489Y42761D01*
X9673Y42711D01*
Y43488D01*
X8896D01*
X8907Y43446D01*
X8793Y43380D01*
X8706Y43468D01*
X8479Y43599D01*
X8295Y43649D01*
D02*
G37*
G36*
X44850Y44564D02*
X44050D01*
X43834Y44521D01*
X43652Y44399D01*
X43530Y44217D01*
X43487Y44001D01*
Y43201D01*
X43530Y42985D01*
X43652Y42803D01*
X43834Y42681D01*
X44050Y42638D01*
X44850D01*
X45066Y42681D01*
X45248Y42803D01*
X45370Y42985D01*
X45413Y43201D01*
Y44001D01*
X45370Y44217D01*
X45248Y44399D01*
X45066Y44521D01*
X44850Y44564D01*
D02*
G37*
G36*
X37936Y56131D02*
X37756D01*
X37590Y56062D01*
X37462Y55934D01*
X37394Y55768D01*
Y55588D01*
X37462Y55422D01*
X37574Y55310D01*
Y42563D01*
X28435D01*
X28323Y42675D01*
X28157Y42743D01*
X27977D01*
X27811Y42675D01*
X27683Y42547D01*
X27615Y42381D01*
Y42201D01*
X27683Y42035D01*
X27811Y41907D01*
X27977Y41839D01*
X28157D01*
X28323Y41907D01*
X28435Y42019D01*
X37712D01*
X37816Y42040D01*
X37904Y42099D01*
X38038Y42233D01*
X38097Y42321D01*
X38118Y42425D01*
X38118Y42425D01*
Y55310D01*
X38230Y55422D01*
X38298Y55588D01*
Y55768D01*
X38230Y55934D01*
X38102Y56062D01*
X37936Y56131D01*
D02*
G37*
G36*
X56002Y46012D02*
X55758D01*
X55522Y45949D01*
X55311Y45827D01*
X55138Y45654D01*
X55016Y45443D01*
X54953Y45207D01*
Y44963D01*
X55016Y44727D01*
X55138Y44516D01*
X55311Y44343D01*
X55492Y44238D01*
Y43008D01*
X55369Y42886D01*
X55278Y42665D01*
Y42425D01*
X55369Y42204D01*
X55539Y42034D01*
X55760Y41943D01*
X56000D01*
X56221Y42034D01*
X56391Y42204D01*
X56482Y42425D01*
Y42665D01*
X56391Y42886D01*
X56268Y43008D01*
Y44238D01*
X56449Y44343D01*
X56622Y44516D01*
X56744Y44727D01*
X56807Y44963D01*
Y45207D01*
X56744Y45443D01*
X56622Y45654D01*
X56449Y45827D01*
X56238Y45949D01*
X56002Y46012D01*
D02*
G37*
G36*
X9071Y42472D02*
X8295D01*
Y41695D01*
X8479Y41745D01*
X8706Y41876D01*
X8891Y42061D01*
X9022Y42288D01*
X9071Y42472D01*
D02*
G37*
G36*
X7895D02*
X7118D01*
X7167Y42288D01*
X7298Y42061D01*
X7484Y41876D01*
X7711Y41745D01*
X7895Y41695D01*
Y42472D01*
D02*
G37*
G36*
X9984Y42503D02*
X9761D01*
X9546Y42446D01*
X9352Y42334D01*
X9195Y42176D01*
X9083Y41983D01*
X9025Y41768D01*
Y41544D01*
X9083Y41329D01*
X9195Y41136D01*
X9352Y40978D01*
X9546Y40866D01*
X9761Y40809D01*
X9984D01*
X10200Y40866D01*
X10393Y40978D01*
X10551Y41136D01*
X10662Y41329D01*
X10720Y41544D01*
Y41768D01*
X10662Y41983D01*
X10551Y42176D01*
X10393Y42334D01*
X10200Y42446D01*
X9984Y42503D01*
D02*
G37*
G36*
X40476Y56131D02*
X40296D01*
X40130Y56062D01*
X40002Y55934D01*
X39934Y55768D01*
Y55588D01*
X40002Y55422D01*
X40114Y55310D01*
Y40404D01*
X28435D01*
X28323Y40516D01*
X28157Y40584D01*
X27977D01*
X27811Y40516D01*
X27683Y40388D01*
X27615Y40222D01*
Y40042D01*
X27683Y39876D01*
X27811Y39748D01*
X27977Y39680D01*
X28157D01*
X28323Y39748D01*
X28435Y39860D01*
X40252D01*
X40356Y39881D01*
X40444Y39940D01*
X40578Y40074D01*
X40637Y40162D01*
X40658Y40266D01*
X40658Y40266D01*
Y55310D01*
X40770Y55422D01*
X40838Y55588D01*
Y55768D01*
X40770Y55934D01*
X40642Y56062D01*
X40476Y56131D01*
D02*
G37*
G36*
X44575Y42013D02*
X44325D01*
X44082Y41949D01*
X43865Y41823D01*
X43688Y41646D01*
X43562Y41429D01*
X43498Y41186D01*
Y40936D01*
X43562Y40693D01*
X43688Y40476D01*
X43865Y40299D01*
X44082Y40174D01*
X44325Y40109D01*
X44575D01*
X44818Y40174D01*
X45035Y40299D01*
X45212Y40476D01*
X45338Y40693D01*
X45402Y40936D01*
Y41186D01*
X45338Y41429D01*
X45212Y41646D01*
X45035Y41823D01*
X44818Y41949D01*
X44575Y42013D01*
D02*
G37*
G36*
X8206Y41487D02*
X7983D01*
X7768Y41430D01*
X7574Y41318D01*
X7417Y41160D01*
X7305Y40967D01*
X7247Y40752D01*
Y40528D01*
X7305Y40313D01*
X7417Y40120D01*
X7574Y39962D01*
X7768Y39850D01*
X7983Y39793D01*
X8206D01*
X8422Y39850D01*
X8615Y39962D01*
X8773Y40120D01*
X8884Y40313D01*
X8942Y40528D01*
Y40752D01*
X8884Y40967D01*
X8773Y41160D01*
X8615Y41318D01*
X8422Y41430D01*
X8206Y41487D01*
D02*
G37*
G36*
X72137Y56540D02*
X71930D01*
X71729Y56487D01*
X71550Y56383D01*
X71403Y56236D01*
X71300Y56057D01*
X71246Y55857D01*
Y55649D01*
X71300Y55449D01*
X71367Y55332D01*
Y43404D01*
X68483Y40520D01*
X68352Y40485D01*
X68173Y40381D01*
X68026Y40234D01*
X67922Y40055D01*
X67869Y39855D01*
Y39647D01*
X67922Y39447D01*
X68026Y39268D01*
X68173Y39121D01*
X68352Y39017D01*
X68553Y38964D01*
X68760D01*
X68960Y39017D01*
X69140Y39121D01*
X69286Y39268D01*
X69390Y39447D01*
X69425Y39578D01*
X72504Y42657D01*
X72504Y42657D01*
X72610Y42795D01*
X72677Y42956D01*
X72699Y43128D01*
X72699Y43128D01*
Y55332D01*
X72767Y55449D01*
X72821Y55649D01*
Y55857D01*
X72767Y56057D01*
X72663Y56236D01*
X72517Y56383D01*
X72337Y56487D01*
X72137Y56540D01*
D02*
G37*
G36*
X9984Y40471D02*
X9761D01*
X9546Y40414D01*
X9352Y40302D01*
X9195Y40144D01*
X9083Y39951D01*
X9025Y39736D01*
Y39548D01*
X8968Y39484D01*
X8909Y39455D01*
X7247D01*
Y37761D01*
X8942D01*
Y39332D01*
X9069Y39349D01*
X9083Y39297D01*
X9195Y39104D01*
X9352Y38946D01*
X9546Y38834D01*
X9761Y38777D01*
X9984D01*
X10200Y38834D01*
X10393Y38946D01*
X10551Y39104D01*
X10662Y39297D01*
X10720Y39512D01*
Y39736D01*
X10662Y39951D01*
X10551Y40144D01*
X10393Y40302D01*
X10200Y40414D01*
X9984Y40471D01*
D02*
G37*
G36*
X44575Y39473D02*
X44325D01*
X44082Y39409D01*
X43865Y39283D01*
X43688Y39106D01*
X43562Y38889D01*
X43498Y38646D01*
Y38396D01*
X43562Y38153D01*
X43688Y37936D01*
X43865Y37759D01*
X44082Y37634D01*
X44325Y37569D01*
X44575D01*
X44818Y37634D01*
X45035Y37759D01*
X45212Y37936D01*
X45338Y38153D01*
X45402Y38396D01*
Y38646D01*
X45338Y38889D01*
X45212Y39106D01*
X45035Y39283D01*
X44818Y39409D01*
X44575Y39473D01*
D02*
G37*
G36*
X50120Y37891D02*
X49880D01*
X49659Y37799D01*
X49489Y37629D01*
X49398Y37408D01*
Y37168D01*
X49489Y36947D01*
X49659Y36777D01*
X49692Y36764D01*
Y35245D01*
X49659Y35232D01*
X49489Y35062D01*
X49398Y34841D01*
Y34601D01*
X49489Y34380D01*
X49659Y34210D01*
X49880Y34119D01*
X50120D01*
X50341Y34210D01*
X50511Y34380D01*
X50602Y34601D01*
Y34841D01*
X50511Y35062D01*
X50341Y35232D01*
X50308Y35245D01*
Y36764D01*
X50341Y36777D01*
X50511Y36947D01*
X50602Y37168D01*
Y37408D01*
X50511Y37629D01*
X50341Y37799D01*
X50120Y37891D01*
D02*
G37*
G36*
X5730Y37591D02*
X5380D01*
X5036Y37523D01*
X4713Y37389D01*
X4422Y37195D01*
X4174Y36947D01*
X3979Y36656D01*
X3845Y36332D01*
X3777Y35989D01*
Y35639D01*
X3845Y35296D01*
X3979Y34972D01*
X4174Y34681D01*
X4422Y34433D01*
X4713Y34239D01*
X5036Y34105D01*
X5380Y34037D01*
X5730D01*
X6073Y34105D01*
X6397Y34239D01*
X6688Y34433D01*
X6935Y34681D01*
X7130Y34972D01*
X7264Y35296D01*
X7332Y35639D01*
Y35989D01*
X7264Y36332D01*
X7130Y36656D01*
X6935Y36947D01*
X6688Y37195D01*
X6397Y37389D01*
X6073Y37523D01*
X5730Y37591D01*
D02*
G37*
G36*
X83072Y53792D02*
X82892D01*
X82726Y53724D01*
X82598Y53596D01*
X82529Y53430D01*
Y53250D01*
X82598Y53084D01*
X82673Y53009D01*
Y34291D01*
X82598Y34216D01*
X82529Y34050D01*
Y33870D01*
X82598Y33704D01*
X82726Y33576D01*
X82892Y33507D01*
X83072D01*
X83238Y33576D01*
X83365Y33704D01*
X83434Y33870D01*
Y34050D01*
X83365Y34216D01*
X83290Y34291D01*
Y53009D01*
X83365Y53084D01*
X83434Y53250D01*
Y53430D01*
X83365Y53596D01*
X83238Y53724D01*
X83072Y53792D01*
D02*
G37*
G36*
X57116Y36335D02*
X56879D01*
X56659Y36244D01*
X56492Y36076D01*
X56401Y35857D01*
Y35619D01*
X56492Y35400D01*
X56592Y35299D01*
Y33977D01*
X56616Y33858D01*
X56683Y33758D01*
X57768Y32673D01*
X57869Y32606D01*
X57988Y32582D01*
X60290D01*
X60302Y32555D01*
X60469Y32387D01*
X60689Y32296D01*
X60926D01*
X61146Y32387D01*
X61314Y32555D01*
X61404Y32774D01*
Y33012D01*
X61314Y33231D01*
X61146Y33399D01*
X60926Y33490D01*
X60689D01*
X60469Y33399D01*
X60302Y33231D01*
X60290Y33204D01*
X58116D01*
X57214Y34106D01*
Y35181D01*
X57336Y35232D01*
X57504Y35400D01*
X57595Y35619D01*
Y35857D01*
X57504Y36076D01*
X57336Y36244D01*
X57116Y36335D01*
D02*
G37*
G36*
X84516Y48688D02*
X84308D01*
X84108Y48635D01*
X83929Y48531D01*
X83782Y48384D01*
X83678Y48205D01*
X83625Y48004D01*
Y47797D01*
X83678Y47597D01*
X83782Y47417D01*
X83929Y47271D01*
X84108Y47167D01*
X84140Y47158D01*
Y31781D01*
X84071Y31753D01*
X83901Y31583D01*
X83810Y31362D01*
Y31122D01*
X83901Y30901D01*
X84071Y30731D01*
X84292Y30640D01*
X84532D01*
X84753Y30731D01*
X84923Y30901D01*
X85014Y31122D01*
Y31362D01*
X84923Y31583D01*
X84753Y31753D01*
X84684Y31781D01*
Y47158D01*
X84716Y47167D01*
X84896Y47271D01*
X85042Y47417D01*
X85146Y47597D01*
X85199Y47797D01*
Y48004D01*
X85146Y48205D01*
X85042Y48384D01*
X84896Y48531D01*
X84716Y48635D01*
X84516Y48688D01*
D02*
G37*
G36*
X64527Y30493D02*
X64276D01*
X64034Y30428D01*
X63817Y30302D01*
X63639Y30125D01*
X63514Y29908D01*
X63449Y29666D01*
Y29415D01*
X63514Y29173D01*
X63639Y28955D01*
X63817Y28778D01*
X64034Y28653D01*
X64276Y28588D01*
X64527D01*
X64769Y28653D01*
X64986Y28778D01*
X65164Y28955D01*
X65289Y29173D01*
X65354Y29415D01*
Y29666D01*
X65289Y29908D01*
X65164Y30125D01*
X64986Y30302D01*
X64769Y30428D01*
X64527Y30493D01*
D02*
G37*
G36*
X18921Y29400D02*
X18671D01*
X18428Y29336D01*
X18211Y29210D01*
X18034Y29033D01*
X17909Y28816D01*
X17844Y28573D01*
Y28323D01*
X17909Y28080D01*
X18034Y27863D01*
X18211Y27686D01*
X18428Y27560D01*
X18671Y27496D01*
X18921D01*
X19164Y27560D01*
X19381Y27686D01*
X19558Y27863D01*
X19684Y28080D01*
X19748Y28323D01*
Y28573D01*
X19684Y28816D01*
X19558Y29033D01*
X19381Y29210D01*
X19164Y29336D01*
X18921Y29400D01*
D02*
G37*
G36*
X16381D02*
X16131D01*
X15888Y29336D01*
X15671Y29210D01*
X15494Y29033D01*
X15368Y28816D01*
X15304Y28573D01*
Y28323D01*
X15368Y28080D01*
X15494Y27863D01*
X15671Y27686D01*
X15888Y27560D01*
X16131Y27496D01*
X16381D01*
X16624Y27560D01*
X16841Y27686D01*
X17018Y27863D01*
X17143Y28080D01*
X17208Y28323D01*
Y28573D01*
X17143Y28816D01*
X17018Y29033D01*
X16841Y29210D01*
X16624Y29336D01*
X16381Y29400D01*
D02*
G37*
G36*
X14668D02*
X12764D01*
Y27496D01*
X14668D01*
Y29400D01*
D02*
G37*
G36*
X74018Y49555D02*
X73810D01*
X73610Y49502D01*
X73431Y49398D01*
X73284Y49251D01*
X73180Y49072D01*
X73127Y48872D01*
Y48664D01*
X73180Y48464D01*
X73284Y48285D01*
X73431Y48138D01*
X73610Y48034D01*
X73810Y47981D01*
X74018D01*
X74153Y48017D01*
X75547Y46623D01*
Y28632D01*
X75478Y28603D01*
X75308Y28434D01*
X75217Y28212D01*
Y27973D01*
X75308Y27751D01*
X75478Y27582D01*
X75699Y27490D01*
X75939D01*
X76160Y27582D01*
X76330Y27751D01*
X76421Y27973D01*
Y28212D01*
X76330Y28434D01*
X76160Y28603D01*
X76091Y28632D01*
Y46736D01*
X76070Y46840D01*
X76011Y46928D01*
X74585Y48355D01*
X74648Y48464D01*
X74701Y48664D01*
Y48872D01*
X74648Y49072D01*
X74544Y49251D01*
X74397Y49398D01*
X74218Y49502D01*
X74018Y49555D01*
D02*
G37*
G36*
X54478Y29121D02*
X54234D01*
X53998Y29058D01*
X53787Y28936D01*
X53614Y28763D01*
X53492Y28552D01*
X53429Y28316D01*
Y28072D01*
X53492Y27836D01*
X53614Y27625D01*
X53787Y27452D01*
X53998Y27330D01*
X54234Y27267D01*
X54478D01*
X54714Y27330D01*
X54925Y27452D01*
X55098Y27625D01*
X55220Y27836D01*
X55283Y28072D01*
Y28316D01*
X55220Y28552D01*
X55098Y28763D01*
X54925Y28936D01*
X54714Y29058D01*
X54478Y29121D01*
D02*
G37*
G36*
X52743D02*
X50889D01*
Y27267D01*
X52743D01*
Y29121D01*
D02*
G37*
G36*
X98352Y25777D02*
X98202D01*
X97967Y25746D01*
X97748Y25655D01*
X97560Y25511D01*
X97416Y25323D01*
X97325Y25104D01*
X97321Y25069D01*
X98352D01*
Y25777D01*
D02*
G37*
G36*
X66032Y35776D02*
X65845D01*
X65673Y35704D01*
X65541Y35572D01*
X65469Y35399D01*
Y35213D01*
X65541Y35040D01*
X65589Y34991D01*
Y28682D01*
X64785Y27878D01*
X64769Y27888D01*
X64527Y27953D01*
X64276D01*
X64034Y27888D01*
X63817Y27762D01*
X63639Y27585D01*
X63514Y27368D01*
X63449Y27126D01*
Y26875D01*
X63514Y26633D01*
X63639Y26415D01*
X63817Y26238D01*
X64034Y26113D01*
X64276Y26048D01*
X64527D01*
X64769Y26113D01*
X64986Y26238D01*
X65164Y26415D01*
X65289Y26633D01*
X65354Y26875D01*
Y27126D01*
X65289Y27368D01*
X65280Y27384D01*
X66186Y28290D01*
X66186Y28290D01*
X66262Y28404D01*
X66289Y28538D01*
Y33415D01*
X66416Y33483D01*
X66427Y33475D01*
Y24769D01*
X65365D01*
Y24860D01*
X65322Y25076D01*
X65200Y25258D01*
X65017Y25381D01*
X64802Y25423D01*
X64002D01*
X63786Y25381D01*
X63603Y25258D01*
X63481Y25076D01*
X63438Y24860D01*
Y24060D01*
X63481Y23845D01*
X63603Y23662D01*
X63786Y23540D01*
X64002Y23497D01*
X64802D01*
X65017Y23540D01*
X65200Y23662D01*
X65322Y23845D01*
X65365Y24060D01*
Y24152D01*
X66427D01*
Y13473D01*
X66317Y13363D01*
X66248Y13196D01*
Y13016D01*
X66317Y12850D01*
X66444Y12723D01*
X66610Y12654D01*
X66790D01*
X66957Y12723D01*
X67084Y12850D01*
X67153Y13016D01*
Y13196D01*
X67084Y13363D01*
X67044Y13403D01*
Y33596D01*
X67119Y33671D01*
X67188Y33837D01*
Y34017D01*
X67119Y34184D01*
X66992Y34311D01*
X66826Y34380D01*
X66646D01*
X66479Y34311D01*
X66416Y34247D01*
X66289Y34300D01*
Y34991D01*
X66337Y35040D01*
X66409Y35213D01*
Y35399D01*
X66337Y35572D01*
X66205Y35704D01*
X66032Y35776D01*
D02*
G37*
G36*
X3427Y26609D02*
X3177D01*
X2934Y26544D01*
X2717Y26419D01*
X2540Y26241D01*
X2414Y26024D01*
X2350Y25782D01*
Y25531D01*
X2414Y25289D01*
X2540Y25072D01*
X2717Y24895D01*
X2934Y24769D01*
X3177Y24704D01*
X3427D01*
X3670Y24769D01*
X3887Y24895D01*
X4064Y25072D01*
X4189Y25289D01*
X4254Y25531D01*
Y25782D01*
X4189Y26024D01*
X4064Y26241D01*
X3887Y26419D01*
X3670Y26544D01*
X3427Y26609D01*
D02*
G37*
G36*
X98352Y24669D02*
X97321D01*
X97325Y24634D01*
X97416Y24415D01*
X97560Y24227D01*
X97748Y24083D01*
X97967Y23992D01*
X98202Y23961D01*
X98352D01*
Y24669D01*
D02*
G37*
G36*
X95752Y23786D02*
Y23168D01*
X96458D01*
X96456Y23183D01*
X96373Y23384D01*
X96240Y23556D01*
X96068Y23688D01*
X95867Y23771D01*
X95752Y23786D01*
D02*
G37*
G36*
X95352Y23786D02*
X95237Y23771D01*
X95036Y23688D01*
X94864Y23556D01*
X94731Y23384D01*
X94648Y23183D01*
X94646Y23168D01*
X95352D01*
Y23786D01*
D02*
G37*
G36*
X3427Y24069D02*
X3177D01*
X2934Y24004D01*
X2717Y23879D01*
X2540Y23701D01*
X2414Y23484D01*
X2350Y23242D01*
Y22991D01*
X2414Y22749D01*
X2540Y22532D01*
X2717Y22354D01*
X2934Y22229D01*
X3177Y22164D01*
X3427D01*
X3670Y22229D01*
X3887Y22354D01*
X4064Y22532D01*
X4189Y22749D01*
X4254Y22991D01*
Y23242D01*
X4189Y23484D01*
X4064Y23701D01*
X3887Y23879D01*
X3670Y24004D01*
X3427Y24069D01*
D02*
G37*
G36*
X96458Y22768D02*
X95752D01*
Y22149D01*
X95867Y22164D01*
X96068Y22247D01*
X96240Y22379D01*
X96373Y22551D01*
X96456Y22752D01*
X96458Y22768D01*
D02*
G37*
G36*
X95352D02*
X94646D01*
X94648Y22752D01*
X94731Y22551D01*
X94864Y22379D01*
X95036Y22247D01*
X95237Y22164D01*
X95352Y22149D01*
Y22768D01*
D02*
G37*
G36*
X21909Y89860D02*
X21729D01*
X21562Y89792D01*
X21435Y89664D01*
X21366Y89498D01*
Y89318D01*
X21435Y89152D01*
X21547Y89040D01*
Y22906D01*
X21318Y22677D01*
X21246D01*
X21080Y22609D01*
X20952Y22481D01*
X20884Y22315D01*
Y22135D01*
X20952Y21969D01*
X21080Y21841D01*
X21246Y21773D01*
X21426D01*
X21592Y21841D01*
X21720Y21969D01*
X21788Y22135D01*
Y22315D01*
X21770Y22360D01*
X22011Y22601D01*
X22011Y22601D01*
X22070Y22690D01*
X22091Y22794D01*
X22091Y22794D01*
Y89040D01*
X22202Y89152D01*
X22271Y89318D01*
Y89498D01*
X22202Y89664D01*
X22075Y89792D01*
X21909Y89860D01*
D02*
G37*
G36*
X85289Y25535D02*
X85109D01*
X84942Y25466D01*
X84815Y25339D01*
X84746Y25172D01*
Y24993D01*
X84815Y24826D01*
X84849Y24792D01*
Y21889D01*
X84815Y21855D01*
X84746Y21689D01*
Y21509D01*
X84815Y21343D01*
X84942Y21216D01*
X85109Y21147D01*
X85289D01*
X85455Y21216D01*
X85582Y21343D01*
X85651Y21509D01*
Y21689D01*
X85582Y21855D01*
X85548Y21889D01*
Y24792D01*
X85582Y24826D01*
X85651Y24993D01*
Y25172D01*
X85582Y25339D01*
X85455Y25466D01*
X85289Y25535D01*
D02*
G37*
G36*
X3427Y21529D02*
X3177D01*
X2934Y21464D01*
X2717Y21339D01*
X2540Y21161D01*
X2414Y20944D01*
X2350Y20702D01*
Y20451D01*
X2414Y20209D01*
X2540Y19992D01*
X2717Y19815D01*
X2934Y19689D01*
X3177Y19624D01*
X3427D01*
X3670Y19689D01*
X3887Y19815D01*
X4064Y19992D01*
X4189Y20209D01*
X4254Y20451D01*
Y20702D01*
X4189Y20944D01*
X4064Y21161D01*
X3887Y21339D01*
X3670Y21464D01*
X3427Y21529D01*
D02*
G37*
G36*
X61720Y21526D02*
X61470D01*
X61227Y21462D01*
X61010Y21336D01*
X60833Y21159D01*
X60708Y20942D01*
X60643Y20699D01*
Y20449D01*
X60708Y20206D01*
X60833Y19989D01*
X61010Y19812D01*
X61227Y19687D01*
X61470Y19622D01*
X61720D01*
X61963Y19687D01*
X62180Y19812D01*
X62357Y19989D01*
X62482Y20206D01*
X62547Y20449D01*
Y20699D01*
X62482Y20942D01*
X62357Y21159D01*
X62180Y21336D01*
X61963Y21462D01*
X61720Y21526D01*
D02*
G37*
G36*
X59180D02*
X58930D01*
X58687Y21462D01*
X58470Y21336D01*
X58293Y21159D01*
X58167Y20942D01*
X58103Y20699D01*
Y20449D01*
X58167Y20206D01*
X58293Y19989D01*
X58470Y19812D01*
X58687Y19687D01*
X58930Y19622D01*
X59180D01*
X59423Y19687D01*
X59640Y19812D01*
X59817Y19989D01*
X59942Y20206D01*
X60007Y20449D01*
Y20699D01*
X59942Y20942D01*
X59817Y21159D01*
X59640Y21336D01*
X59423Y21462D01*
X59180Y21526D01*
D02*
G37*
G36*
X56915Y21537D02*
X56115D01*
X55899Y21494D01*
X55717Y21372D01*
X55595Y21190D01*
X55552Y20974D01*
Y20174D01*
X55595Y19958D01*
X55717Y19776D01*
X55899Y19654D01*
X56115Y19611D01*
X56915D01*
X57131Y19654D01*
X57313Y19776D01*
X57435Y19958D01*
X57478Y20174D01*
Y20974D01*
X57435Y21190D01*
X57313Y21372D01*
X57131Y21494D01*
X56915Y21537D01*
D02*
G37*
G36*
X18895Y24920D02*
X18687D01*
X18487Y24866D01*
X18308Y24763D01*
X18161Y24616D01*
X18057Y24437D01*
X18004Y24236D01*
Y24029D01*
X18057Y23829D01*
X18161Y23649D01*
X18308Y23503D01*
X18487Y23399D01*
X18519Y23390D01*
Y20557D01*
X18487Y20548D01*
X18308Y20445D01*
X18161Y20298D01*
X18057Y20119D01*
X18004Y19918D01*
Y19711D01*
X18057Y19511D01*
X18161Y19331D01*
X18308Y19185D01*
X18487Y19081D01*
X18687Y19027D01*
X18895D01*
X19095Y19081D01*
X19275Y19185D01*
X19421Y19331D01*
X19525Y19511D01*
X19578Y19711D01*
Y19918D01*
X19525Y20119D01*
X19421Y20298D01*
X19275Y20445D01*
X19095Y20548D01*
X19063Y20557D01*
Y23390D01*
X19095Y23399D01*
X19275Y23503D01*
X19421Y23649D01*
X19525Y23829D01*
X19578Y24029D01*
Y24236D01*
X19525Y24437D01*
X19421Y24616D01*
X19275Y24763D01*
X19095Y24866D01*
X18895Y24920D01*
D02*
G37*
G36*
X84180Y26360D02*
X84000D01*
X83833Y26292D01*
X83706Y26164D01*
X83637Y25998D01*
Y25818D01*
X83706Y25652D01*
X83732Y25626D01*
Y19442D01*
X83690Y19400D01*
X83622Y19234D01*
Y19054D01*
X83690Y18887D01*
X83818Y18760D01*
X83984Y18691D01*
X84164D01*
X84330Y18760D01*
X84458Y18887D01*
X84526Y19054D01*
Y19234D01*
X84458Y19400D01*
X84431Y19426D01*
Y25610D01*
X84473Y25652D01*
X84542Y25818D01*
Y25998D01*
X84473Y26164D01*
X84346Y26292D01*
X84180Y26360D01*
D02*
G37*
G36*
X95752Y19239D02*
Y18620D01*
X96458D01*
X96456Y18636D01*
X96373Y18837D01*
X96240Y19009D01*
X96068Y19141D01*
X95867Y19224D01*
X95752Y19239D01*
D02*
G37*
G36*
X95352Y19239D02*
X95237Y19224D01*
X95036Y19141D01*
X94864Y19009D01*
X94731Y18837D01*
X94648Y18636D01*
X94646Y18620D01*
X95352D01*
Y19239D01*
D02*
G37*
G36*
X3502Y19122D02*
Y18237D01*
X4387D01*
X4327Y18461D01*
X4182Y18712D01*
X3977Y18917D01*
X3727Y19062D01*
X3502Y19122D01*
D02*
G37*
G36*
X3102D02*
X2877Y19062D01*
X2627Y18917D01*
X2422Y18712D01*
X2277Y18461D01*
X2217Y18237D01*
X3102D01*
Y19122D01*
D02*
G37*
G36*
X96458Y18220D02*
X95752D01*
Y17602D01*
X95867Y17617D01*
X96068Y17700D01*
X96240Y17832D01*
X96373Y18004D01*
X96456Y18205D01*
X96458Y18220D01*
D02*
G37*
G36*
X95352D02*
X94646D01*
X94648Y18205D01*
X94731Y18004D01*
X94864Y17832D01*
X95036Y17700D01*
X95237Y17617D01*
X95352Y17602D01*
Y18220D01*
D02*
G37*
G36*
X4387Y17837D02*
X3502D01*
Y16951D01*
X3727Y17012D01*
X3977Y17156D01*
X4182Y17361D01*
X4327Y17612D01*
X4387Y17837D01*
D02*
G37*
G36*
X3102D02*
X2217D01*
X2277Y17612D01*
X2422Y17361D01*
X2627Y17156D01*
X2877Y17012D01*
X3102Y16951D01*
Y17837D01*
D02*
G37*
G36*
X98352Y17427D02*
X98202D01*
X97967Y17396D01*
X97748Y17305D01*
X97560Y17161D01*
X97416Y16973D01*
X97325Y16754D01*
X97321Y16719D01*
X98352D01*
Y17427D01*
D02*
G37*
G36*
Y16319D02*
X97321D01*
X97325Y16284D01*
X97416Y16065D01*
X97560Y15877D01*
X97748Y15733D01*
X97967Y15642D01*
X98202Y15611D01*
X98352D01*
Y16319D01*
D02*
G37*
G36*
X3702Y16460D02*
X2902D01*
X2686Y16417D01*
X2504Y16295D01*
X2382Y16112D01*
X2339Y15897D01*
Y15097D01*
X2382Y14881D01*
X2504Y14698D01*
X2686Y14576D01*
X2902Y14533D01*
X3702D01*
X3918Y14576D01*
X4100Y14698D01*
X4222Y14881D01*
X4265Y15097D01*
Y15897D01*
X4222Y16112D01*
X4100Y16295D01*
X3918Y16417D01*
X3702Y16460D01*
D02*
G37*
G36*
X31047Y4834D02*
X30172D01*
Y3959D01*
X31047D01*
Y4834D01*
D02*
G37*
G36*
X29772D02*
X28897D01*
Y3959D01*
X29772D01*
Y4834D01*
D02*
G37*
G36*
X32634Y4687D02*
X32390D01*
X32154Y4623D01*
X31943Y4501D01*
X31770Y4329D01*
X31648Y4117D01*
X31585Y3881D01*
Y3637D01*
X31648Y3401D01*
X31770Y3190D01*
X31943Y3017D01*
X32154Y2895D01*
X32390Y2832D01*
X32634D01*
X32870Y2895D01*
X33081Y3017D01*
X33254Y3190D01*
X33376Y3401D01*
X33439Y3637D01*
Y3881D01*
X33376Y4117D01*
X33254Y4329D01*
X33081Y4501D01*
X32870Y4623D01*
X32634Y4687D01*
D02*
G37*
G36*
X40546Y4669D02*
X40302D01*
X40066Y4606D01*
X39855Y4484D01*
X39682Y4311D01*
X39560Y4100D01*
X39497Y3864D01*
Y3620D01*
X39560Y3384D01*
X39682Y3172D01*
X39855Y3000D01*
X40066Y2878D01*
X40302Y2814D01*
X40546D01*
X40782Y2878D01*
X40994Y3000D01*
X41166Y3172D01*
X41288Y3384D01*
X41352Y3620D01*
Y3864D01*
X41288Y4100D01*
X41166Y4311D01*
X40994Y4484D01*
X40782Y4606D01*
X40546Y4669D01*
D02*
G37*
G36*
X38812D02*
X36957D01*
Y2814D01*
X38812D01*
Y4669D01*
D02*
G37*
G36*
X19299Y4610D02*
X19055D01*
X18819Y4547D01*
X18608Y4425D01*
X18435Y4252D01*
X18313Y4041D01*
X18250Y3805D01*
Y3561D01*
X18313Y3325D01*
X18435Y3114D01*
X18608Y2941D01*
X18819Y2819D01*
X19055Y2756D01*
X19299D01*
X19535Y2819D01*
X19746Y2941D01*
X19919Y3114D01*
X20041Y3325D01*
X20104Y3561D01*
Y3805D01*
X20041Y4041D01*
X19919Y4252D01*
X19746Y4425D01*
X19535Y4547D01*
X19299Y4610D01*
D02*
G37*
G36*
X17564D02*
X15710D01*
Y2756D01*
X17564D01*
Y4610D01*
D02*
G37*
G36*
X5228Y7311D02*
X4772D01*
X4326Y7223D01*
X3905Y7048D01*
X3527Y6795D01*
X3205Y6473D01*
X2952Y6095D01*
X2777Y5674D01*
X2689Y5228D01*
Y4772D01*
X2777Y4326D01*
X2952Y3905D01*
X3205Y3527D01*
X3527Y3205D01*
X3905Y2952D01*
X4326Y2777D01*
X4772Y2689D01*
X5228D01*
X5674Y2777D01*
X6095Y2952D01*
X6473Y3205D01*
X6795Y3527D01*
X7048Y3905D01*
X7223Y4326D01*
X7311Y4772D01*
Y5228D01*
X7223Y5674D01*
X7048Y6095D01*
X6795Y6473D01*
X6473Y6795D01*
X6095Y7048D01*
X5674Y7223D01*
X5228Y7311D01*
D02*
G37*
G36*
X31047Y3559D02*
X30172D01*
Y2684D01*
X31047D01*
Y3559D01*
D02*
G37*
G36*
X29772D02*
X28897D01*
Y2684D01*
X29772D01*
Y3559D01*
D02*
G37*
G36*
X95228Y7169D02*
X94772D01*
X94326Y7080D01*
X93905Y6906D01*
X93527Y6653D01*
X93205Y6331D01*
X92952Y5952D01*
X92777Y5532D01*
X92689Y5085D01*
Y4630D01*
X92777Y4183D01*
X92952Y3763D01*
X93205Y3384D01*
X93527Y3062D01*
X93905Y2809D01*
X94326Y2635D01*
X94772Y2546D01*
X95228D01*
X95674Y2635D01*
X96095Y2809D01*
X96473Y3062D01*
X96795Y3384D01*
X97048Y3763D01*
X97223Y4183D01*
X97311Y4630D01*
Y5085D01*
X97223Y5532D01*
X97048Y5952D01*
X96795Y6331D01*
X96473Y6653D01*
X96095Y6906D01*
X95674Y7080D01*
X95228Y7169D01*
D02*
G37*
%LPD*%
D102*
X4572Y61951D02*
D03*
Y64491D02*
D03*
Y67031D02*
D03*
Y69571D02*
D03*
X4724Y73152D02*
D03*
Y75692D02*
D03*
Y78232D02*
D03*
Y80772D02*
D03*
D109*
X5555Y48514D02*
D03*
Y35814D02*
D03*
D110*
X8095Y38608D02*
D03*
D111*
X9873Y39624D02*
D03*
X8095Y40640D02*
D03*
X9873Y41656D02*
D03*
X8095Y42672D02*
D03*
X9873Y43688D02*
D03*
X8095Y44704D02*
D03*
X9873Y45720D02*
D03*
D120*
X57988Y32893D02*
X60808D01*
X56903Y33977D02*
X57988Y32893D01*
X56903Y33977D02*
Y35643D01*
X56972Y35712D01*
D121*
X11430Y83058D02*
X11557Y83185D01*
Y93421D01*
X10541Y80645D02*
Y95123D01*
X28448Y93447D02*
Y98171D01*
Y93447D02*
X28473Y93421D01*
X33528Y93447D02*
X33553Y93421D01*
X33528Y93447D02*
Y97282D01*
D122*
X68656Y39751D02*
X72033Y43128D01*
Y55753D01*
D123*
X73914Y48641D02*
X75819Y46736D01*
Y28092D02*
Y46736D01*
X73914Y48641D02*
Y48768D01*
X32258Y48895D02*
Y52832D01*
X40386Y40266D02*
Y55678D01*
X28067Y40132D02*
X40252D01*
X40386Y40266D01*
X37846Y42425D02*
Y55678D01*
X28067Y42291D02*
X37712D01*
X37846Y42425D01*
X21336Y22225D02*
Y22311D01*
X21819Y22794D01*
Y89408D01*
X84412Y31242D02*
Y47901D01*
X45974Y47752D02*
Y50800D01*
X18791Y19815D02*
Y24133D01*
D124*
X64402Y27000D02*
X65939Y28538D01*
Y35306D01*
X85199Y21599D02*
Y25083D01*
X84074Y19144D02*
X84082Y19152D01*
Y25900D01*
X84090Y25908D01*
D125*
X66736Y13142D02*
Y33927D01*
X82982Y33960D02*
Y53340D01*
X64402Y24460D02*
X66726D01*
X66802Y87376D02*
X68961D01*
X50000Y34721D02*
Y37288D01*
X66548Y87122D02*
X66802Y87376D01*
X58674Y87122D02*
X66548D01*
X2032Y27940D02*
Y51562D01*
X1282Y23126D02*
X1295Y23114D01*
X1282Y23126D02*
Y50788D01*
X1270Y50800D02*
X1282Y50788D01*
X11320Y39624D02*
X11350Y39653D01*
Y57629D02*
X11379Y57658D01*
X66700Y13106D02*
X66736Y13142D01*
D126*
X55245Y50038D02*
Y51906D01*
X55626Y52287D01*
Y52324D01*
X60706Y45212D02*
Y50038D01*
D127*
X55880Y42545D02*
Y45212D01*
X11350Y39653D02*
Y57629D01*
X9873Y47351D02*
X9889Y47367D01*
Y60208D01*
X9906Y60225D01*
X8095Y46270D02*
X8111Y46286D01*
Y62748D01*
X8128Y62765D01*
D129*
X64402Y24460D02*
D03*
X3302Y15497D02*
D03*
X44450Y43601D02*
D03*
D130*
X64402Y27000D02*
D03*
Y29540D02*
D03*
X18796Y28448D02*
D03*
X16256D02*
D03*
X3302Y20577D02*
D03*
Y18037D02*
D03*
Y23117D02*
D03*
Y25657D02*
D03*
X44450Y38521D02*
D03*
Y41061D02*
D03*
X61595Y20574D02*
D03*
X59055D02*
D03*
D131*
X32512Y3759D02*
D03*
X54356Y28194D02*
D03*
X53340Y45085D02*
D03*
X55880D02*
D03*
X19177Y3683D02*
D03*
X94742Y62255D02*
D03*
Y53391D02*
D03*
X95631Y69088D02*
D03*
Y75692D02*
D03*
X40424Y3742D02*
D03*
D132*
X29972Y3759D02*
D03*
X51816Y28194D02*
D03*
X58420Y45085D02*
D03*
X16637Y3683D02*
D03*
X37884Y3742D02*
D03*
D133*
X28473Y93421D02*
D03*
X33553D02*
D03*
D134*
X95552Y18420D02*
D03*
Y22968D02*
D03*
D135*
X98552Y24869D02*
D03*
Y16519D02*
D03*
D136*
X13716Y28448D02*
D03*
D137*
X16703Y56415D02*
D03*
Y89435D02*
D03*
X68326Y56195D02*
D03*
X35306D02*
D03*
X86565Y56388D02*
D03*
Y89408D02*
D03*
D138*
X94742Y59715D02*
D03*
Y50851D02*
D03*
X95631Y71628D02*
D03*
Y78232D02*
D03*
D139*
X56515Y20574D02*
D03*
D141*
X65939Y35306D02*
D03*
D142*
X54356Y38608D02*
D03*
Y37287D02*
D03*
X55474D02*
D03*
Y38608D02*
D03*
X10566Y95072D02*
D03*
D143*
X60808Y32893D02*
D03*
X56998Y35738D02*
D03*
X32258Y48895D02*
D03*
X45974Y50800D02*
D03*
X32258Y52832D02*
D03*
D144*
X57658Y34290D02*
D03*
X20320Y97282D02*
D03*
X55499Y35814D02*
D03*
X12446Y6731D02*
D03*
X9398Y93091D02*
D03*
X56896Y73152D02*
D03*
X5385Y52578D02*
D03*
X5461Y56744D02*
D03*
X55245Y50038D02*
D03*
X55626Y52324D02*
D03*
X55880Y42545D02*
D03*
X98654Y45060D02*
D03*
X50000Y37288D02*
D03*
X36068Y12827D02*
D03*
X75819Y28092D02*
D03*
X75717Y26619D02*
D03*
X84328Y28575D02*
D03*
X86741Y31242D02*
D03*
Y24003D02*
D03*
X96774Y17526D02*
D03*
Y23876D02*
D03*
X81788Y38354D02*
D03*
X9398Y97282D02*
D03*
X2286Y53340D02*
D03*
Y57912D02*
D03*
X20320Y92456D02*
D03*
X18796D02*
D03*
X20320Y53340D02*
D03*
X18542D02*
D03*
X82677Y92710D02*
D03*
X95174Y45110D02*
D03*
X92246Y44958D02*
D03*
X94194Y41210D02*
D03*
X92246Y42672D02*
D03*
X85199Y37084D02*
D03*
X85344Y41656D02*
D03*
X81578Y39911D02*
D03*
X77978Y41061D02*
D03*
Y38675D02*
D03*
X73914D02*
D03*
Y41061D02*
D03*
X52705Y40132D02*
D03*
X51079Y36322D02*
D03*
X48554Y36875D02*
D03*
X50000Y34721D02*
D03*
X45974Y47752D02*
D03*
X84412Y31242D02*
D03*
D145*
X11557Y93421D02*
D03*
X28448Y98171D02*
D03*
X66736Y33927D02*
D03*
X82982Y33960D02*
D03*
X33528Y97282D02*
D03*
X10541Y80645D02*
D03*
X11430Y83058D02*
D03*
X28067Y42291D02*
D03*
Y40132D02*
D03*
X21819Y89408D02*
D03*
X21336Y22225D02*
D03*
X2032Y51562D02*
D03*
Y27940D02*
D03*
X1270Y50800D02*
D03*
X1295Y23114D02*
D03*
X9873Y47351D02*
D03*
X34229Y27915D02*
D03*
X23241Y32715D02*
D03*
X11379Y57658D02*
D03*
X8128Y62765D02*
D03*
X9906Y60225D02*
D03*
X8095Y46270D02*
D03*
X11320Y39624D02*
D03*
X92126Y55677D02*
D03*
X90449Y48057D02*
D03*
X40386Y55678D02*
D03*
X70891Y7366D02*
D03*
X59753Y12058D02*
D03*
X82982Y53340D02*
D03*
X66700Y13106D02*
D03*
X37846Y55678D02*
D03*
X93980Y22503D02*
D03*
X85199Y21599D02*
D03*
X84090Y25908D02*
D03*
X85199Y25083D02*
D03*
X84074Y19144D02*
D03*
D146*
X68656Y39751D02*
D03*
X73914Y48768D02*
D03*
X72033Y55753D02*
D03*
X68961Y87376D02*
D03*
X68326Y85344D02*
D03*
X45085Y86868D02*
D03*
X63602Y43002D02*
D03*
X58674Y87122D02*
D03*
X62484Y90379D02*
D03*
X65278Y90252D02*
D03*
X54991Y86850D02*
D03*
X84412Y47901D02*
D03*
X71362Y29464D02*
D03*
X18791Y15405D02*
D03*
X9691D02*
D03*
X12954Y22313D02*
D03*
X87376Y16002D02*
D03*
X68326Y82296D02*
D03*
X29602Y9586D02*
D03*
X38746Y20828D02*
D03*
Y24155D02*
D03*
X40945D02*
D03*
X52540Y15566D02*
D03*
X60706Y50038D02*
D03*
Y45212D02*
D03*
X64780Y9368D02*
D03*
X18791Y24133D02*
D03*
Y19815D02*
D03*
X28133Y29999D02*
D03*
D147*
X95000Y4858D02*
D03*
X5000Y5000D02*
D03*
X95000Y95000D02*
D03*
X5000D02*
D03*
M02*
