G04*
G04 #@! TF.GenerationSoftware,Altium Limited,Altium Designer,23.7.1 (13)*
G04*
G04 Layer_Physical_Order=1*
G04 Layer_Color=255*
%FSLAX44Y44*%
%MOMM*%
G71*
G04*
G04 #@! TF.SameCoordinates,8069B4C8-0706-43A3-9A5C-337C007DADD0*
G04*
G04*
G04 #@! TF.FilePolarity,Positive*
G04*
G01*
G75*
%ADD11C,0.3810*%
%ADD13C,0.5080*%
%ADD18R,1.4082X0.8221*%
G04:AMPARAMS|DCode=19|XSize=1.4082mm|YSize=0.8221mm|CornerRadius=0.4111mm|HoleSize=0mm|Usage=FLASHONLY|Rotation=0.000|XOffset=0mm|YOffset=0mm|HoleType=Round|Shape=RoundedRectangle|*
%AMROUNDEDRECTD19*
21,1,1.4082,0.0000,0,0,0.0*
21,1,0.5861,0.8221,0,0,0.0*
1,1,0.8221,0.2930,0.0000*
1,1,0.8221,-0.2930,0.0000*
1,1,0.8221,-0.2930,0.0000*
1,1,0.8221,0.2930,0.0000*
%
%ADD19ROUNDEDRECTD19*%
%ADD20R,1.8000X0.6000*%
%ADD21R,4.2000X2.6000*%
%ADD22R,2.6000X4.2000*%
%ADD23R,1.5000X1.4000*%
%ADD24R,1.1500X1.4500*%
%ADD30C,1.5240*%
%ADD31C,3.2500*%
%ADD32R,1.3900X1.3900*%
%ADD33C,1.3900*%
%ADD36C,0.2286*%
%ADD37C,1.7780*%
%ADD38C,2.5400*%
%ADD39C,1.2700*%
%ADD40C,0.7620*%
%ADD41C,2.0320*%
%ADD42C,2.5000*%
%ADD43C,3.0000*%
%ADD44C,0.9000*%
G36*
X469900Y287020D02*
X419100Y287020D01*
Y285582D01*
X415939Y284823D01*
X410701Y282653D01*
X405867Y279691D01*
X401555Y276008D01*
X399603Y273723D01*
X398778Y272795D01*
X397806Y272075D01*
X397177Y271655D01*
X395388Y271299D01*
X395239Y271329D01*
X388022D01*
X386335Y272456D01*
X383950Y272930D01*
X378090D01*
X375705Y272456D01*
X373684Y271105D01*
X372333Y269084D01*
X371859Y266700D01*
X372333Y264316D01*
X373684Y262295D01*
X375705Y260944D01*
X378090Y260470D01*
X383950D01*
X386335Y260944D01*
X388022Y262071D01*
X395239D01*
Y262038D01*
X398940Y262525D01*
X402387Y263953D01*
X404874Y265861D01*
X405348Y266225D01*
Y266225D01*
X405349Y266225D01*
X406119Y267175D01*
X408086Y269478D01*
X411295Y272219D01*
X414894Y274424D01*
X417830Y275641D01*
X419100Y274792D01*
Y260663D01*
X417830Y260495D01*
X417537Y261589D01*
X416681Y263071D01*
X415471Y264281D01*
X413989Y265137D01*
X412336Y265580D01*
X410624D01*
X408971Y265137D01*
X407489Y264281D01*
X406279Y263071D01*
X405423Y261589D01*
X404980Y259936D01*
Y258224D01*
X405423Y256571D01*
X406279Y255089D01*
X406851Y254517D01*
Y251380D01*
X405720D01*
Y241380D01*
X407311D01*
Y236436D01*
X407346Y236262D01*
X406956Y234302D01*
X405845Y232640D01*
X405698Y232541D01*
X405577Y232360D01*
X403679Y231092D01*
X401440Y230646D01*
X401226Y230689D01*
X388022D01*
X386335Y231816D01*
X383950Y232290D01*
X378090D01*
X375705Y231816D01*
X373684Y230466D01*
X372333Y228444D01*
X371859Y226060D01*
X372333Y223676D01*
X373684Y221654D01*
X375705Y220304D01*
X378090Y219830D01*
X383950D01*
X386335Y220304D01*
X388022Y221431D01*
X401226D01*
X401365Y221459D01*
X404263Y221744D01*
X407183Y222630D01*
X409875Y224069D01*
X412126Y225916D01*
X412244Y225995D01*
X412271Y225968D01*
X414623Y229034D01*
X416102Y232605D01*
X416607Y236436D01*
X416569D01*
Y241380D01*
X419100D01*
Y103049D01*
X417831Y103046D01*
Y103046D01*
X415377Y102723D01*
X413090Y101776D01*
X411127Y100269D01*
X409620Y98305D01*
X408673Y96019D01*
X408350Y93565D01*
X408350D01*
X408187Y92362D01*
X407941Y91125D01*
X406559Y89057D01*
X404491Y87675D01*
X402232Y87226D01*
X402051Y87261D01*
X383063D01*
Y98280D01*
X337063D01*
Y68280D01*
X383063D01*
Y79299D01*
X402051D01*
Y79253D01*
X405755Y79740D01*
X406735Y80146D01*
X407515Y79094D01*
X405932Y77166D01*
X404247Y74012D01*
X403209Y70591D01*
X402858Y67032D01*
X402870D01*
Y50781D01*
X402887Y50696D01*
X402584Y48401D01*
X401665Y46182D01*
X400204Y44277D01*
X398299Y42816D01*
X396081Y41897D01*
X393785Y41595D01*
X393700Y41611D01*
X383063D01*
Y52630D01*
X337063D01*
Y22630D01*
X383063D01*
Y33649D01*
X393700D01*
Y33642D01*
X397044Y33972D01*
X400259Y34947D01*
X403222Y36531D01*
X405819Y38662D01*
X407950Y41259D01*
X409534Y44222D01*
X410509Y47438D01*
X410839Y50781D01*
X410833D01*
Y67032D01*
X410810Y67146D01*
X411146Y69699D01*
X412175Y72184D01*
X413813Y74318D01*
X415947Y75956D01*
X417830Y76736D01*
X419100Y75994D01*
Y61258D01*
X419077Y61203D01*
X418376Y57677D01*
Y54082D01*
X419077Y50557D01*
X419100Y50502D01*
Y3334D01*
X165100D01*
X165100Y3334D01*
Y3334D01*
X163849Y3379D01*
X159004Y3697D01*
X153012Y4888D01*
X147227Y6852D01*
X141749Y9554D01*
X136669Y12948D01*
X132076Y16976D01*
X128048Y21569D01*
X124654Y26648D01*
X121952Y32127D01*
X119988Y37912D01*
X118797Y43904D01*
X118409Y49815D01*
X118447Y50005D01*
Y424180D01*
X469900D01*
Y287020D01*
D02*
G37*
G36*
X823461Y306839D02*
X729181D01*
X729109Y306825D01*
X729036Y306834D01*
X728912Y306800D01*
X728784Y306800D01*
X728598Y306723D01*
X728400Y306684D01*
X728375Y306667D01*
X728375Y306667D01*
X728274Y306625D01*
X728269Y306624D01*
X728267Y306622D01*
X728263Y306621D01*
X728121Y306526D01*
X728048Y306496D01*
X728024Y306479D01*
X727968Y306423D01*
X727601Y306179D01*
X727357Y305813D01*
X727301Y305758D01*
X727285Y305732D01*
X727272Y305702D01*
X727250Y305679D01*
X727227Y305619D01*
X727159Y305517D01*
X727113Y305405D01*
X727113Y305405D01*
X727096Y305380D01*
X727057Y305183D01*
X726980Y304997D01*
Y304965D01*
X726969Y304935D01*
X726969Y304934D01*
X726974Y304765D01*
X726941Y304599D01*
Y103639D01*
X592021D01*
X591949Y103625D01*
X591876Y103634D01*
X591752Y103600D01*
X591624Y103600D01*
X591438Y103523D01*
X591241Y103484D01*
X591216Y103467D01*
X591215Y103467D01*
X591114Y103425D01*
X591109Y103424D01*
X591107Y103422D01*
X591103Y103421D01*
X590961Y103326D01*
X590888Y103296D01*
X590863Y103279D01*
X590808Y103223D01*
X590441Y102979D01*
X590197Y102613D01*
X590141Y102557D01*
X590125Y102532D01*
X590112Y102502D01*
X590090Y102479D01*
X590067Y102419D01*
X589999Y102317D01*
X589953Y102205D01*
X589953Y102205D01*
X589936Y102179D01*
X589897Y101983D01*
X589820Y101797D01*
Y101765D01*
X589809Y101735D01*
X589809Y101734D01*
X589814Y101565D01*
X589781Y101399D01*
Y3334D01*
X508000D01*
Y74193D01*
X509270Y74719D01*
X509871Y74118D01*
X511911Y72940D01*
X514188Y72330D01*
X516544D01*
X518821Y72940D01*
X520861Y74118D01*
X522528Y75785D01*
X523706Y77825D01*
X524316Y80102D01*
Y82458D01*
X523706Y84735D01*
X522528Y86775D01*
X520861Y88442D01*
X518821Y89620D01*
X516544Y90230D01*
X514188D01*
X511911Y89620D01*
X509871Y88442D01*
X509270Y87841D01*
X508000Y88367D01*
Y90543D01*
X508661Y90720D01*
X510701Y91898D01*
X512368Y93565D01*
X513546Y95605D01*
X514156Y97882D01*
Y100238D01*
X513546Y102515D01*
X512368Y104555D01*
X510701Y106222D01*
X508661Y107400D01*
X508411Y107467D01*
Y190340D01*
X508383Y190480D01*
X508796Y194678D01*
X510062Y198850D01*
X512117Y202694D01*
X514882Y206064D01*
X518252Y208829D01*
X522096Y210884D01*
X526268Y212150D01*
X530466Y212563D01*
X530606Y212535D01*
X552647D01*
X553101Y211749D01*
X554312Y210539D01*
X555794Y209683D01*
X557447Y209240D01*
X559158D01*
X560812Y209683D01*
X562294Y210539D01*
X563504Y211749D01*
X564360Y213231D01*
X564803Y214884D01*
Y216596D01*
X564360Y218249D01*
X563504Y219731D01*
X562294Y220941D01*
X560812Y221797D01*
X559158Y222240D01*
X558303D01*
Y424180D01*
X823461D01*
Y306839D01*
D02*
G37*
G36*
X927100Y682428D02*
Y682428D01*
X927137Y682463D01*
X933196Y682066D01*
X939188Y680874D01*
X944973Y678910D01*
X950452Y676208D01*
X955531Y672814D01*
X960124Y668786D01*
X964152Y664193D01*
X967546Y659113D01*
X970248Y653634D01*
X972212Y647850D01*
X973403Y641858D01*
X973794Y635902D01*
X973766Y635762D01*
Y50000D01*
X973794Y49859D01*
X973403Y43904D01*
X972212Y37912D01*
X970248Y32127D01*
X967546Y26648D01*
X964152Y21569D01*
X960124Y16976D01*
X955531Y12948D01*
X950452Y9554D01*
X944973Y6852D01*
X939188Y4888D01*
X933196Y3697D01*
X927240Y3306D01*
X927100Y3334D01*
X591820D01*
Y101399D01*
X591820Y101399D01*
X591837Y101424D01*
X591883Y101537D01*
X591996Y101583D01*
X592021Y101600D01*
X592021Y101600D01*
X728980D01*
Y304599D01*
X728980Y304599D01*
X728997Y304624D01*
X729043Y304737D01*
X729156Y304783D01*
X729181Y304800D01*
X729181Y304800D01*
X825500D01*
Y426720D01*
X698500D01*
Y682466D01*
X926909D01*
X927100Y682428D01*
D02*
G37*
%LPC*%
G36*
X304260Y345739D02*
Y337280D01*
X312719D01*
X312156Y339379D01*
X310758Y341801D01*
X308781Y343778D01*
X306359Y345176D01*
X304260Y345739D01*
D02*
G37*
G36*
X209040Y359280D02*
X195040D01*
Y337280D01*
X209040D01*
Y359280D01*
D02*
G37*
G36*
X300260Y345739D02*
X298161Y345176D01*
X295739Y343778D01*
X293762Y341801D01*
X292364Y339379D01*
X291801Y337280D01*
X300260D01*
Y345739D01*
D02*
G37*
G36*
X191040Y359280D02*
X177040D01*
Y337280D01*
X191040D01*
Y359280D01*
D02*
G37*
G36*
X438880Y345739D02*
Y337280D01*
X447339D01*
X446776Y339379D01*
X445378Y341801D01*
X443401Y343778D01*
X440979Y345176D01*
X438880Y345739D01*
D02*
G37*
G36*
X434880Y345739D02*
X432781Y345176D01*
X430359Y343778D01*
X428382Y341801D01*
X426984Y339379D01*
X426421Y337280D01*
X434880D01*
Y345739D01*
D02*
G37*
G36*
X379726Y344900D02*
X377193D01*
X374747Y344244D01*
X372553Y342978D01*
X370762Y341187D01*
X369496Y338993D01*
X368840Y336547D01*
Y334013D01*
X369496Y331567D01*
X370762Y329373D01*
X372553Y327582D01*
X374747Y326316D01*
X377193Y325660D01*
X379726D01*
X382173Y326316D01*
X384367Y327582D01*
X386158Y329373D01*
X387424Y331567D01*
X388080Y334013D01*
Y336547D01*
X387424Y338993D01*
X386158Y341187D01*
X384367Y342978D01*
X382173Y344244D01*
X379726Y344900D01*
D02*
G37*
G36*
X434880Y333280D02*
X426421D01*
X426984Y331181D01*
X428382Y328759D01*
X430359Y326782D01*
X432781Y325384D01*
X434880Y324821D01*
Y333280D01*
D02*
G37*
G36*
X312719Y333280D02*
X304260D01*
Y324821D01*
X306359Y325384D01*
X308781Y326782D01*
X310758Y328759D01*
X312156Y331181D01*
X312719Y333280D01*
D02*
G37*
G36*
X300260D02*
X291801D01*
X292364Y331181D01*
X293762Y328759D01*
X295739Y326782D01*
X298161Y325384D01*
X300260Y324821D01*
Y333280D01*
D02*
G37*
G36*
X447339Y333280D02*
X438880D01*
Y324821D01*
X440979Y325384D01*
X443401Y326782D01*
X445378Y328759D01*
X446776Y331181D01*
X447339Y333280D01*
D02*
G37*
G36*
X304260Y320339D02*
Y311880D01*
X312719D01*
X312156Y313979D01*
X310758Y316401D01*
X308781Y318378D01*
X306359Y319776D01*
X304260Y320339D01*
D02*
G37*
G36*
X300260D02*
X298161Y319776D01*
X295739Y318378D01*
X293762Y316401D01*
X292364Y313979D01*
X291801Y311880D01*
X300260D01*
Y320339D01*
D02*
G37*
G36*
X438880Y320339D02*
Y311880D01*
X447339D01*
X446776Y313979D01*
X445378Y316401D01*
X443401Y318378D01*
X440979Y319776D01*
X438880Y320339D01*
D02*
G37*
G36*
X434880Y320339D02*
X432781Y319776D01*
X430359Y318378D01*
X428382Y316401D01*
X426984Y313979D01*
X426421Y311880D01*
X434880D01*
Y320339D01*
D02*
G37*
G36*
X209040Y333280D02*
X195040D01*
Y311280D01*
X209040D01*
Y333280D01*
D02*
G37*
G36*
X191040D02*
X177040D01*
Y311280D01*
X191040D01*
Y333280D01*
D02*
G37*
G36*
X379726Y319500D02*
X377193D01*
X374747Y318844D01*
X372553Y317578D01*
X370762Y315787D01*
X369496Y313593D01*
X368840Y311147D01*
Y308613D01*
X369496Y306167D01*
X370762Y303973D01*
X372553Y302182D01*
X374747Y300916D01*
X377193Y300260D01*
X379726D01*
X382173Y300916D01*
X384367Y302182D01*
X386158Y303973D01*
X387424Y306167D01*
X388080Y308613D01*
Y311147D01*
X387424Y313593D01*
X386158Y315787D01*
X384367Y317578D01*
X382173Y318844D01*
X379726Y319500D01*
D02*
G37*
G36*
X434880Y307880D02*
X426421D01*
X426984Y305781D01*
X428382Y303359D01*
X430359Y301382D01*
X432781Y299984D01*
X434880Y299421D01*
Y307880D01*
D02*
G37*
G36*
X312719Y307880D02*
X304260D01*
Y299421D01*
X306359Y299984D01*
X308781Y301382D01*
X310758Y303359D01*
X312156Y305781D01*
X312719Y307880D01*
D02*
G37*
G36*
X300260D02*
X291801D01*
X292364Y305781D01*
X293762Y303359D01*
X295739Y301382D01*
X298161Y299984D01*
X300260Y299421D01*
Y307880D01*
D02*
G37*
G36*
X447339Y307880D02*
X438880D01*
Y299421D01*
X440979Y299984D01*
X443401Y301382D01*
X445378Y303359D01*
X446776Y305781D01*
X447339Y307880D01*
D02*
G37*
G36*
X355461Y273811D02*
X347420D01*
Y268700D01*
X355461D01*
Y273811D01*
D02*
G37*
G36*
X343420D02*
X335379D01*
Y268700D01*
X343420D01*
Y273811D01*
D02*
G37*
G36*
X355461Y264700D02*
X347420D01*
Y259589D01*
X355461D01*
Y264700D01*
D02*
G37*
G36*
X343420D02*
X335379D01*
Y259589D01*
X343420D01*
Y264700D01*
D02*
G37*
G36*
X355461Y233171D02*
X347420D01*
Y228060D01*
X355461D01*
Y233171D01*
D02*
G37*
G36*
X343420D02*
X335379D01*
Y228060D01*
X343420D01*
Y233171D01*
D02*
G37*
G36*
X355461Y224060D02*
X347420D01*
Y218949D01*
X355461D01*
Y224060D01*
D02*
G37*
G36*
X343420D02*
X335379D01*
Y218949D01*
X343420D01*
Y224060D01*
D02*
G37*
G36*
X200120Y203588D02*
Y192500D01*
X211208D01*
X210383Y195580D01*
X208651Y198580D01*
X206200Y201031D01*
X203200Y202763D01*
X200120Y203588D01*
D02*
G37*
G36*
X196120D02*
X193040Y202763D01*
X190040Y201031D01*
X187589Y198580D01*
X185857Y195580D01*
X185032Y192500D01*
X196120D01*
Y203588D01*
D02*
G37*
G36*
X262218Y202660D02*
X259016D01*
X255923Y201831D01*
X253150Y200230D01*
X250886Y197966D01*
X249285Y195194D01*
X248457Y192101D01*
Y188899D01*
X249285Y185806D01*
X250886Y183034D01*
X253150Y180770D01*
X255923Y179169D01*
X259016Y178340D01*
X262218D01*
X265310Y179169D01*
X268083Y180770D01*
X270347Y183034D01*
X271948Y185806D01*
X272777Y188899D01*
Y192101D01*
X271948Y195194D01*
X270347Y197966D01*
X268083Y200230D01*
X265310Y201831D01*
X262218Y202660D01*
D02*
G37*
G36*
X211208Y188500D02*
X200120D01*
Y177412D01*
X203200Y178237D01*
X206200Y179969D01*
X208651Y182420D01*
X210383Y185420D01*
X211208Y188500D01*
D02*
G37*
G36*
X196120D02*
X185032D01*
X185857Y185420D01*
X187589Y182420D01*
X190040Y179969D01*
X193040Y178237D01*
X196120Y177412D01*
Y188500D01*
D02*
G37*
G36*
X232220Y155162D02*
X229018D01*
X225926Y154333D01*
X223153Y152732D01*
X220889Y150468D01*
X219288Y147696D01*
X218459Y144603D01*
Y141401D01*
X219288Y138308D01*
X220889Y135536D01*
X223153Y133272D01*
X225926Y131671D01*
X229018Y130842D01*
X232220D01*
X235313Y131671D01*
X238086Y133272D01*
X240350Y135536D01*
X241951Y138308D01*
X242779Y141401D01*
Y144603D01*
X241951Y147696D01*
X240350Y150468D01*
X238086Y152732D01*
X235313Y154333D01*
X232220Y155162D01*
D02*
G37*
G36*
X166774Y67000D02*
X163426D01*
X160141Y66347D01*
X157048Y65065D01*
X154263Y63205D01*
X151895Y60837D01*
X150035Y58053D01*
X148753Y54959D01*
X148100Y51674D01*
Y48326D01*
X148753Y45041D01*
X150035Y41947D01*
X151895Y39163D01*
X154263Y36795D01*
X157048Y34935D01*
X160141Y33653D01*
X163426Y33000D01*
X166774D01*
X170059Y33653D01*
X173153Y34935D01*
X175937Y36795D01*
X178305Y39163D01*
X180165Y41947D01*
X181447Y45041D01*
X182100Y48326D01*
Y51674D01*
X181447Y54959D01*
X180165Y58053D01*
X178305Y60837D01*
X175937Y63205D01*
X173153Y65065D01*
X170059Y66347D01*
X166774Y67000D01*
D02*
G37*
G36*
X788130Y414186D02*
Y400780D01*
X801536D01*
X801034Y403301D01*
X799866Y406122D01*
X798170Y408661D01*
X796011Y410820D01*
X793472Y412516D01*
X790651Y413684D01*
X788130Y414186D01*
D02*
G37*
G36*
X784130Y414186D02*
X781609Y413684D01*
X778788Y412516D01*
X776249Y410820D01*
X774090Y408661D01*
X772394Y406122D01*
X771226Y403301D01*
X770724Y400780D01*
X784130D01*
Y414186D01*
D02*
G37*
G36*
Y396780D02*
X770724D01*
X771226Y394259D01*
X772394Y391438D01*
X774090Y388899D01*
X776249Y386740D01*
X778788Y385044D01*
X781609Y383876D01*
X784130Y383374D01*
Y396780D01*
D02*
G37*
G36*
X801536D02*
X788130D01*
Y383374D01*
X790651Y383876D01*
X793472Y385044D01*
X796011Y386740D01*
X798170Y388899D01*
X799866Y391438D01*
X801034Y394259D01*
X801536Y396780D01*
D02*
G37*
G36*
X610360Y405000D02*
X596360D01*
Y383000D01*
X610360D01*
Y405000D01*
D02*
G37*
G36*
X592360D02*
X578360D01*
Y383000D01*
X592360D01*
Y405000D01*
D02*
G37*
G36*
X610360Y379000D02*
X596360D01*
Y357000D01*
X610360D01*
Y379000D01*
D02*
G37*
G36*
X592360D02*
X578360D01*
Y357000D01*
X592360D01*
Y379000D01*
D02*
G37*
G36*
X788039Y362480D02*
X784221D01*
X780533Y361492D01*
X777227Y359583D01*
X774527Y356883D01*
X772618Y353577D01*
X771630Y349889D01*
Y346071D01*
X772618Y342383D01*
X774527Y339077D01*
X777227Y336377D01*
X780533Y334468D01*
X784221Y333480D01*
X788039D01*
X791727Y334468D01*
X795033Y336377D01*
X797733Y339077D01*
X799642Y342383D01*
X800630Y346071D01*
Y349889D01*
X799642Y353577D01*
X797733Y356883D01*
X795033Y359583D01*
X791727Y361492D01*
X788039Y362480D01*
D02*
G37*
G36*
X689880Y277220D02*
X674380D01*
Y271952D01*
X652120D01*
Y275540D01*
X633120D01*
Y271014D01*
X630495D01*
X630041Y271801D01*
X628831Y273011D01*
X627349Y273867D01*
X625696Y274310D01*
X623984D01*
X622331Y273867D01*
X620849Y273011D01*
X619639Y271801D01*
X618783Y270319D01*
X618340Y268666D01*
Y266954D01*
X618783Y265301D01*
X619639Y263819D01*
X620849Y262609D01*
X622331Y261753D01*
X623984Y261310D01*
X625696D01*
X627349Y261753D01*
X628831Y262609D01*
X630041Y263819D01*
X630495Y264605D01*
X633120D01*
Y257810D01*
X633120Y257540D01*
X632468Y256540D01*
X632120D01*
Y248540D01*
X653120D01*
Y256540D01*
X652772D01*
X652120Y257540D01*
X652120Y257810D01*
Y263988D01*
X674380D01*
Y258720D01*
X689880D01*
Y277220D01*
D02*
G37*
G36*
X707380D02*
X691880D01*
Y258720D01*
X707380D01*
Y263829D01*
X711073D01*
X711079Y263819D01*
X712289Y262609D01*
X713771Y261753D01*
X715424Y261310D01*
X717136D01*
X718789Y261753D01*
X720271Y262609D01*
X721481Y263819D01*
X722337Y265301D01*
X722780Y266954D01*
Y268666D01*
X722337Y270319D01*
X721481Y271801D01*
X720271Y273011D01*
X718789Y273867D01*
X717136Y274310D01*
X715424D01*
X713771Y273867D01*
X712289Y273011D01*
X711079Y271801D01*
X711073Y271791D01*
X707380D01*
Y277220D01*
D02*
G37*
G36*
X653120Y244540D02*
X644620D01*
Y236540D01*
X653120D01*
Y244540D01*
D02*
G37*
G36*
X640620D02*
X632120D01*
Y236540D01*
X640620D01*
Y244540D01*
D02*
G37*
G36*
X689880Y226420D02*
X674380D01*
Y221152D01*
X652120D01*
Y224740D01*
X633120D01*
Y219105D01*
X630495D01*
X630041Y219891D01*
X628831Y221101D01*
X627349Y221957D01*
X625696Y222400D01*
X623984D01*
X622331Y221957D01*
X620849Y221101D01*
X619639Y219891D01*
X618783Y218409D01*
X618340Y216756D01*
Y215044D01*
X618783Y213391D01*
X619639Y211909D01*
X620849Y210699D01*
X622331Y209843D01*
X623984Y209400D01*
X625696D01*
X627349Y209843D01*
X628831Y210699D01*
X630041Y211909D01*
X630495Y212695D01*
X633120D01*
Y207010D01*
X633120Y206740D01*
X632468Y205740D01*
X632120D01*
Y197740D01*
X653120D01*
Y205740D01*
X652772D01*
X652120Y206740D01*
X652120Y207010D01*
Y213188D01*
X674380D01*
Y207920D01*
X689880D01*
Y226420D01*
D02*
G37*
G36*
X707380D02*
X691880D01*
Y207920D01*
X707380D01*
Y213188D01*
X711073D01*
X711079Y213179D01*
X712289Y211969D01*
X713771Y211113D01*
X715424Y210670D01*
X717136D01*
X718789Y211113D01*
X720271Y211969D01*
X721481Y213179D01*
X722337Y214661D01*
X722780Y216314D01*
Y218026D01*
X722337Y219679D01*
X721481Y221161D01*
X720271Y222371D01*
X718789Y223227D01*
X717136Y223670D01*
X715424D01*
X713771Y223227D01*
X712289Y222371D01*
X711079Y221161D01*
X711073Y221152D01*
X707380D01*
Y226420D01*
D02*
G37*
G36*
X653120Y193740D02*
X644620D01*
Y185740D01*
X653120D01*
Y193740D01*
D02*
G37*
G36*
X640620D02*
X632120D01*
Y185740D01*
X640620D01*
Y193740D01*
D02*
G37*
G36*
X612781Y207880D02*
X566781D01*
Y177880D01*
X585799D01*
Y124460D01*
X585835Y124282D01*
X585440Y120271D01*
X584218Y116243D01*
X582234Y112531D01*
X579563Y109277D01*
X576310Y106607D01*
X572598Y104623D01*
X568570Y103401D01*
X564559Y103006D01*
X564381Y103041D01*
X533562D01*
X532688Y104555D01*
X531021Y106222D01*
X528981Y107400D01*
X526704Y108010D01*
X524348D01*
X522071Y107400D01*
X520031Y106222D01*
X518364Y104555D01*
X517186Y102515D01*
X516576Y100238D01*
Y97882D01*
X517186Y95605D01*
X518364Y93565D01*
X520031Y91898D01*
X522071Y90720D01*
X524348Y90110D01*
X525736D01*
Y83280D01*
X533686D01*
Y91230D01*
X532149D01*
X531623Y92500D01*
X532688Y93565D01*
X533562Y95078D01*
X564381D01*
Y95064D01*
X568979Y95426D01*
X573465Y96503D01*
X577726Y98268D01*
X581659Y100678D01*
X585167Y103674D01*
X588162Y107182D01*
X590573Y111115D01*
X592338Y115376D01*
X593414Y119861D01*
X593776Y124460D01*
X593762D01*
Y177880D01*
X612781D01*
Y207880D01*
D02*
G37*
G36*
X545636Y91230D02*
X537686D01*
Y83280D01*
X545636D01*
Y91230D01*
D02*
G37*
G36*
Y79280D02*
X537686D01*
Y71330D01*
X545636D01*
Y79280D01*
D02*
G37*
G36*
X533686D02*
X525736D01*
Y71330D01*
X533686D01*
Y79280D01*
D02*
G37*
G36*
X565424Y74130D02*
X561828D01*
X558303Y73429D01*
X554981Y72053D01*
X551992Y70056D01*
X549450Y67514D01*
X547453Y64525D01*
X546077Y61203D01*
X545376Y57677D01*
Y54082D01*
X546077Y50557D01*
X547453Y47235D01*
X549450Y44246D01*
X551992Y41704D01*
X554981Y39707D01*
X558303Y38331D01*
X561828Y37630D01*
X565424D01*
X568949Y38331D01*
X572271Y39707D01*
X575260Y41704D01*
X577802Y44246D01*
X579799Y47235D01*
X581175Y50557D01*
X581876Y54082D01*
Y57677D01*
X581175Y61203D01*
X579799Y64525D01*
X577802Y67514D01*
X575260Y70056D01*
X572271Y72053D01*
X568949Y73429D01*
X565424Y74130D01*
D02*
G37*
G36*
X928774Y652096D02*
X925426D01*
X922141Y651443D01*
X919047Y650161D01*
X916263Y648301D01*
X913895Y645933D01*
X912035Y643148D01*
X910753Y640055D01*
X910100Y636770D01*
Y633422D01*
X910753Y630137D01*
X912035Y627043D01*
X913895Y624259D01*
X916263Y621891D01*
X919047Y620031D01*
X922141Y618749D01*
X925426Y618096D01*
X928774D01*
X932059Y618749D01*
X935153Y620031D01*
X937937Y621891D01*
X940305Y624259D01*
X942165Y627043D01*
X943447Y630137D01*
X944100Y633422D01*
Y636770D01*
X943447Y640055D01*
X942165Y643148D01*
X940305Y645933D01*
X937937Y648301D01*
X935153Y650161D01*
X932059Y651443D01*
X928774Y652096D01*
D02*
G37*
G36*
X902460Y539620D02*
X888460D01*
Y517620D01*
X902460D01*
Y539620D01*
D02*
G37*
G36*
X884460D02*
X870460D01*
Y517620D01*
X884460D01*
Y539620D01*
D02*
G37*
G36*
X902460Y513620D02*
X888460D01*
Y491620D01*
X902460D01*
Y513620D01*
D02*
G37*
G36*
X884460D02*
X870460D01*
Y491620D01*
X884460D01*
Y513620D01*
D02*
G37*
G36*
X788130Y464986D02*
Y451580D01*
X801536D01*
X801034Y454101D01*
X799866Y456922D01*
X798170Y459461D01*
X796011Y461620D01*
X793472Y463316D01*
X790651Y464484D01*
X788130Y464986D01*
D02*
G37*
G36*
X784130Y464986D02*
X781609Y464484D01*
X778788Y463316D01*
X776249Y461620D01*
X774090Y459461D01*
X772394Y456922D01*
X771226Y454101D01*
X770724Y451580D01*
X784130D01*
Y464986D01*
D02*
G37*
G36*
Y447580D02*
X770724D01*
X771226Y445059D01*
X772394Y442238D01*
X774090Y439699D01*
X776249Y437540D01*
X778788Y435844D01*
X781609Y434676D01*
X784130Y434174D01*
Y447580D01*
D02*
G37*
G36*
X801536D02*
X788130D01*
Y434174D01*
X790651Y434676D01*
X793472Y435844D01*
X796011Y437540D01*
X798170Y439699D01*
X799866Y442238D01*
X801034Y445059D01*
X801536Y447580D01*
D02*
G37*
G36*
X788039Y282470D02*
X784221D01*
X780533Y281482D01*
X777227Y279573D01*
X774527Y276873D01*
X772618Y273567D01*
X771630Y269879D01*
Y266061D01*
X772618Y262373D01*
X774527Y259067D01*
X777227Y256367D01*
X780533Y254458D01*
X784221Y253470D01*
X788039D01*
X791727Y254458D01*
X795033Y256367D01*
X797733Y259067D01*
X799642Y262373D01*
X800630Y266061D01*
Y269879D01*
X799642Y273567D01*
X797733Y276873D01*
X795033Y279573D01*
X791727Y281482D01*
X788039Y282470D01*
D02*
G37*
G36*
Y231670D02*
X784221D01*
X780533Y230682D01*
X777227Y228773D01*
X774527Y226073D01*
X772618Y222767D01*
X771630Y219079D01*
Y215261D01*
X772618Y211573D01*
X774527Y208267D01*
X777227Y205567D01*
X780533Y203658D01*
X784221Y202670D01*
X788039D01*
X791727Y203658D01*
X795033Y205567D01*
X797733Y208267D01*
X799642Y211573D01*
X800630Y215261D01*
Y219079D01*
X799642Y222767D01*
X797733Y226073D01*
X795033Y228773D01*
X791727Y230682D01*
X788039Y231670D01*
D02*
G37*
G36*
X789309Y149120D02*
X785491D01*
X781803Y148132D01*
X778497Y146223D01*
X775797Y143523D01*
X773888Y140217D01*
X772900Y136529D01*
Y132711D01*
X773888Y129023D01*
X775797Y125717D01*
X778497Y123017D01*
X781803Y121108D01*
X785491Y120120D01*
X789309D01*
X792997Y121108D01*
X796303Y123017D01*
X799003Y125717D01*
X800912Y129023D01*
X801900Y132711D01*
Y136529D01*
X800912Y140217D01*
X799003Y143523D01*
X796303Y146223D01*
X792997Y148132D01*
X789309Y149120D01*
D02*
G37*
G36*
X789400Y99226D02*
Y85820D01*
X802806D01*
X802304Y88341D01*
X801136Y91162D01*
X799440Y93701D01*
X797281Y95860D01*
X794742Y97556D01*
X791921Y98724D01*
X789400Y99226D01*
D02*
G37*
G36*
X785400Y99226D02*
X782879Y98724D01*
X780058Y97556D01*
X777519Y95860D01*
X775360Y93701D01*
X773664Y91162D01*
X772496Y88341D01*
X771994Y85820D01*
X785400D01*
Y99226D01*
D02*
G37*
G36*
Y81820D02*
X771994D01*
X772496Y79299D01*
X773664Y76478D01*
X775360Y73939D01*
X777519Y71780D01*
X780058Y70084D01*
X782879Y68916D01*
X785400Y68414D01*
Y81820D01*
D02*
G37*
G36*
X802806D02*
X789400D01*
Y68414D01*
X791921Y68916D01*
X794742Y70084D01*
X797281Y71780D01*
X799440Y73939D01*
X801136Y76478D01*
X802304Y79299D01*
X802806Y81820D01*
D02*
G37*
G36*
X683990Y75096D02*
Y61690D01*
X697396D01*
X696894Y64211D01*
X695726Y67032D01*
X694030Y69571D01*
X691871Y71730D01*
X689332Y73426D01*
X686511Y74594D01*
X683990Y75096D01*
D02*
G37*
G36*
X679990D02*
X677469Y74594D01*
X674648Y73426D01*
X672109Y71730D01*
X669950Y69571D01*
X668254Y67032D01*
X667086Y64211D01*
X666584Y61690D01*
X679990D01*
Y75096D01*
D02*
G37*
G36*
X633190D02*
Y61690D01*
X646596D01*
X646094Y64211D01*
X644926Y67032D01*
X643230Y69571D01*
X641071Y71730D01*
X638532Y73426D01*
X635711Y74594D01*
X633190Y75096D01*
D02*
G37*
G36*
X629190D02*
X626669Y74594D01*
X623848Y73426D01*
X621309Y71730D01*
X619150Y69571D01*
X617454Y67032D01*
X616286Y64211D01*
X615784Y61690D01*
X629190D01*
Y75096D01*
D02*
G37*
G36*
X697396Y57690D02*
X683990D01*
Y44284D01*
X686511Y44786D01*
X689332Y45954D01*
X691871Y47650D01*
X694030Y49809D01*
X695726Y52348D01*
X696894Y55169D01*
X697396Y57690D01*
D02*
G37*
G36*
X679990D02*
X666584D01*
X667086Y55169D01*
X668254Y52348D01*
X669950Y49809D01*
X672109Y47650D01*
X674648Y45954D01*
X677469Y44786D01*
X679990Y44284D01*
Y57690D01*
D02*
G37*
G36*
X646596D02*
X633190D01*
Y44284D01*
X635711Y44786D01*
X638532Y45954D01*
X641071Y47650D01*
X643230Y49809D01*
X644926Y52348D01*
X646094Y55169D01*
X646596Y57690D01*
D02*
G37*
G36*
X629190D02*
X615784D01*
X616286Y55169D01*
X617454Y52348D01*
X619150Y49809D01*
X621309Y47650D01*
X623848Y45954D01*
X626669Y44786D01*
X629190Y44284D01*
Y57690D01*
D02*
G37*
G36*
X928774Y65575D02*
X925426D01*
X922141Y64922D01*
X919047Y63640D01*
X916263Y61780D01*
X913895Y59412D01*
X912035Y56627D01*
X910753Y53534D01*
X910100Y50249D01*
Y46901D01*
X910753Y43616D01*
X912035Y40522D01*
X913895Y37738D01*
X916263Y35370D01*
X919047Y33510D01*
X922141Y32228D01*
X925426Y31575D01*
X928774D01*
X932059Y32228D01*
X935153Y33510D01*
X937937Y35370D01*
X940305Y37738D01*
X942165Y40522D01*
X943447Y43616D01*
X944100Y46901D01*
Y50249D01*
X943447Y53534D01*
X942165Y56627D01*
X940305Y59412D01*
X937937Y61780D01*
X935153Y63640D01*
X932059Y64922D01*
X928774Y65575D01*
D02*
G37*
G36*
X789309Y47520D02*
X785491D01*
X781803Y46532D01*
X778497Y44623D01*
X775797Y41923D01*
X773888Y38617D01*
X772900Y34929D01*
Y31111D01*
X773888Y27423D01*
X775797Y24117D01*
X778497Y21417D01*
X781803Y19508D01*
X785491Y18520D01*
X789309D01*
X792997Y19508D01*
X796303Y21417D01*
X799003Y24117D01*
X800912Y27423D01*
X801900Y31111D01*
Y34929D01*
X800912Y38617D01*
X799003Y41923D01*
X796303Y44623D01*
X792997Y46532D01*
X789309Y47520D01*
D02*
G37*
%LPD*%
D11*
X564381Y99060D02*
G03*
X589781Y124460I0J25400D01*
G01*
X417831Y99060D02*
G03*
X412336Y93565I0J-5495D01*
G01*
X402051Y83280D02*
G03*
X412336Y93565I0J10285D01*
G01*
X421099Y81280D02*
G03*
X406851Y67032I0J-14248D01*
G01*
X393700Y37630D02*
G03*
X406851Y50781I0J13151D01*
G01*
X525526Y99060D02*
X564381D01*
X589781Y124460D02*
Y192880D01*
X417831Y99060D02*
X464566D01*
X360063Y83280D02*
X402051D01*
X421099Y81280D02*
X474726D01*
X406851Y50781D02*
Y67032D01*
X360063Y37630D02*
X393700D01*
X642620Y266540D02*
X644050Y267970D01*
X682130D01*
X644050Y217170D02*
X682130D01*
X642620Y215740D02*
X644050Y217170D01*
X699630D02*
X716280D01*
X699630Y267970D02*
X699790Y267810D01*
X716280D01*
D13*
X427105Y281940D02*
G03*
X402051Y269522I0J-31481D01*
G01*
X401226Y226060D02*
G03*
X408971Y229268I0J10954D01*
G01*
D02*
G03*
X411940Y236436I-7168J7168D01*
G01*
X395239Y266700D02*
G03*
X402051Y269522I0J9633D01*
G01*
X510446Y335280D02*
G03*
X485046Y309880I0J-25400D01*
G01*
X436720Y222200D02*
G03*
X443180Y215740I6460J0D01*
G01*
X454660Y204260D02*
G03*
X443180Y215740I-11480J0D01*
G01*
X495046Y216314D02*
G03*
X508000Y229268I0J12954D01*
G01*
X495046Y216314D02*
G03*
X482600Y203868I0J-12446D01*
G01*
X427105Y281940D02*
X485046D01*
Y246380D02*
Y281940D01*
Y309880D01*
X411940Y236436D02*
Y246380D01*
X381020Y226060D02*
X401226D01*
X381020Y266700D02*
X395239D01*
X436626Y255880D02*
Y268666D01*
X190500Y515620D02*
X215900D01*
X633120D02*
X657860D01*
X436626Y255880D02*
X436720D01*
X505206Y255880D02*
Y268666D01*
X505046Y255880D02*
X505206D01*
X510446Y335280D02*
X513080D01*
X436720Y222200D02*
Y236880D01*
X454660Y192880D02*
Y204260D01*
X482600Y192880D02*
Y203868D01*
X508000Y229268D02*
Y233680D01*
X500460Y236880D02*
X505046D01*
X500000Y236420D02*
X500460Y236880D01*
X411480Y246840D02*
X411940Y246380D01*
X411480Y246840D02*
Y259080D01*
X491046Y246380D02*
X491506Y246840D01*
X436720Y236880D02*
X442720D01*
X443180Y236420D01*
D18*
X345420Y266700D02*
D03*
Y226060D02*
D03*
D19*
X381020Y266700D02*
D03*
Y226060D02*
D03*
D20*
X505046Y236880D02*
D03*
Y255880D02*
D03*
X485046Y246380D02*
D03*
X416720Y246380D02*
D03*
X436720Y255880D02*
D03*
Y236880D02*
D03*
D21*
X589781Y192880D02*
D03*
X360063Y83280D02*
D03*
Y37630D02*
D03*
D22*
X513080Y515620D02*
D03*
X302260D02*
D03*
X190500D02*
D03*
X633120D02*
D03*
X193040Y335280D02*
D03*
X594360Y381000D02*
D03*
X886460Y515620D02*
D03*
D23*
X642620Y195740D02*
D03*
X642620Y215740D02*
D03*
X642620Y246540D02*
D03*
X642620Y266540D02*
D03*
X454660Y192880D02*
D03*
X454660Y172880D02*
D03*
X482600Y192880D02*
D03*
X482600Y172880D02*
D03*
D24*
X699630Y217170D02*
D03*
X682130D02*
D03*
X699630Y267970D02*
D03*
X682130D02*
D03*
D30*
X436880Y309880D02*
D03*
Y335280D02*
D03*
Y436880D02*
D03*
X513080Y309880D02*
D03*
Y335280D02*
D03*
Y436880D02*
D03*
X302260Y309880D02*
D03*
Y335280D02*
D03*
Y436880D02*
D03*
X378460Y309880D02*
D03*
Y335280D02*
D03*
Y436880D02*
D03*
D31*
X436626Y55880D02*
D03*
X563626D02*
D03*
D32*
X535686Y81280D02*
D03*
D33*
X525526Y99060D02*
D03*
X515366Y81280D02*
D03*
X505206Y99060D02*
D03*
X495046Y81280D02*
D03*
X484886Y99060D02*
D03*
X474726Y81280D02*
D03*
X464566Y99060D02*
D03*
D36*
X474726Y81280D02*
G03*
X474980Y81534I0J254D01*
G01*
X477520Y134620D02*
G03*
X482600Y139700I0J5080D01*
G01*
X477520Y134620D02*
G03*
X474980Y132080I0J-2540D01*
G01*
Y96917D02*
G03*
X474944Y97318I-2286J0D01*
G01*
X474946Y100810D02*
G03*
X474944Y97318I9940J-1750D01*
G01*
X474946Y100810D02*
G03*
X474980Y101203I-2252J394D01*
G01*
X454660Y139700D02*
G03*
X459740Y134620I5080J0D01*
G01*
X464566Y129794D02*
G03*
X459740Y134620I-4826J0D01*
G01*
X530606Y215740D02*
G03*
X505206Y190340I0J-25400D01*
G01*
X642620Y266540D02*
G03*
X641350Y267810I-1270J0D01*
G01*
X464566Y99060D02*
Y129794D01*
X474980Y81534D02*
Y96917D01*
Y101203D02*
Y132080D01*
X482600Y139700D02*
Y172880D01*
X454660Y139700D02*
Y172880D01*
X530606Y215740D02*
X558303D01*
X505206Y99060D02*
Y190340D01*
X624840Y267810D02*
X641350D01*
X636263Y215900D02*
X642620Y215740D01*
X624840Y215900D02*
X636263D01*
X454660Y172880D02*
X454660Y172880D01*
D37*
X436880Y469900D02*
Y507614D01*
X378460Y469900D02*
Y507614D01*
D38*
X431800Y543560D02*
X436859Y507765D01*
X436880Y507614D01*
X378460D02*
X381000Y543560D01*
D39*
X436880Y436880D02*
Y469900D01*
X378460Y436880D02*
Y469900D01*
X436880Y436880D02*
X513080D01*
X431800Y540232D02*
Y543560D01*
X513080Y436880D02*
Y515620D01*
X302260Y436880D02*
Y515620D01*
X378946Y541506D02*
X381000Y543560D01*
X302260Y436880D02*
X378460D01*
D40*
X482600Y192880D02*
X483100D01*
X378460Y335199D02*
Y335280D01*
D41*
X230619Y143002D02*
D03*
X198120Y190500D02*
D03*
X260617Y190500D02*
D03*
D42*
X381000Y543560D02*
D03*
X431800D02*
D03*
X786130Y449580D02*
D03*
Y398780D02*
D03*
Y347980D02*
D03*
Y267970D02*
D03*
Y217170D02*
D03*
X787400Y134620D02*
D03*
Y83820D02*
D03*
Y33020D02*
D03*
X681990Y59690D02*
D03*
X631190D02*
D03*
D43*
X927100Y48575D02*
D03*
X165100Y50000D02*
D03*
X927100Y635096D02*
D03*
X165100Y635040D02*
D03*
D44*
X436626Y268666D02*
D03*
X657860Y515620D02*
D03*
X215900D02*
D03*
X505206Y268666D02*
D03*
X624840Y267810D02*
D03*
Y215900D02*
D03*
X558303Y215740D02*
D03*
X716280Y267810D02*
D03*
Y217170D02*
D03*
X411480Y259080D02*
D03*
M02*
