G04*
G04 #@! TF.GenerationSoftware,Altium Limited,Altium Designer,23.7.1 (13)*
G04*
G04 Layer_Color=8388736*
%FSLAX44Y44*%
%MOMM*%
G71*
G04*
G04 #@! TF.SameCoordinates,8069B4C8-0706-43A3-9A5C-337C007DADD0*
G04*
G04*
G04 #@! TF.FilePolarity,Negative*
G04*
G01*
G75*
%ADD18R,1.4082X0.8221*%
G04:AMPARAMS|DCode=19|XSize=1.4082mm|YSize=0.8221mm|CornerRadius=0.4111mm|HoleSize=0mm|Usage=FLASHONLY|Rotation=0.000|XOffset=0mm|YOffset=0mm|HoleType=Round|Shape=RoundedRectangle|*
%AMROUNDEDRECTD19*
21,1,1.4082,0.0000,0,0,0.0*
21,1,0.5861,0.8221,0,0,0.0*
1,1,0.8221,0.2930,0.0000*
1,1,0.8221,-0.2930,0.0000*
1,1,0.8221,-0.2930,0.0000*
1,1,0.8221,0.2930,0.0000*
%
%ADD19ROUNDEDRECTD19*%
%ADD21R,4.2000X2.6000*%
%ADD22R,2.6000X4.2000*%
%ADD25R,1.9016X0.7016*%
%ADD26R,1.7032X1.6032*%
%ADD27R,1.3532X1.6532*%
%ADD28C,2.2352*%
%ADD29C,2.7032*%
%ADD30C,1.5240*%
%ADD31C,3.2500*%
%ADD32R,1.3900X1.3900*%
%ADD33C,1.3900*%
%ADD34C,3.2032*%
%ADD35C,1.1032*%
D18*
X345420Y266700D02*
D03*
Y226060D02*
D03*
D19*
X381020Y266700D02*
D03*
Y226060D02*
D03*
D21*
X589781Y192880D02*
D03*
X360063Y83280D02*
D03*
Y37630D02*
D03*
D22*
X513080Y515620D02*
D03*
X302260D02*
D03*
X190500D02*
D03*
X633120D02*
D03*
X193040Y335280D02*
D03*
X594360Y381000D02*
D03*
X886460Y515620D02*
D03*
D25*
X505046Y236880D02*
D03*
Y255880D02*
D03*
X485046Y246380D02*
D03*
X416720Y246380D02*
D03*
X436720Y255880D02*
D03*
Y236880D02*
D03*
D26*
X642620Y195740D02*
D03*
X642620Y215740D02*
D03*
X642620Y246540D02*
D03*
X642620Y266540D02*
D03*
X454660Y192880D02*
D03*
X454660Y172880D02*
D03*
X482600Y192880D02*
D03*
X482600Y172880D02*
D03*
D27*
X699630Y217170D02*
D03*
X682130D02*
D03*
X699630Y267970D02*
D03*
X682130D02*
D03*
D28*
X230619Y143002D02*
D03*
X198120Y190500D02*
D03*
X260617Y190500D02*
D03*
D29*
X381000Y543560D02*
D03*
X431800D02*
D03*
X786130Y449580D02*
D03*
Y398780D02*
D03*
Y347980D02*
D03*
Y267970D02*
D03*
Y217170D02*
D03*
X787400Y134620D02*
D03*
Y83820D02*
D03*
Y33020D02*
D03*
X681990Y59690D02*
D03*
X631190D02*
D03*
D30*
X436880Y309880D02*
D03*
Y335280D02*
D03*
Y436880D02*
D03*
X513080Y309880D02*
D03*
Y335280D02*
D03*
Y436880D02*
D03*
X302260Y309880D02*
D03*
Y335280D02*
D03*
Y436880D02*
D03*
X378460Y309880D02*
D03*
Y335280D02*
D03*
Y436880D02*
D03*
D31*
X436626Y55880D02*
D03*
X563626D02*
D03*
D32*
X535686Y81280D02*
D03*
D33*
X525526Y99060D02*
D03*
X515366Y81280D02*
D03*
X505206Y99060D02*
D03*
X495046Y81280D02*
D03*
X484886Y99060D02*
D03*
X474726Y81280D02*
D03*
X464566Y99060D02*
D03*
D34*
X927100Y48575D02*
D03*
X165100Y50000D02*
D03*
X927100Y635096D02*
D03*
X165100Y635040D02*
D03*
D35*
X436626Y268666D02*
D03*
X657860Y515620D02*
D03*
X215900D02*
D03*
X505206Y268666D02*
D03*
X624840Y267810D02*
D03*
Y215900D02*
D03*
X558303Y215740D02*
D03*
X716280Y267810D02*
D03*
Y217170D02*
D03*
X411480Y259080D02*
D03*
M02*
