G04*
G04 #@! TF.GenerationSoftware,Altium Limited,Altium Designer,23.7.1 (13)*
G04*
G04 Layer_Physical_Order=2*
G04 Layer_Color=16711680*
%FSLAX44Y44*%
%MOMM*%
G71*
G04*
G04 #@! TF.SameCoordinates,8069B4C8-0706-43A3-9A5C-337C007DADD0*
G04*
G04*
G04 #@! TF.FilePolarity,Positive*
G04*
G01*
G75*
%ADD11C,0.3810*%
%ADD13C,0.5080*%
%ADD30C,1.5240*%
%ADD31C,3.2500*%
%ADD32R,1.3900X1.3900*%
%ADD33C,1.3900*%
%ADD36C,0.2286*%
%ADD41C,2.0320*%
%ADD42C,2.5000*%
%ADD44C,0.9000*%
%ADD45C,4.3180*%
G36*
X927100Y682428D02*
Y682428D01*
X927137Y682463D01*
X933196Y682066D01*
X939188Y680874D01*
X944973Y678910D01*
X950452Y676208D01*
X955531Y672814D01*
X960124Y668786D01*
X964152Y664193D01*
X967546Y659113D01*
X970248Y653634D01*
X972212Y647850D01*
X973403Y641858D01*
X973794Y635902D01*
X973766Y635762D01*
Y50000D01*
X973794Y49859D01*
X973403Y43904D01*
X972212Y37912D01*
X970248Y32127D01*
X967546Y26648D01*
X964152Y21569D01*
X960124Y16976D01*
X955531Y12948D01*
X950452Y9554D01*
X944973Y6852D01*
X939188Y4888D01*
X933196Y3697D01*
X927240Y3306D01*
X927100Y3334D01*
X165100D01*
X165100Y3334D01*
Y3334D01*
X163849Y3379D01*
X159004Y3697D01*
X153012Y4888D01*
X147227Y6852D01*
X141749Y9554D01*
X136669Y12948D01*
X132076Y16976D01*
X128048Y21569D01*
X124654Y26648D01*
X121952Y32127D01*
X119988Y37912D01*
X118797Y43904D01*
X118409Y49815D01*
X118447Y50005D01*
Y635802D01*
X118411Y635981D01*
X118797Y641858D01*
X119988Y647850D01*
X121952Y653634D01*
X124654Y659113D01*
X128048Y664193D01*
X132076Y668786D01*
X136669Y672814D01*
X141749Y676208D01*
X147227Y678910D01*
X153012Y680874D01*
X159004Y682066D01*
X165063Y682463D01*
X165100Y682428D01*
Y682428D01*
X165291Y682466D01*
X926909D01*
X927100Y682428D01*
D02*
G37*
%LPC*%
G36*
X929423Y658686D02*
X924777D01*
X920219Y657779D01*
X915926Y656001D01*
X912062Y653420D01*
X908776Y650134D01*
X906195Y646270D01*
X904417Y641977D01*
X903510Y637419D01*
Y632773D01*
X904417Y628215D01*
X906195Y623922D01*
X908776Y620058D01*
X912062Y616772D01*
X915926Y614191D01*
X920219Y612413D01*
X924777Y611506D01*
X929423D01*
X933981Y612413D01*
X938274Y614191D01*
X942138Y616772D01*
X945424Y620058D01*
X948005Y623922D01*
X949783Y628215D01*
X950690Y632773D01*
Y637419D01*
X949783Y641977D01*
X948005Y646270D01*
X945424Y650134D01*
X942138Y653420D01*
X938274Y656001D01*
X933981Y657779D01*
X929423Y658686D01*
D02*
G37*
G36*
X167423Y658630D02*
X162777D01*
X158219Y657724D01*
X153926Y655945D01*
X150062Y653364D01*
X146776Y650078D01*
X144195Y646214D01*
X142417Y641921D01*
X141510Y637364D01*
Y632717D01*
X142417Y628159D01*
X144195Y623866D01*
X146776Y620002D01*
X150062Y616717D01*
X153926Y614135D01*
X158219Y612357D01*
X162777Y611450D01*
X167423D01*
X171981Y612357D01*
X176274Y614135D01*
X180138Y616717D01*
X183424Y620002D01*
X186005Y623866D01*
X187783Y628159D01*
X188690Y632717D01*
Y637364D01*
X187783Y641921D01*
X186005Y646214D01*
X183424Y650078D01*
X180138Y653364D01*
X176274Y655945D01*
X171981Y657724D01*
X167423Y658630D01*
D02*
G37*
G36*
X433709Y558060D02*
X429891D01*
X426203Y557072D01*
X422897Y555163D01*
X420197Y552463D01*
X418288Y549157D01*
X417300Y545469D01*
Y541651D01*
X418288Y537963D01*
X420197Y534657D01*
X422897Y531957D01*
X426203Y530048D01*
X429891Y529060D01*
X433709D01*
X437397Y530048D01*
X440703Y531957D01*
X443403Y534657D01*
X445312Y537963D01*
X446300Y541651D01*
Y545469D01*
X445312Y549157D01*
X443403Y552463D01*
X440703Y555163D01*
X437397Y557072D01*
X433709Y558060D01*
D02*
G37*
G36*
X382909D02*
X379091D01*
X375403Y557072D01*
X372097Y555163D01*
X369397Y552463D01*
X367488Y549157D01*
X366500Y545469D01*
Y541651D01*
X367488Y537963D01*
X369397Y534657D01*
X372097Y531957D01*
X375403Y530048D01*
X379091Y529060D01*
X382909D01*
X386597Y530048D01*
X389903Y531957D01*
X392603Y534657D01*
X394512Y537963D01*
X395500Y541651D01*
Y545469D01*
X394512Y549157D01*
X392603Y552463D01*
X389903Y555163D01*
X386597Y557072D01*
X382909Y558060D01*
D02*
G37*
G36*
X788039Y464080D02*
X784221D01*
X780533Y463092D01*
X777227Y461183D01*
X774527Y458483D01*
X772618Y455177D01*
X771630Y451489D01*
Y447671D01*
X772618Y443983D01*
X774527Y440677D01*
X777227Y437977D01*
X780533Y436068D01*
X784221Y435080D01*
X788039D01*
X791727Y436068D01*
X795033Y437977D01*
X797733Y440677D01*
X799642Y443983D01*
X800630Y447671D01*
Y451489D01*
X799642Y455177D01*
X797733Y458483D01*
X795033Y461183D01*
X791727Y463092D01*
X788039Y464080D01*
D02*
G37*
G36*
X514347Y446500D02*
X511814D01*
X509367Y445844D01*
X507173Y444578D01*
X505382Y442787D01*
X504116Y440593D01*
X503460Y438147D01*
Y435614D01*
X504116Y433167D01*
X505382Y430973D01*
X507173Y429182D01*
X509367Y427916D01*
X511814Y427260D01*
X514347D01*
X516793Y427916D01*
X518987Y429182D01*
X520778Y430973D01*
X522044Y433167D01*
X522700Y435614D01*
Y438147D01*
X522044Y440593D01*
X520778Y442787D01*
X518987Y444578D01*
X516793Y445844D01*
X514347Y446500D01*
D02*
G37*
G36*
X438147D02*
X435614D01*
X433167Y445844D01*
X430973Y444578D01*
X429182Y442787D01*
X427916Y440593D01*
X427260Y438147D01*
Y435614D01*
X427916Y433167D01*
X429182Y430973D01*
X430973Y429182D01*
X433167Y427916D01*
X435614Y427260D01*
X438147D01*
X440593Y427916D01*
X442787Y429182D01*
X444578Y430973D01*
X445844Y433167D01*
X446500Y435614D01*
Y438147D01*
X445844Y440593D01*
X444578Y442787D01*
X442787Y444578D01*
X440593Y445844D01*
X438147Y446500D01*
D02*
G37*
G36*
X379726D02*
X377193D01*
X374747Y445844D01*
X372553Y444578D01*
X370762Y442787D01*
X369496Y440593D01*
X368840Y438147D01*
Y435614D01*
X369496Y433167D01*
X370762Y430973D01*
X372553Y429182D01*
X374747Y427916D01*
X377193Y427260D01*
X379726D01*
X382173Y427916D01*
X384367Y429182D01*
X386158Y430973D01*
X387424Y433167D01*
X388080Y435614D01*
Y438147D01*
X387424Y440593D01*
X386158Y442787D01*
X384367Y444578D01*
X382173Y445844D01*
X379726Y446500D01*
D02*
G37*
G36*
X303526D02*
X300993D01*
X298547Y445844D01*
X296353Y444578D01*
X294562Y442787D01*
X293296Y440593D01*
X292640Y438147D01*
Y435614D01*
X293296Y433167D01*
X294562Y430973D01*
X296353Y429182D01*
X298547Y427916D01*
X300993Y427260D01*
X303526D01*
X305973Y427916D01*
X308167Y429182D01*
X309958Y430973D01*
X311224Y433167D01*
X311880Y435614D01*
Y438147D01*
X311224Y440593D01*
X309958Y442787D01*
X308167Y444578D01*
X305973Y445844D01*
X303526Y446500D01*
D02*
G37*
G36*
X788039Y413280D02*
X784221D01*
X780533Y412292D01*
X777227Y410383D01*
X774527Y407683D01*
X772618Y404377D01*
X771630Y400689D01*
Y396871D01*
X772618Y393183D01*
X774527Y389877D01*
X777227Y387177D01*
X780533Y385268D01*
X784221Y384280D01*
X788039D01*
X791727Y385268D01*
X795033Y387177D01*
X797733Y389877D01*
X799642Y393183D01*
X800630Y396871D01*
Y400689D01*
X799642Y404377D01*
X797733Y407683D01*
X795033Y410383D01*
X791727Y412292D01*
X788039Y413280D01*
D02*
G37*
G36*
X788130Y363386D02*
Y349980D01*
X801536D01*
X801034Y352501D01*
X799866Y355322D01*
X798170Y357861D01*
X796011Y360020D01*
X793472Y361716D01*
X790651Y362884D01*
X788130Y363386D01*
D02*
G37*
G36*
X784130Y363386D02*
X781609Y362884D01*
X778788Y361716D01*
X776249Y360020D01*
X774090Y357861D01*
X772394Y355322D01*
X771226Y352501D01*
X770724Y349980D01*
X784130D01*
Y363386D01*
D02*
G37*
G36*
Y345980D02*
X770724D01*
X771226Y343459D01*
X772394Y340638D01*
X774090Y338099D01*
X776249Y335940D01*
X778788Y334244D01*
X781609Y333076D01*
X784130Y332574D01*
Y345980D01*
D02*
G37*
G36*
X801536D02*
X788130D01*
Y332574D01*
X790651Y333076D01*
X793472Y334244D01*
X796011Y335940D01*
X798170Y338099D01*
X799866Y340638D01*
X801034Y343459D01*
X801536Y345980D01*
D02*
G37*
G36*
X514347Y344900D02*
X511814D01*
X509367Y344244D01*
X507173Y342978D01*
X505382Y341187D01*
X504116Y338993D01*
X503460Y336547D01*
Y334013D01*
X504116Y331567D01*
X505382Y329373D01*
X507173Y327582D01*
X509367Y326316D01*
X511814Y325660D01*
X514347D01*
X516793Y326316D01*
X518987Y327582D01*
X520778Y329373D01*
X522044Y331567D01*
X522700Y334013D01*
Y336547D01*
X522044Y338993D01*
X520778Y341187D01*
X518987Y342978D01*
X516793Y344244D01*
X514347Y344900D01*
D02*
G37*
G36*
X438147D02*
X435614D01*
X433167Y344244D01*
X430973Y342978D01*
X429182Y341187D01*
X427916Y338993D01*
X427260Y336547D01*
Y334013D01*
X427916Y331567D01*
X429182Y329373D01*
X430973Y327582D01*
X433167Y326316D01*
X435614Y325660D01*
X438147D01*
X440593Y326316D01*
X442787Y327582D01*
X444578Y329373D01*
X445844Y331567D01*
X446500Y334013D01*
Y336547D01*
X445844Y338993D01*
X444578Y341187D01*
X442787Y342978D01*
X440593Y344244D01*
X438147Y344900D01*
D02*
G37*
G36*
X303526D02*
X300993D01*
X298547Y344244D01*
X296353Y342978D01*
X294562Y341187D01*
X293296Y338993D01*
X292640Y336547D01*
Y334013D01*
X293296Y331567D01*
X294562Y329373D01*
X296353Y327582D01*
X298547Y326316D01*
X300993Y325660D01*
X303526D01*
X305973Y326316D01*
X308167Y327582D01*
X309958Y329373D01*
X311224Y331567D01*
X311880Y334013D01*
Y336547D01*
X311224Y338993D01*
X309958Y341187D01*
X308167Y342978D01*
X305973Y344244D01*
X303526Y344900D01*
D02*
G37*
G36*
X515080Y320339D02*
Y311880D01*
X523539D01*
X522976Y313979D01*
X521578Y316401D01*
X519601Y318378D01*
X517179Y319776D01*
X515080Y320339D01*
D02*
G37*
G36*
X380460D02*
Y311880D01*
X388919D01*
X388356Y313979D01*
X386958Y316401D01*
X384981Y318378D01*
X382559Y319776D01*
X380460Y320339D01*
D02*
G37*
G36*
X511080Y320339D02*
X508981Y319776D01*
X506559Y318378D01*
X504582Y316401D01*
X503184Y313979D01*
X502621Y311880D01*
X511080D01*
Y320339D01*
D02*
G37*
G36*
X376460D02*
X374361Y319776D01*
X371939Y318378D01*
X369962Y316401D01*
X368564Y313979D01*
X368001Y311880D01*
X376460D01*
Y320339D01*
D02*
G37*
G36*
X438147Y319500D02*
X435614D01*
X433167Y318844D01*
X430973Y317578D01*
X429182Y315787D01*
X427916Y313593D01*
X427260Y311147D01*
Y308613D01*
X427916Y306167D01*
X429182Y303973D01*
X430973Y302182D01*
X433167Y300916D01*
X435614Y300260D01*
X438147D01*
X440593Y300916D01*
X442787Y302182D01*
X444578Y303973D01*
X445844Y306167D01*
X446500Y308613D01*
Y311147D01*
X445844Y313593D01*
X444578Y315787D01*
X442787Y317578D01*
X440593Y318844D01*
X438147Y319500D01*
D02*
G37*
G36*
X303526D02*
X300993D01*
X298547Y318844D01*
X296353Y317578D01*
X294562Y315787D01*
X293296Y313593D01*
X292640Y311147D01*
Y308613D01*
X293296Y306167D01*
X294562Y303973D01*
X296353Y302182D01*
X298547Y300916D01*
X300993Y300260D01*
X303526D01*
X305973Y300916D01*
X308167Y302182D01*
X309958Y303973D01*
X311224Y306167D01*
X311880Y308613D01*
Y311147D01*
X311224Y313593D01*
X309958Y315787D01*
X308167Y317578D01*
X305973Y318844D01*
X303526Y319500D01*
D02*
G37*
G36*
X511080Y307880D02*
X502621D01*
X503184Y305781D01*
X504582Y303359D01*
X506559Y301382D01*
X508981Y299984D01*
X511080Y299421D01*
Y307880D01*
D02*
G37*
G36*
X376460D02*
X368001D01*
X368564Y305781D01*
X369962Y303359D01*
X371939Y301382D01*
X374361Y299984D01*
X376460Y299421D01*
Y307880D01*
D02*
G37*
G36*
X523539D02*
X515080D01*
Y299421D01*
X517179Y299984D01*
X519601Y301382D01*
X521578Y303359D01*
X522976Y305781D01*
X523539Y307880D01*
D02*
G37*
G36*
X388919D02*
X380460D01*
Y299421D01*
X382559Y299984D01*
X384981Y301382D01*
X386958Y303359D01*
X388356Y305781D01*
X388919Y307880D01*
D02*
G37*
G36*
X788039Y282470D02*
X784221D01*
X780533Y281482D01*
X777227Y279573D01*
X774527Y276873D01*
X772618Y273567D01*
X772164Y271871D01*
X721411D01*
X720271Y273011D01*
X718789Y273867D01*
X717136Y274310D01*
X715424D01*
X713771Y273867D01*
X712289Y273011D01*
X711079Y271801D01*
X710223Y270319D01*
X709780Y268666D01*
Y266954D01*
X710223Y265301D01*
X711079Y263819D01*
X712289Y262609D01*
X713771Y261753D01*
X715424Y261310D01*
X717136D01*
X718789Y261753D01*
X720271Y262609D01*
X721481Y263819D01*
X721533Y263909D01*
X772207D01*
X772618Y262373D01*
X774527Y259067D01*
X777227Y256367D01*
X780533Y254458D01*
X784221Y253470D01*
X788039D01*
X791727Y254458D01*
X795033Y256367D01*
X797733Y259067D01*
X799642Y262373D01*
X800630Y266061D01*
Y269879D01*
X799642Y273567D01*
X797733Y276873D01*
X795033Y279573D01*
X791727Y281482D01*
X788039Y282470D01*
D02*
G37*
G36*
X625696Y274310D02*
X623984D01*
X622331Y273867D01*
X620849Y273011D01*
X619639Y271801D01*
X619185Y271014D01*
X541018D01*
Y271041D01*
X536539Y270689D01*
X532171Y269640D01*
X528020Y267921D01*
X524189Y265573D01*
X520773Y262655D01*
X517855Y259239D01*
X515508Y255408D01*
X513788Y251257D01*
X512740Y246889D01*
X512387Y242410D01*
X512414D01*
Y214931D01*
X512209Y106373D01*
X511035Y105888D01*
X510701Y106222D01*
X508661Y107400D01*
X506384Y108010D01*
X504028D01*
X501751Y107400D01*
X499711Y106222D01*
X498044Y104555D01*
X496866Y102515D01*
X496256Y100238D01*
Y97882D01*
X496866Y95605D01*
X498044Y93565D01*
X499711Y91898D01*
X501751Y90720D01*
X504028Y90110D01*
X506384D01*
X508661Y90720D01*
X510701Y91898D01*
X511008Y92205D01*
X512181Y91718D01*
X512177Y89691D01*
X511911Y89620D01*
X509871Y88442D01*
X508204Y86775D01*
X507026Y84735D01*
X506416Y82458D01*
Y80102D01*
X507026Y77825D01*
X508204Y75785D01*
X509871Y74118D01*
X511911Y72940D01*
X514188Y72330D01*
X516544D01*
X518821Y72940D01*
X520861Y74118D01*
X522528Y75785D01*
X523706Y77825D01*
X524316Y80102D01*
Y82458D01*
X523706Y84735D01*
X522528Y86775D01*
X520861Y88442D01*
X518821Y89620D01*
X518586Y89683D01*
X518590Y91680D01*
X519764Y92165D01*
X520031Y91898D01*
X522071Y90720D01*
X524348Y90110D01*
X525932D01*
X526704Y90110D01*
X526736Y90086D01*
X526736Y89101D01*
Y72330D01*
X544636D01*
Y90230D01*
X530672D01*
X530332Y91500D01*
X531021Y91898D01*
X532688Y93565D01*
X533562Y95078D01*
X698500D01*
X698678Y95114D01*
X702689Y94719D01*
X706717Y93497D01*
X710429Y91513D01*
X713683Y88843D01*
X716353Y85589D01*
X718337Y81877D01*
X719559Y77849D01*
X719954Y73838D01*
X719919Y73660D01*
Y58420D01*
X719904D01*
X720266Y53822D01*
X721343Y49336D01*
X723108Y45075D01*
X725518Y41142D01*
X728514Y37634D01*
X732022Y34638D01*
X735955Y32228D01*
X740216Y30463D01*
X744702Y29386D01*
X749300Y29024D01*
Y29039D01*
X773455D01*
X773888Y27423D01*
X775797Y24117D01*
X778497Y21417D01*
X781803Y19508D01*
X785491Y18520D01*
X789309D01*
X792997Y19508D01*
X796303Y21417D01*
X799003Y24117D01*
X800912Y27423D01*
X801900Y31111D01*
Y34929D01*
X800912Y38617D01*
X799003Y41923D01*
X796303Y44623D01*
X792997Y46532D01*
X789309Y47520D01*
X785491D01*
X781803Y46532D01*
X778497Y44623D01*
X775797Y41923D01*
X773888Y38617D01*
X773455Y37002D01*
X749300D01*
X749122Y36966D01*
X745111Y37361D01*
X741083Y38583D01*
X737371Y40567D01*
X734117Y43237D01*
X731447Y46491D01*
X729463Y50203D01*
X728241Y54231D01*
X727846Y58242D01*
X727881Y58420D01*
Y73660D01*
X727896D01*
X727534Y78259D01*
X726457Y82744D01*
X724692Y87005D01*
X722282Y90938D01*
X719286Y94446D01*
X715778Y97442D01*
X711845Y99852D01*
X707584Y101617D01*
X703099Y102694D01*
X698500Y103056D01*
Y103041D01*
X533562D01*
X532688Y104555D01*
X531021Y106222D01*
X528981Y107400D01*
X526704Y108010D01*
X524348D01*
X522071Y107400D01*
X520031Y106222D01*
X519791Y105982D01*
X518618Y106469D01*
X518823Y214919D01*
X518822Y214922D01*
X518823Y214925D01*
Y242410D01*
X518795Y242550D01*
X519209Y246748D01*
X520474Y250920D01*
X522529Y254764D01*
X525294Y258134D01*
X528664Y260900D01*
X532509Y262954D01*
X536680Y264220D01*
X540878Y264633D01*
X541018Y264605D01*
X619185D01*
X619639Y263819D01*
X620849Y262609D01*
X622331Y261753D01*
X623984Y261310D01*
X625696D01*
X627349Y261753D01*
X628831Y262609D01*
X630041Y263819D01*
X630897Y265301D01*
X631340Y266954D01*
Y268666D01*
X630897Y270319D01*
X630041Y271801D01*
X628831Y273011D01*
X627349Y273867D01*
X625696Y274310D01*
D02*
G37*
G36*
X379726Y344900D02*
X377193D01*
X374747Y344244D01*
X372553Y342978D01*
X370762Y341187D01*
X369496Y338993D01*
X368840Y336547D01*
Y334013D01*
X369496Y331567D01*
X370762Y329373D01*
X372553Y327582D01*
X374747Y326316D01*
X377193Y325660D01*
X379726D01*
X382173Y326316D01*
X384367Y327582D01*
X386158Y329373D01*
X386886Y330634D01*
X390144Y330313D01*
X394053Y329128D01*
X397654Y327202D01*
X400811Y324611D01*
X403402Y321454D01*
X405327Y317853D01*
X406513Y313944D01*
X406893Y310089D01*
X406851Y309880D01*
Y263643D01*
X406279Y263071D01*
X405423Y261589D01*
X404980Y259936D01*
Y258224D01*
X405423Y256571D01*
X406279Y255089D01*
X407489Y253879D01*
X408971Y253023D01*
X410624Y252580D01*
X412336D01*
X413989Y253023D01*
X415471Y253879D01*
X416681Y255089D01*
X417537Y256571D01*
X417980Y258224D01*
Y259936D01*
X417537Y261589D01*
X416681Y263071D01*
X416109Y263643D01*
Y309880D01*
X416113D01*
X415743Y314578D01*
X414643Y319161D01*
X412839Y323515D01*
X410377Y327533D01*
X407316Y331116D01*
X403733Y334177D01*
X399715Y336639D01*
X395361Y338443D01*
X390778Y339543D01*
X386932Y339846D01*
X386158Y341187D01*
X384367Y342978D01*
X382173Y344244D01*
X379726Y344900D01*
D02*
G37*
G36*
X788039Y231670D02*
X784221D01*
X780533Y230682D01*
X777227Y228773D01*
X774527Y226073D01*
X772618Y222767D01*
X772185Y221152D01*
X721487D01*
X721481Y221161D01*
X720271Y222371D01*
X718789Y223227D01*
X717136Y223670D01*
X715424D01*
X713771Y223227D01*
X712289Y222371D01*
X711079Y221161D01*
X710223Y219679D01*
X709780Y218026D01*
Y216314D01*
X710223Y214661D01*
X711079Y213179D01*
X712289Y211969D01*
X713771Y211113D01*
X715424Y210670D01*
X717136D01*
X718789Y211113D01*
X720271Y211969D01*
X721481Y213179D01*
X721487Y213188D01*
X772185D01*
X772618Y211573D01*
X774527Y208267D01*
X777227Y205567D01*
X780533Y203658D01*
X784221Y202670D01*
X788039D01*
X791727Y203658D01*
X795033Y205567D01*
X797733Y208267D01*
X799642Y211573D01*
X800630Y215261D01*
Y219079D01*
X799642Y222767D01*
X797733Y226073D01*
X795033Y228773D01*
X791727Y230682D01*
X788039Y231670D01*
D02*
G37*
G36*
X625696Y222400D02*
X623984D01*
X622331Y221957D01*
X620849Y221101D01*
X619639Y219891D01*
X619177Y219091D01*
X563950Y218958D01*
X563504Y219731D01*
X562294Y220941D01*
X560812Y221797D01*
X559158Y222240D01*
X557447D01*
X555794Y221797D01*
X554312Y220941D01*
X553101Y219731D01*
X552246Y218249D01*
X551803Y216596D01*
Y214884D01*
X552246Y213231D01*
X553101Y211749D01*
X554312Y210539D01*
X555794Y209683D01*
X557447Y209240D01*
X559158D01*
X560812Y209683D01*
X562294Y210539D01*
X563504Y211749D01*
X563966Y212549D01*
X619193Y212682D01*
X619639Y211909D01*
X620849Y210699D01*
X622331Y209843D01*
X623984Y209400D01*
X625696D01*
X627349Y209843D01*
X628831Y210699D01*
X630041Y211909D01*
X630897Y213391D01*
X631340Y215044D01*
Y216756D01*
X630897Y218409D01*
X630041Y219891D01*
X628831Y221101D01*
X627349Y221957D01*
X625696Y222400D01*
D02*
G37*
G36*
X262617Y203588D02*
Y192500D01*
X273705D01*
X272880Y195580D01*
X271147Y198580D01*
X268697Y201031D01*
X265696Y202763D01*
X262617Y203588D01*
D02*
G37*
G36*
X258617Y203588D02*
X255537Y202763D01*
X252536Y201031D01*
X250086Y198580D01*
X248354Y195580D01*
X247528Y192500D01*
X258617D01*
Y203588D01*
D02*
G37*
G36*
X199721Y202660D02*
X196519D01*
X193426Y201831D01*
X190654Y200230D01*
X188390Y197966D01*
X186789Y195194D01*
X185960Y192101D01*
Y188899D01*
X186789Y185806D01*
X188390Y183034D01*
X190654Y180770D01*
X193426Y179169D01*
X196519Y178340D01*
X199721D01*
X202814Y179169D01*
X205586Y180770D01*
X207850Y183034D01*
X209451Y185806D01*
X210280Y188899D01*
Y192101D01*
X209451Y195194D01*
X207850Y197966D01*
X205586Y200230D01*
X202814Y201831D01*
X199721Y202660D01*
D02*
G37*
G36*
X273705Y188500D02*
X262617D01*
Y177412D01*
X265696Y178237D01*
X268697Y179969D01*
X271147Y182420D01*
X272880Y185420D01*
X273705Y188500D01*
D02*
G37*
G36*
X258617D02*
X247528D01*
X248354Y185420D01*
X250086Y182420D01*
X252536Y179969D01*
X255537Y178237D01*
X258617Y177412D01*
Y188500D01*
D02*
G37*
G36*
X232619Y156090D02*
Y145002D01*
X243708D01*
X242882Y148082D01*
X241150Y151082D01*
X238700Y153533D01*
X235699Y155265D01*
X232619Y156090D01*
D02*
G37*
G36*
X228619Y156090D02*
X225540Y155265D01*
X222539Y153533D01*
X220089Y151082D01*
X218356Y148082D01*
X217531Y145002D01*
X228619D01*
Y156090D01*
D02*
G37*
G36*
X789400Y150026D02*
Y136620D01*
X802806D01*
X802304Y139141D01*
X801136Y141962D01*
X799440Y144501D01*
X797281Y146660D01*
X794742Y148356D01*
X791921Y149524D01*
X789400Y150026D01*
D02*
G37*
G36*
X785400Y150026D02*
X782879Y149524D01*
X780058Y148356D01*
X777519Y146660D01*
X775360Y144501D01*
X773664Y141962D01*
X772496Y139141D01*
X771994Y136620D01*
X785400D01*
Y150026D01*
D02*
G37*
G36*
X243708Y141002D02*
X232619D01*
Y129914D01*
X235699Y130739D01*
X238700Y132471D01*
X241150Y134922D01*
X242882Y137922D01*
X243708Y141002D01*
D02*
G37*
G36*
X228619D02*
X217531D01*
X218356Y137922D01*
X220089Y134922D01*
X222539Y132471D01*
X225540Y130739D01*
X228619Y129914D01*
Y141002D01*
D02*
G37*
G36*
X785400Y132620D02*
X771994D01*
X772496Y130099D01*
X773664Y127278D01*
X775360Y124739D01*
X777519Y122580D01*
X780058Y120884D01*
X782879Y119716D01*
X785400Y119214D01*
Y132620D01*
D02*
G37*
G36*
X802806D02*
X789400D01*
Y119214D01*
X791921Y119716D01*
X794742Y120884D01*
X797281Y122580D01*
X799440Y124739D01*
X801136Y127278D01*
X802304Y130099D01*
X802806Y132620D01*
D02*
G37*
G36*
X486886Y108825D02*
Y101060D01*
X494651D01*
X494158Y102901D01*
X492848Y105169D01*
X490995Y107022D01*
X488727Y108332D01*
X486886Y108825D01*
D02*
G37*
G36*
X482886D02*
X481045Y108332D01*
X478777Y107022D01*
X476924Y105169D01*
X475614Y102901D01*
X475121Y101060D01*
X482886D01*
Y108825D01*
D02*
G37*
G36*
X465744Y108010D02*
X463388D01*
X461111Y107400D01*
X459071Y106222D01*
X457404Y104555D01*
X456226Y102515D01*
X455616Y100238D01*
Y97882D01*
X456226Y95605D01*
X457404Y93565D01*
X459071Y91898D01*
X461111Y90720D01*
X463388Y90110D01*
X465744D01*
X468021Y90720D01*
X470061Y91898D01*
X471728Y93565D01*
X472906Y95605D01*
X473516Y97882D01*
Y100238D01*
X472906Y102515D01*
X471728Y104555D01*
X470061Y106222D01*
X468021Y107400D01*
X465744Y108010D01*
D02*
G37*
G36*
X482886Y97060D02*
X475121D01*
X475614Y95219D01*
X476924Y92951D01*
X478777Y91098D01*
X481045Y89788D01*
X482886Y89295D01*
Y97060D01*
D02*
G37*
G36*
X497046Y91045D02*
Y83280D01*
X504811D01*
X504318Y85121D01*
X503008Y87389D01*
X501155Y89242D01*
X498887Y90552D01*
X497046Y91045D01*
D02*
G37*
G36*
X494651Y97060D02*
X486886D01*
Y89295D01*
X487306Y89407D01*
X487963Y88269D01*
X487084Y87389D01*
X485774Y85121D01*
X485281Y83280D01*
X493046D01*
Y91045D01*
X492626Y90933D01*
X491969Y92071D01*
X492848Y92951D01*
X494158Y95219D01*
X494651Y97060D01*
D02*
G37*
G36*
X475904Y90230D02*
X473548D01*
X471271Y89620D01*
X469231Y88442D01*
X467564Y86775D01*
X466386Y84735D01*
X465776Y82458D01*
Y80102D01*
X466386Y77825D01*
X467564Y75785D01*
X469231Y74118D01*
X471271Y72940D01*
X473548Y72330D01*
X475904D01*
X478181Y72940D01*
X480221Y74118D01*
X481888Y75785D01*
X483066Y77825D01*
X483676Y80102D01*
Y82458D01*
X483066Y84735D01*
X481888Y86775D01*
X480221Y88442D01*
X478181Y89620D01*
X475904Y90230D01*
D02*
G37*
G36*
X504811Y79280D02*
X497046D01*
Y71515D01*
X498887Y72008D01*
X501155Y73318D01*
X503008Y75171D01*
X504318Y77439D01*
X504811Y79280D01*
D02*
G37*
G36*
X493046D02*
X485281D01*
X485774Y77439D01*
X487084Y75171D01*
X488937Y73318D01*
X491205Y72008D01*
X493046Y71515D01*
Y79280D01*
D02*
G37*
G36*
X789309Y98320D02*
X785491D01*
X781803Y97332D01*
X778497Y95423D01*
X775797Y92723D01*
X773888Y89417D01*
X772900Y85729D01*
Y81911D01*
X773888Y78223D01*
X775797Y74917D01*
X778497Y72217D01*
X781803Y70308D01*
X785491Y69320D01*
X789309D01*
X792997Y70308D01*
X796303Y72217D01*
X799003Y74917D01*
X800912Y78223D01*
X801900Y81911D01*
Y85729D01*
X800912Y89417D01*
X799003Y92723D01*
X796303Y95423D01*
X792997Y97332D01*
X789309Y98320D01*
D02*
G37*
G36*
X683899Y74190D02*
X680081D01*
X676393Y73202D01*
X673087Y71293D01*
X670387Y68593D01*
X668478Y65287D01*
X667490Y61599D01*
Y57781D01*
X668478Y54093D01*
X670387Y50787D01*
X673087Y48087D01*
X676393Y46178D01*
X680081Y45190D01*
X683899D01*
X687587Y46178D01*
X690893Y48087D01*
X693593Y50787D01*
X695502Y54093D01*
X696490Y57781D01*
Y61599D01*
X695502Y65287D01*
X693593Y68593D01*
X690893Y71293D01*
X687587Y73202D01*
X683899Y74190D01*
D02*
G37*
G36*
X633099D02*
X629281D01*
X625593Y73202D01*
X622287Y71293D01*
X619587Y68593D01*
X617678Y65287D01*
X616690Y61599D01*
Y57781D01*
X617678Y54093D01*
X619587Y50787D01*
X622287Y48087D01*
X625593Y46178D01*
X629281Y45190D01*
X633099D01*
X636787Y46178D01*
X640093Y48087D01*
X642793Y50787D01*
X644702Y54093D01*
X645690Y57781D01*
Y61599D01*
X644702Y65287D01*
X642793Y68593D01*
X640093Y71293D01*
X636787Y73202D01*
X633099Y74190D01*
D02*
G37*
G36*
X565424Y74130D02*
X561828D01*
X558303Y73429D01*
X554981Y72053D01*
X551992Y70056D01*
X549450Y67514D01*
X547453Y64525D01*
X546077Y61203D01*
X545376Y57677D01*
Y54082D01*
X546077Y50557D01*
X547453Y47235D01*
X549450Y44246D01*
X551992Y41704D01*
X554981Y39707D01*
X558303Y38331D01*
X561828Y37630D01*
X565424D01*
X568949Y38331D01*
X572271Y39707D01*
X575260Y41704D01*
X577802Y44246D01*
X579799Y47235D01*
X581175Y50557D01*
X581876Y54082D01*
Y57677D01*
X581175Y61203D01*
X579799Y64525D01*
X577802Y67514D01*
X575260Y70056D01*
X572271Y72053D01*
X568949Y73429D01*
X565424Y74130D01*
D02*
G37*
G36*
X438424D02*
X434828D01*
X431303Y73429D01*
X427981Y72053D01*
X424992Y70056D01*
X422450Y67514D01*
X420453Y64525D01*
X419077Y61203D01*
X418376Y57677D01*
Y54082D01*
X419077Y50557D01*
X420453Y47235D01*
X422450Y44246D01*
X424992Y41704D01*
X427981Y39707D01*
X431303Y38331D01*
X434828Y37630D01*
X438424D01*
X441949Y38331D01*
X445271Y39707D01*
X448260Y41704D01*
X450802Y44246D01*
X452799Y47235D01*
X454175Y50557D01*
X454876Y54082D01*
Y57677D01*
X454175Y61203D01*
X452799Y64525D01*
X450802Y67514D01*
X448260Y70056D01*
X445271Y72053D01*
X441949Y73429D01*
X438424Y74130D01*
D02*
G37*
G36*
X167423Y73590D02*
X162777D01*
X158219Y72683D01*
X153926Y70905D01*
X150062Y68324D01*
X146776Y65038D01*
X144195Y61174D01*
X142417Y56881D01*
X141510Y52323D01*
Y47677D01*
X142417Y43119D01*
X144195Y38826D01*
X146776Y34962D01*
X150062Y31676D01*
X153926Y29095D01*
X158219Y27317D01*
X162777Y26410D01*
X167423D01*
X171981Y27317D01*
X176274Y29095D01*
X180138Y31676D01*
X183424Y34962D01*
X186005Y38826D01*
X187783Y43119D01*
X188690Y47677D01*
Y52323D01*
X187783Y56881D01*
X186005Y61174D01*
X183424Y65038D01*
X180138Y68324D01*
X176274Y70905D01*
X171981Y72683D01*
X167423Y73590D01*
D02*
G37*
G36*
X929423Y72165D02*
X924777D01*
X920219Y71259D01*
X915926Y69480D01*
X912062Y66899D01*
X908776Y63613D01*
X906195Y59749D01*
X904417Y55456D01*
X903510Y50898D01*
Y46252D01*
X904417Y41694D01*
X906195Y37401D01*
X908776Y33537D01*
X912062Y30252D01*
X915926Y27670D01*
X920219Y25892D01*
X924777Y24985D01*
X929423D01*
X933981Y25892D01*
X938274Y27670D01*
X942138Y30252D01*
X945424Y33537D01*
X948005Y37401D01*
X949783Y41694D01*
X950690Y46252D01*
Y50898D01*
X949783Y55456D01*
X948005Y59749D01*
X945424Y63613D01*
X942138Y66899D01*
X938274Y69480D01*
X933981Y71259D01*
X929423Y72165D01*
D02*
G37*
%LPD*%
D11*
X723900Y58420D02*
G03*
X749300Y33020I25400J0D01*
G01*
X723900Y73660D02*
G03*
X698500Y99060I-25400J0D01*
G01*
X525526D02*
X698500D01*
X749300Y33020D02*
X787400D01*
X723900Y58420D02*
Y73660D01*
X786050Y267890D02*
X786130Y267970D01*
X716360Y267890D02*
X786050D01*
X716280Y267810D02*
X716360Y267890D01*
X716280Y217170D02*
X786130D01*
D13*
X411480Y309880D02*
G03*
X386080Y335280I-25400J0D01*
G01*
X378460D02*
X386080D01*
X411480Y259080D02*
Y309880D01*
D30*
X436880D02*
D03*
Y335280D02*
D03*
Y436880D02*
D03*
X513080Y309880D02*
D03*
Y335280D02*
D03*
Y436880D02*
D03*
X302260Y309880D02*
D03*
Y335280D02*
D03*
Y436880D02*
D03*
X378460Y309880D02*
D03*
Y335280D02*
D03*
Y436880D02*
D03*
D31*
X436626Y55880D02*
D03*
X563626D02*
D03*
D32*
X535686Y81280D02*
D03*
D33*
X525526Y99060D02*
D03*
X515366Y81280D02*
D03*
X505206Y99060D02*
D03*
X495046Y81280D02*
D03*
X484886Y99060D02*
D03*
X474726Y81280D02*
D03*
X464566Y99060D02*
D03*
D36*
X541018Y267810D02*
G03*
X515619Y242410I0J-25400D01*
G01*
X541018Y267810D02*
X624840D01*
X515619Y214925D02*
Y242410D01*
X515366Y81280D02*
X515619Y214925D01*
X558303Y215740D02*
X624840Y215900D01*
D41*
X230619Y143002D02*
D03*
X198120Y190500D02*
D03*
X260617Y190500D02*
D03*
D42*
X381000Y543560D02*
D03*
X431800D02*
D03*
X786130Y449580D02*
D03*
Y398780D02*
D03*
Y347980D02*
D03*
Y267970D02*
D03*
Y217170D02*
D03*
X787400Y134620D02*
D03*
Y83820D02*
D03*
Y33020D02*
D03*
X681990Y59690D02*
D03*
X631190D02*
D03*
D44*
X436626Y268666D02*
D03*
X657860Y515620D02*
D03*
X215900D02*
D03*
X505206Y268666D02*
D03*
X624840Y267810D02*
D03*
Y215900D02*
D03*
X558303Y215740D02*
D03*
X716280Y267810D02*
D03*
Y217170D02*
D03*
X411480Y259080D02*
D03*
D45*
X927100Y48575D02*
D03*
X165100Y50000D02*
D03*
X927100Y635096D02*
D03*
X165100Y635040D02*
D03*
M02*
