M48
;Layer_Color=9474304
;FILE_FORMAT=4:3
METRIC,LZ
;TYPE=PLATED
T01F00S00C0.500
T02F00S00C0.890
T03F00S00C1.016
T04F00S00C1.143
T05F00S00C1.295
T06F00S00C1.300
T07F00S00C2.550
;TYPE=NON_PLATED
T08F00S00C3.250
%
T01
X005583Y0021574
X0062484Y002159
Y0026781
X0071628
Y0021717
X0065786Y0051562
X0050521Y0026867
X0043663
X0041148Y0025908
X002159Y0051562
T02
X0047473Y0008128
X0049505
X0050521Y0009906
X0048489
X0046457
X0052553
X0053569Y0008128
X0051537
T03
X0051308Y0030988
Y0033528
Y0043688
X0043688
X0037846
X0030226
Y0033528
Y0030988
X0037846
Y0033528
X0043688
Y0030988
T04
X0023062Y00143
X0026062Y001905
X0019812Y001905
T05
X0063119Y0005969
X0068199
X0078613Y0021717
Y0026797
X004318Y0054356
X00381
T06
X007874Y0003302
Y0008382
Y0013462
X0078613Y0034798
Y0039878
Y0044958
T07
X001651Y0005
X009271Y0004858
X001651Y0063504
X009271Y006351
T08
X0043663Y0005588
X0056363
M30
