M48
;Layer_Color=9474304
;FILE_FORMAT=2:5
INCH,LZ
;TYPE=PLATED
T01F00S00C0.01181
T02F00S00C0.01200
T03F00S00C0.01968
T04F00S00C0.02000
T07F00S00C0.02800
T08F00S00C0.03504
T09F00S00C0.04016
T10F00S00C0.04134
T11F00S00C0.04200
T12F00S00C0.04331
T13F00S00C0.05100
T14F00S00C0.10039
;TYPE=NON_PLATED
T15F00S00C0.07874
T16F00S00C0.12795
%
T01
X0235246Y0047471
X02626Y00516
X02791Y0029
X037Y0088594
X03627Y02192
X03561Y01892
X03267Y021
Y01337
X0331062Y0102
X0335427Y009875
Y0085036
X0331Y0075369
X0262738Y0133572
X0134761Y01099
X00915Y01288
X01105Y0158
Y01665
X0044568Y0156
X0084Y00875
X0149Y0219205
X0159
X0038868Y018642
X0031868Y0182164
X0008Y0203
X0005Y02
X0008Y011
X0005098Y0091
X0039Y0237106
X0032Y0247106
X00415Y03175
X0045Y0327
X00455Y03678
X00859Y0352
X00448Y0227
X0112Y03865
X0132Y0383
T02
X0214Y01468
X02184
Y0152
X0214
X0259602Y0139
X00416Y03743
T03
X0049Y00265
X0142Y00505
X0381Y0069
Y0094
X0370843Y0162245
X0363173Y0168
Y0177
X03747Y01776
X03884Y01774
X0336Y0164
X0335427Y0146
X0322Y0151
X0321173Y015713
X0307Y0161658
Y0152262
X0291
Y0161658
X02985Y01106
X02981Y01048
X0332Y01125
X0332331Y0123
X03415
Y00945
X0227Y0135
X02185Y0141
X02011Y0143
X02075Y0158
X022Y01675
X02175Y0197
X0219Y0206
X0181Y0188
X0191157Y0145176
X019685Y0146804
Y0136697
X008Y021
X0073
X00212Y0207
X0009Y021
X00215Y02234
X0009Y0228
X0037Y03665
X0074Y0364
X008
X0224Y0288
X03255Y0365
X008Y0383
X0037
T04
X02244Y01407
X02394Y01295
X0181Y02
X0127Y01925
Y0208
T07
X0038154Y0060651
X007398
X0116545Y003774
X020685Y0061284
X0255039Y0036881
X0344Y0063
X0280953Y0116
X02703Y01565
X02504Y01693
X0239Y0178
Y0197
X0291Y0192
X0283596Y02195
X0332331Y0188586
X01612Y00951
X0152543
Y0082
X0110761Y0118106
X007398Y009501
Y007801
X0051Y0087847
X01775Y0342
X02165Y0341929
X0231Y0343
X0246Y0355823
X0257Y0355323
X02715Y0344
X0269Y0336
Y0324
T08
X0031868Y0152
Y016
Y0168
Y0176
X0038868Y0172
Y0164
Y0156
Y018
T09
X00655Y00145
X00755
X0118Y00148
X0128
X014915Y0014731
X015915
X0373Y02002
Y02102
X0214Y0111
X0204
X0373Y02351
Y02451
X03765Y0272
Y0282
Y0298
Y0308
T10
X021Y01775
X022
X023
T11
X0018Y02439
Y02539
Y02639
Y02739
X00186Y0288
Y0298
Y0308
Y0318
T12
X0013Y006101
X02225Y0081
X02325
X02425
X025355Y00963
Y01063
Y01163
X0175Y0151658
Y0161658
Y0171658
X0074Y0112
X0064
X0054
X0013Y010101
Y009101
Y008101
Y007101
T13
X01121Y03678
X01321
T14
X0019685Y0019685
X0374016Y0019124
X0019685Y0374016
X0374016
T15
X0269Y022124
X0340808Y0222
X0139Y022124
X006576Y0222106
Y0352106
X0340808Y0352
T16
X0021869Y0141
Y0191
M30
